<svg width="288" height="288" viewBox="0 0 288 288" fill="none" xmlns="http://www.w3.org/2000/svg">
<path d="M42.0565 268.013C98.1319 293.538 189.038 293.538 245.114 268.013C301.189 242.489 301.183 201.054 245.114 175.516C189.045 149.979 98.1319 149.992 42.0565 175.516C-14.0188 201.041 -14.0188 242.489 42.0565 268.013Z" fill="#F5F5F5"/>
<path d="M240.619 233.255C259.093 233.255 274.069 226.117 274.069 217.312C274.069 208.507 259.093 201.369 240.619 201.369C222.145 201.369 207.168 208.507 207.168 217.312C207.168 226.117 222.145 233.255 240.619 233.255Z" fill="#E0E0E0"/>
<path d="M44.583 241.574C63.0571 241.574 78.0332 234.436 78.0332 225.63C78.0332 216.825 63.0571 209.688 44.583 209.688C26.109 209.688 11.1328 216.825 11.1328 225.63C11.1328 234.436 26.109 241.574 44.583 241.574Z" fill="#E0E0E0"/>
<path d="M24.7072 222.253H30.8396V211.755H24.7072V222.253Z" fill="#B16668"/>
<path d="M49.7795 214.308L55.912 214.517L56.2196 203.411L49.7795 203.201V214.308Z" fill="#B16668"/>
<path d="M26.5391 137.315C26.5391 143.166 26.8467 177.094 26.8467 177.094C26.7028 178.776 25.0862 181.773 24.9553 187.84C24.7721 196.637 24.4448 217.01 24.4448 217.01C25.504 217.529 26.6641 217.81 27.8434 217.833C29.0227 217.855 30.1927 217.619 31.271 217.141C31.271 217.141 37.7699 188.168 38.8694 179.476C39.825 171.871 41.4873 151.222 41.4873 151.222L46.1734 176.917C45.4536 180.112 45.187 183.393 45.3815 186.662C45.6694 190.687 49.3999 210.878 49.3999 210.878C50.4686 211.481 51.6567 211.843 52.8803 211.936C54.1039 212.03 55.3332 211.854 56.4814 211.421C56.4814 211.421 56.8479 179.745 56.9133 176.079C56.9984 171.865 55.1593 135.613 55.1593 135.613L26.5391 137.315Z" fill="#37474F"/>
<path d="M30.839 219.229V218.352C31.1663 218.352 31.3692 218.673 31.4935 219.458C31.5806 220.042 31.6985 220.621 31.8469 221.193C32.1215 222.266 32.4804 223.317 32.9203 224.334C33.7842 226.468 34.5106 227.266 36.5002 229.76C37.1787 230.452 37.8147 231.184 38.4048 231.952C38.7713 232.607 38.9022 234.446 38.2739 234.865C35.957 236.409 32.4425 236.455 29.9555 235.722C29.0288 235.464 28.1959 234.945 27.5563 234.227C26.9168 233.509 26.4978 232.621 26.3493 231.671C26.2577 231.101 26.2904 230.525 26.225 229.956C26.0098 228.663 25.4843 227.441 24.6935 226.396C24.2295 225.787 23.8343 225.128 23.5155 224.432C22.9984 223.169 23.4107 221.756 23.738 220.505C24.026 219.419 24.3336 218.228 24.7001 218.333V218.987C25.575 219.672 26.6583 220.037 27.7695 220.021C28.6727 220.093 30.8456 219.91 30.839 219.229Z" fill="#263238"/>
<path d="M55.9775 212.626C56.2916 212.626 56.5534 213.091 57.2864 213.85C58.3356 214.916 59.5542 215.8 60.8926 216.468C63.1898 217.62 67.6533 219.387 69.6691 220.297C70.9322 220.866 70.8733 222.391 69.5709 223.255C68.2685 224.119 65.1139 224.747 61.3376 223.909C59.276 223.451 56.5927 221.547 54.8976 221.651C53.2025 221.756 50.0217 221.73 48.7717 220.866C47.5216 220.002 48.019 218.156 48.3725 216.573C48.7586 214.838 49.2429 212.142 49.8123 212.26V212.855C50.5519 213.974 54.3544 214.426 55.9775 213.608V212.626Z" fill="#263238"/>
<path d="M41.4546 151.223C44.6134 150.23 47.5171 148.56 49.9628 146.328C49.9628 146.328 48.3135 149.41 43.418 152.283L45.7872 175.138L41.4546 151.223Z" fill="#263238"/>
<path d="M51.2005 123.309C47.1951 109.971 47.987 98.6749 47.2344 95.2192L57.5031 109.559C57.9377 114.285 58.6391 118.983 59.6039 123.63C60.7885 128.728 62.4051 135.083 64.3423 139.036C64.6938 139.733 65.2872 140.277 66.0113 140.568C67.9747 141.36 68.8517 142.361 70.4028 143.506C71.6201 144.41 72.5429 144.527 72.4709 144.894C72.3364 145.306 72.0518 145.653 71.6735 145.865C71.2952 146.077 70.851 146.139 70.429 146.039C69.4925 145.843 68.5828 145.535 67.7194 145.123C68.5902 146.601 69.6954 147.927 70.9918 149.05C73.9631 151.635 74.3885 153.461 69.4538 154.358C66.3581 154.927 63.5635 153.441 60.0359 147.014C58.6997 144.675 57.5339 142.243 56.5475 139.737C54.1914 133.192 52.4113 127.347 51.2005 123.309Z" fill="#B16668"/>
<path d="M46.4023 91.9019C49.5896 92.4647 52.7442 93.2108 54.7011 96.2737C56.658 99.3367 59.4853 113.794 59.4853 113.794C59.4853 113.794 55.3752 116.68 50.663 116.556L46.4023 91.9019Z" fill="#101B94"/>
<path opacity="0.1" d="M46.4023 91.9019C49.5896 92.4647 52.7442 93.2108 54.7011 96.2737C56.658 99.3367 59.4853 113.794 59.4853 113.794C59.4853 113.794 55.3752 116.68 50.663 116.556L46.4023 91.9019Z" fill="black"/>
<path d="M24.4376 97.2744C22.2974 98.7993 11.0078 124.298 10.5758 126.071C9.99332 128.486 10.2617 131.189 11.4463 132.066C12.6309 132.943 15.2422 131.687 16.6101 130.352C19.228 127.734 28.3906 108.662 28.3906 108.662L24.4376 97.2744Z" fill="#9A4A4D"/>
<path d="M35.6628 91.9597C30.427 93.2163 23.8823 95.3172 21.5458 100.108C19.2093 104.899 15.6555 112.68 15.6555 112.68C18.0772 115.043 21.031 116.789 24.2684 117.772L26.8863 113.191L26.5002 137.406C30.7215 140.482 46.226 142.158 55.1138 135.666C55.1138 135.666 54.0274 106.633 54.0274 102.111C54.0274 97.5882 51.5142 92.1626 44.5833 91.7568L35.6628 91.9597Z" fill="#101B94"/>
<path opacity="0.1" d="M26.9253 113.133C26.9253 113.133 29.5432 108.611 30.0995 107.518L26.8271 118.644L26.9253 113.133Z" fill="black"/>
<path d="M45.585 80.2056C50.2369 80.2056 54.008 76.4344 54.008 71.7825C54.008 67.1305 50.2369 63.3594 45.585 63.3594C40.933 63.3594 37.1619 67.1305 37.1619 71.7825C37.1619 76.4344 40.933 80.2056 45.585 80.2056Z" fill="#263238"/>
<path d="M31.0156 77.7715C31.0156 77.7715 32.3835 84.1853 32.9332 85.239C33.2964 85.8895 33.8966 86.3748 34.6087 86.5938L34.5171 82.0845L31.0156 77.7715Z" fill="#263238"/>
<path d="M32.7306 68.583C32.2529 68.5284 31.769 68.5832 31.3155 68.743C30.862 68.9029 30.4507 69.1637 30.1128 69.5058C28.9936 70.6511 29.6219 74.2507 31.0159 77.7718L33.588 78.0663L32.7306 68.583Z" fill="#263238"/>
<path d="M34.3603 78.0723C33.8432 78.3799 33.1102 77.3851 32.4754 76.7241C31.8405 76.0631 29.7593 75.1468 28.7252 77.3262C27.6912 79.5056 29.6415 82.49 31.2777 83.0071C34.0919 83.8906 34.5501 82.0843 34.5501 82.0843L34.7529 92.5558C38.2544 97.0455 47.9733 96.6659 43.9156 91.9799V88.8842C45.17 89.0876 46.4428 89.1535 47.7115 89.0806C49.7862 88.7599 51.0886 87.1172 51.7169 84.8854C52.7248 81.2858 53.111 78.3407 52.2536 71.292C51.3177 63.5299 42.2859 63.4383 37.4101 66.5208C32.5343 69.6034 34.3603 78.0723 34.3603 78.0723Z" fill="#B16668"/>
<path d="M34.3601 78.9353C34.0983 78.9353 33.1166 77.3056 32.4752 76.7232C31.5852 75.9116 32.7305 68.5815 32.7305 68.5815C32.4292 67.9403 32.3268 67.2237 32.4364 66.5238C32.5461 65.8239 32.8628 65.1729 33.3457 64.6546C34.563 63.313 36.2647 61.6702 41.7884 62.3247C45.7153 62.7959 50.0217 64.0198 53.4904 62.3247C53.8129 63.4555 53.7894 64.657 53.4232 65.7744C53.0569 66.8918 52.3646 67.874 51.4354 68.5946C51.4354 68.5946 50.1788 69.3996 46.8541 69.8054C43.8011 70.0344 40.7333 69.9752 37.6914 69.6287C36.7359 69.4978 36.533 70.4271 36.016 72.9599C35.6102 75.1524 35.2306 78.9222 34.3601 78.9353Z" fill="#263238"/>
<path d="M32.7374 69.1519L29.6221 67.4765C29.7221 67.2675 29.8634 67.0808 30.0373 66.9277C30.2113 66.7746 30.4143 66.6582 30.6343 66.5855C30.8543 66.5128 31.0868 66.4852 31.3177 66.5045C31.5486 66.5238 31.7733 66.5895 31.9782 66.6976C32.3963 66.9303 32.7086 67.3154 32.85 67.7725C32.9914 68.2297 32.9511 68.7238 32.7374 69.1519Z" fill="#263238"/>
<path d="M43.8829 88.8782C43.8829 88.8782 39.2623 87.9489 37.6458 87.0915C36.6947 86.5954 35.9148 85.8246 35.4075 84.8794C35.6517 85.828 36.0834 86.7182 36.6771 87.4973C37.8617 89.0091 43.8764 90.1152 43.8764 90.1152L43.8829 88.8782Z" fill="#9A4A4D"/>
<path d="M42.7629 76.9074C42.7665 77.158 42.6707 77.3998 42.4966 77.58C42.3225 77.7603 42.0841 77.8643 41.8336 77.8695C41.5859 77.8593 41.3519 77.7532 41.1809 77.5737C41.0099 77.3942 40.9154 77.1553 40.9173 76.9074C40.9138 76.6568 41.0096 76.415 41.1837 76.2348C41.3578 76.0545 41.5961 75.9505 41.8467 75.9453C42.0944 75.9555 42.3284 76.0615 42.4994 76.2411C42.6703 76.4206 42.7649 76.6595 42.7629 76.9074Z" fill="#263238"/>
<path d="M41.7881 73.4127L39.8246 74.5122C39.682 74.24 39.65 73.9233 39.7354 73.6282C39.8208 73.333 40.0169 73.0823 40.2828 72.9283C40.4129 72.8587 40.5557 72.816 40.7026 72.8028C40.8496 72.7895 40.9977 72.806 41.1381 72.8512C41.2786 72.8964 41.4085 72.9694 41.5202 73.0658C41.6318 73.1623 41.7229 73.2802 41.7881 73.4127Z" fill="#263238"/>
<path d="M43.4637 83.3145L45.5842 84.1064C45.5387 84.249 45.4648 84.3809 45.3668 84.4941C45.2688 84.6072 45.1489 84.6994 45.0143 84.7648C44.8797 84.8303 44.7331 84.8678 44.5836 84.875C44.4341 84.8822 44.2847 84.8589 44.1444 84.8067C43.8593 84.6951 43.6288 84.477 43.5017 84.1985C43.3747 83.9199 43.3611 83.6029 43.4637 83.3145Z" fill="#9A4A4D"/>
<path d="M51.0358 74.1841L49.2295 72.7966C49.3133 72.6733 49.4217 72.5687 49.5477 72.4891C49.6738 72.4095 49.8149 72.3567 49.9622 72.334C50.1095 72.3113 50.26 72.3191 50.4042 72.357C50.5483 72.395 50.6831 72.4622 50.8002 72.5544C51.0404 72.7445 51.1987 73.0193 51.2425 73.3224C51.2863 73.6255 51.2124 73.9338 51.0358 74.1841Z" fill="#263238"/>
<path d="M50.4797 76.6527C50.472 76.8346 50.411 77.0103 50.3044 77.1579C50.1977 77.3055 50.05 77.4185 49.8796 77.4828C49.7093 77.5472 49.5238 77.5601 49.3462 77.5199C49.1685 77.4797 49.0066 77.3883 48.8806 77.2569C48.7545 77.1255 48.6698 76.9599 48.637 76.7808C48.6042 76.6017 48.6248 76.4168 48.6961 76.2493C48.7675 76.0818 48.8865 75.9389 49.0383 75.8384C49.1902 75.7379 49.3683 75.6842 49.5504 75.6841C49.675 75.6866 49.7979 75.7137 49.9121 75.7638C50.0262 75.8138 50.1294 75.8859 50.2157 75.9759C50.302 76.0658 50.3697 76.1719 50.415 76.288C50.4603 76.4042 50.4823 76.5281 50.4797 76.6527Z" fill="#263238"/>
<path d="M45.7607 75.769L46.0618 81.3452L48.9742 80.3504L45.7607 75.769Z" fill="#9A4A4D"/>
<path d="M21.0941 141.615C21.0073 141.615 20.9241 141.581 20.8627 141.519C20.8013 141.458 20.7668 141.375 20.7668 141.288V38.3521C20.7668 38.2654 20.8013 38.1821 20.8627 38.1208C20.9241 38.0594 21.0073 38.0249 21.0941 38.0249C21.1809 38.0249 21.2641 38.0594 21.3255 38.1208C21.3868 38.1821 21.4213 38.2654 21.4213 38.3521V141.288C21.4213 141.375 21.3868 141.458 21.3255 141.519C21.2641 141.581 21.1809 141.615 21.0941 141.615Z" fill="#37474F"/>
<path d="M23.5808 47.3116C23.5808 46.2579 21.4014 43.3848 20.9629 43.3848C20.5244 43.3848 18.5806 46.2056 18.5806 47.3116C18.6004 47.5309 18.6782 47.7409 18.8058 47.9203C18.9334 48.0997 19.1064 48.242 19.307 48.3326C19.8512 48.6101 20.4534 48.7548 21.0643 48.7548C21.6752 48.7548 22.2774 48.6101 22.8216 48.3326C23.0234 48.2429 23.1977 48.101 23.3266 47.9215C23.4554 47.7421 23.5341 47.5316 23.5546 47.3116H23.5808Z" fill="#101B94"/>
<path opacity="0.1" d="M23.5808 47.3116C23.5808 46.2579 21.4014 43.3848 20.9629 43.3848C20.5244 43.3848 18.5806 46.2056 18.5806 47.3116C18.6004 47.5309 18.6782 47.7409 18.8058 47.9203C18.9334 48.0997 19.1064 48.242 19.307 48.3326C19.8512 48.6101 20.4534 48.7548 21.0643 48.7548C21.6752 48.7548 22.2774 48.6101 22.8216 48.3326C23.0234 48.2429 23.1977 48.101 23.3266 47.9215C23.4554 47.7421 23.5341 47.5316 23.5546 47.3116H23.5808Z" fill="black"/>
<path d="M35.5643 24.4701C35.5643 32.5201 29.2421 42.6906 20.9826 44.6148C12.6577 42.2914 6.40747 32.5201 6.40747 24.4701C6.40747 16.42 11.5909 8.89355 20.9892 8.89355C30.3874 8.89355 35.5643 16.4135 35.5643 24.4701Z" fill="#101B94"/>
<path opacity="0.05" d="M6.94421 20.0527C6.58353 21.4975 6.40326 22.9814 6.40755 24.4704C6.40755 32.5205 12.6774 42.2918 20.9892 44.6152C27.8547 43.0117 33.3785 35.7143 35.0474 28.6722C35.0474 28.6722 32.8745 36.4015 23.3126 37.0233C13.7508 37.645 6.03449 26.7153 6.94421 20.0527Z" fill="black"/>
<path d="M11.7741 132.224C10.0332 131.726 8.24649 126.517 8.37739 123.179C8.50828 119.841 12.998 105.404 13.6132 102.629C14.3135 99.5656 14.2677 97.2357 14.8894 95.6453C15.8057 93.2957 18.8163 92.0064 18.8163 92.0064C18.8163 92.0064 22.7431 90.1281 24.1568 89.8466C25.5704 89.5652 26.1202 90.5011 25.9631 91.2407C25.8061 91.9802 25.3086 93.8586 25.1778 94.8796C25.0845 96.1863 24.7022 97.456 24.0586 98.597C23.319 99.7816 20.3019 102.615 20.1841 104.193C20.0663 105.77 19.1959 114.331 18.6985 120.555C18.2861 125.646 17.7756 127.754 16.6696 129.102C15.5635 130.45 13.1289 132.603 11.7741 132.224Z" fill="#B16668"/>
<path d="M257.477 205.864H251.26V216.506H257.477V205.864Z" fill="#FFA8A7"/>
<path d="M235.926 205.303L229.715 205.512L229.407 194.255L235.926 194.039V205.303Z" fill="#FFA8A7"/>
<path d="M255.468 126.68C255.468 132.616 256.397 168.265 256.397 168.265C256.541 169.973 258.184 173.01 258.315 179.162C258.498 188.083 257.726 211.186 257.726 211.186C256.653 211.712 255.477 211.997 254.282 212.021C253.087 212.045 251.901 211.807 250.808 211.323C250.808 211.323 245.323 179.509 244.211 170.68C243.242 162.977 241.593 142.04 241.593 142.04L238.236 167.225C238.955 170.464 239.215 173.789 239.008 177.101C238.713 181.185 236.324 201.84 236.324 201.84C235.238 202.453 234.029 202.819 232.785 202.913C231.541 203.007 230.292 202.826 229.125 202.383C229.125 202.383 225.984 170.968 225.912 167.225C225.833 162.951 227.98 119.343 227.98 119.343L255.468 126.68Z" fill="#101B94"/>
<path d="M231.108 114.422C235.114 101.078 234.322 89.7813 235.074 86.3257L224.806 100.665C224.371 105.394 223.669 110.094 222.705 114.743C221.52 119.841 219.904 126.196 217.966 130.149C217.615 130.844 217.021 131.386 216.298 131.674C214.334 132.466 213.457 133.467 211.906 134.619C210.689 135.516 209.766 135.634 209.838 136C209.977 136.408 210.264 136.749 210.642 136.956C211.02 137.163 211.461 137.221 211.88 137.119C212.816 136.922 213.726 136.615 214.589 136.203C213.717 137.68 212.612 139.006 211.317 140.13C208.346 142.709 207.92 144.535 212.855 145.431C215.951 146.001 218.745 144.515 222.273 138.088C223.615 135.745 224.788 133.308 225.781 130.797C228.117 124.266 229.898 118.454 231.108 114.422Z" fill="#FFA8A7"/>
<path d="M235.899 83.0073C232.712 83.5702 229.564 84.3163 227.607 87.3792C225.65 90.4422 222.823 104.9 222.823 104.9C222.823 104.9 226.933 107.786 231.645 107.661L235.899 83.0073Z" fill="#E0E0E0"/>
<path d="M257.864 88.3872C260.004 89.9056 271.293 115.404 271.725 117.184C272.301 119.599 272.04 122.309 270.855 123.179C269.67 124.05 267.059 122.799 265.691 121.464C263.073 118.846 253.878 99.7816 253.878 99.7816L257.864 88.3872Z" fill="#F28F8F"/>
<path d="M246.75 83.0005C251.953 84.257 258.531 86.3579 260.861 91.1487C263.191 95.9394 266.751 103.715 266.751 103.715C264.328 106.078 261.371 107.825 258.132 108.806L255.514 104.225L255.9 128.408C251.678 131.484 236.174 133.153 227.286 126.667C227.286 126.667 228.379 97.628 228.379 93.1121C228.379 88.5962 230.886 83.1641 237.823 82.7583L246.75 83.0005Z" fill="#F0F0F0"/>
<path d="M255.468 104.205C255.468 104.205 252.85 99.6763 252.293 98.5898L255.566 109.716L255.468 104.205Z" fill="#E0E0E0"/>
<path d="M251.259 213.438V212.548C250.664 212.81 249.296 218.078 246.815 220.33C244.852 222.116 242.182 224.185 241.501 226.174C240.82 228.164 245.225 229.394 247.057 229.067C249.185 228.694 252.876 227.195 253.799 225.795C254.721 224.394 255.16 222.359 255.913 221.344C256.665 220.33 258.4 219.184 258.805 218.006C259.028 217.352 258.766 215.945 258.452 214.734C258.138 213.523 257.85 212.424 257.477 212.528V213.183C256.59 213.877 255.493 214.246 254.368 214.23C253.458 214.348 251.253 214.132 251.259 213.438Z" fill="#263238"/>
<path d="M229.649 203.593C229.328 203.593 229.066 204.065 228.34 204.83C227.279 205.902 226.044 206.787 224.688 207.448C222.358 208.613 217.836 210.406 215.787 211.329C214.478 211.905 214.57 213.45 215.892 214.327C217.214 215.204 220.401 215.845 224.236 214.981C226.324 214.51 229.047 212.586 230.781 212.684C232.516 212.782 235.722 212.769 236.992 211.892C238.262 211.015 237.758 209.143 237.398 207.54C237.005 205.786 236.514 203.05 235.932 203.175V203.777C235.186 204.909 231.351 205.367 229.688 204.536L229.649 203.593Z" fill="#263238"/>
<path opacity="0.1" d="M241.606 142.041C238.393 141.038 235.437 139.345 232.947 137.08C232.947 137.08 234.623 140.208 239.584 143.114L238.523 165.046L241.606 142.041Z" fill="black"/>
<path d="M248.701 59.8912C249.168 59.8357 249.641 59.8876 250.084 60.043C250.528 60.1984 250.93 60.4532 251.26 60.7878C252.36 61.9135 252.13 63.9948 251.26 68.7724L247.863 69.1651L248.701 59.8912Z" fill="#263238"/>
<path d="M228.902 58.49C228.171 58.4934 227.447 58.3463 226.775 58.0581C225.734 57.456 225.466 58.6406 226.029 59.6681C226.406 60.4031 226.965 61.0295 227.652 61.4877C228.339 61.9459 229.132 62.2207 229.956 62.286C229.956 62.142 230.931 59.6681 230.931 59.6681L228.902 58.49Z" fill="#263238"/>
<path d="M247.11 69.145C247.614 69.446 248.334 68.4905 248.956 67.836C249.578 67.1816 251.606 66.2915 252.614 68.4251C253.622 70.5586 251.305 73.4907 249.931 74.4462C248.295 75.585 247.11 74.6949 247.11 74.6949L246.75 83.0068C246.75 83.0068 244.944 87.4179 240.061 88.0789C235.179 88.74 236.187 84.7215 237.79 82.745V79.7213C237.79 79.7213 235.271 80.2187 234.08 79.9111C233.216 79.6388 232.434 79.1567 231.802 78.508C231.17 77.8593 230.709 77.0641 230.46 76.1937C229.118 71.7592 228.838 67.0713 229.642 62.5086C230.886 54.9625 239.394 54.8382 244.159 57.8357C248.923 60.8331 247.11 69.145 247.11 69.145Z" fill="#FFA8A7"/>
<path d="M247.109 69.9965C247.358 69.9965 248.326 68.3996 248.954 67.8302C249.825 67.0383 248.699 59.8718 248.699 59.8718C248.699 59.8718 249.583 57.1557 247.861 55.3494C246.14 53.543 242.809 53.8506 240.374 53.7655C237.384 53.785 234.421 53.1902 231.67 52.0181C228.214 50.5128 227.952 50.3361 227.52 51.8545C227.088 53.3729 226.931 56.8547 228.999 59.1846L230.714 59.8391C230.714 59.8391 231.644 60.6572 234.87 61.0498C237.847 61.2753 240.838 61.2183 243.804 60.8797C244.74 60.7553 244.943 61.6585 245.446 64.1521C245.885 66.2922 246.251 69.9769 247.109 69.9965Z" fill="#263238"/>
<path d="M248.694 60.4272L251.744 58.791C251.647 58.5862 251.509 58.4032 251.339 58.253C251.169 58.1027 250.971 57.9884 250.755 57.9169C250.54 57.8454 250.313 57.8181 250.087 57.8367C249.861 57.8554 249.641 57.9195 249.44 58.0253C249.031 58.2526 248.724 58.6291 248.585 59.0766C248.446 59.524 248.485 60.0078 248.694 60.4272Z" fill="#263238"/>
<path d="M237.797 79.715C237.797 79.715 242.319 78.8053 243.897 77.9676C244.828 77.4834 245.59 76.728 246.083 75.8013C245.844 76.7272 245.421 77.5954 244.839 78.3537C243.687 79.8328 237.797 80.9193 237.797 80.9193V79.715Z" fill="#F28F8F"/>
<path d="M238.877 67.8619C238.884 68.0403 238.942 68.2128 239.046 68.3581C239.15 68.5033 239.294 68.6148 239.461 68.6787C239.628 68.7425 239.809 68.7559 239.984 68.7172C240.158 68.6785 240.317 68.5894 240.441 68.461C240.565 68.3325 240.648 68.1705 240.681 67.9949C240.713 67.8194 240.693 67.6382 240.624 67.4739C240.554 67.3095 240.438 67.1694 240.289 67.0708C240.14 66.9722 239.965 66.9195 239.787 66.9194C239.665 66.9211 239.545 66.9469 239.433 66.9953C239.321 67.0436 239.22 67.1136 239.136 67.2013C239.051 67.2889 238.985 67.3923 238.94 67.5057C238.896 67.6191 238.875 67.7401 238.877 67.8619Z" fill="#263238"/>
<path d="M240.003 64.112L241.966 65.1853C242.106 64.9195 242.137 64.61 242.053 64.3218C241.968 64.0337 241.775 63.7896 241.515 63.6408C241.386 63.5668 241.243 63.5202 241.095 63.504C240.947 63.4878 240.798 63.5022 240.656 63.5465C240.514 63.5907 240.383 63.6638 240.27 63.7611C240.158 63.8584 240.067 63.9779 240.003 64.112Z" fill="#263238"/>
<path d="M238.948 74.1592L236.88 74.9445C236.925 75.0837 236.997 75.2124 237.093 75.3229C237.189 75.4334 237.306 75.5234 237.437 75.5876C237.569 75.6518 237.712 75.6888 237.858 75.6963C238.004 75.7039 238.15 75.682 238.287 75.6317C238.568 75.5219 238.795 75.306 238.919 75.0306C239.042 74.7552 239.053 74.4423 238.948 74.1592Z" fill="#F28F8F"/>
<path d="M230.381 65.4075L232.148 64.0462C232.065 63.9245 231.958 63.8213 231.833 63.7432C231.708 63.665 231.569 63.6135 231.423 63.592C231.277 63.5705 231.129 63.5794 230.987 63.6181C230.845 63.6569 230.712 63.7246 230.597 63.8171C230.366 64.0049 230.214 64.274 230.174 64.5695C230.134 64.865 230.208 65.1647 230.381 65.4075Z" fill="#263238"/>
<path d="M231.397 67.607C231.403 67.7857 231.462 67.9585 231.566 68.1039C231.67 68.2492 231.815 68.3607 231.982 68.4244C232.149 68.488 232.331 68.501 232.505 68.4618C232.68 68.4226 232.839 68.3328 232.963 68.2037C233.086 68.0746 233.169 67.912 233.201 67.736C233.233 67.5601 233.212 67.3787 233.141 67.2145C233.071 67.0503 232.953 66.9105 232.803 66.8127C232.654 66.7149 232.479 66.6634 232.3 66.6646C232.056 66.6714 231.824 66.7742 231.655 66.9505C231.486 67.1269 231.393 67.3627 231.397 67.607Z" fill="#263238"/>
<path d="M236.351 66.9004L236.05 72.3456L233.209 71.377L236.351 66.9004Z" fill="#F28F8F"/>
<path d="M261.214 132.721C261.127 132.721 261.044 132.687 260.983 132.625C260.921 132.564 260.887 132.481 260.887 132.394V29.4581C260.887 29.3713 260.921 29.2881 260.983 29.2267C261.044 29.1653 261.127 29.1309 261.214 29.1309C261.301 29.1309 261.384 29.1653 261.445 29.2267C261.507 29.2881 261.541 29.3713 261.541 29.4581V132.394C261.541 132.481 261.507 132.564 261.445 132.625C261.384 132.687 261.301 132.721 261.214 132.721Z" fill="#37474F"/>
<path d="M258.74 38.4166C258.74 37.3694 260.919 34.4897 261.358 34.4897C261.796 34.4897 263.74 37.3105 263.74 38.4166C263.721 38.636 263.643 38.8464 263.516 39.0259C263.388 39.2054 263.215 39.3475 263.013 39.4376C262.469 39.7151 261.867 39.8598 261.256 39.8598C260.645 39.8598 260.043 39.7151 259.499 39.4376C259.291 39.3527 259.111 39.2128 258.977 39.0328C258.843 38.8529 258.761 38.6398 258.74 38.4166Z" fill="#101B94"/>
<path opacity="0.1" d="M258.74 38.4166C258.74 37.3694 260.919 34.4897 261.358 34.4897C261.796 34.4897 263.74 37.3105 263.74 38.4166C263.721 38.636 263.643 38.8464 263.516 39.0259C263.388 39.2054 263.215 39.3475 263.013 39.4376C262.469 39.7151 261.867 39.8598 261.256 39.8598C260.645 39.8598 260.043 39.7151 259.499 39.4376C259.291 39.3527 259.111 39.2128 258.977 39.0328C258.843 38.8529 258.761 38.6398 258.74 38.4166Z" fill="black"/>
<path d="M246.736 15.5765C246.736 23.6265 253.052 33.7971 261.318 35.7212C269.63 33.3979 275.9 23.6265 275.9 15.5765C275.9 7.52646 270.716 0 261.318 0C251.92 0 246.736 7.53301 246.736 15.5765Z" fill="#101B94"/>
<path opacity="0.05" d="M275.271 19.7847C275.271 19.7847 273.138 27.5075 263.537 28.1292C254.322 28.7248 246.828 18.6066 247.109 11.9048C246.86 13.1127 246.735 14.343 246.736 15.5764C246.736 23.6264 253.052 33.797 261.318 35.7211C268.21 33.797 273.688 26.7548 275.37 19.8174L275.271 19.7847Z" fill="black"/>
<path d="M270.521 123.33C272.262 122.832 274.048 117.629 273.917 114.285C273.786 110.941 269.297 96.516 268.682 93.7345C267.981 90.6716 268.027 88.3416 267.405 86.7512C266.489 84.4082 263.478 83.1189 263.478 83.1189C263.478 83.1189 259.552 81.234 258.138 80.9526C256.724 80.6712 256.175 81.6071 256.332 82.3466C256.489 83.0862 256.986 84.9645 257.117 85.9855C257.209 87.2924 257.592 88.5623 258.236 89.7029C258.976 90.8875 261.993 93.7214 262.111 95.2987C262.228 96.876 263.099 105.443 263.596 111.661C264.009 116.752 264.519 118.86 265.625 120.208C266.731 121.556 269.212 123.716 270.521 123.33Z" fill="#FFA8A7"/>
<path d="M101.515 218.909C119.989 218.909 134.966 211.771 134.966 202.966C134.966 194.161 119.989 187.023 101.515 187.023C83.0414 187.023 68.0652 194.161 68.0652 202.966C68.0652 211.771 83.0414 218.909 101.515 218.909Z" fill="#E0E0E0"/>
<path d="M172.592 223.759C191.066 223.759 206.043 216.621 206.043 207.816C206.043 199.01 191.066 191.873 172.592 191.873C154.118 191.873 139.142 199.01 139.142 207.816C139.142 216.621 154.118 223.759 172.592 223.759Z" fill="#E0E0E0"/>
<path d="M109.932 71.4748C111.667 71.2261 113.133 71.4748 116.163 75.6111C118.872 79.3154 124.272 85.5329 124.272 85.5329C124.272 85.5329 129.154 72.738 129.01 71.0167C128.866 69.2954 127.786 68.2352 127.08 65.0675C126.373 61.8998 126.17 61.2977 125.64 60.3749C125.11 59.4521 126.949 59.2296 127.688 60.3749C128.428 61.5203 128.519 63.1368 129.036 62.8488C129.554 62.5609 129.907 59.0791 129.468 56.579C129.03 54.0789 130.169 53.516 130.686 54.3145C130.986 54.7609 131.197 55.2608 131.308 55.7871C131.843 55.6778 132.397 55.7122 132.914 55.887C133.432 56.0618 133.893 56.3705 134.253 56.7819C135.562 58.2086 136.648 60.4011 136.641 64.112C136.635 67.8228 134.92 69.8059 134.678 71.4814C134.436 73.1568 131.406 88.6875 129.259 93.9364C127.911 97.2088 126.046 98.2036 123.768 96.286C120.698 93.7008 112.275 83.347 112.275 83.347L109.932 71.4748Z" fill="#FFA8A7"/>
<path d="M109.932 71.4747C111.497 71.01 113.205 71.3765 114.789 73.2745C116.372 75.1725 122.171 82.5157 122.171 82.5157C122.171 82.5157 122.001 86.2724 117.151 89.7542L111.621 83.7985L109.932 71.4747Z" fill="#101B94"/>
<path d="M118.126 192.658L118.074 191.788C118.486 192.789 120.345 197.108 122.904 199.17C124.933 200.813 127.688 202.691 128.473 204.609C129.259 206.526 124.978 207.554 123.159 207.338C121.045 207.096 118.264 206.068 116.68 204.347C115.567 203.136 114.821 201.67 114.023 200.715C113.224 199.759 111.45 198.751 110.979 197.606C110.724 196.984 110.901 195.57 111.136 194.379C111.372 193.188 111.725 191.971 112.098 192.049C112.083 192.306 112.052 192.562 112.007 192.815C112.916 193.449 114.017 193.749 115.122 193.666C116.019 193.646 118.178 193.339 118.126 192.658Z" fill="#263238"/>
<path d="M124.743 200.603C124.089 200.105 123.48 199.621 122.904 199.156C121.117 197.71 119.671 195.164 118.82 193.423V193.39C118.169 191.981 117.885 190.43 117.996 188.881L118.074 186.819L111.529 186.95L112.007 192.801V192.952H112.04C112.413 194.202 115.417 197.415 117.145 199.497C118.297 200.904 120.417 202.664 122.884 202.841C125.227 203.063 126.34 202.265 124.743 200.603Z" fill="#FFA8A7"/>
<path d="M81.5865 193.403C81.2723 193.219 80.7553 194.286 80.2121 195.098C79.629 196.107 79.3516 197.265 79.4136 198.429C79.5584 199.74 79.4899 201.066 79.2107 202.356C78.8442 204.529 78.2094 207.022 80.3953 209.025C82.2737 210.74 86.4623 211.538 87.7974 210.334C88.0687 210.113 88.2842 209.832 88.4263 209.512C88.5685 209.193 88.6333 208.844 88.6155 208.495C88.3477 207.546 87.9791 206.629 87.516 205.759C86.9996 204.772 86.5364 203.759 86.1285 202.722L81.5865 193.403Z" fill="#263238"/>
<path d="M87.4907 189.726C87.2027 189.484 86.581 197.521 86.4043 199.432C86.2275 201.343 86.5613 202.344 86.8755 204.379C87.032 204.86 86.9968 205.383 86.7773 205.839C86.6114 206.05 86.3982 206.219 86.155 206.333C85.9117 206.447 85.6451 206.502 85.3767 206.493C83.9893 206.493 82.8897 205.983 81.7248 204.667C81.1488 204.013 81.1096 202.279 81.1423 201.65C81.2372 200.597 81.2568 199.539 81.2012 198.483C81.0965 197.363 80.7692 196.048 80.9132 195.21C81.0363 194.561 81.257 193.935 81.5677 193.352C82.0978 192.141 82.4512 188.829 82.4512 188.829L87.4907 189.726Z" fill="#FFA8A7"/>
<path d="M90.2319 104.519C86.8351 108.885 86.2199 113.388 86.9595 126.117C87.699 138.847 86.6257 149.246 86.4359 149.96C86.2461 150.673 84.0929 157.702 83.0785 162.434C81.8939 167.977 81.7302 190.799 81.7302 190.799C81.7302 190.799 84.1452 192.108 87.8757 191.218C87.8757 191.218 96.8813 155.555 97.8368 152.682C98.7924 149.809 106.024 120.174 106.024 120.174L105.102 103.112L90.2319 104.519Z" fill="#37474F"/>
<path d="M116.209 119.193C115.692 113.303 114.429 103.099 114.429 103.099L99.3756 102.216C96.9344 106.018 97.9947 112.341 98.6623 118.054L107.275 151.773C107.098 153.389 105.613 156.812 107.275 165.517C109.127 175.216 111.398 188.037 111.398 188.037C111.398 188.037 114.932 189.477 118.179 188.109C118.179 188.109 119.422 157.401 118.63 149.017C117.76 139.914 116.562 123.224 116.209 119.193Z" fill="#37474F"/>
<path d="M103.394 133.5L105.848 121.131C108.024 120.356 110.089 119.302 111.994 117.996C110.777 119.533 109.326 120.869 107.694 121.955L103.394 133.5Z" fill="#263238"/>
<path d="M91.1423 74.564C89.4537 75.5391 86.6591 76.4292 85.4942 79.7147C83.9038 84.296 79.6824 96.1944 78.0593 100.468H85.8607L91.2601 89.4075C95.4356 85.8209 94.8728 75.8533 91.1423 74.564Z" fill="#FFA8A7"/>
<path d="M113.447 93.5365C113.82 96.9725 115.207 109.682 115.207 109.682C103.852 115.736 89.7743 111.724 87.6211 109.231C89.5845 102.804 91.6723 99.1453 93.2758 97.4502L91.26 89.4067C91.26 89.4067 96.018 83.7455 91.1422 74.5632L97.4709 72.482L106.136 71.7294L109.932 71.4741C111.287 72.7438 113.42 77.2924 114.808 80.8331C115.698 83.1172 116.66 86.7692 113.447 93.5365Z" fill="#F5F5F5"/>
<path d="M91.142 74.564C87.4115 75.297 85.736 77.1295 84.2438 81.2003C82.6338 85.605 80.7031 90.363 80.7031 90.363C81.7483 91.8733 83.2069 93.0502 84.904 93.7525C86.6011 94.4548 88.4648 94.6527 90.2715 94.3226L92.6866 87.588C92.6866 87.588 95.9262 81.6454 91.142 74.564Z" fill="#101B94"/>
<path d="M92.2876 93.4521C92.3858 93.8448 95.043 97.379 96.3454 98.1905C97.6478 99.0021 94.0416 100.154 93.5311 102.216C92.5036 106.358 98.924 111.679 106.902 112.438C97.8769 113.918 89.2836 111.13 87.6409 109.232C89.6043 102.805 91.6921 99.1461 93.2955 97.451L92.2876 93.4521Z" fill="#E6E6E6"/>
<path d="M116.163 70.6699H104.036C102.086 70.6708 100.156 70.2874 98.3542 69.5418C96.553 68.7961 94.9163 67.7028 93.5378 66.3243C92.1593 64.9458 91.0659 63.3091 90.3203 61.5078C89.5746 59.7065 89.1913 57.7759 89.1921 55.8264C89.1921 52.2507 90.6126 48.8215 93.141 46.2931C95.6694 43.7647 99.0986 42.3442 102.674 42.3442C104.445 42.3434 106.199 42.6915 107.836 43.3686C109.472 44.0458 110.959 45.0387 112.212 46.2908C113.465 47.5428 114.458 49.0293 115.136 50.6655C115.814 52.3017 116.163 54.0554 116.163 55.8264V70.6699Z" fill="#263238"/>
<path d="M111.346 48.2141C112.772 49.0583 114.533 52.6383 114.356 60.1517C114.206 66.5132 112.144 68.0905 111.084 68.5421C110.023 68.9936 108.047 68.7188 106.11 68.3915V72.2137C105.989 73.0213 105.554 73.7484 104.899 74.236C103.315 75.2242 101.443 74.8512 100.39 74.4716C98.0662 73.6339 97.6081 72.5082 97.6081 72.5082L97.6474 63.7186C97.6474 63.7186 96.5086 64.8312 94.5648 63.1361C92.9679 61.7355 92.4312 59.3794 93.6747 58.1097C93.9985 57.8087 94.3892 57.589 94.8146 57.4688C95.24 57.3485 95.6879 57.3311 96.1214 57.4181C96.5548 57.505 96.9614 57.6938 97.3075 57.9688C97.6536 58.2438 97.9294 58.5972 98.1121 58.9998C98.1121 58.9998 99.2508 59.0914 100.39 56.9709C100.39 56.9709 100.35 51.2247 101.633 50.4786C105.724 48.1094 108.616 48.2141 111.346 48.2141Z" fill="#FFA8A7"/>
<path d="M106.13 58.1498C106.138 58.2561 106.125 58.3629 106.091 58.4641C106.057 58.5652 106.004 58.6587 105.934 58.7391C105.864 58.8194 105.779 58.8851 105.683 58.9322C105.588 58.9794 105.484 59.0071 105.377 59.0137C105.212 59.0292 105.045 58.9948 104.9 58.9149C104.754 58.8351 104.636 58.7133 104.56 58.5655C104.484 58.4176 104.454 58.2504 104.474 58.0855C104.495 57.9206 104.564 57.7655 104.673 57.6402C104.782 57.5149 104.926 57.4252 105.087 57.3827C105.247 57.3401 105.417 57.3467 105.574 57.4016C105.731 57.4564 105.868 57.557 105.967 57.6904C106.066 57.8238 106.123 57.9838 106.13 58.1498Z" fill="#263238"/>
<g style="mix-blend-mode:multiply" opacity="0.5">
<path d="M107.466 63.9482L109.324 64.5373C109.29 64.6611 109.231 64.7767 109.151 64.8771C109.071 64.9776 108.971 65.0608 108.858 65.1219C108.745 65.183 108.621 65.2207 108.493 65.2327C108.365 65.2447 108.236 65.2308 108.113 65.1918C107.867 65.1064 107.663 64.93 107.542 64.6988C107.422 64.4676 107.394 64.1991 107.466 63.9482Z" fill="#F28F8F"/>
</g>
<path d="M113.369 55.6559L111.752 54.5367C111.819 54.4271 111.908 54.3324 112.013 54.2585C112.118 54.1846 112.237 54.1332 112.363 54.1074C112.489 54.0816 112.619 54.082 112.745 54.1086C112.87 54.1352 112.989 54.1873 113.094 54.2619C113.31 54.4141 113.46 54.644 113.511 54.9037C113.562 55.1634 113.511 55.4329 113.369 55.6559Z" fill="#263238"/>
<path d="M105.018 55.3098L103.178 56.0166C103.126 55.8995 103.097 55.7727 103.096 55.6442C103.094 55.5157 103.119 55.3882 103.169 55.2697C103.218 55.1512 103.292 55.0442 103.385 54.9554C103.478 54.8666 103.588 54.7978 103.709 54.7535C103.956 54.6612 104.23 54.6674 104.474 54.7709C104.717 54.8743 104.912 55.0672 105.018 55.3098Z" fill="#263238"/>
<path d="M112.931 57.9733C112.933 58.1314 112.889 58.2866 112.804 58.4197C112.718 58.5528 112.596 58.6578 112.451 58.7217C112.307 58.7856 112.147 58.8056 111.991 58.779C111.835 58.7525 111.69 58.6807 111.575 58.5726C111.46 58.4645 111.379 58.3248 111.342 58.171C111.306 58.0172 111.316 57.8561 111.37 57.7077C111.425 57.5594 111.522 57.4303 111.649 57.3368C111.776 57.2432 111.929 57.1891 112.086 57.1814C112.303 57.1761 112.513 57.2562 112.671 57.4043C112.829 57.5525 112.922 57.7569 112.931 57.9733Z" fill="#263238"/>
<g style="mix-blend-mode:multiply" opacity="0.5">
<path d="M109.088 57.5156L109.213 62.3326L111.752 61.5472L109.088 57.5156Z" fill="#F28F8F"/>
</g>
<g style="mix-blend-mode:multiply" opacity="0.5">
<path d="M106.137 68.3983C104.088 68.13 99.8732 66.9257 99.2188 65.2568C99.4806 66.1014 99.9973 66.8444 100.698 67.3839C101.954 68.4638 106.137 69.6745 106.137 69.6745V68.3983Z" fill="#F28F8F"/>
</g>
<path d="M100.724 43.0645L100.417 39.5304C100.648 39.4955 100.884 39.5084 101.111 39.5682C101.337 39.6281 101.548 39.7336 101.732 39.8783C101.916 40.023 102.069 40.2038 102.18 40.4096C102.291 40.6154 102.36 40.8418 102.38 41.0749C102.415 41.5564 102.262 42.0327 101.954 42.4037C101.645 42.7747 101.204 43.0116 100.724 43.0645Z" fill="#263238"/>
<path d="M100.534 43.4167L97.6741 41.3224C97.8021 41.1274 97.9685 40.9605 98.163 40.8317C98.3576 40.703 98.5762 40.6151 98.8058 40.5735C99.0353 40.5319 99.2709 40.5374 99.4983 40.5896C99.7256 40.6418 99.94 40.7397 100.128 40.8774C100.509 41.1677 100.763 41.5933 100.839 42.0659C100.914 42.5386 100.805 43.0222 100.534 43.4167Z" fill="#263238"/>
<path d="M98.1382 58.9874V62.3317C98.7422 62.3317 99.3215 62.0918 99.7487 61.6647C100.176 61.2375 100.416 60.6582 100.416 60.0542V56.9585L98.1382 58.9874Z" fill="#263238"/>
<path d="M107.249 43.1353C110.252 43.1353 113.132 44.3281 115.255 46.4515C117.379 48.5749 118.571 51.4548 118.571 54.4577V55.9237H113.035C111.788 55.9242 110.583 55.4729 109.643 54.6535C108.704 53.8341 108.092 52.702 107.923 51.4667L107.72 55.9237C106.696 55.9244 105.708 55.541 104.952 54.8492C104.196 54.1574 103.726 53.2074 103.636 52.1866L103.571 51.4536C103.474 52.6701 102.922 53.8055 102.026 54.6338C101.13 55.4621 99.9547 55.9226 98.7343 55.9237H98.2369L97.6741 47.926L107.249 43.1353Z" fill="#263238"/>
<path d="M184.209 201.466V200.603C183.862 201.63 182.246 206.054 179.831 208.266C177.9 210.027 175.249 212.062 174.595 214.026C173.94 215.989 178.26 216.755 180.066 216.434C182.16 216.068 184.877 214.877 186.349 213.064C187.39 211.788 188.051 210.276 188.79 209.274C189.53 208.273 191.238 207.147 191.637 206.002C191.86 205.347 191.598 203.967 191.29 202.788C190.983 201.61 190.701 200.517 190.328 200.616V201.27C189.457 201.957 188.375 202.323 187.265 202.304C186.375 202.33 184.202 202.154 184.209 201.466Z" fill="#263238"/>
<path d="M178.083 209.805C178.685 209.268 179.287 208.751 179.831 208.247C181.532 206.703 182.821 204.078 183.568 202.285C183.993 201.264 184.215 200.171 184.222 199.065V195.577H190.341V201.257V201.408H190.309C190.014 202.678 187.206 206.068 185.61 208.273C184.543 209.753 182.507 211.631 180.079 211.958C177.762 212.279 176.591 211.552 178.083 209.805Z" fill="#B16668"/>
<path d="M160.327 195.433V194.556C159.987 195.583 158.364 200.007 155.956 202.22C154.025 203.98 151.374 206.016 150.72 207.979C150.065 209.942 154.385 210.708 156.191 210.387C158.285 210.014 160.995 208.83 162.474 207.017C163.508 205.741 164.169 204.229 164.915 203.227C165.661 202.226 167.363 201.1 167.762 199.955C167.985 199.301 167.723 197.92 167.415 196.742C167.127 195.662 166.82 194.471 166.453 194.569V195.223C165.582 195.91 164.5 196.276 163.39 196.257C162.494 196.297 160.321 196.12 160.327 195.433Z" fill="#263238"/>
<path d="M154.207 203.77C154.802 203.233 155.404 202.716 155.954 202.212C157.649 200.668 158.945 198.043 159.685 196.25C160.114 195.23 160.336 194.136 160.339 193.03V189.542H166.459V195.216V195.366H166.426C166.131 196.636 163.324 200.02 161.727 202.232C160.653 203.711 158.624 205.589 156.196 205.916C153.886 206.244 152.715 205.517 154.207 203.77Z" fill="#B16668"/>
<path d="M189.111 106.358C193.856 116.725 188.941 153.238 188.941 153.238C189.085 154.92 191.003 158.232 191.722 165.634C192.567 174.378 190.414 196.342 190.414 196.342C189.481 196.883 188.43 197.189 187.352 197.232C186.274 197.275 185.202 197.055 184.229 196.59C184.229 196.59 178.371 163.48 177.278 154.789C176.316 147.204 174.484 130.515 174.484 130.515L169.248 154.73C170.008 157.177 170.56 159.684 170.897 162.224C171.394 167.342 166.44 191.158 166.44 191.158C166.44 191.158 164.326 191.931 160.314 191.341C160.314 191.341 158.567 159.73 158.102 153.572C157.323 143.218 160.066 110.926 161.97 104.8L189.111 106.358Z" fill="#37474F"/>
<path d="M174.483 130.509L172.938 120.881C172.938 120.881 166.393 119.526 163.468 116.751C163.468 116.751 166.563 120.606 171.171 121.869L172.905 129.265L169.882 151.707L174.483 130.509Z" fill="#263238"/>
<path d="M171.288 70.0421C169.813 69.7987 168.299 69.9724 166.917 70.5437C165.535 71.115 164.34 72.061 163.467 73.2752C161.406 76.0174 153.474 99.0877 153.474 99.0877H160.614L170.385 79.7545L171.288 70.0421Z" fill="#B16668"/>
<path d="M180.74 70.3233C186.826 70.7421 187.252 73.6807 188.77 76.868C189.894 79.3465 189.997 82.1676 189.058 84.7217L184.824 96.9866C184.824 96.9866 186.787 101.784 189.11 106.319C178.469 112.255 165.183 109.134 161.983 104.801C161.852 103.885 162.637 96.6986 163.18 92.006C161.302 87.3004 160.811 84.3225 161.603 81.2137C163.069 75.4478 168.763 69.8259 171.289 70.0288L180.74 70.3233Z" fill="#F5F5F5"/>
<path d="M178.018 107.484C178.853 107.293 179.642 106.936 180.338 106.435C181.033 105.934 181.621 105.298 182.068 104.567C182.514 103.835 182.81 103.021 182.937 102.173C183.064 101.326 183.02 100.461 182.808 99.6304C182.781 99.5161 182.744 99.4044 182.697 99.2966C182.552 98.8505 182.26 98.4664 181.869 98.2064C181.479 97.9463 181.012 97.8255 180.544 97.8633C181.227 97.4126 181.814 96.8303 182.27 96.1506C182.727 95.4708 183.043 94.707 183.201 93.9038L184.51 87.4179C184.51 87.4179 182.108 79.7998 182.35 77.1885L188.457 77.5419L189.248 78.0917C189.897 80.2618 189.835 82.5825 189.072 84.7149L184.837 96.9798C184.837 96.9798 186.801 101.777 189.124 106.313C185.662 108.175 181.841 109.272 177.919 109.532C173.997 109.792 170.065 109.207 166.388 107.818C170.251 108.441 174.197 108.328 178.018 107.484Z" fill="#E6E6E6"/>
<path d="M203.142 100.736C203.142 100.736 197.101 88.851 193.109 79.7538C190.229 73.2091 189.581 71.7038 184.994 70.9904L183.377 70.7417C181.204 77.882 182.723 81.1217 185.563 86.0106L195.504 104.859C197.756 104.395 203.188 101.417 203.142 100.736Z" fill="#B16668"/>
<path d="M178.213 65.2773H173.9C170.857 65.2773 167.939 64.0686 165.788 61.917C163.636 59.7654 162.427 56.8472 162.427 53.8044V51.8802C162.427 48.8201 163.643 45.8852 165.807 43.7214C167.971 41.5575 170.905 40.3419 173.966 40.3419H178.115C181.175 40.3419 184.11 41.5575 186.274 43.7214C188.438 45.8852 189.653 48.8201 189.653 51.8802V53.8044C189.653 56.8472 188.445 59.7654 186.293 61.917C184.141 64.0686 181.223 65.2773 178.18 65.2773H178.213Z" fill="#263238"/>
<path d="M166.93 45.8457C165.49 46.6965 163.71 50.3158 163.887 57.9011C164.037 64.3281 166.118 65.9119 167.159 66.37C168.2 66.8282 170.222 66.5467 172.185 66.226V70.0809C172.185 70.0809 169.469 73.2289 169.646 74.996C169.823 76.7631 173.573 77.182 176.093 75.4541C177.738 74.2715 179.149 72.7935 180.255 71.0953V61.7756C180.255 61.7756 181.564 63.5427 183.743 62.1029C185.923 60.663 185.995 57.1092 184.738 55.8264C183.482 54.5437 180.759 54.956 180.255 56.7231C180.255 56.7231 177.127 56.8343 172.964 54.5437C171.344 53.6718 169.953 52.4294 168.905 50.9179C167.856 49.4063 167.179 47.6684 166.93 45.8457Z" fill="#B16668"/>
<path d="M171.78 56.2842C171.777 56.4436 171.822 56.6001 171.908 56.7342C171.994 56.8684 172.118 56.9743 172.263 57.0387C172.409 57.1031 172.571 57.1232 172.728 57.0964C172.885 57.0696 173.03 56.9972 173.147 56.8881C173.263 56.7791 173.344 56.6383 173.381 56.4832C173.418 56.3281 173.408 56.1657 173.353 56.0161C173.298 55.8666 173.2 55.7366 173.072 55.6422C172.943 55.5479 172.79 55.4935 172.631 55.4858C172.522 55.4823 172.414 55.5002 172.313 55.5384C172.212 55.5767 172.119 55.6345 172.04 55.7087C171.961 55.7828 171.897 55.8718 171.853 55.9706C171.808 56.0693 171.783 56.1759 171.78 56.2842Z" fill="#263238"/>
<path d="M170.844 61.729L168.973 62.3311C169.008 62.4552 169.068 62.5709 169.148 62.6714C169.229 62.7719 169.329 62.8551 169.443 62.9162C169.556 62.9772 169.681 63.0148 169.809 63.0268C169.938 63.0387 170.067 63.0247 170.19 62.9856C170.438 62.8975 170.643 62.719 170.764 62.4859C170.885 62.2528 170.914 61.9824 170.844 61.729Z" fill="#9A4A4D"/>
<path d="M165.15 53.8038L166.786 52.6651C166.717 52.5555 166.626 52.4611 166.519 52.3876C166.412 52.3141 166.291 52.263 166.164 52.2373C166.037 52.2116 165.906 52.2119 165.779 52.2382C165.652 52.2645 165.532 52.3162 165.425 52.3902C165.206 52.5449 165.055 52.7784 165.004 53.0418C164.952 53.3052 165.005 53.5782 165.15 53.8038Z" fill="#263238"/>
<path d="M165.53 55.7016C165.529 55.8607 165.574 56.0166 165.661 56.1499C165.748 56.2832 165.872 56.3881 166.018 56.4515C166.164 56.5149 166.325 56.534 166.482 56.5065C166.638 56.479 166.784 56.406 166.899 56.2967C167.015 56.1874 167.096 56.0465 167.132 55.8916C167.168 55.7367 167.158 55.5745 167.102 55.4254C167.047 55.2762 166.949 55.1465 166.821 55.0525C166.693 54.9585 166.54 54.9043 166.381 54.8966C166.162 54.893 165.95 54.9752 165.791 55.1257C165.632 55.2761 165.538 55.4829 165.53 55.7016Z" fill="#263238"/>
<path d="M169.483 55.2368L169.352 60.0996L166.793 59.3077L169.483 55.2368Z" fill="#9A4A4D"/>
<path d="M172.193 66.2255C174.254 65.9506 178.509 64.7267 179.17 63.0513C178.907 63.9009 178.388 64.6485 177.684 65.1914C176.414 66.2844 172.193 67.5082 172.193 67.5082V66.2255Z" fill="#9A4A4D"/>
<path d="M187.991 41.8012C185.334 42.9072 185.929 45.1848 187.042 47.842C188.155 50.4992 189.365 52.5215 191.983 51.3827C192.686 51.1719 193.337 50.8157 193.893 50.3373C194.449 49.8588 194.899 49.2688 195.212 48.6055C195.526 47.9421 195.697 47.2202 195.713 46.4867C195.73 45.7531 195.592 45.0242 195.309 44.3473C195.026 43.6704 194.604 43.0605 194.07 42.5573C193.536 42.0541 192.902 41.6687 192.21 41.4261C191.517 41.1836 190.781 41.0893 190.05 41.1494C189.319 41.2095 188.608 41.4227 187.965 41.775L187.991 41.8012Z" fill="#263238"/>
<path d="M185.655 44.1837L184.726 39.7529C185.01 39.6812 185.306 39.6674 185.596 39.7124C185.887 39.7573 186.165 39.86 186.414 40.0144C186.664 40.1688 186.88 40.3718 187.05 40.6113C187.22 40.8508 187.339 41.122 187.402 41.4087C187.525 42.0073 187.412 42.6303 187.086 43.1474C186.761 43.6645 186.248 44.0358 185.655 44.1837Z" fill="#263238"/>
<path d="M187.514 121.411V120.881C187.514 120.187 188.005 119.834 188.986 119.834H189.641C190.622 119.834 191.113 120.187 191.113 120.881V121.411C191.113 122.092 190.622 122.432 189.641 122.432H188.986C188.005 122.414 187.514 122.074 187.514 121.411ZM188.05 117.484C187.908 117.284 187.841 117.041 187.861 116.797L187.717 106.358C187.694 106.106 187.769 105.856 187.926 105.658C188.024 105.574 188.137 105.511 188.26 105.473C188.382 105.435 188.512 105.422 188.639 105.435H190.02C190.148 105.422 190.277 105.435 190.4 105.473C190.522 105.511 190.636 105.574 190.734 105.658C190.89 105.856 190.965 106.106 190.943 106.358L190.773 116.79C190.793 117.035 190.725 117.278 190.583 117.477C190.401 117.63 190.166 117.705 189.929 117.687H188.705C188.589 117.704 188.47 117.694 188.358 117.659C188.246 117.624 188.143 117.564 188.057 117.484H188.05Z" fill="white"/>
<path d="M146.825 96.3248C150.49 96.9203 151.544 99.0867 151.544 99.0867H148.546C148.546 99.0867 148.167 100.095 149.201 103.871C149.554 105.18 147.597 105.232 147.538 104.735C147.185 105.546 144.606 106.698 142.682 105.389C140.915 104.218 140.13 102.424 140.522 99.067C141.17 95.33 146.171 96.2201 146.825 96.3248Z" fill="#B16668"/>
<path d="M207.463 99.0864H68.7466V130.848H207.463V99.0864Z" fill="#101B94"/>
<path d="M68.7459 104.821C68.3401 105.953 67.4369 106.49 66.7825 107.615C66.128 108.741 65.8531 112.105 66.5927 113.506C67.1565 114.488 67.9487 115.321 68.9022 115.932C69.8557 116.544 70.9425 116.917 72.0706 117.02C73.0171 117.059 73.9516 116.798 74.7409 116.274C75.1086 116.027 75.4335 115.722 75.703 115.371C75.949 114.994 76.1345 114.581 76.2527 114.147C76.2621 114.113 76.2801 114.081 76.3051 114.055C76.3405 114.033 76.381 114.019 76.4229 114.016C76.7096 113.975 76.9792 113.855 77.2017 113.669C77.3126 113.576 77.4017 113.46 77.4628 113.329C77.5239 113.198 77.5554 113.055 77.5551 112.91C77.5333 112.726 77.4679 112.55 77.3643 112.396C77.2607 112.243 77.1219 112.116 76.9596 112.027C76.6288 111.856 76.2797 111.725 75.9189 111.634C75.0485 111.352 74.2435 110.914 73.3927 110.593C71.6685 109.98 70.0858 109.025 68.7393 107.786L68.7459 104.821Z" fill="#FFA8A7"/>
<path d="M207.469 105.841C207.874 106.986 208.778 107.529 209.432 108.675C210.087 109.82 210.375 113.256 209.628 114.65C209.056 115.648 208.252 116.493 207.283 117.114C206.315 117.735 205.211 118.114 204.065 118.217C203.155 118.28 202.249 118.046 201.483 117.551C200.717 117.055 200.133 116.324 199.818 115.468C199.222 113.407 200.25 112.628 202.724 111.692C204.475 111.072 206.083 110.103 207.449 108.845L207.469 105.841Z" fill="#B16668"/>
<path d="M92.1309 109.013C92.0175 108.73 91.8274 108.489 91.5608 108.29C91.2942 108.091 90.9964 107.992 90.6674 107.992C90.3441 107.992 90.0775 108.091 89.8676 108.29C89.6577 108.483 89.5528 108.755 89.5528 109.107C89.5528 109.266 89.5641 109.396 89.5868 109.498C89.6152 109.6 89.6833 109.714 89.791 109.839C89.9045 109.958 90.0123 110.06 90.1144 110.145C90.2221 110.23 90.4178 110.386 90.7015 110.613C90.9851 110.84 91.2744 111.081 91.5693 111.336C91.87 111.586 92.0997 111.844 92.2585 112.11C92.4174 112.377 92.4968 112.717 92.4968 113.131C92.4968 113.676 92.2784 114.135 91.8416 114.51C91.4105 114.884 90.8603 115.071 90.1909 115.071C89.6691 115.071 89.2124 114.969 88.821 114.765C88.4296 114.555 88.2339 114.26 88.2339 113.88C88.2339 113.716 88.2708 113.568 88.3446 113.438C88.4183 113.307 88.5261 113.16 88.6679 112.995C88.9175 114.005 89.4989 114.51 90.4122 114.51C90.7412 114.51 91.0305 114.416 91.28 114.229C91.5296 114.042 91.6544 113.764 91.6544 113.395C91.6544 113.185 91.6289 113.026 91.5778 112.919C91.5268 112.805 91.4842 112.717 91.4502 112.655C91.4218 112.593 91.368 112.519 91.2885 112.434C91.2091 112.343 91.1439 112.272 91.0928 112.221C91.0418 112.164 90.9539 112.085 90.8291 111.983C90.7043 111.875 90.605 111.793 90.5313 111.736C90.4632 111.674 90.3441 111.577 90.1739 111.447C90.0037 111.311 89.8704 111.203 89.774 111.123C89.445 110.857 89.1926 110.59 89.0167 110.324C88.8466 110.057 88.7615 109.736 88.7615 109.362C88.7615 108.732 88.9742 108.242 89.3996 107.89C89.8251 107.538 90.381 107.363 91.0673 107.363C91.4757 107.363 91.8189 107.442 92.0969 107.601C92.3748 107.76 92.5138 107.978 92.5138 108.256C92.5138 108.534 92.3862 108.786 92.1309 109.013ZM100.958 107.55L102.337 107.567C103.018 107.567 103.471 107.513 103.698 107.405C103.67 107.774 103.579 108.021 103.426 108.145C103.279 108.264 103.043 108.324 102.72 108.324C102.187 108.324 101.52 108.262 100.72 108.137C100.72 108.517 100.601 109.422 100.363 110.851C101.475 110.84 102.201 110.746 102.541 110.57C102.507 111.018 102.379 111.296 102.158 111.404C102.039 111.467 101.926 111.506 101.818 111.523C101.71 111.535 101.58 111.54 101.426 111.54C101.273 111.54 100.885 111.515 100.261 111.464C100.085 112.593 99.997 113.429 99.997 113.974C99.997 114.087 99.9998 114.169 100.006 114.221C100.471 114.243 100.862 114.255 101.18 114.255C102.252 114.255 102.927 114.181 103.205 114.033C103.188 114.26 103.148 114.442 103.086 114.578C103.029 114.714 102.932 114.813 102.796 114.876C102.66 114.938 102.527 114.975 102.396 114.986C102.272 115.003 102.067 115.012 101.784 115.012C101.506 115.012 100.95 114.952 100.116 114.833C99.963 114.941 99.8098 114.995 99.6567 114.995C99.2482 114.995 99.044 114.72 99.044 114.169C99.044 113.812 99.1717 112.896 99.4269 111.421C99.3362 111.416 99.1915 111.413 98.993 111.413C99.0213 111.203 99.0667 111.064 99.1291 110.996C99.1915 110.922 99.322 110.877 99.5205 110.86C99.6793 109.856 99.7588 109.158 99.7588 108.767C99.7588 108.369 99.7162 108.043 99.6311 107.788C99.8297 107.629 100.272 107.55 100.958 107.55ZM110.621 107.363C110.836 107.363 110.992 107.433 111.089 107.575C111.185 107.711 111.233 107.947 111.233 108.282C111.233 108.616 111.111 109.504 110.867 110.945C110.629 112.38 110.51 113.39 110.51 113.974C110.51 114.087 110.513 114.172 110.519 114.229C110.842 114.246 111.208 114.255 111.616 114.255C112.671 114.255 113.332 114.181 113.599 114.033C113.582 114.26 113.545 114.442 113.488 114.578C113.431 114.714 113.338 114.813 113.207 114.876C113.082 114.938 112.958 114.975 112.833 114.986C112.714 115.003 112.521 115.012 112.254 115.012C111.988 115.012 111.449 114.952 110.638 114.833C110.484 114.941 110.326 114.995 110.161 114.995C109.753 114.995 109.549 114.72 109.549 114.169C109.549 113.806 109.665 112.95 109.897 111.6C110.136 110.25 110.255 109.3 110.255 108.749C110.255 108.194 110.195 107.797 110.076 107.558C110.229 107.428 110.411 107.363 110.621 107.363ZM124.741 114.68C124.65 114.884 124.469 114.986 124.196 114.986C123.924 114.986 123.706 114.915 123.541 114.774C123.382 114.632 123.252 114.396 123.15 114.067C123.053 113.738 122.971 113.302 122.903 112.757H120.41C120.121 113.409 119.976 113.914 119.976 114.272C119.976 114.436 120.01 114.572 120.078 114.68C119.942 114.884 119.746 114.986 119.491 114.986C119.236 114.986 119.108 114.845 119.108 114.561C119.108 114.402 119.156 114.169 119.253 113.863C119.355 113.551 119.721 112.743 120.351 111.438C120.98 110.128 121.372 109.24 121.525 108.775C121.684 108.304 121.763 108.001 121.763 107.865C121.763 107.728 121.754 107.626 121.737 107.558C121.925 107.428 122.129 107.363 122.35 107.363C122.571 107.363 122.747 107.419 122.878 107.533C123.014 107.641 123.13 107.853 123.226 108.171C123.329 108.489 123.442 109.331 123.567 110.698C123.697 112.065 123.845 113.032 124.009 113.599C124.128 114.019 124.372 114.379 124.741 114.68ZM122.35 108.656C122.22 108.962 121.95 109.529 121.542 110.358C121.133 111.186 120.841 111.793 120.665 112.178H122.844C122.815 111.821 122.767 111.356 122.699 110.783C122.637 110.204 122.594 109.839 122.571 109.685C122.503 109.283 122.429 108.94 122.35 108.656ZM137.259 108.247C137.259 108.559 137.149 109.373 136.927 110.689C136.712 112 136.604 112.933 136.604 113.489C136.604 114.039 136.712 114.436 136.927 114.68C136.752 114.884 136.556 114.986 136.34 114.986C135.898 114.986 135.677 114.612 135.677 113.863C135.677 113.557 135.779 112.746 135.983 111.43C136.187 110.108 136.289 109.175 136.289 108.63C135.455 110.304 134.968 111.362 134.826 111.804C134.684 112.241 134.613 112.561 134.613 112.766C134.613 112.811 134.619 112.879 134.63 112.97C134.59 113.021 134.511 113.066 134.392 113.106C134.278 113.146 134.162 113.165 134.043 113.165C133.793 113.165 133.6 113.086 133.464 112.927C133.334 112.763 133.215 112.462 133.107 112.025C132.999 111.583 132.874 111.05 132.733 110.426C132.591 109.802 132.46 109.271 132.341 108.835C132.33 108.942 132.222 109.617 132.018 110.86C131.819 112.096 131.72 112.981 131.72 113.514C131.72 114.048 131.831 114.436 132.052 114.68C131.972 114.884 131.816 114.986 131.584 114.986C131.17 114.986 130.963 114.612 130.963 113.863C130.963 113.551 131.062 112.743 131.261 111.438C131.465 110.128 131.567 109.215 131.567 108.698C131.567 108.177 131.507 107.797 131.388 107.558C131.519 107.428 131.717 107.365 131.984 107.371C132.25 107.371 132.477 107.448 132.665 107.601C132.857 107.748 133.005 107.995 133.107 108.341C133.215 108.681 133.354 109.26 133.524 110.077C133.7 110.894 133.873 111.574 134.043 112.119C134.168 111.779 134.395 111.265 134.724 110.579C135.053 109.887 135.331 109.277 135.557 108.749C135.784 108.216 135.898 107.833 135.898 107.601C136.079 107.442 136.34 107.363 136.681 107.363C136.873 107.363 137.018 107.433 137.115 107.575C137.211 107.711 137.259 107.935 137.259 108.247ZM148.812 114.68C148.721 114.884 148.54 114.986 148.267 114.986C147.995 114.986 147.777 114.915 147.612 114.774C147.453 114.632 147.323 114.396 147.221 114.067C147.124 113.738 147.042 113.302 146.974 112.757H144.481C144.192 113.409 144.047 113.914 144.047 114.272C144.047 114.436 144.081 114.572 144.149 114.68C144.013 114.884 143.817 114.986 143.562 114.986C143.307 114.986 143.179 114.845 143.179 114.561C143.179 114.402 143.227 114.169 143.324 113.863C143.426 113.551 143.792 112.743 144.421 111.438C145.051 110.128 145.442 109.24 145.596 108.775C145.754 108.304 145.834 108.001 145.834 107.865C145.834 107.728 145.825 107.626 145.808 107.558C145.995 107.428 146.2 107.363 146.421 107.363C146.642 107.363 146.818 107.419 146.948 107.533C147.085 107.641 147.201 107.853 147.297 108.171C147.399 108.489 147.513 109.331 147.638 110.698C147.768 112.065 147.916 113.032 148.08 113.599C148.199 114.019 148.443 114.379 148.812 114.68ZM146.421 108.656C146.29 108.962 146.021 109.529 145.613 110.358C145.204 111.186 144.912 111.793 144.736 112.178H146.914C146.886 111.821 146.838 111.356 146.77 110.783C146.707 110.204 146.665 109.839 146.642 109.685C146.574 109.283 146.5 108.94 146.421 108.656ZM158.794 108.324L157.476 108.222C157.464 108.585 157.348 109.425 157.127 110.741C156.911 112.051 156.803 112.975 156.803 113.514C156.803 114.048 156.914 114.436 157.135 114.68C156.959 114.884 156.761 114.986 156.54 114.986C156.103 114.986 155.884 114.612 155.884 113.863C155.884 113.551 155.987 112.729 156.191 111.396C156.401 110.057 156.506 109.132 156.506 108.622C156.506 108.446 156.503 108.31 156.497 108.213C155.709 108.219 155.065 108.31 154.566 108.486C154.588 108.117 154.665 107.867 154.795 107.737C154.931 107.601 155.133 107.533 155.399 107.533L158.565 107.567C159.092 107.567 159.444 107.513 159.62 107.405C159.597 107.774 159.52 108.021 159.39 108.145C159.265 108.264 159.067 108.324 158.794 108.324Z" fill="white"/>
</svg>
