<svg width="217" height="197" viewBox="0 0 217 197" fill="none" xmlns="http://www.w3.org/2000/svg">
<path d="M38.0827 97.8825C-1.21033 120.555 -1.18694 157.322 38.0827 179.995C77.3522 202.668 141.035 202.668 180.309 179.995C219.583 157.322 219.602 120.555 180.309 97.8825C141.016 75.2095 77.3569 75.2048 38.0827 97.8825Z" fill="#FFA4A2"/>
<path d="M76.4214 175.841C101.607 175.841 122.025 165.108 122.025 151.868C122.025 138.628 101.607 127.895 76.4214 127.895C51.2354 127.895 30.8182 138.628 30.8182 151.868C30.8182 165.108 51.2354 175.841 76.4214 175.841Z" fill="#E0E0E0"/>
<path d="M160.027 103.06C160.985 104.211 162.786 104.632 164.737 104.206C163.109 106.624 158.165 107.396 155.382 105.511C153.295 106.231 151.101 106.597 148.894 106.592C139.842 106.592 132.498 100.665 132.498 93.3583C132.498 86.0517 139.842 80.125 148.894 80.125C157.945 80.125 165.266 86.047 165.266 93.3583C165.28 97.1941 163.25 100.646 160.027 103.06Z" fill="#E0E0E0"/>
<path d="M135.005 24.9931C135.787 25.9286 137.255 26.2701 138.85 25.9286C137.517 27.8979 133.49 28.5294 131.212 26.9905C129.512 27.5783 127.725 27.8756 125.926 27.8699C118.544 27.8699 112.562 23.0424 112.562 17.1111C112.562 11.1797 118.544 6.32422 125.926 6.32422C133.307 6.32422 139.29 11.1516 139.29 17.1111C139.29 20.2077 137.639 23.0191 135.005 24.9931Z" fill="#E0E0E0"/>
<path d="M206.074 121.568C202.575 116.46 191.896 114.865 186.03 118.995C179.85 115.537 172.876 113.747 165.794 113.803C146.615 113.803 131.104 126.166 131.104 141.402C131.104 156.637 146.634 169 165.794 169C184.954 169 200.48 156.632 200.48 141.402C200.48 135.835 198.403 130.643 194.866 126.316C195.994 122.19 200.774 120.431 206.074 121.568Z" fill="white"/>
<path opacity="0.6" d="M206.074 121.568C202.575 116.46 191.896 114.865 186.03 118.995C179.85 115.537 172.876 113.747 165.794 113.803C146.615 113.803 131.104 126.166 131.104 141.402C131.104 156.637 146.634 169 165.794 169C184.954 169 200.48 156.632 200.48 141.402C200.48 135.835 198.403 130.643 194.866 126.316C195.994 122.19 200.774 120.431 206.074 121.568Z" fill="white"/>
<path d="M164.307 139.18H156.256V152.394H164.307V139.18ZM175.851 133.323H167.796V152.394H175.851V133.323ZM152.767 127.794H144.712V152.394H152.767V127.794ZM179.341 143.656V152.418H187.396V143.656H179.341ZM144.726 154.654H187.41V153.844H144.712L144.726 154.654Z" fill="white"/>
<path d="M209.405 73.5969C210.715 72.0251 213.18 71.4498 215.855 72.0298C213.624 68.7227 206.855 67.6608 203.029 70.2429C200.17 69.2557 197.166 68.756 194.141 68.7648C181.741 68.7648 171.688 76.8806 171.688 86.8863C171.688 96.892 181.741 105.008 194.141 105.008C206.542 105.008 216.595 96.8967 216.595 86.8863C216.599 81.6379 213.825 76.9087 209.405 73.5969Z" fill="white"/>
<path d="M186.17 80.5051L187.981 91.3621C187.657 91.3081 187.327 91.3081 187.003 91.3621C186.441 91.457 185.92 91.7163 185.506 92.1074C185.091 92.4985 184.802 93.0037 184.674 93.5591C184.547 94.1146 184.587 94.6953 184.79 95.2279C184.992 95.7606 185.348 96.2212 185.813 96.5515C186.277 96.8818 186.829 97.0669 187.399 97.0836C187.968 97.1003 188.53 96.9476 189.013 96.645C189.496 96.3424 189.878 95.9034 190.112 95.3836C190.345 94.8637 190.419 94.2863 190.324 93.7243L188.706 83.9947L198.061 79.7847L199.689 89.3928C199.366 89.3364 199.035 89.3364 198.711 89.3928C198.149 89.4886 197.627 89.7493 197.213 90.1418C196.799 90.5343 196.511 91.041 196.385 91.5977C196.259 92.1543 196.301 92.7358 196.506 93.2684C196.711 93.801 197.07 94.2607 197.536 94.5893C198.003 94.9179 198.556 95.1005 199.127 95.114C199.697 95.1276 200.259 94.9714 200.741 94.6653C201.222 94.3592 201.602 93.917 201.832 93.3947C202.062 92.8724 202.132 92.2936 202.033 91.7316L199.32 75.6309L186.17 80.5051Z" fill="white"/>
<path d="M202.659 47.2522C208.432 42.9299 212.048 36.7647 212.048 29.9118C212.048 16.8562 198.95 6.27051 182.756 6.27051C166.561 6.27051 153.464 16.8562 153.464 29.9118C153.464 42.9674 166.561 53.5531 182.756 53.5531C186.7 53.564 190.618 52.9126 194.347 51.6258C199.338 54.9985 208.165 53.6139 211.079 49.287C207.59 50.0541 204.371 49.301 202.659 47.2522Z" fill="white"/>
<path opacity="0.6" d="M202.659 47.2522C208.432 42.9299 212.048 36.7647 212.048 29.9118C212.048 16.8562 198.95 6.27051 182.756 6.27051C166.561 6.27051 153.464 16.8562 153.464 29.9118C153.464 42.9674 166.561 53.5531 182.756 53.5531C186.7 53.564 190.618 52.9126 194.347 51.6258C199.338 54.9985 208.165 53.6139 211.079 49.287C207.59 50.0541 204.371 49.301 202.659 47.2522Z" fill="white"/>
<path d="M175.047 37.3081V22.5031C175.046 22.306 175.095 22.112 175.189 21.9386C175.282 21.7652 175.418 21.618 175.583 21.5102C175.748 21.4024 175.937 21.3375 176.133 21.3214C176.33 21.3052 176.527 21.3384 176.707 21.4178L193.44 28.818C193.65 28.9097 193.829 29.0608 193.955 29.2527C194.08 29.4447 194.147 29.6691 194.147 29.8986C194.147 30.128 194.08 30.3525 193.955 30.5444C193.829 30.7363 193.65 30.8874 193.44 30.9791L176.707 38.4074C176.526 38.4873 176.327 38.5204 176.13 38.5036C175.932 38.4868 175.742 38.4207 175.577 38.3112C175.412 38.2018 175.276 38.0526 175.184 37.8773C175.091 37.7021 175.044 37.5063 175.047 37.3081Z" fill="white"/>
<path d="M160.784 68.367C165.584 64.7745 168.591 59.6477 168.591 53.9502C168.591 43.0932 157.683 34.3037 144.234 34.3037C130.786 34.3037 119.878 43.1072 119.878 53.9502C119.878 64.7932 130.781 73.5967 144.234 73.5967C147.514 73.6045 150.771 73.0622 153.871 71.9922C158.024 74.7989 165.364 73.6435 167.787 70.051C164.882 70.6825 162.211 70.0744 160.784 68.367Z" fill="white"/>
<path opacity="0.3" d="M160.784 68.367C165.584 64.7745 168.591 59.6477 168.591 53.9502C168.591 43.0932 157.683 34.3037 144.234 34.3037C130.786 34.3037 119.878 43.1072 119.878 53.9502C119.878 64.7932 130.781 73.5967 144.234 73.5967C147.514 73.6045 150.771 73.0622 153.871 71.9922C158.024 74.7989 165.364 73.6435 167.787 70.051C164.882 70.6825 162.211 70.0744 160.784 68.367Z" fill="white"/>
<path d="M156.967 44.0567H131.497C131.201 44.058 130.917 44.1761 130.708 44.3855C130.498 44.5949 130.38 44.8786 130.379 45.1747V62.7303C130.379 63.0272 130.497 63.312 130.706 63.5224C130.916 63.7328 131.2 63.8517 131.497 63.8529H156.967C157.116 63.8541 157.263 63.826 157.4 63.7702C157.538 63.7144 157.663 63.632 157.769 63.5277C157.874 63.4234 157.958 63.2992 158.016 63.1624C158.073 63.0255 158.103 62.8787 158.104 62.7303V45.1747C158.103 45.0265 158.073 44.8798 158.016 44.7433C157.958 44.6067 157.874 44.4828 157.769 44.3789C157.663 44.275 157.538 44.193 157.4 44.1377C157.263 44.0824 157.115 44.0549 156.967 44.0567ZM157.248 62.4589C157.248 62.6351 157.178 62.8041 157.053 62.9286C156.929 63.0532 156.76 63.1232 156.584 63.1232H131.909C131.732 63.1232 131.564 63.0532 131.439 62.9286C131.314 62.8041 131.244 62.6351 131.244 62.4589V45.4226C131.244 45.2465 131.314 45.0775 131.439 44.9529C131.564 44.8284 131.732 44.7584 131.909 44.7584H156.607C156.783 44.7584 156.952 44.8284 157.077 44.9529C157.201 45.0775 157.271 45.2465 157.271 45.4226L157.248 62.4589Z" fill="white"/>
<path d="M155.349 46.0775H133.116C132.92 46.0835 132.734 46.1645 132.596 46.3039C132.459 46.4432 132.38 46.6302 132.376 46.826V57.1544L138.481 51.5411L145.788 57.7672L143.832 54.6565L148.903 49.8758L156.139 56.9579V46.826C156.137 46.7248 156.115 46.6251 156.073 46.5327C156.032 46.4402 155.973 46.3568 155.9 46.2872C155.826 46.2176 155.74 46.1633 155.645 46.1273C155.551 46.0913 155.45 46.0744 155.349 46.0775ZM142.812 51.3213C142.535 51.3213 142.264 51.239 142.033 51.0848C141.802 50.9306 141.622 50.7114 141.516 50.455C141.41 50.1985 141.382 49.9164 141.436 49.6442C141.49 49.3719 141.624 49.1219 141.82 48.9256C142.016 48.7294 142.266 48.5957 142.539 48.5416C142.811 48.4874 143.093 48.5152 143.349 48.6214C143.606 48.7277 143.825 48.9075 143.979 49.1383C144.133 49.3691 144.216 49.6404 144.216 49.9179C144.216 50.2901 144.068 50.6471 143.805 50.9102C143.542 51.1734 143.185 51.3213 142.812 51.3213Z" fill="white"/>
<path d="M16.7709 162.386C15.9853 162.331 15.2 162.499 14.5061 162.871C13.8122 163.244 13.2383 163.806 12.8509 164.491C11.7189 166.339 11.485 168.655 11.6534 168.851C11.8218 169.048 14.0671 168.491 15.6482 166.512C16.1366 165.955 16.4916 165.294 16.6861 164.579C16.8806 163.864 16.9096 163.114 16.7709 162.386Z" fill="white"/>
<path d="M21.8649 160.639C21.1412 160.949 20.52 161.457 20.073 162.105C19.626 162.753 19.3715 163.515 19.3389 164.301C19.1752 166.462 20.0219 168.628 20.2745 168.726C20.5271 168.825 22.2532 167.323 22.7584 164.811C22.9356 164.094 22.9473 163.345 22.7925 162.622C22.6377 161.899 22.3205 161.221 21.8649 160.639Z" fill="white"/>
<path d="M22.0614 156.503C21.6324 155.842 21.0255 155.316 20.3104 154.985C19.5954 154.654 18.8014 154.531 18.0198 154.632C15.8587 154.847 13.9829 155.843 13.9268 156.096C13.8707 156.349 15.84 157.995 18.1134 158.21C20.5786 158.458 21.5983 156.924 22.0614 156.503Z" fill="white"/>
<path d="M39.8274 151.498C37.8862 151.306 35.8981 151.741 34.0223 152.218C32.2605 152.671 30.5393 153.271 28.8768 154.009C25.4109 155.542 22.1641 157.529 19.222 159.917C17.3696 161.428 15.433 163.122 14.1607 165.171C14.1326 165.217 14.2262 165.306 14.2636 165.269C15.7526 163.637 17.3977 162.155 19.1752 160.844C20.7129 159.599 22.3406 158.471 24.0447 157.466C26.9552 155.774 30.0627 154.447 33.2973 153.514C35.4397 152.877 37.6336 152.611 39.8461 152.227C39.9429 152.225 40.0347 152.184 40.1014 152.114C40.1681 152.044 40.2041 151.95 40.2016 151.853C40.1992 151.756 40.1583 151.664 40.0882 151.598C40.018 151.531 39.9242 151.495 39.8274 151.498Z" fill="#37474F"/>
<path d="M23.8155 156.675C22.8813 156.36 21.9148 156.152 20.9341 156.052C19.999 155.916 19.0465 155.959 18.1274 156.179C18.0011 156.216 18.1882 156.291 18.2678 156.291C19.1087 156.317 19.9475 156.392 20.7797 156.516C21.6634 156.653 22.5233 156.914 23.3337 157.292C23.4451 157.34 23.5684 157.353 23.6871 157.328C23.8058 157.304 23.9143 157.244 23.998 157.156C24.0256 157.114 24.0429 157.066 24.0484 157.016C24.0539 156.967 24.0475 156.916 24.0297 156.869C24.0119 156.822 23.9832 156.78 23.946 156.746C23.9088 156.712 23.8641 156.688 23.8155 156.675Z" fill="#37474F"/>
<path d="M23.5536 156.935C22.6181 157.959 22.1503 159.016 21.5515 160.513C21.3248 161.099 21.1418 161.701 21.0042 162.314C20.8347 163.04 20.7732 163.787 20.8218 164.531C20.8218 164.559 20.9154 164.723 20.9247 164.667C21.0401 163.948 21.1963 163.236 21.3925 162.534C21.5588 161.892 21.7827 161.265 22.0614 160.663C22.5815 159.446 23.2357 158.292 24.012 157.22C24.1757 157.005 23.7127 156.752 23.5536 156.935Z" fill="#37474F"/>
<path d="M28.8113 156.588C28.0389 156.739 27.3249 157.105 26.752 157.645C26.1792 158.185 25.7709 158.876 25.5743 159.638C24.9662 161.719 25.3405 164.016 25.5743 164.161C25.8082 164.306 27.8103 163.183 28.8207 160.854C29.141 160.188 29.3065 159.459 29.3049 158.72C29.3033 157.981 29.1346 157.252 28.8113 156.588Z" fill="white"/>
<path d="M31.2298 153.312C30.1118 154.121 29.4241 155.052 28.5307 156.399C28.177 156.921 27.8642 157.47 27.5952 158.041C27.2763 158.716 27.0603 159.435 26.9543 160.174C26.9543 160.202 27.0058 160.38 27.0245 160.328C27.2838 159.649 27.5821 158.985 27.9179 158.34C28.228 157.745 28.5895 157.179 28.9985 156.647C29.7645 155.569 30.6495 154.58 31.6367 153.7C31.8285 153.513 31.4262 153.176 31.2298 153.312Z" fill="#37474F"/>
<path d="M6.96167 146.543C6.13126 146.779 5.25104 146.775 4.4231 146.53C3.59516 146.286 2.85342 145.812 2.28393 145.163C0.6514 143.433 -0.120426 141 0.0152283 140.752C0.150883 140.504 2.69089 140.598 4.83797 142.376C5.48441 142.864 6.01145 143.493 6.37934 144.215C6.74722 144.937 6.94634 145.733 6.96167 146.543Z" fill="white"/>
<path d="M12.8276 147.277C11.9805 147.108 11.1987 146.703 10.5729 146.107C9.94696 145.512 9.50257 144.752 9.29119 143.914C8.63163 141.627 9.05263 139.11 9.29119 138.951C9.52976 138.792 11.7376 140.032 12.8369 142.595C13.191 143.325 13.3742 144.126 13.3726 144.937C13.371 145.749 13.1846 146.549 12.8276 147.277Z" fill="white"/>
<path d="M13.9689 151.675C13.6554 152.48 13.1205 153.18 12.4261 153.694C11.7316 154.208 10.9059 154.515 10.0443 154.58C7.67738 154.833 5.43206 154.187 5.31512 153.93C5.19818 153.672 6.94765 151.46 9.33797 150.716C11.9481 149.907 13.3749 151.329 13.9689 151.675Z" fill="white"/>
<path d="M34.1767 153.059C32.1326 153.7 29.9013 153.681 27.7823 153.588C25.7887 153.499 23.8062 153.242 21.8556 152.821C17.7888 151.955 13.856 150.55 10.1612 148.644C7.82236 147.432 5.38058 146.052 3.53755 144.139C3.50013 144.097 3.57498 143.98 3.62175 144.013C5.59266 145.431 7.69845 146.651 9.90863 147.657C11.8409 148.651 13.8437 149.501 15.9008 150.201C19.4079 151.365 23.0449 152.092 26.7298 152.367C29.1716 152.568 31.5899 152.367 34.0364 152.278C34.1316 152.277 34.2243 152.309 34.2977 152.37C34.3712 152.431 34.4208 152.515 34.4376 152.609C34.4544 152.703 34.4375 152.8 34.3897 152.882C34.3419 152.965 34.2665 153.027 34.1767 153.059Z" fill="#37474F"/>
<path d="M15.8119 151.093C14.8803 151.642 13.8902 152.084 12.8603 152.412C11.8835 152.758 10.8505 152.916 9.81506 152.88C9.67005 152.88 9.85248 152.749 9.94136 152.726C10.837 152.511 11.7195 152.243 12.5843 151.926C13.5022 151.582 14.3667 151.109 15.1524 150.523C15.2627 150.447 15.3931 150.407 15.5266 150.407C15.6601 150.407 15.7905 150.447 15.9008 150.523C15.9431 150.561 15.9752 150.61 15.9942 150.664C16.0133 150.718 16.0186 150.775 16.0098 150.832C16.001 150.888 15.9783 150.942 15.9438 150.988C15.9092 151.033 15.8639 151.07 15.8119 151.093Z" fill="#37474F"/>
<path d="M15.4705 150.879C14.2449 149.986 13.4965 148.962 12.5188 147.483C12.1419 146.907 11.8104 146.301 11.5271 145.673C11.1782 144.933 10.9448 144.145 10.8348 143.334C10.8348 143.302 10.891 143.105 10.9097 143.166C11.1952 143.911 11.52 144.64 11.8827 145.35C12.2071 146.006 12.5874 146.632 13.0193 147.222C13.8563 148.404 14.8228 149.49 15.9008 150.458C16.1254 150.669 15.6857 151.034 15.4705 150.879Z" fill="#37474F"/>
<path d="M21.2007 150.07C20.3362 150.082 19.4862 149.848 18.7493 149.396C18.0124 148.944 17.4188 148.292 17.0375 147.516C15.9149 145.42 15.8026 142.871 15.9991 142.665C16.1955 142.459 18.6186 143.213 20.209 145.472C20.7127 146.113 21.0638 146.86 21.2356 147.657C21.4075 148.453 21.3955 149.279 21.2007 150.07Z" fill="white"/>
<path d="M24.536 153.04C23.1326 152.423 22.1971 151.576 20.9388 150.337C20.4522 149.858 20.0019 149.343 19.5916 148.798C19.0966 148.144 18.7023 147.421 18.4221 146.65C18.4221 146.618 18.4221 146.417 18.4642 146.473C18.895 147.143 19.3635 147.788 19.8676 148.405C20.3189 148.975 20.8198 149.504 21.3644 149.986C22.4339 150.964 23.609 151.821 24.8681 152.54C25.13 152.689 24.7885 153.148 24.536 153.04Z" fill="#37474F"/>
<path d="M15.8307 36.6346C16.5931 37.6965 17.365 38.7583 18.1415 39.8108C19.7179 41.9532 21.2756 44.1097 22.9034 46.2147C23.0266 46.3555 23.1891 46.4562 23.37 46.5037C23.551 46.5512 23.742 46.5434 23.9185 46.4813C24.0347 46.4565 24.1447 46.4085 24.242 46.3401C24.3392 46.2718 24.4217 46.1846 24.4845 46.0837C24.5642 45.9708 24.607 45.836 24.607 45.6978C24.607 45.5596 24.5642 45.4247 24.4845 45.3118C22.8753 43.2817 21.2428 41.2656 19.6758 39.198C18.8244 38.0692 17.9778 36.9371 17.1358 35.802C16.4809 34.9086 15.7886 33.6082 14.7969 33.0515C14.5209 32.8925 13.6976 32.8316 13.8099 33.3789C14.0718 34.5531 15.1384 35.6757 15.8307 36.6346ZM13.1597 48.5348C15.681 49.3955 18.1836 50.2796 20.7236 51.0795C20.9053 51.1252 21.0965 51.1153 21.2724 51.051C21.4484 50.9868 21.601 50.8713 21.7106 50.7193C21.7912 50.632 21.8538 50.5296 21.8947 50.418C21.9356 50.3064 21.9541 50.1879 21.9492 50.0691C21.9521 49.9316 21.9129 49.7965 21.8368 49.6819C21.7607 49.5674 21.6514 49.4788 21.5235 49.4283C19.0443 48.6751 16.551 47.9501 14.0859 47.1455C12.7434 46.7058 11.4009 46.2614 10.063 45.803C9.01053 45.4475 7.72415 44.7692 6.58279 44.8675C6.2647 44.8955 5.55368 45.3118 5.95597 45.7001C6.81667 46.5281 8.33694 46.8415 9.44556 47.2344C10.6852 47.6835 11.9201 48.1138 13.1597 48.5348ZM20.7891 55.6496C20.8155 55.5337 20.8188 55.4137 20.7987 55.2965C20.7787 55.1793 20.7356 55.0672 20.6721 54.9667C20.6086 54.8447 20.5088 54.7455 20.3865 54.6826C20.2641 54.6198 20.1253 54.5964 19.9892 54.6159C17.4585 55.1866 14.9325 55.7853 12.3925 56.3045C11.0079 56.5852 9.6202 56.8565 8.22935 57.1185C7.13944 57.329 5.67063 57.3851 4.74443 58.0306C4.48248 58.213 4.07084 58.9241 4.61346 59.0644C5.76886 59.3591 7.24702 58.882 8.4071 58.6761C9.69816 58.4469 10.9845 58.2084 12.2756 57.9698C14.8858 57.474 17.5006 57.0062 20.1061 56.4449C20.2863 56.3957 20.4477 56.2936 20.5694 56.1519C20.6911 56.0102 20.7676 55.8352 20.7891 55.6496Z" fill="#E0E0E0"/>
<path d="M53.0982 13.9417L53.1964 14.2037C54.086 16.5864 54.6921 19.0655 55.002 21.5898C55.3215 24.1589 55.4076 26.7516 55.2593 29.3362C55.1938 30.5805 55.0769 31.8154 54.9225 33.0503C54.8509 33.4299 54.8118 33.8148 54.8055 34.201C54.8348 34.4776 54.8928 34.7504 54.9786 35.0149C55.072 35.431 55.119 35.8562 55.119 36.2826C55.1985 38.3558 55.1516 40.4319 54.9786 42.4993C54.5947 46.6518 53.9116 50.7711 52.9345 54.8252C52.4667 56.9208 51.9287 59.0071 51.3955 61.0933C50.8201 63.334 50.2401 65.5746 49.8144 67.848C48.8789 72.9186 48.7245 78.1062 47.8357 83.1863C46.947 88.2663 45.1975 93.3931 41.6143 97.0979C41.2869 97.4347 40.211 98.4638 39.7058 98.0334C39.2708 97.6685 39.6169 96.6301 39.5982 96.1623C39.4341 92.2505 38.2575 88.4483 36.1835 85.1275C35.8162 84.6604 35.5024 84.1536 35.2479 83.6166C35.1778 83.4155 35.145 83.205 35.0608 83.0085C34.8363 82.4799 34.0738 81.8859 34.0738 81.3245C32.6705 79.0652 31.2064 76.8199 30.3831 74.3079C28.8815 69.7144 29.7001 64.6858 31.0239 60.0408C29.6338 61.4543 28.5737 63.1577 27.9194 65.0291C27.2651 66.9005 27.033 68.8935 27.2396 70.8651C24.7774 65.1968 24.5699 58.8028 26.6596 52.9868C27.5952 50.4795 28.8956 48.1266 29.6721 45.5726C31.1643 40.6657 30.5281 35.4032 30.3644 30.2717C30.277 27.751 30.4147 25.2275 30.776 22.7312C31.4944 17.9803 33.9475 13.6641 37.6616 10.6159C39.4843 9.05413 41.6983 8.01907 44.0655 7.62212C46.4839 7.29 49.4262 6.85029 51.33 8.35185C51.765 8.69332 51.33 10.265 51.62 10.7515C52.1787 11.7831 52.6724 12.8486 53.0982 13.9417Z" fill="#263238"/>
<path d="M118.998 89.753C115.228 80.1168 109.282 72.3985 105.573 67.7115C100.007 61.8175 93.3641 62.9215 84.4858 63.1881L89.0092 90.4406C89.0092 94.7114 95.3288 98.1776 103.127 98.1776C111.13 98.1074 119.4 94.4962 118.998 89.753Z" fill="#455A64"/>
<path d="M108.202 122.511C108.576 114.446 108.913 107.074 108.913 107.074C108.913 107.074 115.307 103.075 114.129 93.0129C113.404 86.8149 109.016 80.1445 102.107 74.2225C97.1391 69.9657 84.4905 63.1924 84.4905 63.1924L79.1251 63.3888L52.8409 68.0666L44.7297 70.5084C42.2225 71.7901 37.0816 81.9688 39.079 99.2203C39.7059 104.656 46.3716 114.147 47.7656 121.837C47.092 134.467 42.4844 134.589 38.658 147.153C38.658 151.779 45.1414 157.683 52.0598 160.719C65.3679 166.514 86.5066 166.65 100.568 161.27C108.557 158.216 115.415 153 115.392 148.369C115.392 148.365 110.316 128.971 108.202 122.511Z" fill="white"/>
<path d="M56.0218 52.9357C52.9906 50.1758 41.605 44.8994 38.9294 32.2554C37.2547 24.3314 39.5702 17.9182 42.9335 12.2113C49.2999 1.38705 70.8877 -5.09629 84.2519 5.11989C97.5274 5.06375 102.341 25.3277 89.8325 29.9914C79.7754 40.5865 56.0218 52.9357 56.0218 52.9357Z" fill="#455A64"/>
<path d="M89.4303 17.8247C89.173 17.1464 87.2645 16.3746 86.6236 16.0752C85.5234 15.5454 84.3691 15.136 83.1808 14.8544C80.7225 14.2835 78.1788 14.1804 75.6824 14.5503C71.131 15.2145 65.948 17.7545 64.9236 22.7036C64.4558 25.0425 64.8909 27.7649 63.3425 29.5845C62.7017 30.3377 61.7615 30.8616 61.3545 31.7597C60.8025 32.9946 61.448 34.5196 60.8867 35.7592C60.6061 36.3906 59.7594 37.1625 59.0156 37.0502C58.3654 36.966 58.0193 36.2363 57.6871 35.7358C56.8452 34.4728 56.064 33.0461 54.787 32.1105C52.406 30.3751 49.3234 31.4884 47.4616 33.294C44.786 35.8855 45.0105 42.1817 48.5281 45.3579C52.9159 49.3106 57.1726 46.3917 57.2381 45.5356C57.2381 45.5356 57.4065 49.7456 56.0219 52.9498C56.0219 52.9498 56.0219 61.1873 56.0219 62.6515C56.0499 64.9342 55.8348 66.7913 52.841 68.101C59.8576 74.0885 80.5706 83.1353 84.7479 80.2912C88.2749 77.8869 84.1678 67.535 79.1346 63.3999C78.6107 63.2502 76.8612 63.152 76.7957 61.1499C76.7489 59.0449 76.7957 59.8121 76.7957 59.8121C81.3612 60.0273 83.2884 59.7185 85.8424 58.2544C89.6595 56.0746 92.9713 51.8225 92.9713 38.0419C92.9713 32.9853 91.0394 31.4931 91.3481 29.2197C92.2369 22.8018 90.3144 20.1121 89.4303 17.8247Z" fill="#FFBDA7"/>
<path d="M63.3612 56.8215C61.1581 55.5762 59.353 53.7321 58.1549 51.5029C58.3615 52.8665 58.8407 54.1745 59.5641 55.3487C60.2874 56.5229 61.24 57.5393 62.3649 58.3371C67.5104 61.9015 75.3362 62.2337 77.1044 62.2617C76.9168 61.9141 76.8202 61.5247 76.8238 61.1297C76.8238 60.3532 76.8004 59.9696 76.8004 59.7919C72.1554 59.4925 66.8883 58.6833 63.3612 56.8215Z" fill="#F0997A"/>
<path d="M83.1434 24.7746L87.7837 22.5293C87.9449 22.824 88.0443 23.1485 88.0758 23.4829C88.1073 23.8174 88.0703 24.1547 87.967 24.4744C87.8636 24.794 87.6962 25.0892 87.4749 25.3419C87.2535 25.5946 86.983 25.7995 86.6798 25.944C86.0526 26.2384 85.3364 26.2813 84.6786 26.0637C84.0209 25.8462 83.4714 25.3849 83.1434 24.7746Z" fill="#263238"/>
<path d="M81.9646 23.0348C81.8941 23.0068 81.8162 23.0031 81.7434 23.0243C81.6706 23.0455 81.6068 23.0903 81.5623 23.1517C81.3524 23.5945 81.2546 24.082 81.2775 24.5714C81.3003 25.0608 81.4431 25.5371 81.6933 25.9584C81.788 26.1089 81.9047 26.2445 82.0394 26.3607C82.1914 26.5107 82.3828 26.6145 82.5914 26.66C82.6186 26.6647 82.6465 26.6604 82.671 26.6478C82.6955 26.6351 82.7152 26.6148 82.7271 26.5899C82.8066 26.3981 82.6195 26.1782 82.5306 26.0098C82.4417 25.8414 82.3856 25.7572 82.3201 25.6309C82.199 25.3929 82.1109 25.1396 82.0581 24.8778C81.9677 24.3626 82.0178 23.8326 82.2032 23.3435C82.2499 23.2079 82.0862 23.0722 81.9646 23.0348Z" fill="#F0997A"/>
<path d="M74.2136 23.0593C74.0932 22.9273 73.9527 22.8152 73.7973 22.7272C73.622 22.6069 73.4156 22.5403 73.2032 22.5354C73.175 22.5337 73.1472 22.5422 73.1249 22.5594C73.1025 22.5766 73.0871 22.6013 73.0816 22.6289C73.0395 22.8301 73.264 23.0125 73.3809 23.1622C73.4979 23.3119 73.568 23.382 73.6569 23.499C73.8197 23.7085 73.952 23.94 74.0498 24.1866C74.2314 24.6766 74.2798 25.2061 74.1902 25.7209C74.1668 25.8753 74.3539 25.9782 74.4755 25.9922C74.5505 26.0072 74.6283 25.997 74.6968 25.9632C74.7654 25.9293 74.8208 25.8738 74.8544 25.8051C74.9818 25.33 74.9899 24.8309 74.8781 24.3519C74.7663 23.8729 74.5381 23.4289 74.2136 23.0593Z" fill="#F0997A"/>
<path d="M68.4085 28.166L72.8243 25.3874C72.6575 25.0908 72.432 24.8313 72.1617 24.6246C71.8913 24.418 71.5817 24.2685 71.2517 24.1854C70.9218 24.1022 70.5783 24.0871 70.2423 24.141C69.9063 24.1948 69.5848 24.3165 69.2973 24.4986C68.7086 24.8805 68.2884 25.4734 68.1232 26.1554C67.9579 26.8374 68.06 27.5569 68.4085 28.166Z" fill="#263238"/>
<path d="M88.0831 39.4355L80.7297 43.2431L78.2364 28.6299L88.0831 39.4355Z" fill="#F0997A"/>
<path d="M78.9101 46.9332C78.9786 46.8202 79.0727 46.7249 79.1848 46.655C79.297 46.5852 79.424 46.5426 79.5556 46.5309C78.6481 46.1146 76.7864 46.5309 76.4964 47.8547C76.407 48.1494 76.4023 48.4632 76.4828 48.7604C76.5633 49.0576 76.7257 49.3262 76.9515 49.5355C77.1773 49.7448 77.4575 49.8864 77.7599 49.944C78.0624 50.0017 78.3749 49.9732 78.662 49.8618C78.949 49.7503 79.1989 49.5604 79.3831 49.3137C79.5673 49.067 79.6785 48.7735 79.7039 48.4666C79.7293 48.1598 79.6679 47.852 79.5267 47.5783C79.3855 47.3047 79.1702 47.0763 78.9054 46.9192L78.9101 46.9332Z" fill="#B16668"/>
<path d="M74.3118 34.1401C74.3281 34.5542 74.2213 34.9637 74.0049 35.317C73.7885 35.6704 73.4722 35.9516 73.0961 36.1253C72.7199 36.2989 72.3007 36.3572 71.8914 36.2926C71.4821 36.2281 71.1011 36.0437 70.7966 35.7627C70.4921 35.4817 70.2778 35.1168 70.1806 34.714C70.0834 34.3112 70.1078 33.8887 70.2508 33.4998C70.3937 33.1109 70.6486 32.7731 70.9835 32.529C71.3183 32.285 71.718 32.1457 72.132 32.1287C72.4072 32.1174 72.682 32.1605 72.9406 32.2555C73.1992 32.3506 73.4365 32.4956 73.6389 32.6825C73.8414 32.8693 74.005 33.0942 74.1205 33.3443C74.2359 33.5944 74.301 33.8649 74.3118 34.1401Z" fill="#263238"/>
<path d="M89.2853 31.7173C89.3016 32.1313 89.1948 32.5408 88.9784 32.8942C88.762 33.2475 88.4457 33.5288 88.0695 33.7024C87.6934 33.8761 87.2741 33.9343 86.8649 33.8698C86.4556 33.8052 86.0746 33.6208 85.7701 33.3399C85.4656 33.0589 85.2512 32.6939 85.1541 32.2912C85.0569 31.8884 85.0813 31.4658 85.2242 31.0769C85.3671 30.688 85.6221 30.3502 85.957 30.1062C86.2918 29.8621 86.6915 29.7228 87.1054 29.7059C87.3807 29.6946 87.6555 29.7377 87.9141 29.8327C88.1726 29.9277 88.41 30.0728 88.6124 30.2596C88.8149 30.4464 88.9785 30.6713 89.094 30.9215C89.2094 31.1716 89.2744 31.442 89.2853 31.7173Z" fill="#263238"/>
<path d="M118.596 72.8624C115.99 69.8435 113.946 66.3817 112.562 62.6415C111.158 58.6514 107.598 53.8708 106.359 52.4254C105.119 50.9799 102.547 48.9264 100.54 46.9243C98.533 44.9223 97.9483 44.3703 95.3101 44.1738C91.6942 43.9025 88.8454 43.5985 87.4889 44.1738C86.1324 44.7492 86.2587 45.638 87.5871 46.7606C88.9156 47.8833 91.4931 47.9441 92.3117 48.1125C93.1303 48.2809 94.9312 48.875 94.9312 48.875L98.6734 53.4264C98.6734 53.4264 93.1724 54.9794 92.1245 55.6811C91.0767 56.3827 90.4078 59.3063 91.0346 60.8266C91.0346 60.8266 89.1121 62.4077 90.0991 64.3536C90.0991 64.3536 88.9951 66.1077 89.9821 67.3661C91.0726 68.6331 92.3046 69.7709 93.6542 70.7574C94.3932 71.2813 97.1017 71.1784 97.1017 71.1784C97.1017 71.1784 98.0933 73.7184 101.779 75.6831C103.898 76.8151 104.876 78.6207 106.686 82.4985L118.596 72.8624Z" fill="#FFBDA7"/>
<path d="M108.197 54.3487C107.599 53.647 106.967 52.9781 106.373 52.2858C105.325 51.0696 103.566 49.6008 102.378 48.4828C98.0466 44.4787 99.0476 44.184 92.8403 43.8051C91.4616 43.6694 90.0747 43.6366 88.6911 43.7068C87.9557 43.7228 87.2465 43.9828 86.675 44.4459C86.0155 45.0447 86.5207 45.9896 87.0539 46.4807C88.373 47.884 90.492 47.9682 92.2556 48.2396C93.1163 48.4313 93.9863 48.7073 94.8377 48.9786L98.4255 53.3196C96.2971 53.9932 93.9676 54.5405 92.0217 55.607C90.8055 56.7203 90.4312 59.2463 90.9739 60.7525C90.4878 61.1918 90.1236 61.7494 89.9167 62.371C89.8162 62.6902 89.7802 63.0262 89.8108 63.3595C89.8413 63.6927 89.9377 64.0166 90.0944 64.3123C89.6551 64.9882 89.488 65.8055 89.6267 66.5997C89.6973 66.8577 89.8181 67.0994 89.9822 67.3107C89.3086 66.4266 89.5986 65.201 90.1272 64.3169C89.5097 63.0493 90.0711 61.66 91.1142 60.7946C90.5388 59.2884 91.0206 55.9157 92.7935 55.4152C94.8002 54.6603 96.8438 54.0077 98.9167 53.4599L98.7716 53.2822L95.0295 48.7214L94.9967 48.6839H94.9546C94.0752 48.4033 93.2098 48.1179 92.293 47.9121C90.9271 47.6969 89.5705 47.6127 88.3309 47.0093C87.3954 46.5415 85.7395 45.0213 87.3954 44.3477C88.2407 44.0547 89.1364 43.9354 90.029 43.9968C91.6194 43.9968 93.8974 44.2401 95.5066 44.3383C96.4047 44.3649 97.2848 44.5969 98.0793 45.0166C99.5902 45.9942 100.764 47.5051 102.149 48.6606C103.328 49.7458 105.133 51.2146 106.167 52.4027C108.868 55.4108 111.015 58.8725 112.51 62.6283C111.649 60.0321 109.984 56.4303 108.197 54.3487Z" fill="#F0997A"/>
<path d="M96.2129 54.1423C95.3662 53.609 94.0331 52.6828 92.8262 53.2769C91.6194 53.871 92.6578 55.3912 92.6578 55.3912L96.2129 54.1423Z" fill="#F0997A"/>
<path d="M96.3579 57.4072C95.0364 57.6481 93.7569 58.0798 92.5596 58.6889C91.9686 59.0029 91.3983 59.3545 90.8522 59.7414C90.8713 60.0999 90.9454 60.4533 91.0721 60.7892L91.161 60.8267C91.8751 60.0239 92.7099 59.3374 93.6355 58.7918C94.4868 58.2633 96.3579 57.4072 96.3579 57.4072Z" fill="#F0997A"/>
<path d="M91.0487 62.6832C90.6338 62.9021 90.2351 63.1507 89.8559 63.4269C89.8954 63.7543 89.9953 64.0715 90.1506 64.3625C90.7867 63.2539 93.425 61.8271 93.425 61.8271C92.604 62.0248 91.8071 62.3118 91.0487 62.6832Z" fill="#F0997A"/>
<path d="M97.1251 71.151C96.3956 69.8981 95.5262 68.7322 94.5336 67.6755C93.6402 66.8241 92.0825 67.1095 91.7785 67.6755C91.4744 68.2415 93.2847 68.0029 93.8367 68.1853C94.3886 68.3678 96.0633 69.7711 97.1251 71.151Z" fill="#F0997A"/>
<path d="M100.329 53.1183C100.329 53.1183 98.926 51.6354 96.8912 49.5071C94.8564 47.3787 94.9874 47.7015 93.1724 47.5143C91.4791 47.3366 87.9333 47.0466 86.9183 46.0596C87.0891 46.258 87.2769 46.4411 87.4796 46.6069C88.766 47.6968 91.3855 47.795 92.2041 47.9587C93.0227 48.1225 94.8283 48.7212 94.8283 48.7212L98.9401 53.4925L100.329 53.1183Z" fill="#F0997A"/>
<path d="M139.959 99.0679C139.325 97.2059 138.396 95.4576 137.209 93.8897C133.2 89.0576 121.819 76.6241 118.596 72.8398L106.705 82.4526C106.705 82.4526 106.85 82.9765 112.459 96.018C114.175 100.003 115.733 104.438 117.571 108.377C118.933 111.31 122.221 114.458 125.669 116.829C127.641 118.038 129.782 118.946 132.021 119.524C133.557 119.94 135.192 119.798 136.633 119.121C138.299 118.331 139.618 115.894 140.053 114.261C141 110.336 141.252 106.275 140.796 102.263C140.645 101.168 140.364 100.096 139.959 99.0679Z" fill="#FFBDA7"/>
<path d="M34.972 170.411C33.6529 168.97 31.9596 167.703 31.4076 165.733C31.2475 165.235 31.2064 164.707 31.2877 164.19C31.3689 163.673 31.5702 163.183 31.8754 162.758C32.0331 162.606 32.1546 162.421 32.2309 162.216C32.2704 162.038 32.2704 161.855 32.2309 161.678C32.0456 160.942 32.0963 160.166 32.3759 159.46C32.5133 159.173 32.7091 158.918 32.9507 158.711C33.1924 158.504 33.4745 158.35 33.7792 158.258C33.4283 157.168 33.4381 155.993 33.8073 154.909C34.247 153.637 35.5614 152.622 36.4221 154.044C36.8308 154.754 37.1647 155.505 37.4185 156.284C38.0716 158.21 38.497 160.205 38.6861 162.23C38.9013 164.335 39.4018 170.294 36.1415 170.575C35.8795 170.598 35.1591 170.612 34.972 170.411Z" fill="#F0997A"/>
<path d="M44.7298 70.5273C30.5094 74.5923 28.1846 79.4431 20.7049 89.7388C13.3234 99.9035 7.7195 107.341 4.61816 113.048C1.34374 119.064 1.0163 121.468 8.04694 129.167C11.7049 133.167 16.1301 137.12 22.8005 143.093C25.7615 145.736 33.8493 152.762 35.0515 153.95C36.0759 154.97 37.1986 157.449 37.5401 158.913C37.5999 159.162 37.6344 159.416 37.643 159.671C37.6851 160.761 37.3857 161.827 37.2547 162.908C37.119 164.351 37.1757 165.806 37.4231 167.235C37.6056 168.432 37.919 169.574 36.5624 170.224C36.0559 170.417 35.5095 170.481 34.972 170.411C35.9023 171.12 36.9355 171.684 38.0359 172.081C39.1504 172.478 40.3739 172.438 41.46 171.969C42.7756 171.287 44.1315 170.685 45.5203 170.168C46.1097 169.995 46.7365 170.023 47.3306 169.868C47.9432 169.704 48.4874 169.349 48.8836 168.853C49.5057 168.072 49.7583 166.95 50.6377 166.472C51.0805 166.297 51.5335 166.149 51.9943 166.028C52.4347 165.817 52.8177 165.502 53.1108 165.111C53.404 164.72 53.5986 164.265 53.6783 163.783C53.8279 162.818 53.8041 161.834 53.6081 160.878C53.2198 158.286 52.7755 155.466 52.1346 152.926C51.2973 149.628 50.3664 147.921 49.0333 146.063C44.6643 139.954 28.063 119.134 28.063 119.134L42.7838 103.019C46.1331 100.334 53.2432 81.3984 44.7298 70.5273Z" fill="#FFBDA7"/>
<path d="M28.063 119.133C24.2413 122.875 18.3146 123.174 16.1348 123.043C23.8343 126.182 29.5692 121.032 29.5692 121.032L28.063 119.133Z" fill="#F0997A"/>
<path d="M44.6877 14.8488C42.564 18.2916 41.6612 20.565 41.1606 24.3727C40.7396 27.6471 41.2776 30.7578 42.0681 32.5868C42.5686 33.7375 44.0936 33.6814 44.7204 32.5868C46.4745 29.5322 49.0005 28.6481 51.6434 28.3768C56.3867 27.909 61.7848 31.2349 62.5987 22.8618C63.2255 16.4018 69.3346 13.3519 73.7925 12.6175C77.6657 11.9813 79.9157 12.0655 81.6371 12.2527C83.6204 12.4772 84.6121 11.9439 84.9396 11.0973C85.8424 8.75839 82.4604 6.41952 79.8829 5.09572C68.8528 -0.531599 52.2141 2.57442 44.6877 14.8488Z" fill="white"/>
<path opacity="0.6" d="M44.6877 14.8488C42.564 18.2916 41.6612 20.565 41.1606 24.3727C40.7396 27.6471 41.2776 30.7578 42.0681 32.5868C42.5686 33.7375 44.0936 33.6814 44.7204 32.5868C46.4745 29.5322 49.0005 28.6481 51.6434 28.3768C56.3867 27.909 61.7848 31.2349 62.5987 22.8618C63.2255 16.4018 69.3346 13.3519 73.7925 12.6175C77.6657 11.9813 79.9157 12.0655 81.6371 12.2527C83.6204 12.4772 84.6121 11.9439 84.9396 11.0973C85.8424 8.75839 82.4604 6.41952 79.8829 5.09572C68.8528 -0.531599 52.2141 2.57442 44.6877 14.8488Z" fill="white"/>
<path d="M61.5977 18.4185L60.1336 18.0162C60.0407 17.9816 59.9585 17.9232 59.8953 17.8468C59.8321 17.7705 59.7901 17.6789 59.7734 17.5812C59.7319 17.3074 59.671 17.037 59.5909 16.7719C59.5792 16.6479 59.6003 16.523 59.652 16.4098C59.7037 16.2965 59.7843 16.1988 59.8856 16.1264L60.7417 15.3873C60.9662 15.1955 61.0644 14.9195 60.9662 14.7979L59.9652 13.3946C59.8669 13.2589 59.5956 13.2543 59.357 13.3946L58.2905 13.97C58.1908 14.0326 58.0771 14.0696 57.9596 14.0778C57.8421 14.0859 57.7244 14.065 57.6169 14.0167C57.3743 13.8403 57.1178 13.6838 56.8498 13.549C56.7648 13.494 56.6961 13.4173 56.6509 13.3268C56.6056 13.2363 56.5855 13.1353 56.5925 13.0344L56.6907 11.6592C56.7001 11.561 56.6734 11.4627 56.6158 11.3827C56.5582 11.3027 56.4734 11.2463 56.3773 11.2241L54.7261 10.9575C54.6192 10.9544 54.5145 10.988 54.4294 11.0526C54.3443 11.1173 54.2839 11.2092 54.2583 11.313L53.8841 12.5432C53.8468 12.6603 53.7791 12.7653 53.6878 12.8475C53.5966 12.9297 53.4851 12.9861 53.3649 13.011C53.1347 13.0487 52.9067 13.0987 52.6819 13.1607C52.5786 13.1995 52.4673 13.2121 52.3579 13.1974C52.2486 13.1827 52.1445 13.1412 52.0551 13.0765L51.0166 11.9305C50.9044 11.8088 50.6237 11.8369 50.3898 12.0006L49.2859 12.7584C49.052 12.9221 48.9304 13.1701 49.0146 13.3197L49.763 14.6482C49.7889 14.7662 49.7867 14.8886 49.7566 15.0056C49.7266 15.1226 49.6695 15.2309 49.5899 15.3218C49.487 15.4622 49.3935 15.6118 49.3046 15.7615C49.248 15.8726 49.1643 15.9677 49.0613 16.038C48.9583 16.1083 48.8393 16.1515 48.7152 16.1638L47.2417 16.0796C47.1373 16.0851 47.0377 16.1253 46.9588 16.194C46.88 16.2627 46.8264 16.3558 46.8067 16.4585L46.5307 17.946C46.511 18.0401 46.5245 18.1381 46.5688 18.2233C46.6132 18.3086 46.6856 18.3759 46.7739 18.4138L48.2427 18.8161C48.3357 18.8484 48.418 18.9057 48.4807 18.9815C48.5434 19.0574 48.584 19.149 48.5983 19.2464C48.639 19.5207 48.7016 19.7913 48.7854 20.0557C48.7947 20.1801 48.7726 20.3048 48.7211 20.4185C48.6696 20.5321 48.5904 20.6309 48.4907 20.7059L47.63 21.445C47.4101 21.6321 47.3119 21.9128 47.4054 22.0344L48.4065 23.4377C48.5047 23.5733 48.7807 23.578 49.0193 23.4377L50.0811 22.8623C50.1806 22.7993 50.2941 22.7617 50.4115 22.7527C50.5289 22.7438 50.6468 22.7637 50.7547 22.8109C50.9985 22.988 51.2567 23.1445 51.5265 23.2787C51.6108 23.3343 51.6789 23.4111 51.7241 23.5015C51.7692 23.5918 51.7898 23.6924 51.7838 23.7932L51.6809 25.1685C51.6707 25.2675 51.6976 25.3668 51.7563 25.4471C51.8151 25.5275 51.9015 25.5832 51.999 25.6035L53.6502 25.8748C53.7577 25.8777 53.8629 25.8434 53.9481 25.7778C54.0333 25.7122 54.0933 25.6193 54.118 25.5146L54.4922 24.2844C54.5316 24.1677 54.6005 24.0633 54.6924 23.9813C54.7842 23.8993 54.8958 23.8425 55.0161 23.8166C55.2451 23.7811 55.4717 23.7311 55.6944 23.6669C55.798 23.6301 55.909 23.6186 56.018 23.6332C56.127 23.6479 56.2309 23.6883 56.3212 23.7511L57.3597 24.9018C57.4719 25.0234 57.7526 24.9907 57.9865 24.8317L59.0904 24.0692C59.3243 23.9101 59.4459 23.6575 59.3617 23.5125L58.618 22.1794C58.5338 22.0344 58.618 21.7116 58.7864 21.5058C58.8901 21.3666 58.9854 21.2213 59.0717 21.0708C59.1294 20.9601 59.2133 20.8652 59.316 20.7943C59.4187 20.7234 59.5372 20.6786 59.6611 20.6638L61.1252 20.7433C61.2305 20.7389 61.3312 20.6991 61.411 20.6303C61.4908 20.5616 61.545 20.4679 61.5649 20.3644L61.8409 18.8816C61.8594 18.7882 61.8454 18.6913 61.8011 18.6071C61.7569 18.5228 61.6851 18.4562 61.5977 18.4185ZM57.4345 18.9517C57.2642 19.8035 56.7691 20.5556 56.0541 21.0489C55.3391 21.5421 54.4602 21.7379 53.6034 21.5947C53.183 21.5324 52.7793 21.3864 52.4163 21.1653C52.0533 20.9442 51.7384 20.6525 51.4902 20.3075C51.242 19.9624 51.0655 19.5711 50.9714 19.1566C50.8772 18.7422 50.8671 18.313 50.9418 17.8946C51.1132 17.0427 51.6094 16.291 52.3253 15.7985C53.0413 15.3061 53.9207 15.1117 54.7775 15.2563C55.1977 15.318 55.6011 15.4634 55.9639 15.6841C56.3266 15.9048 56.6413 16.1962 56.8892 16.541C57.1371 16.8857 57.3131 17.2768 57.4068 17.691C57.5004 18.1051 57.5099 18.5339 57.4345 18.9517ZM69.7463 10.485L68.8575 9.97517C68.8028 9.93665 68.7593 9.88433 68.7313 9.82353C68.7034 9.76273 68.6921 9.69562 68.6985 9.62902C68.7124 9.44373 68.7124 9.25765 68.6985 9.07236C68.7135 8.99008 68.7487 8.91281 68.801 8.8475C68.8532 8.78218 68.9209 8.73086 68.9979 8.69814L69.6855 8.36602C69.8632 8.27715 69.9708 8.12278 69.9334 8.01987L69.5171 6.94399C69.475 6.8364 69.2972 6.78495 69.1195 6.83173L68.3289 7.02352C68.251 7.05318 68.1665 7.06145 68.0842 7.04747C68.002 7.03348 67.925 6.99776 67.8612 6.94399C67.7343 6.78512 67.5934 6.63796 67.4402 6.50429C67.3945 6.45386 67.3631 6.39219 67.3491 6.32561C67.3351 6.25902 67.3391 6.18992 67.3607 6.12539L67.66 5.24597C67.6834 5.18355 67.6829 5.11471 67.6588 5.0526C67.6346 4.99048 67.5884 4.93943 67.5291 4.90918L66.4953 4.4414C66.426 4.42025 66.3515 4.42413 66.2848 4.45235C66.2181 4.48056 66.1635 4.53133 66.1304 4.59577L65.6626 5.33485C65.6173 5.40402 65.5545 5.45993 65.4805 5.49691C65.4066 5.53389 65.3242 5.5506 65.2416 5.54535C65.0873 5.54535 64.9282 5.54535 64.7739 5.54535C64.7005 5.55165 64.6266 5.54053 64.5584 5.51289C64.4901 5.48525 64.4293 5.44188 64.3809 5.38631L63.9132 4.45076C63.8617 4.35253 63.6746 4.32446 63.4922 4.38995L62.6455 4.694C62.4631 4.75949 62.3414 4.9045 62.3695 5.01677L62.6315 6.00844C62.6595 6.12071 62.5519 6.29847 62.4023 6.42009C62.2526 6.54171 62.2245 6.57445 62.145 6.65397C62.0871 6.71859 62.014 6.7678 61.9323 6.79719C61.8507 6.82658 61.763 6.83524 61.6772 6.82237L60.7417 6.51832C60.6722 6.50128 60.5989 6.50928 60.5347 6.54094C60.4705 6.5726 60.4196 6.62587 60.3908 6.69139L59.9558 7.62694C59.9236 7.68575 59.9139 7.75426 59.9286 7.81968C59.9432 7.8851 59.9812 7.94296 60.0353 7.98245L60.9241 8.497C60.9788 8.53443 61.0224 8.58588 61.0504 8.64595C61.0784 8.70603 61.0897 8.77253 61.0831 8.83848C61.0691 9.02532 61.0691 9.21296 61.0831 9.3998C61.0704 9.48307 61.0355 9.56136 60.9819 9.6264C60.9284 9.69144 60.8583 9.74083 60.7791 9.76935L60.0961 10.1061C59.9184 10.1903 59.8108 10.3494 59.8482 10.4523L60.2645 11.5282C60.3066 11.6358 60.4844 11.6825 60.6621 11.6404L61.4527 11.444C61.5311 11.4149 61.6158 11.4074 61.6981 11.4222C61.7803 11.437 61.8571 11.4736 61.9205 11.5282C62.0473 11.6871 62.1882 11.8342 62.3414 11.9679C62.3871 12.0183 62.4185 12.08 62.4325 12.1466C62.4465 12.2131 62.4425 12.2822 62.421 12.3468L62.1216 13.2262C62.0982 13.2886 62.0987 13.3575 62.1228 13.4196C62.147 13.4817 62.1932 13.5327 62.2526 13.563L63.2864 14.0308C63.3557 14.0501 63.4295 14.0454 63.4957 14.0173C63.562 13.9893 63.6168 13.9396 63.6512 13.8764L64.119 13.1373C64.1639 13.0689 64.226 13.0134 64.299 12.9765C64.3721 12.9395 64.4536 12.9224 64.5353 12.9268C64.6911 12.936 64.8473 12.936 65.0031 12.9268C65.0769 12.9211 65.1509 12.9329 65.2192 12.9614C65.2875 12.9899 65.3481 13.0341 65.396 13.0905L65.8638 14.0261C65.9152 14.1243 66.1024 14.1524 66.2848 14.0869L67.1315 13.7782C67.3139 13.7127 67.4355 13.5723 67.4074 13.4601L67.1455 12.4684C67.1174 12.3561 67.225 12.1784 67.3747 12.0568C67.5244 11.9351 67.5478 11.9024 67.632 11.8182C67.6901 11.7541 67.7634 11.7055 67.8451 11.6769C67.9268 11.6483 68.0143 11.6406 68.0997 11.6545L69.0353 11.9585C69.1048 11.9756 69.1781 11.9676 69.2422 11.9359C69.3064 11.9042 69.3574 11.851 69.3861 11.7854L69.8165 10.8499C69.8513 10.791 69.8633 10.7214 69.8504 10.6542C69.8375 10.587 69.8005 10.5269 69.7463 10.485ZM66.9397 10.1249C66.6835 10.6509 66.2328 11.0567 65.6829 11.2566C65.133 11.4565 64.5269 11.4348 63.9927 11.1961C63.729 11.0845 63.4904 10.921 63.2911 10.7155C63.0918 10.5099 62.9358 10.2664 62.8324 9.99935C62.729 9.73234 62.6803 9.44727 62.6891 9.16107C62.698 8.87487 62.7643 8.59337 62.8841 8.33328C63.1403 7.80607 63.5918 7.39937 64.1428 7.1994C64.6938 6.99943 65.301 7.02191 65.8357 7.26208C66.0994 7.37359 66.338 7.53706 66.5372 7.74274C66.7364 7.94841 66.8921 8.19208 66.9951 8.45922C67.0981 8.72637 67.1463 9.01152 67.1368 9.29768C67.1273 9.58384 67.0602 9.86516 66.9397 10.1249Z" fill="white"/>
</svg>
