<svg width="224" height="217" viewBox="0 0 224 217" fill="none" xmlns="http://www.w3.org/2000/svg">
<path d="M112 216.426C173.856 216.426 224 187.475 224 151.763C224 116.05 173.856 87.0996 112 87.0996C50.1441 87.0996 0 116.05 0 151.763C0 187.475 50.1441 216.426 112 216.426Z" fill="#F0F0F0"/>
<path d="M144.144 204.108C164.907 204.108 181.739 194.39 181.739 182.403C181.739 170.415 164.907 160.697 144.144 160.697C123.381 160.697 106.549 170.415 106.549 182.403C106.549 194.39 123.381 204.108 144.144 204.108Z" fill="#E0E0E0"/>
<path d="M194.613 13.4791L198.612 15.788C198.591 15.6117 198.58 15.4345 198.578 15.257V14.1026C198.578 12.0373 200.039 11.2043 201.807 12.2321C202.583 12.7025 203.248 13.3357 203.756 14.088C204.048 11.4966 206.084 10.5272 208.554 11.9545C211.223 13.4986 213.391 17.2493 213.391 20.3327V22.0668C213.407 22.7585 213.266 23.445 212.977 24.0736L216.299 25.9928C216.821 26.3318 217.256 26.7897 217.568 27.329C217.879 27.8683 218.059 28.4737 218.091 29.0957C218.091 30.2404 217.292 30.7031 216.299 30.1332L194.613 17.639C194.091 17.2997 193.656 16.8417 193.345 16.3025C193.033 15.7633 192.853 15.158 192.82 14.5361C192.82 13.3719 193.619 12.9092 194.613 13.4791Z" fill="#EBEBEB"/>
<path d="M177.496 25.1306L180.516 26.8744C180.501 26.7418 180.493 26.6085 180.492 26.475V25.5982C180.492 24.0443 181.583 23.4111 182.927 24.1905C183.51 24.545 184.009 25.0221 184.389 25.5885C184.613 23.64 186.147 22.9045 188.008 23.981C189.072 24.6746 189.958 25.6095 190.592 26.7099C191.227 27.8102 191.593 29.0449 191.661 30.3134V31.6188C191.675 32.141 191.568 32.6593 191.349 33.1337L193.858 34.595C194.251 34.8533 194.579 35.2002 194.814 35.6079C195.049 36.0157 195.186 36.4729 195.212 36.9429C195.212 37.805 194.603 38.1558 193.858 37.7222L177.496 28.2578C177.104 28.0008 176.777 27.6554 176.543 27.2493C176.309 26.8432 176.173 26.3878 176.147 25.9197C176.147 25.0478 176.751 24.6971 177.496 25.1306Z" fill="#EBEBEB"/>
<path d="M28.1644 135.671L32.2512 133.333C32.2512 133.333 34.1996 122.524 32.7383 113.235C30.673 100.175 21.7784 95.6696 18.5489 96.9653C15.3194 98.261 14.579 102.133 20.4243 109.703C23.834 114.136 28.2715 123.547 28.1644 135.671Z" fill="#37474F"/>
<path d="M29.6451 130.483H29.6062C29.5683 130.478 29.5317 130.466 29.4986 130.447C29.4655 130.428 29.4366 130.402 29.4135 130.372C29.3903 130.342 29.3735 130.307 29.3639 130.27C29.3544 130.233 29.3523 130.195 29.3577 130.157C31.0431 117.926 26.1282 104.53 20.5898 99.1282C20.5349 99.0746 20.5036 99.0014 20.5027 98.9246C20.5018 98.8479 20.5314 98.7739 20.585 98.719C20.6386 98.6641 20.7118 98.6328 20.7885 98.6319C20.8653 98.6309 20.9392 98.6606 20.9941 98.7142C26.6348 104.204 31.6276 117.823 29.9325 130.23C29.9231 130.3 29.8889 130.364 29.8361 130.41C29.7833 130.457 29.7155 130.483 29.6451 130.483Z" fill="white"/>
<path d="M16.8197 142.222C16.1718 142.592 14.842 141.784 14.3306 141.438C13.4555 140.844 12.7491 140.033 12.2798 139.085C11.7524 138.011 11.5736 136.798 11.7684 135.617C11.8706 134.992 12.0171 134.375 12.2068 133.771L12.6939 131.978C12.9037 131.4 12.9932 130.785 12.9569 130.171C12.801 128.948 11.7148 128.091 10.726 127.351C9.63487 126.532 8.49504 125.451 8.49991 123.975C8.59196 122.834 9.05765 121.756 9.82484 120.906C10.5311 120.015 11.3641 119.226 12.0022 118.281C12.5036 117.625 12.7664 116.817 12.7475 115.991C12.6823 115.486 12.5167 114.999 12.2604 114.559C11.7392 113.585 11.0523 112.718 10.6968 111.69C10.3412 110.663 10.385 109.372 11.1839 108.636C11.8415 108.027 12.8254 107.945 13.7217 108.003C14.5587 108.106 15.3632 108.39 16.0793 108.836C18.4222 110.136 19.7569 112.908 22.2411 113.912C23.2268 114.218 24.2306 114.464 25.2466 114.647C26.2208 114.91 27.2681 115.422 27.7308 116.342C28.6417 118.164 26.9466 120.41 27.5896 122.343C28.1546 124.058 29.8205 124.711 30.7509 126.24C31.1336 126.919 31.2873 127.703 31.1893 128.476C31.1074 129.786 30.7872 131.07 30.2443 132.266C29.6371 133.452 28.9435 134.591 28.1692 135.675C28.1254 135.705 16.9171 142.164 16.8197 142.222Z" fill="#455A64"/>
<path d="M23.4541 138.685C23.4155 138.685 23.3774 138.676 23.3421 138.661C23.3068 138.645 23.2751 138.623 23.2487 138.594C23.2223 138.566 23.2019 138.533 23.1887 138.497C23.1754 138.46 23.1696 138.422 23.1716 138.383C23.6587 126.81 18.1982 114.028 14.2332 110.316C14.2014 110.291 14.1752 110.26 14.1563 110.224C14.1373 110.188 14.126 110.149 14.1231 110.108C14.1201 110.068 14.1256 110.027 14.1392 109.989C14.1527 109.951 14.1741 109.916 14.2019 109.887C14.2297 109.857 14.2633 109.834 14.3006 109.818C14.3379 109.802 14.378 109.794 14.4185 109.795C14.459 109.795 14.499 109.804 14.5358 109.821C14.5727 109.838 14.6056 109.862 14.6326 109.893C18.6756 113.677 24.2383 126.668 23.7512 138.408C23.7474 138.483 23.7143 138.555 23.6589 138.607C23.6034 138.658 23.53 138.687 23.4541 138.685Z" fill="white"/>
<path d="M21.7199 125.014C21.6925 125.019 21.6645 125.019 21.6371 125.014C18.894 124.257 16.0764 123.803 13.2345 123.659C13.1964 123.658 13.1588 123.649 13.1241 123.633C13.0894 123.617 13.0582 123.595 13.0323 123.567C13.0065 123.539 12.9865 123.506 12.9735 123.47C12.9606 123.434 12.9549 123.396 12.9569 123.357C12.9568 123.319 12.9647 123.28 12.9801 123.245C12.9955 123.209 13.0181 123.177 13.0464 123.15C13.0747 123.124 13.1082 123.104 13.1448 123.091C13.1813 123.078 13.2202 123.072 13.2589 123.075C16.1501 123.225 19.0164 123.689 21.8076 124.458C21.8733 124.48 21.9293 124.524 21.9655 124.583C22.0017 124.642 22.0158 124.712 22.0053 124.78C21.9947 124.849 21.9603 124.911 21.908 124.957C21.8558 125.002 21.7891 125.027 21.7199 125.028V125.014Z" fill="white"/>
<path d="M43.4692 21.0737L26.138 11.0686C26.0756 11.0215 25.9995 10.9961 25.9213 10.9961C25.8431 10.9961 25.767 11.0215 25.7045 11.0686C25.6022 11.1562 24.9787 11.4728 24.8716 11.5557C24.8036 11.6158 24.7512 11.6915 24.7189 11.7764C24.6867 11.8612 24.6756 11.9526 24.6865 12.0428V27.6301C24.696 27.8516 24.7557 28.068 24.8612 28.2629C24.9667 28.4578 25.1152 28.6262 25.2954 28.7553L28.3398 30.5089L43.8784 21.5364C43.787 21.3476 43.6455 21.1875 43.4692 21.0737Z" fill="#101B94"/>
<path opacity="0.5" d="M43.4692 21.0737L26.138 11.0686C26.0756 11.0215 25.9995 10.9961 25.9213 10.9961C25.8431 10.9961 25.767 11.0215 25.7045 11.0686C25.6022 11.1562 24.9787 11.4728 24.8716 11.5557C24.8036 11.6158 24.7512 11.6915 24.7189 11.7764C24.6867 11.8612 24.6756 11.9526 24.6865 12.0428V27.6301C24.696 27.8516 24.7557 28.068 24.8612 28.2629C24.9667 28.4578 25.1152 28.6262 25.2954 28.7553L28.3398 30.5089L43.8784 21.5364C43.787 21.3476 43.6455 21.1875 43.4692 21.0737Z" fill="white"/>
<path d="M43.0212 38.7796C43.143 38.7066 43.7713 38.3559 43.8785 38.2925C43.9484 38.2337 44.0024 38.1583 44.0356 38.0732C44.0688 37.9881 44.0801 37.896 44.0685 37.8054V22.2181C44.0628 21.977 43.9975 21.741 43.8785 21.5312L28.3301 30.5086L42.6169 38.7601C42.6751 38.8023 42.7443 38.8266 42.8161 38.83C42.8879 38.8335 42.9592 38.816 43.0212 38.7796Z" fill="#101B94"/>
<path opacity="0.2" d="M43.0212 38.7796C43.143 38.7066 43.7713 38.3559 43.8785 38.2925C43.9484 38.2337 44.0024 38.1583 44.0356 38.0732C44.0688 37.9881 44.0801 37.896 44.0685 37.8054V22.2181C44.0628 21.977 43.9975 21.741 43.8785 21.5312L28.3301 30.5086L42.6169 38.7601C42.6751 38.8023 42.7443 38.8266 42.8161 38.83C42.8879 38.8335 42.9592 38.816 43.0212 38.7796Z" fill="black"/>
<path d="M42.6167 38.7602L25.2953 28.7551C25.1144 28.6229 24.9662 28.451 24.8623 28.2525C24.7585 28.054 24.7016 27.8343 24.6962 27.6104V12.023C24.6962 11.5846 24.9641 11.38 25.2953 11.5749L42.6265 21.58C42.8087 21.7097 42.9578 21.8805 43.0619 22.0785C43.166 22.2765 43.2221 22.4962 43.2256 22.7198V38.3072C43.2159 38.7456 42.948 38.9502 42.6167 38.7602Z" fill="#101B94"/>
<path opacity="0.2" d="M43.216 38.3075V38.0006L36.0506 26.125L43.1234 22.2282C43.1234 22.1843 43.0893 22.1405 43.0698 22.0966L34.2581 25.7499C34.073 25.8279 33.8294 25.6915 33.6443 25.3992L24.8424 11.5703L24.7888 11.6288L31.8518 23.7041L24.6865 27.3038V27.6107C24.692 27.8568 24.7537 28.0983 24.8667 28.317L32.2171 24.3276L33.2595 26.1055C33.6687 26.8069 34.2337 27.1333 34.6478 26.9044L35.6853 26.3296L43.0211 38.78C43.0891 38.7226 43.1422 38.6497 43.1761 38.5675C43.21 38.4853 43.2237 38.3961 43.216 38.3075Z" fill="black"/>
<path d="M82.3354 45.3752L45.9925 23.2168V25.5403L82.3354 45.3752Z" fill="#E0E0E0"/>
<path d="M69.1105 52.1416L45.9973 37.5869L45.9925 37.5918V39.8958L69.1105 52.1416Z" fill="#E0E0E0"/>
<path d="M45.9973 30.4014L45.9925 30.4062V32.72L75.2918 48.5704L45.9973 30.4014Z" fill="#E0E0E0"/>
<path d="M81.7995 10.0794L64.4878 0.0743059C64.4249 0.0261148 64.3478 0 64.2686 0C64.1893 0 64.1123 0.0261148 64.0494 0.0743059C63.952 0.157114 63.3236 0.473732 63.2165 0.561411C63.1486 0.621499 63.0967 0.697397 63.0653 0.78237C63.0338 0.867342 63.0239 0.958761 63.0362 1.04852V16.6359C63.039 16.8603 63.0947 17.081 63.1988 17.2799C63.3029 17.4788 63.4525 17.6503 63.6354 17.7806L66.6992 19.5147L82.2476 10.5324C82.1421 10.3436 81.9872 10.187 81.7995 10.0794Z" fill="#101B94"/>
<path opacity="0.5" d="M81.7995 10.0794L64.4878 0.0743059C64.4249 0.0261148 64.3478 0 64.2686 0C64.1893 0 64.1123 0.0261148 64.0494 0.0743059C63.952 0.157114 63.3236 0.473732 63.2165 0.561411C63.1486 0.621499 63.0967 0.697397 63.0653 0.78237C63.0338 0.867342 63.0239 0.958761 63.0362 1.04852V16.6359C63.039 16.8603 63.0947 17.081 63.1988 17.2799C63.3029 17.4788 63.4525 17.6503 63.6354 17.7806L66.6992 19.5147L82.2476 10.5324C82.1421 10.3436 81.9872 10.187 81.7995 10.0794Z" fill="white"/>
<path d="M81.3708 27.7855C81.4877 27.7076 82.1161 27.3617 82.2232 27.2984C82.2931 27.2396 82.3472 27.1642 82.3804 27.0791C82.4136 26.994 82.4248 26.9019 82.4132 26.8113V11.2239C82.4075 10.9828 82.3423 10.7469 82.2232 10.5371L66.6992 19.5145L80.986 27.7611C81.0421 27.7992 81.1074 27.8215 81.1751 27.8258C81.2427 27.83 81.3103 27.8161 81.3708 27.7855Z" fill="#101B94"/>
<path opacity="0.2" d="M81.3708 27.7855C81.4877 27.7076 82.1161 27.3617 82.2232 27.2984C82.2931 27.2396 82.3472 27.1642 82.3804 27.0791C82.4136 26.994 82.4248 26.9019 82.4132 26.8113V11.2239C82.4075 10.9828 82.3423 10.7469 82.2232 10.5371L66.6992 19.5145L80.986 27.7611C81.0421 27.7992 81.1074 27.8215 81.1751 27.8258C81.2427 27.83 81.3103 27.8161 81.3708 27.7855Z" fill="black"/>
<path d="M80.9617 27.7609L63.6353 17.7558C63.4525 17.6256 63.3029 17.454 63.1988 17.2551C63.0947 17.0562 63.039 16.8356 63.0362 16.6111V1.02377C63.0362 0.5805 63.3041 0.380787 63.6353 0.570758L80.9617 10.5759C81.1445 10.7061 81.2941 10.8777 81.3982 11.0766C81.5023 11.2755 81.558 11.4961 81.5608 11.7206V27.3079C81.5608 27.7512 81.3124 27.9509 80.9617 27.7609Z" fill="#101B94"/>
<path opacity="0.2" d="M81.5608 27.3075V27.0007L74.3955 15.1299L81.4683 11.2331C81.4683 11.1892 81.4342 11.1454 81.4195 11.1064L72.6029 14.7792C72.4178 14.8571 72.1792 14.7159 71.9892 14.4236L63.1921 0.589844C63.1718 0.606929 63.1538 0.626576 63.1385 0.648296L70.2015 12.7236L63.0362 16.3233V16.6302C63.0387 16.8767 63.1005 17.119 63.2164 17.3365L70.562 13.3471L71.6044 15.1251C72.0184 15.8314 72.5786 16.1577 72.9926 15.9288L74.035 15.3491L81.3708 27.8044C81.4405 27.7433 81.4942 27.6661 81.5273 27.5795C81.5604 27.4929 81.5719 27.3996 81.5608 27.3075Z" fill="black"/>
<path d="M120.685 34.381L84.3421 12.2178V14.5413L120.685 34.381Z" fill="#E0E0E0"/>
<path d="M107.46 41.1426L84.3421 26.5928V28.8968L107.46 41.1426Z" fill="#E0E0E0"/>
<path d="M84.3421 19.4072V21.721L113.637 37.5762L84.3421 19.4072Z" fill="#E0E0E0"/>
<path d="M49.748 55.852L32.4168 45.8469C32.3543 45.7998 32.2782 45.7744 32.2 45.7744C32.1218 45.7744 32.0458 45.7998 31.9833 45.8469C31.881 45.9346 31.2575 46.2463 31.1503 46.334C31.0823 46.3941 31.0299 46.4698 30.9977 46.5547C30.9654 46.6396 30.9543 46.731 30.9652 46.8211V62.4084C30.9707 62.6324 31.0275 62.8521 31.1314 63.0506C31.2353 63.2491 31.3834 63.421 31.5644 63.5531L34.6088 65.3067L50.1377 56.305C50.0494 56.1227 49.9151 55.9665 49.748 55.852Z" fill="#101B94"/>
<path opacity="0.5" d="M49.748 55.852L32.4168 45.8469C32.3543 45.7998 32.2782 45.7744 32.2 45.7744C32.1218 45.7744 32.0458 45.7998 31.9833 45.8469C31.881 45.9346 31.2575 46.2463 31.1503 46.334C31.0823 46.3941 31.0299 46.4698 30.9977 46.5547C30.9654 46.6396 30.9543 46.731 30.9652 46.8211V62.4084C30.9707 62.6324 31.0275 62.8521 31.1314 63.0506C31.2353 63.2491 31.3834 63.421 31.5644 63.5531L34.6088 65.3067L50.1377 56.305C50.0494 56.1227 49.9151 55.9665 49.748 55.852Z" fill="white"/>
<path d="M49.2998 73.5579C49.4167 73.48 50.05 73.1342 50.1571 73.0708C50.227 73.012 50.2811 72.9366 50.3143 72.8515C50.3474 72.7664 50.3587 72.6743 50.3471 72.5837V56.9964C50.341 56.7538 50.2758 56.5163 50.1571 56.3047L34.6087 65.2869L48.8955 73.5384C48.9537 73.5806 49.023 73.6049 49.0948 73.6083C49.1666 73.6118 49.2378 73.5943 49.2998 73.5579Z" fill="#101B94"/>
<path opacity="0.2" d="M49.2998 73.5579C49.4167 73.48 50.05 73.1342 50.1571 73.0708C50.227 73.012 50.2811 72.9366 50.3143 72.8515C50.3474 72.7664 50.3587 72.6743 50.3471 72.5837V56.9964C50.341 56.7538 50.2758 56.5163 50.1571 56.3047L34.6087 65.2869L48.8955 73.5384C48.9537 73.5806 49.023 73.6049 49.0948 73.6083C49.1666 73.6118 49.2378 73.5943 49.2998 73.5579Z" fill="black"/>
<path d="M48.8955 73.5395L31.5643 63.5344C31.3834 63.4023 31.2353 63.2304 31.1314 63.0319C31.0275 62.8334 30.9706 62.6137 30.9652 62.3897V46.8024C30.9652 46.364 31.2331 46.1594 31.5643 46.3493L48.8955 56.3594C49.0777 56.4891 49.2269 56.6599 49.3309 56.8579C49.435 57.0558 49.4911 57.2755 49.4946 57.4992V73.0865C49.4946 73.5249 49.2267 73.7295 48.8955 73.5395Z" fill="#101B94"/>
<path opacity="0.2" d="M49.4947 73.0858V72.7789L42.344 60.9033L49.4168 57.0065C49.4168 56.9626 49.3827 56.9188 49.3632 56.875L40.5515 60.5477C40.3664 60.6257 40.1228 60.4893 39.9377 60.1922L31.1406 46.3486C31.1192 46.3645 31.101 46.3844 31.087 46.4071L38.15 58.4824L30.9847 62.0821V62.389C30.9902 62.6335 31.0518 62.8736 31.165 63.0904L38.5154 59.101L39.5529 60.879C39.9669 61.5853 40.5271 61.9116 40.9412 61.6827L41.9836 61.1079L49.3194 73.5583C49.3838 73.499 49.4333 73.4252 49.4637 73.3431C49.4942 73.261 49.5048 73.1728 49.4947 73.0858Z" fill="black"/>
<path d="M88.6141 80.1535L52.2712 57.9951V60.3186L88.6141 80.1535Z" fill="#E0E0E0"/>
<path d="M75.3892 86.9199L52.2712 72.3652V72.3701V74.6692L75.3892 86.9199Z" fill="#E0E0E0"/>
<path d="M52.2761 65.1797L52.2712 65.1846V67.4983L81.5706 83.3487L52.2761 65.1797Z" fill="#E0E0E0"/>
<path d="M171.13 187.024C171.164 188.485 170.959 190.078 169.717 191.13C167.145 193.322 162.245 192.324 159.878 191.062C157.008 189.537 155.727 187.19 153.545 185.85C152.242 185.141 150.886 184.535 149.488 184.038C148.392 183.585 147.227 183.181 146.998 181.831C146.945 181.427 146.945 181.018 146.998 180.614C147.006 180.448 147.037 180.284 147.091 180.127C147.188 179.919 147.336 179.738 147.52 179.601C148.382 178.904 149.556 178.758 150.657 178.626C151.414 178.52 152.18 178.504 152.941 178.578C153.788 178.714 154.609 178.978 155.377 179.362L158.153 180.706L163.706 183.405L171.13 187.024Z" fill="#37474F"/>
<path d="M148.893 171.296C149.546 170.322 151.017 170.726 152.069 170.809C153.477 170.936 154.873 171.173 156.244 171.52C157.057 171.729 158.134 172.07 158.548 172.864C159.035 173.839 159.308 174.91 159.8 175.879C160.602 177.292 161.717 178.504 163.058 179.421C164.359 180.395 165.752 181.228 166.98 182.28C167.709 182.899 168.376 183.587 168.972 184.336C169.603 185.071 170.076 185.928 170.36 186.854C170.628 187.828 170.579 189.216 169.815 189.957C168.982 190.664 167.947 191.087 166.858 191.165C164.79 191.277 162.728 190.855 160.871 189.937C159.162 189.09 157.841 187.682 156.526 186.338C155.963 185.684 155.324 185.1 154.622 184.599C153.876 184.159 153.096 183.781 152.288 183.469C150.798 182.835 149.268 182.222 147.987 181.208C147.703 181.005 147.465 180.742 147.291 180.439C147.134 180.057 147.076 179.641 147.12 179.231C147.253 177.945 147.553 176.683 148.012 175.475C148.216 174.853 148.358 174.211 148.435 173.561C148.447 172.901 148.545 172.246 148.728 171.612C148.772 171.501 148.827 171.395 148.893 171.296Z" fill="#101B94"/>
<path d="M160.861 190.127C160.311 189.908 159.813 189.576 159.4 189.153C159.4 187.462 159.619 186.079 160.623 184.622C161.845 182.849 163.882 181.914 166.035 181.544C167.496 181.87 168.163 182.007 169.322 183.054C170.33 183.954 171.031 185.146 171.329 186.464C171.456 187.153 171.382 187.864 171.118 188.513C170.854 189.162 170.41 189.722 169.839 190.127C168.917 190.794 167.841 191.216 166.712 191.354C164.573 191.534 163.175 191.203 160.861 190.127Z" fill="#FAFAFA"/>
<path d="M149.507 176.961C149.507 176.961 148.255 176.576 146.886 173.463C146.39 172.275 146.177 170.988 146.263 169.703C146.315 168.197 146.023 166.699 145.408 165.323C144.794 163.947 143.873 162.729 142.717 161.763C138.748 158.401 135.364 154.404 132.702 149.936C129.253 144.286 128.698 154.242 137.432 163.975C137.432 163.975 136.599 163.877 134.241 162.304C132.872 161.393 131.567 160.112 130.344 159.216C127.846 157.384 129.828 165.324 137.7 170.034C137.7 170.034 134.631 169.693 132.702 168.826C130.773 167.959 131.621 171.218 136.219 173.648C138.755 174.929 141.435 175.9 144.203 176.542C145.575 176.868 146.851 177.516 147.924 178.432L148.927 179.289L149.507 176.961Z" fill="#101B94"/>
<path opacity="0.6" d="M149.507 176.961C149.507 176.961 148.255 176.576 146.886 173.463C146.39 172.275 146.177 170.988 146.263 169.703C146.315 168.197 146.023 166.699 145.408 165.323C144.794 163.947 143.873 162.729 142.717 161.763C138.748 158.401 135.364 154.404 132.702 149.936C129.253 144.286 128.698 154.242 137.432 163.975C137.432 163.975 136.599 163.877 134.241 162.304C132.872 161.393 131.567 160.112 130.344 159.216C127.846 157.384 129.828 165.324 137.7 170.034C137.7 170.034 134.631 169.693 132.702 168.826C130.773 167.959 131.621 171.218 136.219 173.648C138.755 174.929 141.435 175.9 144.203 176.542C145.575 176.868 146.851 177.516 147.924 178.432L148.927 179.289L149.507 176.961Z" fill="white"/>
<path opacity="0.1" d="M137.432 163.974C132.278 157.374 130.564 148.611 131.557 148.513C129.258 146.779 129.789 155.459 137.432 163.974Z" fill="black"/>
<path opacity="0.1" d="M130.344 159.215C127.846 157.383 129.828 165.323 137.7 170.033C131.786 165.61 129.692 159.487 130.344 159.215Z" fill="black"/>
<path opacity="0.1" d="M142.878 176.196C140.656 175.11 137.899 173.926 135.931 172.596C133.437 170.911 131.991 169.147 132.122 168.699C132.098 168.697 132.074 168.697 132.049 168.699C132.01 168.705 131.973 168.716 131.937 168.733L131.874 168.782C131.85 168.803 131.829 168.825 131.811 168.85C131.796 168.875 131.785 168.901 131.776 168.928L131.747 169.026C131.745 169.06 131.745 169.094 131.747 169.128C131.747 169.172 131.747 169.216 131.747 169.264C131.747 169.313 131.747 169.337 131.747 169.381C131.76 169.439 131.776 169.496 131.796 169.552L131.84 169.678C131.87 169.753 131.904 169.826 131.942 169.898L132.001 170.019C132.069 170.136 132.142 170.263 132.229 170.39L132.264 170.433C132.346 170.558 132.436 170.679 132.531 170.794L132.653 170.935L132.902 171.218L133.067 171.388C133.155 171.476 133.248 171.568 133.35 171.661L133.55 171.841C133.652 171.934 133.759 172.021 133.871 172.114L134.1 172.299L134.475 172.582C134.558 172.64 134.636 172.698 134.723 172.752C134.811 172.806 135.03 172.957 135.211 173.059L135.439 173.205C135.683 173.351 135.927 173.502 136.214 173.643C138.337 174.732 140.571 175.588 142.878 176.196Z" fill="black"/>
<path d="M139.599 89.3496L154.519 89.8367C154.519 89.8367 162.488 121.46 161.914 132.288C161.31 143.589 157.578 172.679 157.578 172.679C157.486 174.403 149.298 173.969 149.405 172.25C149.405 172.25 148.918 167.569 148.757 165.479C148.114 157.398 147.603 154.7 146.95 147.817C146.083 138.688 146.95 136.156 147.115 132.614C147.115 132.614 138.859 112.346 135.474 101.089C133.486 94.4983 138.396 91.7656 139.599 89.3496Z" fill="#FFA8A7"/>
<path d="M149.302 176.308C149.808 176.636 150.228 177.078 150.529 177.6C150.831 178.121 151.004 178.706 151.036 179.308C151.036 180.409 150.262 180.857 149.302 180.306C148.799 179.977 148.38 179.534 148.079 179.013C147.779 178.492 147.606 177.907 147.573 177.306C147.559 176.205 148.348 175.757 149.302 176.308Z" fill="#455A64"/>
<path d="M149.302 177.408C149.524 177.553 149.708 177.748 149.84 177.977C149.972 178.207 150.048 178.464 150.062 178.728C150.062 179.215 149.721 179.41 149.302 179.167C149.081 179.022 148.897 178.827 148.765 178.597C148.633 178.368 148.557 178.111 148.543 177.847C148.533 177.408 148.884 177.189 149.302 177.408Z" fill="#37474F"/>
<path d="M64.3563 142.031C63.6335 141.89 62.9755 141.519 62.481 140.974C61.8721 140.335 61.7698 136.814 64.2005 133.311C66.0782 130.68 68.6217 128.596 71.5703 127.271C73.4019 126.385 74.4637 124.909 75.6474 123.165C76.8311 121.421 79.1448 119.599 80.3041 119.663C81.4634 119.726 83.0855 121.124 83.0855 121.124L64.3563 142.031Z" fill="#37474F"/>
<path d="M86.0129 133.599L85.9837 133.808C85.9597 134.038 85.8848 134.259 85.7645 134.456C85.6017 134.629 85.4046 134.767 85.1857 134.86C84.9669 134.953 84.731 135 84.4932 134.997C82.4279 135.245 80.4843 135.484 78.5992 136.404C76.8603 137.285 75.2904 138.466 73.962 139.892C73.443 140.476 72.8934 141.032 72.3156 141.558C71.6677 142.104 70.9517 142.284 70.2356 142.688C69.7275 142.961 69.1804 143.153 68.6136 143.258C68.145 143.359 67.6648 143.395 67.1863 143.365C66.1044 143.308 65.0874 142.831 64.3514 142.035C63.9531 141.604 63.7216 141.044 63.6987 140.457C63.6305 138.611 64.8482 134.437 68.3554 131.168C70.2648 129.385 73.056 129.4 75.5548 126.185C76.8213 124.558 79.7293 120.88 81.8872 120.471C82.8614 120.286 84.4883 121.845 85.068 122.483C85.9399 123.457 86.841 124.641 87.8834 125.406C88.2509 125.632 88.5908 125.9 88.8966 126.204C89.8708 127.364 87.8786 128.036 87.2843 128.733C86.1834 130.038 86.237 131.996 86.0129 133.599Z" fill="#101B94"/>
<path d="M88.2878 126.75C96.6417 124.987 108.035 120.676 116.501 122.537C118.936 109.346 121.908 96.579 125.961 84.3137C131.45 83.0959 136.896 81.9756 142.434 80.7676C144.383 88.761 145.542 95.2054 142.6 103.462C139.444 112.303 134.607 122.8 130.646 131.266C127.646 137.681 123.793 136.994 116.779 136.775C108.561 136.517 93.4511 135.124 86.3686 134.632C82.4962 134.9 83.9964 127.281 88.2878 126.75Z" fill="#FFA8A7"/>
<path opacity="0.2" d="M116.486 122.517C112.492 121.64 107.845 122.137 103.174 123.092C108.532 122.464 114.63 122.785 115.069 124.992C115.736 128.367 117.504 129.522 117.504 129.522C115.683 127.291 116.384 123.058 116.486 122.517Z" fill="black"/>
<path d="M66.9915 132.595C66.9915 132.595 69.2127 133.116 71.8285 135.357C72.5705 135.935 73.1368 136.708 73.4637 137.59C73.7907 138.472 73.8654 139.427 73.6795 140.349C73.6795 140.349 71.7311 143.881 67.9024 143.594C64.785 143.36 63.6987 141.835 63.6987 141.835C63.6987 141.835 62.8804 140.008 64.0299 137.164C64.7115 135.463 65.7174 133.911 66.9915 132.595Z" fill="#FAFAFA"/>
<path d="M81.9749 128.493C81.9749 128.493 82.233 127.207 85.1946 125.542C86.3306 124.937 87.5909 124.604 88.8772 124.567C90.3811 124.47 91.8429 124.031 93.1513 123.283C94.4597 122.535 95.5802 121.498 96.4273 120.252C99.3829 115.977 103.027 112.222 107.212 109.141C112.492 105.147 102.531 105.575 93.7044 115.23C93.7044 115.23 93.7044 114.392 95.0536 111.888C95.8233 110.427 96.9728 109.009 97.7425 107.709C99.3158 105.039 91.6147 107.796 87.7032 116.097C87.7032 116.097 87.7422 113.008 88.4095 111.002C89.0769 108.995 85.9253 110.159 83.9623 114.976C82.9359 117.626 82.2342 120.39 81.8726 123.208C81.6806 124.609 81.1598 125.944 80.3528 127.105L79.6027 128.182L81.9749 128.493Z" fill="#101B94"/>
<path opacity="0.6" d="M81.9749 128.493C81.9749 128.493 82.233 127.207 85.1946 125.542C86.3306 124.937 87.5909 124.604 88.8772 124.567C90.3811 124.47 91.8429 124.031 93.1513 123.283C94.4597 122.535 95.5802 121.498 96.4273 120.252C99.3829 115.977 103.027 112.222 107.212 109.141C112.492 105.147 102.531 105.575 93.7044 115.23C93.7044 115.23 93.7044 114.392 95.0536 111.888C95.8233 110.427 96.9728 109.009 97.7425 107.709C99.3158 105.039 91.6147 107.796 87.7032 116.097C87.7032 116.097 87.7422 113.008 88.4095 111.002C89.0769 108.995 85.9253 110.159 83.9623 114.976C82.9359 117.626 82.2342 120.39 81.8726 123.208C81.6806 124.609 81.1598 125.944 80.3528 127.105L79.6027 128.182L81.9749 128.493Z" fill="white"/>
<path opacity="0.1" d="M93.7044 115.215C99.764 109.433 108.318 106.866 108.512 107.84C110.013 105.385 101.425 106.778 93.7044 115.215Z" fill="black"/>
<path opacity="0.1" d="M97.7425 107.694C99.3158 105.025 91.6147 107.782 87.7033 116.082C91.5417 109.759 97.3869 107.071 97.7425 107.694Z" fill="black"/>
<path opacity="0.1" d="M82.082 121.84C82.9442 119.526 83.8502 116.662 84.9803 114.572C86.4124 111.922 88.0247 110.315 88.4923 110.393C88.4872 110.371 88.479 110.35 88.468 110.33C88.4602 110.29 88.4454 110.252 88.4241 110.218C88.4102 110.196 88.3919 110.178 88.3706 110.164C88.3497 110.141 88.325 110.121 88.2975 110.106C88.271 110.093 88.2432 110.083 88.2147 110.076C88.1808 110.071 88.1463 110.071 88.1124 110.076H88.0101L87.8786 110.101L87.7617 110.13L87.6009 110.198L87.4743 110.257L87.2697 110.378L87.1528 110.447C87.0408 110.525 86.9287 110.612 86.8069 110.71C86.7928 110.721 86.7797 110.734 86.768 110.749C86.6608 110.841 86.5488 110.939 86.4367 111.051L86.3052 111.182C86.2224 111.275 86.1347 111.362 86.0471 111.465C85.9594 111.567 85.9496 111.582 85.9009 111.645L85.6525 111.952L85.4918 112.166L85.2531 112.512L85.0923 112.76C85.0095 112.887 84.9316 113.023 84.8488 113.165L84.7027 113.423C84.615 113.584 84.5273 113.749 84.4445 113.91C84.4006 113.993 84.3617 114.071 84.3227 114.153C84.1961 114.412 84.0743 114.684 83.9623 114.967C83.0911 117.184 82.4607 119.488 82.082 121.84Z" fill="black"/>
<path d="M79.2471 127.651C79.5497 127.127 79.9724 126.682 80.4805 126.354C80.9886 126.025 81.5675 125.822 82.1695 125.761C83.2751 125.703 83.7622 126.453 83.2605 127.436C82.9574 127.96 82.5345 128.404 82.0265 128.733C81.5185 129.061 80.9399 129.265 80.3382 129.326C79.2325 129.385 78.7455 128.635 79.2471 127.651Z" fill="#455A64"/>
<path d="M80.3626 127.588C80.497 127.361 80.6821 127.168 80.9035 127.024C81.1249 126.88 81.3765 126.79 81.6387 126.76C82.1257 126.76 82.34 127.067 82.1257 127.495C81.9939 127.724 81.8102 127.918 81.5894 128.063C81.3685 128.208 81.1168 128.299 80.8545 128.328C80.3382 128.352 80.1434 128.021 80.3626 127.588Z" fill="#37474F"/>
<path d="M123.204 88.2295C121.565 93.0426 120.199 97.9441 119.112 102.911C117.538 110.388 115.673 120.047 115.673 120.047C115.673 120.047 119.428 127.495 132.96 127.325L139.979 114.713L145.226 128.576C145.226 128.576 155.83 129.794 161.943 123.467C161.846 122.668 156.789 96.749 154.938 89.4716L123.204 88.2295Z" fill="#101B94"/>
<path opacity="0.15" d="M139.979 114.713L144.475 106.433C146.264 106.067 147.97 105.373 149.507 104.387C149.507 104.387 148.64 106.364 145.732 107.933C145.469 108.376 142.011 115.288 142.011 115.288L145.245 128.576L139.979 114.713Z" fill="#263238"/>
<path d="M121.43 75.1415C121.43 75.1415 129.979 70.4555 133.433 65.375L136.18 68.3902C136.18 68.3902 129.687 76.067 122.57 78.8094L121.43 75.1415Z" fill="#101B94"/>
<path opacity="0.3" d="M121.43 75.1415C121.43 75.1415 129.979 70.4555 133.433 65.375L136.18 68.3902C136.18 68.3902 129.687 76.067 122.57 78.8094L121.43 75.1415Z" fill="black"/>
<path d="M80.158 92.0915C80.5866 89.1688 82.5935 87.7075 88.4388 81.9353C94.284 76.1631 98.9115 72.3929 104.357 72.3199C109.803 72.2468 120.597 73.3331 121.43 75.1402C122.263 76.9474 104.357 94.9362 104.357 94.9362L80.158 92.0915Z" fill="#101B94"/>
<path opacity="0.2" d="M80.158 92.0915C80.5866 89.1688 82.5935 87.7075 88.4388 81.9353C94.284 76.1631 98.9115 72.3929 104.357 72.3199C109.803 72.2468 120.597 73.3331 121.43 75.1402C122.263 76.9474 104.357 94.9362 104.357 94.9362L80.158 92.0915Z" fill="black"/>
<path d="M104.357 94.9375L122.556 78.7851L121.43 75.1416L103.003 91.8298L104.357 94.9375Z" fill="#101B94"/>
<path opacity="0.4" d="M104.357 94.9375L122.556 78.7851L121.43 75.1416L103.003 91.8298L104.357 94.9375Z" fill="black"/>
<path d="M122.556 78.7845C122.712 78.6432 122.814 77.2404 122.863 76.9968C123.119 75.7531 123.161 74.4749 122.989 73.2169C122.814 71.8861 122.231 70.6423 121.319 69.6573C120.407 68.6722 119.212 67.9944 117.899 67.7175C117.538 67.6034 117.157 67.5696 116.781 67.6184C116.406 67.6672 116.046 67.7974 115.726 68C115.006 68.565 114.928 69.6026 114.713 70.494C114.153 72.8028 112.351 74.6197 110.363 75.9154C108.376 77.2111 106.15 78.1025 104.114 79.3252C102.857 80.093 101.659 80.9526 100.529 81.8971C99.9896 82.2889 99.5355 82.786 99.1941 83.3584C99.0263 83.6448 98.9412 83.9721 98.948 84.304C98.9549 84.6359 99.0536 84.9594 99.2331 85.2386C99.5011 85.5316 99.8195 85.7741 100.173 85.9547C102.083 87.1432 103.943 89.569 103.003 91.8389L104.357 94.9466L122.556 78.7845Z" fill="#101B94"/>
<path opacity="0.4" d="M122.556 78.7845C122.712 78.6432 122.814 77.2404 122.863 76.9968C123.119 75.7531 123.161 74.4749 122.989 73.2169C122.814 71.8861 122.231 70.6423 121.319 69.6573C120.407 68.6722 119.212 67.9944 117.899 67.7175C117.538 67.6034 117.157 67.5696 116.781 67.6184C116.406 67.6672 116.046 67.7974 115.726 68C115.006 68.565 114.928 69.6026 114.713 70.494C114.153 72.8028 112.351 74.6197 110.363 75.9154C108.376 77.2111 106.15 78.1025 104.114 79.3252C102.857 80.093 101.659 80.9526 100.529 81.8971C99.9896 82.2889 99.5355 82.786 99.1941 83.3584C99.0263 83.6448 98.9412 83.9721 98.948 84.304C98.9549 84.6359 99.0536 84.9594 99.2331 85.2386C99.5011 85.5316 99.8195 85.7741 100.173 85.9547C102.083 87.1432 103.943 89.569 103.003 91.8389L104.357 94.9466L122.556 78.7845Z" fill="black"/>
<path d="M104.357 94.9363C99.7348 97.5959 94.5763 101.629 90.2314 100.874C85.8864 100.119 77.6495 92.6225 80.84 91.2391C84.0305 89.8558 102.984 91.8285 102.984 91.8285L104.357 94.9363Z" fill="#101B94"/>
<path opacity="0.4" d="M104.357 94.9363C99.7348 97.5959 94.5763 101.629 90.2314 100.874C85.8864 100.119 77.6495 92.6225 80.84 91.2391C84.0305 89.8558 102.984 91.8285 102.984 91.8285L104.357 94.9363Z" fill="black"/>
<path d="M162.659 85.9059C165.435 86.7291 169.561 87.7082 172.674 88.3414C180.438 89.9537 183.877 89.6761 185.904 86.9532C189.162 82.6033 187.482 81.4684 183.225 81.595C181.443 81.6711 179.659 81.4973 177.925 81.0787C178.783 80.8328 179.603 80.4688 180.36 79.9973C181.539 79.1497 181.408 78.0489 181.14 77.5861C180.93 77.2403 180.107 77.8248 178.48 78.005C176.4 78.234 175.153 77.7371 173.034 78.536C172.245 78.8282 170.721 79.1741 168.027 78.4921C164.875 77.6884 153.813 72.0039 153.813 72.0039L150.004 82.2331C150.004 82.2331 158.499 84.6686 162.659 85.9059Z" fill="#FFA8A7"/>
<path d="M149.507 46.1151C153.121 45.8959 157.885 47.7371 159.064 52.0431C160.418 56.9824 156.419 69.1357 156.419 69.1357L149.507 46.1151Z" fill="#FFA8A7"/>
<path d="M151.066 46.095C152.247 45.9631 153.442 46.103 154.561 46.5041C155.68 46.9051 156.692 47.5566 157.52 48.4088C160.56 51.3606 159.527 55.9394 159.322 58.4967C159.118 61.054 156.672 69.6466 156.672 69.6466L151.066 46.095Z" fill="#E0E0E0"/>
<path d="M129.049 45.973C126.954 46.655 124.796 48.7544 125.23 56.3386C125.688 64.4002 125.839 77.971 125.839 77.971C125.736 80.4503 124.407 83.6019 123.208 88.2294C127.28 93.6752 149.707 94.7517 154.943 89.4715C154.943 89.4715 158.08 70.3867 157.53 58.9787C157.189 52.0472 156.068 46.9326 149.492 46.1143L137.977 45.3544C137.977 45.3544 131.168 45.2862 129.049 45.973Z" fill="#F0F0F0"/>
<path d="M134.894 31.3887C134.894 31.3887 136.238 38.3689 136.808 39.5233C137.19 40.2365 137.832 40.7755 138.601 41.0285V36.1574L134.894 31.3887Z" fill="#263238"/>
<path d="M136.945 21.4671C136.429 21.3953 135.903 21.4427 135.408 21.6057C134.914 21.7687 134.463 22.0428 134.09 22.4072C132.848 23.6298 133.433 27.5413 134.894 31.3894L137.675 31.7645L136.945 21.4671Z" fill="#263238"/>
<path d="M138.513 31.7649C137.948 32.0864 137.174 30.9952 136.497 30.2646C135.819 29.5339 133.574 28.5013 132.424 30.8442C131.275 33.1872 133.306 36.4557 135.064 37.05C138.099 38.0631 138.596 36.1147 138.596 36.1147V47.133C139.887 48.6284 144.992 53.8502 147.364 53.7723C149.736 53.6943 149.366 48.3118 148.543 47.0307L148.596 43.6795C148.596 43.6795 151.353 44.1666 152.707 43.9717C154.958 43.6697 156.405 41.9259 157.135 39.505C158.304 35.6081 158.782 32.4809 158.002 24.7847C157.145 16.3529 147.359 16.0752 142.011 19.2999C136.662 22.5245 138.513 31.7649 138.513 31.7649Z" fill="#FFA8A7"/>
<path d="M138.499 32.739C138.216 32.739 137.179 30.9416 136.497 30.3035C135.556 29.4121 136.925 21.6087 136.945 21.4869C136.964 21.3651 136.794 20.9073 136.794 20.6881C136.797 20.2551 136.878 19.8262 137.032 19.4216C137.35 18.5934 137.887 17.8675 138.586 17.3222C139.796 16.4607 141.191 15.8951 142.658 15.6709C144.207 15.382 145.772 15.1852 147.344 15.0815C149.314 14.8563 151.304 14.8972 153.263 15.2033C153.884 15.3118 154.49 15.4984 155.065 15.7586C155.627 16.0378 156.153 16.3828 156.633 16.7864C157.579 17.5599 158.245 18.6226 158.528 19.8113C158.845 20.9608 157.885 21.5064 156.887 21.8084C156.887 21.8084 155.839 22.7047 152.254 23.07C148.669 23.4353 143.111 22.807 142.352 22.6901C141.319 22.5293 141.075 23.5279 140.466 26.2654C139.926 28.6474 139.444 32.739 138.499 32.739Z" fill="#263238"/>
<path d="M148.611 43.6981C148.611 43.6981 143.618 42.5924 141.884 41.6279C140.866 41.0722 140.038 40.2238 139.507 39.1924C139.753 40.2229 140.204 41.1936 140.832 42.0468C142.079 43.7127 148.596 44.6139 148.596 44.6139L148.611 43.6981Z" fill="#F28F8F"/>
<path d="M147.656 30.7067C147.657 30.841 147.631 30.974 147.579 31.0982C147.528 31.2223 147.453 31.335 147.358 31.4297C147.262 31.5244 147.149 31.5993 147.025 31.6499C146.901 31.7005 146.767 31.7259 146.633 31.7247C146.363 31.7108 146.109 31.591 145.927 31.3913C145.745 31.1917 145.648 30.9282 145.659 30.658C145.662 30.5262 145.691 30.3964 145.745 30.2759C145.798 30.1554 145.875 30.0466 145.97 29.9557C146.066 29.8647 146.178 29.7935 146.301 29.7461C146.424 29.6986 146.555 29.6758 146.687 29.679C146.818 29.6822 146.948 29.7113 147.069 29.7647C147.189 29.8181 147.298 29.8947 147.389 29.9901C147.48 30.0855 147.551 30.1979 147.599 30.3209C147.646 30.4438 147.669 30.5749 147.666 30.7067H147.656Z" fill="#263238"/>
<path d="M145.79 27.3802L143.618 28.5248C143.477 28.2296 143.454 27.8918 143.552 27.5799C143.651 27.268 143.864 27.0051 144.149 26.8444C144.291 26.768 144.447 26.7212 144.608 26.7069C144.769 26.6925 144.931 26.711 145.084 26.7611C145.238 26.8111 145.379 26.8918 145.501 26.9982C145.622 27.1047 145.721 27.2346 145.79 27.3802Z" fill="#263238"/>
<path d="M148.275 37.6582L150.549 38.5641C150.497 38.7173 150.414 38.8582 150.305 38.9784C150.197 39.0986 150.065 39.1955 149.918 39.2633C149.771 39.3312 149.612 39.3685 149.45 39.373C149.288 39.3776 149.127 39.3493 148.976 39.2899C148.671 39.1613 148.427 38.9195 148.297 38.6153C148.166 38.3111 148.158 37.9681 148.275 37.6582Z" fill="#F28F8F"/>
<path d="M157.267 28.5343L155.318 26.9854C155.413 26.8552 155.534 26.7455 155.672 26.6631C155.811 26.5806 155.964 26.5271 156.124 26.5057C156.284 26.4843 156.446 26.4955 156.602 26.5386C156.757 26.5817 156.902 26.6558 157.028 26.7565C157.287 26.9662 157.457 27.2673 157.501 27.5979C157.545 27.9285 157.461 28.2636 157.267 28.5343Z" fill="#263238"/>
<path d="M156.015 30.5807C156.002 30.7772 155.932 30.9657 155.813 31.1226C155.694 31.2796 155.532 31.3982 155.346 31.4635C155.161 31.5288 154.96 31.5381 154.769 31.4901C154.578 31.4421 154.405 31.339 154.272 31.1936C154.14 31.0482 154.053 30.867 154.022 30.6725C153.992 30.478 154.019 30.2788 154.101 30.0997C154.183 29.9207 154.315 29.7697 154.483 29.6655C154.65 29.5614 154.844 29.5087 155.041 29.514C155.311 29.5267 155.565 29.6461 155.748 29.846C155.931 30.046 156.027 30.3102 156.015 30.5807Z" fill="#263238"/>
<path d="M151.066 29.6787V35.7718L154.685 35.0461L151.066 29.6787Z" fill="#F28F8F"/>
<path d="M149.147 46.0903C149.147 46.0903 155.776 54.6536 148.708 70.7817C141.64 86.9097 119.57 92.2143 103.003 91.8295L104.357 94.9372C104.357 94.9372 130.554 95.9845 143.813 83.6315C155.016 73.2123 159.132 57.435 152.912 46.4849C152.917 46.4849 151.524 45.6471 149.147 46.0903Z" fill="#101B94"/>
<path opacity="0.3" d="M149.147 46.0903C149.147 46.0903 155.776 54.6536 148.708 70.7817C141.64 86.9097 119.57 92.2143 103.003 91.8295L104.357 94.9372C104.357 94.9372 130.554 95.9845 143.813 83.6315C155.016 73.2123 159.132 57.435 152.912 46.4849C152.917 46.4849 151.524 45.6471 149.147 46.0903Z" fill="black"/>
<path d="M118.284 93.7877C117.06 92.4906 116.022 91.03 115.2 89.4476C115.946 89.9312 116.756 90.3083 117.607 90.568C119.014 90.9041 119.774 90.0808 119.935 89.5937C120.062 89.2089 119.083 88.9751 117.879 87.8597C116.34 86.4373 116.17 85.2975 114.538 83.7241C113.929 83.1347 113.111 82.7012 112.921 81.878C111.83 77.1677 111.381 71.3955 110.88 66.2907L125.454 61.3417C125.454 61.3417 128.649 60.4162 131.66 57.0454C135.016 53.2898 136.18 48.7257 132.911 45.4718C131.411 45.1706 129.858 45.2732 128.411 45.7689C125.361 46.8941 122.94 47.9999 118.123 50.2649C113.924 52.2425 102.399 57.2208 100.246 60.348C99.3645 61.6388 99.7347 64.6783 101.289 71.264C101.995 74.5032 102.891 78.1322 103.826 82.0388C104.565 85.1081 105.493 88.1289 106.603 91.0843C109.628 98.3909 112.599 99.5599 115.999 99.3212C121.421 98.9315 121.177 96.9149 118.284 93.7877Z" fill="#FFA8A7"/>
<path d="M134.894 45.3548C134.894 45.3548 130.189 44.6046 126.745 46.0952C121.275 48.4674 109.492 53.9278 109.492 53.9278C109.492 53.9278 108.819 56.7043 110.164 60.645C111.508 64.5857 113.335 66.1006 113.335 66.1006C113.335 66.1006 125.999 61.9797 128.722 60.645C131.445 59.3103 137.383 53.1972 134.894 45.3548Z" fill="#E0E0E0"/>
<path d="M140.905 25.9188C140.905 25.9188 148.211 30.5219 156.2 28.1594C164.637 25.6557 158.368 20.9893 158.368 20.9893L140.905 25.9188Z" fill="#37474F"/>
<path d="M160.974 15.0467C158.421 12.3773 149.234 10.0538 141.139 12.6647C133.043 15.2756 131.397 18.6805 131.397 18.6805C134.882 20.4398 138.823 21.086 142.688 20.5315C149.229 19.6108 160.974 15.0467 160.974 15.0467Z" fill="#101B94"/>
<path opacity="0.4" d="M160.974 15.0467C158.421 12.3773 149.234 10.0538 141.139 12.6647C133.043 15.2756 131.397 18.6805 131.397 18.6805C134.882 20.4398 138.823 21.086 142.688 20.5315C149.229 19.6108 160.974 15.0467 160.974 15.0467Z" fill="white"/>
<path d="M132.648 21.1847C132.107 20.4184 131.685 19.5742 131.397 18.681C131.397 18.681 132.449 19.5383 137.963 18.1939C143.199 16.9323 148.465 13.3813 154.329 12.6263C160.194 11.8713 160.974 15.0326 160.974 15.0326C160.974 15.0326 161.154 17.3366 158.825 19.7331C158.825 19.7331 156.517 23.5131 149.629 24.273C142.741 25.0328 132.648 21.1847 132.648 21.1847Z" fill="#101B94"/>
<path d="M151.826 18.2806C151.962 19.8879 153.155 20.9204 154.49 20.5892C155.824 20.258 156.794 18.6897 156.657 17.0824C156.521 15.4751 155.328 14.4425 153.993 14.7737C152.659 15.1049 151.689 16.6635 151.826 18.2806Z" fill="#F5F5F5"/>
<path d="M132.648 21.184L132.819 22.2849C132.921 22.962 133.028 23.5319 133.403 23.8534C138.512 25.9852 144.111 26.6596 149.58 25.8018C154.451 25.0224 156.76 23.8534 157.739 22.9766C158.718 22.0998 158.845 21.486 158.84 20.8089V19.7422C158.84 19.7422 157.091 21.7296 149.098 23.0837C141.105 24.4379 132.648 21.184 132.648 21.184Z" fill="#455A64"/>
<path d="M135.498 23.6979C135.498 23.6979 134.728 23.6979 133.384 22.2365C132.887 21.6769 132.525 21.0102 132.327 20.2881C132.069 19.4439 131.623 18.6694 131.021 18.0237C130.419 17.378 129.678 16.878 128.854 16.5618C126.016 15.4516 123.382 13.878 121.06 11.905C118.079 9.43055 119.657 15.0517 126.345 18.7878C126.345 18.7878 125.858 18.8901 124.256 18.4663C123.325 18.2228 122.361 17.7552 121.513 17.4921C119.784 16.9514 122.385 20.9749 127.641 22.0904C126.656 22.3085 125.648 22.4034 124.64 22.3729C123.413 22.256 124.494 23.9024 127.505 24.3749C129.151 24.6023 130.819 24.6317 132.473 24.4626C133.3 24.3821 134.135 24.4989 134.909 24.8036L135.63 25.091L135.498 23.6979Z" fill="#101B94"/>
<path opacity="0.6" d="M135.498 23.6979C135.498 23.6979 134.728 23.6979 133.384 22.2365C132.887 21.6769 132.525 21.0102 132.327 20.2881C132.069 19.4439 131.623 18.6694 131.021 18.0237C130.419 17.378 129.678 16.878 128.854 16.5618C126.016 15.4516 123.382 13.878 121.06 11.905C118.079 9.43055 119.657 15.0517 126.345 18.7878C126.345 18.7878 125.858 18.8901 124.256 18.4663C123.325 18.2228 122.361 17.7552 121.513 17.4921C119.784 16.9514 122.385 20.9749 127.641 22.0904C126.656 22.3085 125.648 22.4034 124.64 22.3729C123.413 22.256 124.494 23.9024 127.505 24.3749C129.151 24.6023 130.819 24.6317 132.473 24.4626C133.3 24.3821 134.135 24.4989 134.909 24.8036L135.63 25.091L135.498 23.6979Z" fill="white"/>
<path opacity="0.1" d="M126.359 18.7926C122.249 16.1138 119.638 11.5842 120.169 11.3406C118.566 10.8195 120.51 15.5245 126.359 18.7926Z" fill="black"/>
<path opacity="0.1" d="M121.528 17.497C119.799 16.9563 122.4 20.9795 127.655 22.0948C123.539 20.7651 121.216 17.7746 121.528 17.497Z" fill="black"/>
<path opacity="0.1" d="M131.693 24.5308C130.169 24.3987 128.654 24.1709 127.158 23.8489C125.459 23.391 124.324 22.6848 124.309 22.3877H124.27L124.217 22.4267C124.203 22.4355 124.192 22.448 124.185 22.4626C124.179 22.4772 124.176 22.4934 124.178 22.5095C124.176 22.5256 124.176 22.542 124.178 22.5582C124.175 22.5743 124.175 22.5907 124.178 22.6069C124.175 22.6279 124.175 22.6492 124.178 22.6702V22.7286C124.189 22.7523 124.199 22.7767 124.207 22.8017L124.241 22.8601L124.299 22.9478L124.353 23.0111L124.45 23.1085L124.504 23.167C124.566 23.2241 124.631 23.2778 124.699 23.3277H124.728C124.791 23.3764 124.864 23.4251 124.942 23.4738L125.035 23.5323L125.23 23.6394L125.351 23.7028L125.561 23.8002L125.707 23.8635L125.936 23.956L126.097 24.0096L126.36 24.0973L126.53 24.146L126.847 24.2288L127.003 24.2629C127.163 24.3018 127.334 24.3311 127.514 24.3603C128.897 24.5651 130.298 24.6223 131.693 24.5308Z" fill="black"/>
<path d="M135.946 22.3876C136.45 22.7156 136.87 23.1578 137.171 23.6782C137.472 24.1986 137.646 24.7826 137.68 25.383C137.68 26.4886 136.905 26.9367 135.946 26.3863C135.443 26.057 135.024 25.6138 134.723 25.0926C134.423 24.5714 134.249 23.9868 134.217 23.3861C134.217 22.2804 134.991 21.8372 135.946 22.3876Z" fill="#101B94"/>
<path opacity="0.3" d="M135.946 22.3876C136.45 22.7156 136.87 23.1578 137.171 23.6782C137.472 24.1986 137.646 24.7826 137.68 25.383C137.68 26.4886 136.905 26.9367 135.946 26.3863C135.443 26.057 135.024 25.6138 134.723 25.0926C134.423 24.5714 134.249 23.9868 134.217 23.3861C134.217 22.2804 134.991 21.8372 135.946 22.3876Z" fill="black"/>
<path d="M135.946 23.5082C136.167 23.6527 136.351 23.8469 136.482 24.0753C136.614 24.3037 136.691 24.5599 136.706 24.8233C136.706 25.3103 136.365 25.5052 135.946 25.2616C135.728 25.1205 135.545 24.9303 135.413 24.7062C135.281 24.4821 135.204 24.2304 135.186 23.9709C135.186 23.4839 135.527 23.2647 135.946 23.5082Z" fill="#263238"/>
</svg>
