<svg width="897" height="633" viewBox="0 0 897 633" fill="none" xmlns="http://www.w3.org/2000/svg">
<path d="M131.305 561.435C306.388 656.845 590.144 656.865 765.228 561.435C940.311 466.004 940.311 311.287 765.228 215.856C590.144 120.426 306.388 120.426 131.305 215.856C-43.7784 311.287 -43.7583 465.964 131.305 561.435Z" fill="#F5F5F5"/>
<path d="M224.623 526.8L346.597 597.236C366.44 608.687 398.619 608.687 418.462 597.236L717.432 424.628C737.275 413.177 737.275 394.602 717.432 383.131L595.457 312.695C575.595 301.244 543.415 301.244 523.573 312.695L224.623 485.303C204.76 496.754 204.76 515.329 224.623 526.8Z" fill="#EBEBEB"/>
<path d="M702.802 403.859C701.554 397.238 699.3 386.432 691.471 377.879C682.997 368.835 673.005 361.343 661.949 355.742C650.961 350.147 644.964 335.074 665.772 335.617C684.971 336.181 703.224 357.754 705.378 376.108L702.802 403.859Z" fill="#37474F"/>
<path d="M704.512 386.431C704.253 386.432 704.004 386.335 703.814 386.16C703.623 385.984 703.506 385.744 703.486 385.486C701.172 356.084 669.455 342.218 663.237 341.634C663.087 341.647 662.937 341.627 662.796 341.576C662.655 341.525 662.527 341.443 662.421 341.337C662.315 341.23 662.233 341.102 662.182 340.961C662.131 340.82 662.112 340.669 662.125 340.52C662.138 340.37 662.185 340.226 662.26 340.096C662.335 339.966 662.438 339.854 662.562 339.769C662.685 339.683 662.826 339.626 662.973 339.6C663.121 339.575 663.273 339.582 663.418 339.622C670.3 340.246 703.184 354.192 705.679 385.365C705.69 385.5 705.675 385.635 705.633 385.764C705.591 385.893 705.525 386.012 705.437 386.115C705.349 386.218 705.241 386.302 705.121 386.364C705 386.425 704.869 386.462 704.734 386.472L704.512 386.431Z" fill="white"/>
<path d="M719.646 403.859C720.833 399.23 725.563 391.442 731.721 389.269C737.879 387.095 751.342 390.235 757.42 380.514C763.497 370.794 758.104 357.391 759.11 351.897C760.116 346.403 763.98 341.835 771.648 336.562C779.315 331.29 782.998 321.127 778.651 316.277C774.304 311.427 766.476 310.823 756.192 317.907C745.908 324.991 745.566 323.159 736.51 322.334C727.454 321.509 719.384 330.968 717.955 344.129L719.646 403.859Z" fill="#455A64"/>
<path d="M718.962 380.575H718.72C718.588 380.547 718.463 380.492 718.353 380.414C718.243 380.337 718.149 380.238 718.078 380.123C718.006 380.009 717.959 379.881 717.938 379.748C717.917 379.614 717.923 379.478 717.955 379.347C724.536 350.227 757.742 323.3 769.857 318.732C770.123 318.636 770.418 318.65 770.674 318.771C770.931 318.892 771.129 319.109 771.225 319.376C771.321 319.643 771.307 319.937 771.187 320.194C771.066 320.45 770.848 320.649 770.581 320.745C758.768 325.212 726.307 351.455 719.968 379.891C719.895 380.097 719.758 380.275 719.577 380.398C719.396 380.521 719.18 380.583 718.962 380.575Z" fill="white"/>
<path d="M734.478 350.63C734.271 350.63 734.069 350.569 733.897 350.454C733.725 350.339 733.591 350.177 733.512 349.986C730.251 341.936 730.875 331.27 730.895 330.807C730.972 330.591 731.117 330.406 731.308 330.281C731.5 330.155 731.727 330.096 731.955 330.112C732.184 330.128 732.401 330.218 732.573 330.369C732.745 330.52 732.862 330.724 732.908 330.948C732.908 330.948 732.284 341.634 735.383 349.201C735.435 349.328 735.461 349.463 735.46 349.6C735.459 349.737 735.43 349.872 735.376 349.998C735.321 350.124 735.242 350.237 735.143 350.332C735.044 350.427 734.928 350.5 734.8 350.549C734.698 350.597 734.589 350.624 734.478 350.63Z" fill="white"/>
<path d="M750.135 370.875C745.586 370.875 733.914 370.252 724.778 364.254C724.548 364.105 724.387 363.871 724.331 363.603C724.274 363.335 724.326 363.055 724.476 362.826C724.625 362.596 724.86 362.435 725.128 362.379C725.396 362.322 725.675 362.374 725.905 362.524C736.671 369.587 751.765 368.782 751.926 368.762C752.062 368.754 752.199 368.773 752.328 368.819C752.457 368.864 752.575 368.935 752.676 369.027C752.778 369.119 752.86 369.23 752.917 369.354C752.975 369.478 753.007 369.612 753.012 369.748C753.021 369.883 753.002 370.018 752.958 370.146C752.914 370.274 752.845 370.391 752.755 370.492C752.665 370.593 752.556 370.676 752.435 370.734C752.313 370.793 752.181 370.827 752.046 370.835C751.805 370.855 751.121 370.875 750.135 370.875Z" fill="white"/>
<path d="M374.108 593.634C371.773 585.242 363.884 577.997 350.824 570.47C337.763 562.944 315.404 553.244 320.637 540.102C325.869 526.961 348.63 537.546 357.143 544.972C368.292 554.713 376.925 569.122 377.167 579.043L374.108 593.634Z" fill="#37474F"/>
<path d="M376.221 584.94C375.981 584.94 375.748 584.859 375.561 584.709C375.375 584.558 375.245 584.349 375.194 584.114C370.364 561.152 343.156 543.403 329.934 540.323C329.665 540.261 329.432 540.095 329.285 539.861C329.138 539.627 329.089 539.345 329.149 539.076C329.216 538.809 329.383 538.579 329.616 538.433C329.848 538.287 330.128 538.236 330.397 538.291C344.082 541.491 372.216 559.884 377.227 583.692C377.256 583.825 377.259 583.963 377.234 584.098C377.209 584.232 377.158 584.361 377.083 584.475C377.008 584.589 376.911 584.688 376.797 584.764C376.684 584.84 376.556 584.893 376.422 584.919L376.221 584.94Z" fill="white"/>
<path d="M390.952 593.634C391.998 584.497 399.585 579.064 408.823 576.89C418.06 574.717 426.27 573.248 426.935 563.105C427.599 552.962 418.321 544.611 425.767 535.897C433.213 527.183 444.564 518.066 443.779 502.772C442.994 487.477 428.786 485.887 423.252 495.527C417.718 505.166 416.57 511.848 408.782 510.922C400.994 509.996 388.517 515.088 386.947 538.372L390.952 593.634Z" fill="#455A64"/>
<path d="M389.563 575.2H389.422C389.151 575.16 388.907 575.015 388.741 574.797C388.576 574.579 388.502 574.304 388.537 574.033C391.616 551.231 407.595 531.771 419.267 517.563C424.278 511.526 428.605 506.193 430.476 502.329C430.533 502.206 430.613 502.095 430.712 502.002C430.812 501.91 430.929 501.839 431.056 501.792C431.183 501.745 431.318 501.724 431.454 501.73C431.589 501.736 431.722 501.768 431.845 501.826C432.092 501.948 432.282 502.16 432.376 502.419C432.469 502.678 432.459 502.963 432.348 503.214C430.336 507.239 425.969 512.673 420.857 518.891C409.346 532.978 393.588 552.077 390.67 574.314C390.635 574.576 390.5 574.814 390.294 574.979C390.088 575.144 389.826 575.223 389.563 575.2Z" fill="white"/>
<path d="M401.98 542.598C401.767 542.6 401.559 542.535 401.386 542.412C401.212 542.29 401.082 542.115 401.014 541.913C399.176 535.511 398.301 528.871 398.418 522.211C398.428 521.936 398.545 521.675 398.744 521.483C398.943 521.292 399.209 521.185 399.485 521.185C399.621 521.188 399.756 521.217 399.881 521.273C400.006 521.328 400.118 521.408 400.212 521.507C400.306 521.606 400.379 521.723 400.426 521.851C400.474 521.979 400.496 522.115 400.491 522.252C400.385 528.664 401.219 535.058 402.966 541.229C403.013 541.357 403.034 541.493 403.027 541.629C403.02 541.766 402.985 541.899 402.925 542.021C402.864 542.144 402.78 542.252 402.676 542.341C402.573 542.43 402.452 542.496 402.322 542.537C402.213 542.578 402.097 542.599 401.98 542.598Z" fill="white"/>
<path d="M416.248 562.562C408.648 562.134 401.17 560.462 394.111 557.611C393.984 557.564 393.868 557.492 393.769 557.4C393.67 557.307 393.591 557.195 393.537 557.071C393.482 556.947 393.453 556.813 393.452 556.678C393.45 556.542 393.476 556.408 393.528 556.283C393.575 556.156 393.646 556.039 393.739 555.939C393.831 555.84 393.942 555.76 394.066 555.704C394.189 555.648 394.323 555.617 394.458 555.612C394.594 555.608 394.729 555.631 394.856 555.679C401.688 558.434 408.917 560.078 416.268 560.549C416.405 560.552 416.54 560.582 416.664 560.637C416.789 560.692 416.902 560.772 416.996 560.871C417.089 560.97 417.162 561.087 417.21 561.215C417.258 561.343 417.28 561.479 417.275 561.616C417.259 561.876 417.144 562.119 416.952 562.296C416.761 562.472 416.509 562.567 416.248 562.562Z" fill="white"/>
<path d="M227.158 442.8C227.641 442.599 229.171 410.299 215.245 391.261C201.318 372.224 184.514 370.03 173.446 374.659C162.377 379.287 164.631 390.658 178.256 397.48C191.88 404.302 208.845 416.196 212.89 437.93L227.158 442.8Z" fill="#37474F"/>
<path d="M222.047 433.322C221.801 433.321 221.564 433.233 221.376 433.075C221.189 432.917 221.063 432.698 221.02 432.456C215.808 399.653 196.408 383.574 180.006 379.468C179.874 379.438 179.748 379.381 179.638 379.301C179.527 379.222 179.434 379.121 179.363 379.005C179.291 378.889 179.244 378.759 179.223 378.625C179.203 378.49 179.209 378.353 179.242 378.221C179.268 378.072 179.327 377.931 179.413 377.808C179.499 377.684 179.611 377.58 179.741 377.504C179.871 377.427 180.016 377.38 180.166 377.365C180.316 377.349 180.468 377.367 180.61 377.416C197.656 381.682 217.8 398.285 223.174 432.074C223.196 432.209 223.192 432.347 223.161 432.48C223.129 432.614 223.072 432.739 222.991 432.85C222.91 432.961 222.809 433.054 222.691 433.125C222.574 433.195 222.444 433.242 222.308 433.261L222.047 433.322Z" fill="white"/>
<path d="M224.663 502.772C222.65 494.259 213.977 488.684 203.854 487.718C193.329 486.773 181.093 485.706 177.833 476.851C174.573 467.996 177.833 455.942 176.364 450.045C174.573 442.901 171.836 438.655 158.01 434.308C145.634 430.424 138.791 418.591 151.269 413.6C163.746 408.609 176.243 411.768 184.736 415.612C193.228 419.456 193.59 423.421 205.544 422.394C217.498 421.368 226.414 428.874 227.158 436.119L224.663 502.772Z" fill="#455A64"/>
<path d="M224.663 473.893C224.449 473.891 224.24 473.824 224.064 473.702C223.888 473.58 223.753 473.408 223.677 473.208C213.856 445.839 173.687 421.066 160.325 419.496C160.054 419.461 159.808 419.321 159.638 419.107C159.469 418.892 159.39 418.62 159.419 418.349C159.449 418.075 159.587 417.823 159.802 417.65C160.017 417.476 160.291 417.395 160.566 417.423C174.291 419.053 215.566 444.45 225.629 472.504C225.677 472.632 225.698 472.768 225.693 472.905C225.687 473.042 225.654 473.176 225.596 473.299C225.538 473.423 225.456 473.534 225.354 473.625C225.253 473.717 225.134 473.787 225.005 473.832L224.663 473.893Z" fill="white"/>
<path d="M215.245 457.451H215.023C214.754 457.389 214.521 457.222 214.374 456.989C214.227 456.755 214.178 456.473 214.238 456.203C217.539 441.935 214.238 432.758 214.238 432.658C214.145 432.391 214.161 432.098 214.284 431.843C214.407 431.588 214.626 431.393 214.892 431.299C215.159 431.206 215.452 431.222 215.707 431.345C215.962 431.467 216.157 431.686 216.251 431.953C216.392 432.336 219.732 441.774 216.251 456.666C216.193 456.89 216.063 457.088 215.881 457.23C215.699 457.372 215.475 457.449 215.245 457.451Z" fill="white"/>
<path d="M222.047 467.976C221.878 467.977 221.712 467.935 221.564 467.855C213.514 463.488 196.005 466.607 195.824 466.627C195.688 466.662 195.547 466.669 195.408 466.647C195.269 466.625 195.137 466.575 195.018 466.5C194.9 466.425 194.798 466.326 194.719 466.21C194.64 466.094 194.586 465.963 194.56 465.825C194.534 465.687 194.536 465.545 194.567 465.409C194.598 465.272 194.656 465.142 194.739 465.029C194.822 464.916 194.927 464.82 195.047 464.749C195.168 464.678 195.303 464.632 195.442 464.615C196.187 464.474 213.836 461.335 222.55 466.044C222.785 466.137 222.979 466.313 223.094 466.539C223.21 466.764 223.24 467.024 223.178 467.27C223.117 467.516 222.968 467.731 222.76 467.876C222.552 468.02 222.298 468.085 222.047 468.056V467.976Z" fill="white"/>
<path d="M403.208 99.174C395.5 91.9292 381.554 89.1118 364.045 99.8381C346.537 110.565 332.691 144.877 328.344 169.147C323.997 193.417 321.261 225.113 329.954 238.557C338.648 252 370.203 266.248 370.203 266.248L374.027 253.026L403.208 99.174Z" fill="#101B94"/>
<path opacity="0.4" d="M403.208 99.174C395.5 91.9292 381.554 89.1118 364.045 99.8381C346.537 110.565 332.691 144.877 328.344 169.147C323.997 193.417 321.261 225.113 329.954 238.557C338.648 252 370.203 266.248 370.203 266.248L374.027 253.026L403.208 99.174Z" fill="white"/>
<path d="M338.608 234.531C352.272 250.893 374.108 253.106 374.108 253.106L458.329 204.344L424.6 184.884L338.608 234.531Z" fill="#101B94"/>
<path opacity="0.2" d="M338.608 234.531C352.272 250.893 374.108 253.106 374.108 253.106L458.329 204.344L424.6 184.884L338.608 234.531Z" fill="black"/>
<path d="M338.608 234.531C333.074 227.971 331.947 211.086 334.945 184.985C338.205 156.327 348.811 111.993 374.087 97.3827C403.731 80.2768 433.837 122.78 424.66 184.985L338.608 234.531Z" fill="#101B94"/>
<path d="M535.909 373.23C551.465 390.859 562.856 394.36 567.021 398.124C571.187 401.887 569.537 410.017 560.239 412.613C550.942 415.209 540.497 413.68 533.957 408.065C527.416 402.45 522.566 394.783 516.006 390.798C509.445 386.814 506.185 385.868 504.857 380.736C503.528 375.604 507.07 359.605 507.07 359.605L535.909 373.23Z" fill="#263238"/>
<path d="M526.994 345.216C526.169 352.099 525.162 358.156 530.395 365.985C532.085 368.502 533.926 370.915 535.909 373.21C545.005 383.694 552.391 391.865 553.699 393.334C555.007 394.803 548.346 400.136 540.095 397.359C531.844 394.582 524.096 383.272 518.34 376.57C515.784 373.572 513.289 370.855 511.317 368.762C508.664 365.971 507.125 362.306 506.99 358.458L506.608 347.591L526.994 345.216Z" fill="#FFA8A7"/>
<path d="M488.677 402.068C504.233 419.717 515.603 423.199 519.789 426.962C523.975 430.725 522.305 438.876 513.007 441.472C503.71 444.068 493.265 442.539 486.704 436.904C480.144 431.269 475.334 423.642 468.773 419.657C462.213 415.672 458.933 414.726 457.624 409.595C456.316 404.463 459.838 388.464 459.838 388.464L488.677 402.068Z" fill="#263238"/>
<path d="M479.741 374.075C478.936 380.978 477.91 387.015 483.162 394.844C484.848 397.365 486.689 399.778 488.677 402.068C497.773 412.573 505.138 420.744 506.447 422.193C507.755 423.642 501.113 428.995 492.842 426.218C484.571 423.441 476.843 412.131 471.108 405.449C468.552 402.431 466.057 399.734 464.084 397.641C461.435 394.848 459.896 391.184 459.758 387.337L459.355 376.45L479.741 374.075Z" fill="#FFA8A7"/>
<path d="M416.832 2.27997e-05H428.786C433.455 -0.00526545 438.079 0.909429 442.394 2.69185C446.709 4.47427 450.631 7.0895 453.935 10.3881C457.24 13.6867 459.861 17.604 461.651 21.9162C463.441 26.2284 464.364 30.851 464.366 35.5198V124.792H381.292V35.5198C381.297 26.0975 385.044 17.063 391.709 10.4023C398.373 3.74164 407.41 2.12891e-05 416.832 2.27997e-05Z" fill="#263238"/>
<path d="M469.357 103.722C455.451 89.1115 448.347 87.6223 439.895 87.6223L455.994 134.915C455.994 134.915 482.478 152.423 497.974 162.083L507.815 140.389C507.815 140.389 483.263 118.272 469.357 103.722Z" fill="#FFA8A7"/>
<path d="M375.375 210.382C370.203 221.531 363.542 233.385 370.284 244.856C377.026 256.327 431.784 244.856 431.784 244.856V210.382H375.375Z" fill="#263238"/>
<path d="M434.622 87.6223C440.659 87.1192 447.502 87.3003 454.747 99.4957C461.991 111.691 466.057 118.534 463.762 136.283C461.468 154.033 452.895 167.718 452.271 174.359C451.647 181 453.237 212.918 453.237 212.918C453.237 212.918 442.652 228.031 416.329 228.736C408.569 228.905 400.868 227.347 393.785 224.172C386.701 220.998 380.413 216.287 375.375 210.382L395.5 174.279L390.348 100.904L410.01 89.1316L434.622 87.6223Z" fill="#101B94"/>
<path d="M434.622 87.6223C440.659 87.1192 447.502 87.3003 454.747 99.4957C461.991 111.691 466.057 118.534 463.762 136.283C461.468 154.033 452.895 167.718 452.271 174.359C451.647 181 453.237 212.918 453.237 212.918C453.237 212.918 442.652 228.031 416.329 228.736C408.569 228.905 400.868 227.347 393.785 224.172C386.701 220.998 380.413 216.287 375.375 210.382L395.5 174.279L390.348 100.904L410.01 89.1316L434.622 87.6223Z" fill="#E0E0E0"/>
<path d="M410.03 113.582C408.123 113.582 406.234 113.206 404.472 112.476C402.711 111.746 401.11 110.675 399.763 109.326C398.415 107.976 397.347 106.374 396.619 104.611C395.891 102.849 395.517 100.96 395.52 99.0525V56.791H410.03V113.582Z" fill="#263238"/>
<path d="M450.681 16.7837C455.048 19.3798 460.482 30.408 459.939 53.511C459.496 73.1123 453.137 77.9422 449.876 79.3509C446.616 80.7596 440.539 79.8942 434.541 78.888V90.6609C434.541 90.6609 442.813 100.26 442.289 105.634C441.766 111.007 430.356 112.315 422.628 107.042C417.615 103.432 413.311 98.9295 409.929 93.76V65.3241C409.929 65.3241 405.904 70.7174 399.303 66.3303C392.703 61.9431 392.441 51.096 396.285 47.212C400.129 43.3279 408.359 44.5354 409.929 49.9288C409.929 49.9288 419.468 50.2709 432.066 43.3078C437.039 40.6658 441.317 36.886 444.552 32.2766C447.787 27.6672 449.887 22.3587 450.681 16.7837Z" fill="#FFA8A7"/>
<path d="M438.063 48.6007C438.093 49.2518 437.862 49.888 437.423 50.3692C436.983 50.8504 436.37 51.1372 435.719 51.1665C435.068 51.1959 434.432 50.9654 433.95 50.5257C433.469 50.086 433.182 49.4732 433.153 48.822C433.138 48.4996 433.188 48.1775 433.297 47.874C433.407 47.5706 433.576 47.2918 433.794 47.0535C434.012 46.8153 434.274 46.6222 434.566 46.4854C434.859 46.3486 435.175 46.2707 435.497 46.2562C435.82 46.2416 436.142 46.2907 436.445 46.4007C436.749 46.5107 437.028 46.6793 437.266 46.897C437.504 47.1147 437.697 47.3772 437.834 47.6695C437.971 47.9619 438.049 48.2782 438.063 48.6007Z" fill="#263238"/>
<path d="M433.616 41.0539L428.504 44.2135C428.089 43.5134 427.961 42.6792 428.149 41.8869C428.337 41.0947 428.825 40.4063 429.51 39.9672C429.85 39.7629 430.227 39.6289 430.619 39.573C431.011 39.5172 431.41 39.5406 431.793 39.6419C432.176 39.7433 432.535 39.9205 432.848 40.163C433.161 40.4056 433.422 40.7085 433.616 41.0539Z" fill="#263238"/>
<path d="M438.727 65.2036L444.443 67.035C444.335 67.4141 444.152 67.7677 443.905 68.0751C443.658 68.3825 443.352 68.6375 443.005 68.825C442.658 69.0125 442.277 69.1287 441.885 69.1669C441.492 69.2051 441.096 69.1645 440.72 69.0474C439.961 68.7808 439.332 68.2346 438.962 67.5204C438.592 66.8061 438.508 65.9775 438.727 65.2036Z" fill="#F28F8F"/>
<path d="M458.329 41.0339L453.338 37.5725C453.546 37.2346 453.821 36.943 454.146 36.7157C454.471 36.4884 454.839 36.3303 455.227 36.251C455.616 36.1718 456.017 36.1732 456.405 36.2551C456.793 36.337 457.16 36.4977 457.483 36.7273C458.147 37.2021 458.604 37.9124 458.761 38.7128C458.918 39.5133 458.763 40.3436 458.329 41.0339Z" fill="#263238"/>
<path d="M457.121 46.8097C457.129 47.2956 456.993 47.773 456.731 48.1822C456.468 48.5915 456.092 48.9144 455.647 49.1109C455.203 49.3074 454.71 49.3687 454.231 49.2872C453.752 49.2056 453.307 48.9849 452.953 48.6524C452.598 48.3199 452.35 47.8904 452.238 47.4175C452.126 46.9446 452.155 46.4491 452.323 45.993C452.491 45.5368 452.789 45.1401 453.18 44.8523C453.572 44.5645 454.04 44.3984 454.525 44.3746C454.856 44.3639 455.185 44.4184 455.494 44.5349C455.804 44.6515 456.087 44.828 456.328 45.0541C456.569 45.2803 456.763 45.5517 456.899 45.8529C457.035 46.1542 457.111 46.4793 457.121 46.8097Z" fill="#263238"/>
<path d="M445.489 45.4011L445.892 60.2329L453.7 57.818L445.489 45.4011Z" fill="#F28F8F"/>
<path d="M434.622 78.888C429.651 78.3245 419.67 75.3059 417.456 71.9451C417.883 74.0919 419.078 76.0094 420.817 77.3384C424.077 80.4577 434.622 82.7117 434.622 82.7117V78.888Z" fill="#F28F8F"/>
<path d="M382.52 413.599L222.389 321.147L559.515 126.503L719.646 218.955L382.52 413.599Z" fill="#101B94"/>
<path opacity="0.4" d="M382.52 413.599L222.389 321.147L559.515 126.503L719.646 218.955L382.52 413.599Z" fill="white"/>
<path d="M222.389 321.147V506.052L230.821 510.922V384.399L374.108 467.111V593.634L382.52 598.504V413.6L222.389 321.147Z" fill="#101B94"/>
<path opacity="0.3" d="M222.389 321.147V506.052L230.821 510.922V384.399L374.108 467.111V593.634L382.52 598.504V413.6L222.389 321.147Z" fill="black"/>
<path d="M230.821 510.922L239.253 506.052V389.269L230.821 384.399V510.922Z" fill="#101B94"/>
<path opacity="0.5" d="M230.821 510.922L239.253 506.052V389.269L230.821 384.399V510.922Z" fill="black"/>
<path d="M382.52 598.504L390.952 593.634V467.111L711.214 282.207V408.729L719.646 403.859V218.955L382.52 413.6V598.504Z" fill="#101B94"/>
<path opacity="0.1" d="M382.52 598.504L390.952 593.634V467.111L711.214 282.207V408.729L719.646 403.859V218.955L382.52 413.6V598.504Z" fill="black"/>
<path d="M390.952 457.391V418.47L492.098 360.068V398.989L390.952 457.391Z" fill="#101B94"/>
<path opacity="0.3" d="M390.952 457.391V418.47L492.098 360.068V398.989L390.952 457.391Z" fill="black"/>
<path d="M500.51 394.139V355.198L601.656 296.817V335.738L500.51 394.139Z" fill="#101B94"/>
<path opacity="0.3" d="M500.51 394.139V355.198L601.656 296.817V335.738L500.51 394.139Z" fill="black"/>
<path d="M610.088 330.867V291.947L711.214 233.545V272.486L610.088 330.867Z" fill="#101B94"/>
<path opacity="0.3" d="M610.088 330.867V291.947L711.214 233.545V272.486L610.088 330.867Z" fill="black"/>
<path d="M458.329 379.529V382.648C458.329 384.358 454.304 388.082 449.333 390.939L433.596 400.035C428.625 402.893 424.6 403.839 424.6 402.048V398.949L458.329 379.529Z" fill="#263238"/>
<path d="M567.947 316.277V319.397C567.947 321.107 563.922 324.83 558.951 327.688L543.214 336.784C538.263 339.642 534.238 340.568 534.238 338.797V335.677L567.947 316.277Z" fill="#263238"/>
<path d="M677.505 253.026V256.125C677.505 257.856 673.48 261.558 668.53 264.436L652.772 273.512C647.821 276.39 643.797 277.316 643.797 275.525V272.406L677.505 253.026Z" fill="#263238"/>
<path d="M711.214 408.73L702.802 403.86V287.077L711.214 282.207V408.73Z" fill="#101B94"/>
<path opacity="0.3" d="M711.214 408.73L702.802 403.86V287.077L711.214 282.207V408.73Z" fill="black"/>
<path d="M475.233 231.472V230.768C475.27 230.145 475.45 229.539 475.761 228.997C476.072 228.456 476.505 227.994 477.025 227.649L583.101 166.47C583.66 166.19 584.277 166.045 584.902 166.045C585.527 166.045 586.144 166.19 586.703 166.47L608.398 178.988C608.918 179.333 609.35 179.795 609.661 180.336C609.972 180.877 610.152 181.484 610.189 182.107V182.831C610.147 183.453 609.962 184.056 609.648 184.594C609.333 185.132 608.898 185.589 608.377 185.931L502.422 247.109C501.863 247.389 501.246 247.535 500.621 247.535C499.995 247.535 499.379 247.389 498.819 247.109L477.025 234.531C476.512 234.192 476.085 233.74 475.774 233.21C475.464 232.679 475.279 232.085 475.233 231.472Z" fill="#101B94"/>
<path opacity="0.7" d="M475.233 231.472V230.768C475.27 230.145 475.45 229.539 475.761 228.997C476.072 228.456 476.505 227.994 477.025 227.649L583.101 166.47C583.66 166.19 584.277 166.045 584.902 166.045C585.527 166.045 586.144 166.19 586.703 166.47L608.398 178.988C608.918 179.333 609.35 179.795 609.661 180.336C609.972 180.877 610.152 181.484 610.189 182.107V182.831C610.147 183.453 609.962 184.056 609.648 184.594C609.333 185.132 608.898 185.589 608.377 185.931L502.422 247.109C501.863 247.389 501.246 247.535 500.621 247.535C499.995 247.535 499.379 247.389 498.819 247.109L477.025 234.531C476.512 234.192 476.085 233.74 475.774 233.21C475.464 232.679 475.279 232.085 475.233 231.472Z" fill="white"/>
<path d="M477.025 229.721L498.719 242.259C499.278 242.539 499.895 242.684 500.52 242.684C501.145 242.684 501.762 242.539 502.321 242.259L608.277 181.08C608.469 180.992 608.633 180.85 608.747 180.672C608.862 180.494 608.922 180.286 608.922 180.074C608.922 179.862 608.862 179.655 608.747 179.476C608.633 179.298 608.469 179.156 608.277 179.068L586.582 166.55C586.023 166.271 585.407 166.125 584.781 166.125C584.156 166.125 583.539 166.271 582.98 166.55L477.004 227.729C476.038 228.232 476.038 229.158 477.025 229.721Z" fill="#101B94"/>
<path opacity="0.9" d="M477.025 229.721L498.719 242.259C499.278 242.539 499.895 242.684 500.52 242.684C501.145 242.684 501.762 242.539 502.321 242.259L608.277 181.08C608.469 180.992 608.633 180.85 608.747 180.672C608.862 180.494 608.922 180.286 608.922 180.074C608.922 179.862 608.862 179.655 608.747 179.476C608.633 179.298 608.469 179.156 608.277 179.068L586.582 166.55C586.023 166.271 585.407 166.125 584.781 166.125C584.156 166.125 583.539 166.271 582.98 166.55L477.004 227.729C476.038 228.232 476.038 229.158 477.025 229.721Z" fill="white"/>
<path d="M342.19 289.733L406.005 326.601C406.564 326.881 407.181 327.027 407.806 327.027C408.431 327.027 409.048 326.881 409.607 326.601L456.578 299.473C456.778 299.392 456.949 299.253 457.069 299.073C457.19 298.894 457.254 298.683 457.254 298.467C457.254 298.251 457.19 298.04 457.069 297.861C456.949 297.682 456.778 297.543 456.578 297.461L392.743 260.613C392.19 260.325 391.575 260.175 390.952 260.175C390.328 260.175 389.714 260.325 389.161 260.613L342.19 287.66C341.184 288.244 341.184 289.17 342.19 289.733Z" fill="#101B94"/>
<path opacity="0.8" d="M342.19 289.733L406.005 326.601C406.564 326.881 407.181 327.027 407.806 327.027C408.431 327.027 409.048 326.881 409.607 326.601L456.578 299.473C456.778 299.392 456.949 299.253 457.069 299.073C457.19 298.894 457.254 298.683 457.254 298.467C457.254 298.251 457.19 298.04 457.069 297.861C456.949 297.682 456.778 297.543 456.578 297.461L392.743 260.613C392.19 260.325 391.575 260.175 390.952 260.175C390.328 260.175 389.714 260.325 389.161 260.613L342.19 287.66C341.184 288.244 341.184 289.17 342.19 289.733Z" fill="white"/>
<path d="M389.161 260.553L344.545 286.292L406.005 321.792C406.564 322.071 407.181 322.217 407.806 322.217C408.431 322.217 409.048 322.071 409.607 321.792L454.304 296.032L392.823 260.553C392.26 260.251 391.631 260.094 390.992 260.094C390.353 260.094 389.724 260.251 389.161 260.553Z" fill="#101B94"/>
<path opacity="0.7" d="M389.161 260.553L344.545 286.292L406.005 321.792C406.564 322.071 407.181 322.217 407.806 322.217C408.431 322.217 409.048 322.071 409.607 321.792L454.304 296.032L392.823 260.553C392.26 260.251 391.631 260.094 390.992 260.094C390.353 260.094 389.724 260.251 389.161 260.553Z" fill="white"/>
<path d="M342.19 283.253L406.005 320.101C406.564 320.381 407.181 320.527 407.806 320.527C408.431 320.527 409.048 320.381 409.607 320.101L456.578 292.993C456.771 292.905 456.934 292.763 457.048 292.585C457.163 292.406 457.224 292.199 457.224 291.987C457.224 291.775 457.163 291.568 457.048 291.389C456.934 291.211 456.771 291.069 456.578 290.981L392.743 254.052C392.186 253.776 391.573 253.632 390.952 253.632C390.33 253.632 389.717 253.776 389.161 254.052L342.19 281.18C341.97 281.25 341.777 281.388 341.641 281.574C341.504 281.76 341.43 281.986 341.43 282.217C341.43 282.448 341.504 282.673 341.641 282.859C341.777 283.046 341.97 283.184 342.19 283.253Z" fill="#101B94"/>
<path opacity="0.9" d="M342.19 283.253L406.005 320.101C406.564 320.381 407.181 320.527 407.806 320.527C408.431 320.527 409.048 320.381 409.607 320.101L456.578 292.993C456.771 292.905 456.934 292.763 457.048 292.585C457.163 292.406 457.224 292.199 457.224 291.987C457.224 291.775 457.163 291.568 457.048 291.389C456.934 291.211 456.771 291.069 456.578 290.981L392.743 254.052C392.186 253.776 391.573 253.632 390.952 253.632C390.33 253.632 389.717 253.776 389.161 254.052L342.19 281.18C341.97 281.25 341.777 281.388 341.641 281.574C341.504 281.76 341.43 281.986 341.43 282.217C341.43 282.448 341.504 282.673 341.641 282.859C341.777 283.046 341.97 283.184 342.19 283.253Z" fill="white"/>
<path d="M377.569 244.855C375.456 250.611 378.696 255.259 384.834 255.219C388.059 255.051 391.172 253.978 393.816 252.124C396.46 250.27 398.529 247.709 399.787 244.734C401.92 238.979 398.66 234.33 392.522 234.37C389.296 234.538 386.184 235.611 383.54 237.465C380.895 239.319 378.826 241.88 377.569 244.855Z" fill="#101B94"/>
<path opacity="0.1" d="M377.569 244.855C375.456 250.611 378.696 255.259 384.834 255.219C388.059 255.051 391.172 253.978 393.816 252.124C396.46 250.27 398.529 247.709 399.787 244.734C401.92 238.979 398.66 234.33 392.522 234.37C389.296 234.538 386.184 235.611 383.54 237.465C380.895 239.319 378.826 241.88 377.569 244.855Z" fill="black"/>
<path d="M382.66 272.164C377.851 285.185 385.216 295.71 399.122 295.63C413.028 295.549 428.142 284.843 432.972 271.883C437.802 258.923 430.396 248.357 416.51 248.417C402.624 248.478 387.45 259.124 382.66 272.164Z" fill="#455A64"/>
<path d="M393.93 234.531L385.599 240.347L377.267 246.163C374.51 257.091 373.685 274.157 383.928 288.848L431.865 255.36C421.521 240.569 405.059 235.618 393.93 234.531Z" fill="#455A64"/>
<path d="M398.74 235.316C398.74 235.316 400.229 248.497 390.348 254.474C390.348 254.474 399.646 251.919 402.423 245.378C405.2 238.838 398.74 235.316 398.74 235.316Z" fill="#263238"/>
<path d="M399.968 236.805C396.256 231.647 391.261 227.547 385.478 224.912L378.797 229.661L378.052 230.184L371.35 234.934C371.932 241.238 374.137 247.284 377.75 252.482C378.583 253.541 379.662 254.381 380.893 254.928C382.124 255.475 383.47 255.713 384.814 255.622C388.211 255.436 391.486 254.298 394.266 252.336C397.046 250.375 399.217 247.671 400.531 244.533C401.073 243.288 401.301 241.928 401.196 240.574C401.091 239.22 400.655 237.912 399.927 236.765L399.968 236.805Z" fill="#37474F"/>
<path d="M371.572 231.352C371.169 232.161 370.994 233.065 371.063 233.967C371.133 234.869 371.445 235.735 371.967 236.474C372.489 237.212 373.201 237.796 374.028 238.162C374.855 238.529 375.766 238.665 376.664 238.556C378.909 238.437 381.075 237.687 382.912 236.391C384.749 235.095 386.183 233.306 387.048 231.231C387.449 230.422 387.624 229.521 387.556 228.621C387.487 227.721 387.176 226.857 386.657 226.119C386.137 225.381 385.428 224.797 384.604 224.429C383.781 224.06 382.873 223.921 381.976 224.026C379.732 224.158 377.569 224.913 375.731 226.207C373.893 227.501 372.452 229.283 371.572 231.352Z" fill="#455A64"/>
<path d="M385.297 247.713C384.46 246.508 383.352 245.516 382.063 244.817C380.773 244.118 379.337 243.731 377.871 243.688C377.313 243.639 376.754 243.754 376.26 244.018C375.767 244.283 375.362 244.685 375.094 245.177L355.331 292.892C355.186 293.355 355.15 293.844 355.227 294.323C355.304 294.802 355.491 295.256 355.774 295.649C356.612 296.858 357.722 297.852 359.016 298.552C360.31 299.251 361.75 299.636 363.22 299.674C363.778 299.725 364.339 299.612 364.833 299.347C365.326 299.082 365.731 298.678 365.997 298.185L385.719 250.631C385.906 250.149 385.966 249.627 385.892 249.116C385.818 248.605 385.613 248.121 385.297 247.713Z" fill="#455A64"/>
<path d="M408.822 364.576C408.822 363.9 408.748 363.225 408.601 362.564C406.907 354.844 402.356 348.051 395.862 343.546H369.197C362.697 348.049 358.139 354.842 356.438 362.564C356.297 363.225 356.229 363.9 356.237 364.576C356.23 364.697 356.23 364.818 356.237 364.939C356.479 368.622 359.014 372.264 363.884 375.001C374.168 381.038 390.811 381.038 401.095 375.001C405.965 372.184 408.5 368.541 408.742 364.939C408.776 364.82 408.803 364.699 408.822 364.576Z" fill="#455A64"/>
<path d="M382.52 360.672C392.389 360.672 400.39 356.05 400.39 350.348C400.39 344.646 392.389 340.024 382.52 340.024C372.65 340.024 364.649 344.646 364.649 350.348C364.649 356.05 372.65 360.672 382.52 360.672Z" fill="#37474F"/>
<path d="M378.293 347.893C377.78 348.063 377.332 348.391 377.015 348.83C376.699 349.269 376.528 349.796 376.528 350.338C376.528 350.879 376.699 351.407 377.015 351.846C377.332 352.285 377.78 352.613 378.293 352.783C379.607 353.448 381.058 353.794 382.53 353.794C384.002 353.794 385.453 353.448 386.766 352.783C387.28 352.613 387.727 352.285 388.044 351.846C388.361 351.407 388.531 350.879 388.531 350.338C388.531 349.796 388.361 349.269 388.044 348.83C387.727 348.391 387.28 348.063 386.766 347.893C385.453 347.228 384.002 346.881 382.53 346.881C381.058 346.881 379.607 347.228 378.293 347.893Z" fill="#455A64"/>
<path d="M353.822 301.244C353.308 301.415 352.861 301.743 352.544 302.182C352.227 302.621 352.057 303.148 352.057 303.69C352.057 304.231 352.227 304.759 352.544 305.198C352.861 305.636 353.308 305.964 353.822 306.135C355.135 306.8 356.586 307.146 358.058 307.146C359.53 307.146 360.981 306.8 362.295 306.135C362.808 305.964 363.256 305.636 363.573 305.198C363.889 304.759 364.06 304.231 364.06 303.69C364.06 303.148 363.889 302.621 363.573 302.182C363.256 301.743 362.808 301.415 362.295 301.244C360.981 300.58 359.53 300.233 358.058 300.233C356.586 300.233 355.135 300.58 353.822 301.244Z" fill="#101B94"/>
<path opacity="0.3" d="M353.822 301.244C353.308 301.415 352.861 301.743 352.544 302.182C352.227 302.621 352.057 303.148 352.057 303.69C352.057 304.231 352.227 304.759 352.544 305.198C352.861 305.636 353.308 305.964 353.822 306.135C355.135 306.8 356.586 307.146 358.058 307.146C359.53 307.146 360.981 306.8 362.295 306.135C362.808 305.964 363.256 305.636 363.573 305.198C363.889 304.759 364.06 304.231 364.06 303.69C364.06 303.148 363.889 302.621 363.573 302.182C363.256 301.743 362.808 301.415 362.295 301.244C360.981 300.58 359.53 300.233 358.058 300.233C356.586 300.233 355.135 300.58 353.822 301.244Z" fill="black"/>
<path d="M363.824 302.713L388.275 349.362L376.784 351.334L352.293 304.625L363.824 302.713Z" fill="#455A64"/>
<path d="M355.191 289.129C354.433 288.943 353.639 288.981 352.903 289.239C352.167 289.496 351.521 289.961 351.045 290.578C349.664 292.132 348.67 293.99 348.142 296.001C347.614 298.011 347.567 300.118 348.006 302.15C348.128 302.818 348.404 303.447 348.813 303.989C349.222 304.531 349.752 304.969 350.361 305.269L359.497 308.69L364.045 292.389L355.191 289.129Z" fill="#37474F"/>
<path d="M360.061 293.959C358.675 295.515 357.676 297.375 357.144 299.389C356.613 301.403 356.564 303.514 357.002 305.551C358.008 309.234 361.027 310.019 363.683 307.302C365.068 305.75 366.068 303.893 366.599 301.883C367.131 299.872 367.18 297.764 366.742 295.73C365.756 292.047 362.737 291.262 360.061 293.959Z" fill="#263238"/>
<path d="M314.116 334.389C322.609 325.736 327.58 304.102 319.308 297.239H277.208C268.937 304.102 273.908 325.715 282.4 334.389L282.621 334.631L282.923 334.912C283.164 335.156 283.419 335.384 283.688 335.597L283.889 335.758L284.533 336.241C284.881 336.496 285.244 336.732 285.62 336.945C289.541 338.929 293.874 339.963 298.268 339.963C302.663 339.963 306.996 338.929 310.917 336.945C311.279 336.744 311.641 336.502 312.023 336.241L312.607 335.778L312.869 335.597L313.593 334.933L313.935 334.59L314.116 334.389Z" fill="#101B94"/>
<path opacity="0.7" d="M314.116 334.389C322.609 325.736 327.58 304.102 319.308 297.239H277.208C268.937 304.102 273.908 325.715 282.4 334.389L282.621 334.631L282.923 334.912C283.164 335.156 283.419 335.384 283.688 335.597L283.889 335.758L284.533 336.241C284.881 336.496 285.244 336.732 285.62 336.945C289.541 338.929 293.874 339.963 298.268 339.963C302.663 339.963 306.996 338.929 310.917 336.945C311.279 336.744 311.641 336.502 312.023 336.241L312.607 335.778L312.869 335.597L313.593 334.933L313.935 334.59L314.116 334.389Z" fill="white"/>
<path d="M298.238 318.732C311.831 318.732 322.85 312.371 322.85 304.525C322.85 296.678 311.831 290.317 298.238 290.317C284.645 290.317 273.626 296.678 273.626 304.525C273.626 312.371 284.645 318.732 298.238 318.732Z" fill="#101B94"/>
<path opacity="0.9" d="M298.238 318.732C311.831 318.732 322.85 312.371 322.85 304.525C322.85 296.678 311.831 290.317 298.238 290.317C284.645 290.317 273.626 296.678 273.626 304.525C273.626 312.371 284.645 318.732 298.238 318.732Z" fill="white"/>
<path d="M287.653 298.407C281.816 301.788 281.816 307.262 287.653 310.643C290.939 312.3 294.568 313.164 298.248 313.164C301.929 313.164 305.558 312.3 308.844 310.643C314.68 307.262 314.68 301.788 308.844 298.407C305.561 296.74 301.93 295.871 298.248 295.871C294.566 295.871 290.936 296.74 287.653 298.407Z" fill="#101B94"/>
<path opacity="0.7" d="M287.653 298.407C281.816 301.788 281.816 307.262 287.653 310.643C290.939 312.3 294.568 313.164 298.248 313.164C301.929 313.164 305.558 312.3 308.844 310.643C314.68 307.262 314.68 301.788 308.844 298.407C305.561 296.74 301.93 295.871 298.248 295.871C294.566 295.871 290.936 296.74 287.653 298.407Z" fill="white"/>
<path d="M308.844 304.203C305.558 302.545 301.929 301.681 298.248 301.681C294.568 301.681 290.939 302.545 287.653 304.203C286.245 304.981 285.044 306.085 284.151 307.422C285.044 308.76 286.245 309.864 287.653 310.642C290.939 312.3 294.568 313.164 298.248 313.164C301.929 313.164 305.558 312.3 308.844 310.642C310.252 309.864 311.452 308.76 312.345 307.422C311.452 306.085 310.252 304.981 308.844 304.203Z" fill="#101B94"/>
<path opacity="0.3" d="M308.844 304.203C305.558 302.545 301.929 301.681 298.248 301.681C294.568 301.681 290.939 302.545 287.653 304.203C286.245 304.981 285.044 306.085 284.151 307.422C285.044 308.76 286.245 309.864 287.653 310.642C290.939 312.3 294.568 313.164 298.248 313.164C301.929 313.164 305.558 312.3 308.844 310.642C310.252 309.864 311.452 308.76 312.345 307.422C311.452 306.085 310.252 304.981 308.844 304.203Z" fill="black"/>
<path d="M302.062 308.751C308.161 304.941 312.765 299.15 315.102 292.349C318.986 280.999 316.692 267.274 313.211 261.599C308.502 253.912 297.111 254.777 300.472 267.636C303.833 280.496 305.926 294.402 300.593 303.7L302.062 308.751Z" fill="#37474F"/>
<path d="M302.464 306.416C302.34 306.416 302.219 306.374 302.122 306.295C302.073 306.247 302.034 306.189 302.007 306.125C301.98 306.061 301.966 305.992 301.966 305.923C301.966 305.854 301.98 305.785 302.007 305.721C302.034 305.657 302.073 305.599 302.122 305.551C305.525 301.789 308.129 297.375 309.775 292.577C311.422 287.779 312.077 282.697 311.701 277.638C311.118 268.32 307.676 261.538 306.368 260.512C306.274 260.411 306.221 260.278 306.221 260.14C306.221 260.001 306.274 259.868 306.368 259.767C306.466 259.674 306.596 259.622 306.731 259.622C306.866 259.622 306.995 259.674 307.093 259.767C308.824 261.257 312.204 268.502 312.768 277.598C313.157 282.798 312.485 288.024 310.794 292.957C309.102 297.89 306.426 302.428 302.927 306.295C302.867 306.354 302.793 306.396 302.712 306.417C302.63 306.438 302.545 306.438 302.464 306.416Z" fill="white"/>
<path d="M292.241 308.75C291.916 307.628 291.202 306.659 290.229 306.013C289.026 305.343 287.758 304.797 286.445 304.383C284.171 303.558 281.273 302.371 280.971 299.634C280.9 298.654 281.023 297.669 281.333 296.736C281.894 295.471 282.028 294.059 281.716 292.711C281.213 291.504 279.925 290.86 278.818 290.135C277.597 289.414 276.558 288.422 275.779 287.237C275.122 286.184 274.806 284.955 274.873 283.715C275.095 281.18 277.53 279.509 277.61 276.994C277.711 273.311 269.098 268.32 273.686 264.919C279.563 260.472 288.759 265.623 291.396 269.407C294.032 273.19 294.032 274.881 298.842 278.081C302.867 280.737 307.536 281.28 307.536 286.513C307.536 291.745 300.834 291.987 306.107 297.923C309.286 301.485 304.094 304.564 302.082 308.791C298.802 308.75 295.481 308.589 292.241 308.75Z" fill="#455A64"/>
<path d="M297.554 309.213C297.485 309.211 297.418 309.195 297.355 309.166C297.293 309.137 297.236 309.096 297.19 309.046C297.143 308.996 297.107 308.936 297.083 308.872C297.059 308.807 297.048 308.739 297.051 308.67C298.218 278.262 282.742 267.596 279.643 266.751C279.516 266.708 279.411 266.618 279.348 266.499C279.286 266.381 279.271 266.243 279.307 266.114C279.343 265.985 279.428 265.875 279.542 265.806C279.657 265.738 279.794 265.715 279.925 265.744C285.157 267.173 299.184 280.013 298.037 308.71C298.032 308.839 297.98 308.961 297.891 309.054C297.802 309.147 297.682 309.204 297.554 309.213Z" fill="white"/>
<path d="M295.099 287.6C294.974 287.6 294.853 287.557 294.757 287.479C290.269 283.454 281.494 283.615 281.394 283.615C281.258 283.615 281.128 283.563 281.031 283.469C280.933 283.375 280.876 283.247 280.871 283.112C280.87 282.975 280.922 282.842 281.015 282.742C281.109 282.641 281.237 282.579 281.374 282.569C281.756 282.569 290.651 282.468 295.461 286.594C295.537 286.665 295.59 286.756 295.613 286.857C295.637 286.958 295.63 287.064 295.593 287.161C295.557 287.258 295.492 287.342 295.408 287.402C295.323 287.463 295.222 287.496 295.119 287.499L295.099 287.6Z" fill="white"/>
<path d="M652.651 204.063L660.218 112.215C660.297 110.728 659.99 109.247 659.327 107.914C658.664 106.581 657.668 105.442 656.435 104.608C655.072 103.948 653.572 103.619 652.058 103.647C650.545 103.675 649.058 104.059 647.721 104.769L547.098 162.848C545.768 163.709 544.639 164.847 543.788 166.184C542.937 167.521 542.384 169.026 542.168 170.596L534.601 262.444C534.522 263.931 534.829 265.413 535.492 266.746C536.155 268.078 537.151 269.217 538.384 270.051C539.747 270.711 541.246 271.04 542.76 271.012C544.274 270.984 545.76 270.6 547.098 269.891L647.721 211.811C649.049 210.948 650.177 209.809 651.028 208.473C651.878 207.136 652.432 205.632 652.651 204.063Z" fill="#101B94"/>
<path opacity="0.8" d="M652.651 204.063L660.218 112.215C660.297 110.728 659.99 109.247 659.327 107.914C658.664 106.581 657.668 105.442 656.435 104.608C655.072 103.948 653.572 103.619 652.058 103.647C650.545 103.675 649.058 104.059 647.721 104.769L547.098 162.848C545.768 163.709 544.639 164.847 543.788 166.184C542.937 167.521 542.384 169.026 542.168 170.596L534.601 262.444C534.522 263.931 534.829 265.413 535.492 266.746C536.155 268.078 537.151 269.217 538.384 270.051C539.747 270.711 541.246 271.04 542.76 271.012C544.274 270.984 545.76 270.6 547.098 269.891L647.721 211.811C649.049 210.948 650.177 209.809 651.028 208.473C651.878 207.136 652.432 205.632 652.651 204.063Z" fill="white"/>
<path d="M652.651 204.063L660.218 112.215C660.297 110.728 659.99 109.247 659.327 107.914C658.664 106.581 657.668 105.442 656.435 104.608C655.072 103.948 653.572 103.619 652.059 103.647C650.545 103.675 649.059 104.059 647.721 104.769L547.098 162.848C545.762 163.677 544.638 164.807 543.818 166.149L559.455 175.164V262.706L647.66 211.771C648.997 210.92 650.135 209.791 650.996 208.461C651.857 207.131 652.422 205.631 652.651 204.063Z" fill="#101B94"/>
<path opacity="0.9" d="M652.651 204.063L660.218 112.215C660.297 110.728 659.99 109.247 659.327 107.914C658.664 106.581 657.668 105.442 656.435 104.608C655.072 103.948 653.572 103.619 652.059 103.647C650.545 103.675 649.059 104.059 647.721 104.769L547.098 162.848C545.762 163.677 544.638 164.807 543.818 166.149L559.455 175.164V262.706L647.66 211.771C648.997 210.92 650.135 209.791 650.996 208.461C651.857 207.131 652.422 205.631 652.651 204.063Z" fill="white"/>
<path d="M543.093 267.314L550.66 175.466C550.88 173.896 551.431 172.392 552.278 171.052C553.124 169.713 554.247 168.569 555.571 167.698L656.193 109.638C658.689 108.21 660.5 109.357 660.218 112.214L652.651 204.063C652.434 205.63 651.884 207.133 651.037 208.469C650.189 209.806 649.066 210.945 647.741 211.811L547.118 269.89C544.663 271.319 542.852 270.172 543.093 267.314Z" fill="#101B94"/>
<path opacity="0.7" d="M543.093 267.314L550.66 175.466C550.88 173.896 551.431 172.392 552.278 171.052C553.124 169.713 554.247 168.569 555.571 167.698L656.193 109.638C658.689 108.21 660.5 109.357 660.218 112.214L652.651 204.063C652.434 205.63 651.884 207.133 651.037 208.469C650.189 209.806 649.066 210.945 647.741 211.811L547.118 269.89C544.663 271.319 542.852 270.172 543.093 267.314Z" fill="white"/>
<path d="M594.994 193.618C595.268 191.149 596.067 188.767 597.337 186.632C598.608 184.497 600.32 182.659 602.36 181.241C606.043 179.108 608.699 181.241 608.397 185.91C608.121 188.378 607.321 190.759 606.051 192.894C604.781 195.028 603.07 196.867 601.032 198.287C597.188 200.319 594.612 198.307 594.994 193.618Z" fill="#101B94"/>
<path opacity="0.4" d="M594.994 193.618C595.268 191.149 596.067 188.767 597.337 186.632C598.608 184.497 600.32 182.659 602.36 181.241C606.043 179.108 608.699 181.241 608.397 185.91C608.121 188.378 607.321 190.759 606.051 192.894C604.781 195.028 603.07 196.867 601.032 198.287C597.188 200.319 594.612 198.307 594.994 193.618Z" fill="white"/>
<path d="M593.223 223.825L626.932 204.365L622.726 201.93L589.017 221.39L593.223 223.825Z" fill="#101B94"/>
<path opacity="0.9" d="M593.223 223.825L626.932 204.365L622.726 201.93L589.017 221.39L593.223 223.825Z" fill="white"/>
<path d="M633.553 249.182L603.366 266.57C602.75 266.902 602.053 267.055 601.354 267.013C600.787 266.988 600.231 266.844 599.724 266.59L586.462 258.943C585.958 258.595 585.54 258.137 585.241 257.603C584.941 257.07 584.766 256.475 584.731 255.864V255.159C584.731 254.012 585.536 253.529 586.522 254.113L594.572 258.721L596.363 259.768L595.961 257.755L588.997 221.531L593.203 223.966L626.932 204.345L634.982 246.083C635.076 246.683 634.99 247.297 634.736 247.849C634.482 248.4 634.07 248.864 633.553 249.182Z" fill="#101B94"/>
<path opacity="0.7" d="M633.553 249.182L603.366 266.57C602.75 266.902 602.053 267.055 601.354 267.013C600.787 266.988 600.231 266.844 599.724 266.59L586.462 258.943C585.958 258.595 585.54 258.137 585.241 257.603C584.941 257.07 584.766 256.475 584.731 255.864V255.159C584.731 254.012 585.536 253.529 586.522 254.113L594.572 258.721L596.363 259.768L595.961 257.755L588.997 221.531L593.203 223.966L626.932 204.345L634.982 246.083C635.076 246.683 634.99 247.297 634.736 247.849C634.482 248.4 634.07 248.864 633.553 249.182Z" fill="white"/>
<path d="M585.355 253.911L595.618 247.975L597.711 261.8L585.355 253.911Z" fill="#101B94"/>
<path opacity="0.7" d="M585.355 253.911L595.618 247.975L597.711 261.8L585.355 253.911Z" fill="white"/>
<path d="M593.163 223.825L588.957 221.39L595.92 257.614C596.162 258.721 595.518 259.184 594.532 258.6L586.482 253.992C585.496 253.408 584.691 253.992 584.691 255.038V255.743C584.726 256.354 584.9 256.949 585.2 257.482C585.5 258.016 585.918 258.474 586.421 258.822L599.684 266.469C600.191 266.723 600.747 266.867 601.314 266.892L593.163 223.825Z" fill="#101B94"/>
<path opacity="0.8" d="M593.163 223.825L588.957 221.39L595.92 257.614C596.162 258.721 595.518 259.184 594.532 258.6L586.482 253.992C585.496 253.408 584.691 253.992 584.691 255.038V255.743C584.726 256.354 584.9 256.949 585.2 257.482C585.5 258.016 585.918 258.474 586.421 258.822L599.684 266.469C600.191 266.723 600.747 266.867 601.314 266.892L593.163 223.825Z" fill="white"/>
<path d="M484.491 272.487C490.669 272.024 492.661 269.75 493.668 267.013C494.674 264.276 495.036 261.277 492.641 254.938C490.246 248.599 476.542 240.287 462.314 243.326C448.085 246.365 446.113 257.232 446.878 260.15C447.643 263.068 456.196 270.474 467.284 271.742C472.988 272.487 478.744 272.736 484.491 272.487Z" fill="#101B94"/>
<path opacity="0.7" d="M484.491 272.487C490.669 272.024 492.661 269.75 493.668 267.013C494.674 264.276 495.036 261.277 492.641 254.938C490.246 248.599 476.542 240.287 462.314 243.326C448.085 246.365 446.113 257.232 446.878 260.15C447.643 263.068 456.196 270.474 467.284 271.742C472.988 272.487 478.744 272.736 484.491 272.487Z" fill="white"/>
<path d="M477.266 252.644C478.083 251.999 479.093 251.648 480.134 251.648C481.174 251.648 482.185 251.999 483.001 252.644C484.884 253.71 486.389 255.334 487.308 257.292C487.932 258.922 487.63 260.371 486.926 260.371C486.221 260.371 485.698 258.882 483.001 256.628C480.305 254.374 476.662 253.489 477.266 252.644Z" fill="#101B94"/>
<path opacity="0.9" d="M477.266 252.644C478.083 251.999 479.093 251.648 480.134 251.648C481.174 251.648 482.185 251.999 483.001 252.644C484.884 253.71 486.389 255.334 487.308 257.292C487.932 258.922 487.63 260.371 486.926 260.371C486.221 260.371 485.698 258.882 483.001 256.628C480.305 254.374 476.662 253.489 477.266 252.644Z" fill="white"/>
<path d="M390.348 100.945C383.707 105.412 375.838 110.705 376.925 128.133C378.012 145.561 391.012 193.638 391.898 199.494C392.783 205.351 428.122 233.706 434.622 239.301C442.088 245.801 444.906 247.169 448.287 250.893C451.668 254.616 454.847 264.114 458.349 268.24C463.843 274.619 475.676 274.76 481.13 274.016C486.584 273.271 483.142 266.65 481.13 261.941C479.117 257.232 473.724 250.812 475.253 249.705C476.3 248.961 481.995 249.967 486.402 253.73C489.804 256.628 490.206 259.466 492.118 260.794C495.318 263.048 496.384 259.063 493.084 252.744C489.783 246.425 484.752 241.897 479.782 240.327C481.975 240.5 484.17 240.009 486.08 238.918C488.817 237.228 489.783 233.404 486.402 234.411C484.39 234.994 482.378 234.411 478.353 234.411C465.714 234.411 461.911 238.999 447.28 224.871C432.65 210.744 413.069 191.525 413.069 191.525C413.069 191.525 406.488 151.477 403.53 133.748C401.014 118.473 399.968 108.471 390.348 100.945Z" fill="#FFA8A7"/>
<path d="M507.815 140.328L532.79 87.4412L546.877 93.2572C546.877 93.2572 526.169 155.925 523.19 162.727C521.439 166.752 515.825 171.642 507.694 167.678C505.923 166.812 502.402 164.74 498.034 162.023" fill="#FFA8A7"/>
<path d="M541.584 109.015C543.315 103.843 548.809 98.3284 549.634 96.1349C550.367 94.4024 550.61 92.5022 550.338 90.6409L543.918 91.2849L541.584 109.015Z" fill="#FFA8A7"/>
<path d="M528.342 96.6785C529.389 94.2837 529.57 85.8918 528.342 81.0619C527.114 76.232 530.073 70.1946 529.328 66.7936C528.584 63.3925 530.757 62.3662 532.729 63.5938C533.937 64.3603 534.937 65.4137 535.639 66.6602C536.341 67.9067 536.724 69.3076 536.754 70.738C536.855 74.2598 537.076 83.2152 535.647 87.5822C534.218 91.9492 528.342 96.6785 528.342 96.6785Z" fill="#FFA8A7"/>
<path d="M531.663 88.4475C532.045 89.5342 533.494 91.0436 538.183 90.2386L546.816 93.2573L550.338 93.056C548.455 94.3879 546.152 94.9877 543.859 94.7432C541.566 94.4987 539.44 93.4266 537.881 91.7278C537.881 91.7278 531.542 92.5127 531.663 88.4475Z" fill="#F28F8F"/>
<path d="M555.812 84.9051C550.399 89.1312 551.163 94.6252 557.543 97.2012C561.079 98.4161 564.852 98.7796 568.555 98.2621C572.258 97.7446 575.787 96.3606 578.855 94.2227C584.268 89.9966 583.483 84.4825 577.124 81.9065C573.585 80.6993 569.812 80.3416 566.11 80.8625C562.408 81.3834 558.88 82.7683 555.812 84.9051Z" fill="#101B94"/>
<path opacity="0.7" d="M555.812 84.9051C550.399 89.1312 551.163 94.6252 557.543 97.2012C561.079 98.4161 564.852 98.7796 568.555 98.2621C572.258 97.7446 575.787 96.3606 578.855 94.2227C584.268 89.9966 583.483 84.4825 577.124 81.9065C573.585 80.6993 569.812 80.3416 566.11 80.8625C562.408 81.3834 558.88 82.7683 555.812 84.9051Z" fill="white"/>
<path d="M582.618 54.0544L562.755 56.8316L542.852 59.6088C543.295 72.4885 547.662 86.9178 553.357 94.2633L582.014 90.2384C585.496 81.5848 585.717 66.5518 582.618 54.0544Z" fill="#101B94"/>
<path opacity="0.7" d="M582.618 54.0544L562.755 56.8316L542.852 59.6088C543.295 72.4885 547.662 86.9178 553.357 94.2633L582.014 90.2384C585.496 81.5848 585.717 66.5518 582.618 54.0544Z" fill="white"/>
<path d="M547.963 53.5914C540.678 58.0389 541.443 63.5128 549.674 65.7869C559.244 67.8821 569.248 66.4529 577.848 61.762C585.134 57.2943 584.369 51.8406 576.138 49.5464C566.566 47.4591 556.562 48.8954 547.963 53.5914Z" fill="#101B94"/>
<path opacity="0.9" d="M547.963 53.5914C540.678 58.0389 541.443 63.5128 549.674 65.7869C559.244 67.8821 569.248 66.4529 577.848 61.762C585.134 57.2943 584.369 51.8406 576.138 49.5464C566.566 47.4591 556.562 48.8954 547.963 53.5914Z" fill="white"/>
<path d="M550.902 55.4231C544.864 58.5021 545.448 62.0642 552.008 63.4729C559.717 64.6399 567.598 63.5349 574.689 60.2932C580.626 57.2142 580.143 53.6521 573.562 52.2434C565.86 51.0781 557.985 52.183 550.902 55.4231Z" fill="#101B94"/>
<path opacity="0.4" d="M550.902 55.4231C544.864 58.5021 545.448 62.0642 552.008 63.4729C559.717 64.6399 567.598 63.5349 574.689 60.2932C580.626 57.2142 580.143 53.6521 573.562 52.2434C565.86 51.0781 557.985 52.183 550.902 55.4231Z" fill="white"/>
<path d="M551.646 60.132C550.58 60.6556 549.597 61.3338 548.728 62.1445C549.786 62.6862 550.919 63.0661 552.089 63.2714C559.798 64.4384 567.679 63.3335 574.769 60.0918C575.841 59.5765 576.825 58.8975 577.687 58.0793C576.63 57.5376 575.497 57.1577 574.327 56.9524C566.618 55.7854 558.737 56.8903 551.646 60.132Z" fill="#101B94"/>
<path opacity="0.3" d="M551.646 60.132C550.58 60.6556 549.597 61.3338 548.728 62.1445C549.786 62.6862 550.919 63.0661 552.089 63.2714C559.798 64.4384 567.679 63.3335 574.769 60.0918C575.841 59.5765 576.825 58.8975 577.687 58.0793C576.63 57.5376 575.497 57.1577 574.327 56.9524C566.618 55.7854 558.737 56.8903 551.646 60.132Z" fill="black"/>
<path d="M547.42 93.6595C545.75 93.9071 544.048 93.8251 542.409 93.418C540.155 92.8142 538.022 90.6408 535.909 86.7568C534.138 83.4966 531.099 76.2517 532.387 72.2469C534.037 67.1554 539.934 66.4309 543.858 65.948L545.206 65.7668L546.072 71.9451L544.623 72.1262C542.409 72.3878 538.726 72.8507 538.304 74.1387C537.74 76.6341 541.966 86.3542 544.12 87.4208C546.061 87.6904 548.039 87.3678 549.795 86.4951L552.612 92.0495C550.976 92.8547 549.224 93.398 547.42 93.6595Z" fill="#101B94"/>
<path opacity="0.7" d="M547.42 93.6595C545.75 93.9071 544.048 93.8251 542.409 93.418C540.155 92.8142 538.022 90.6408 535.909 86.7568C534.138 83.4966 531.099 76.2517 532.387 72.2469C534.037 67.1554 539.934 66.4309 543.858 65.948L545.206 65.7668L546.072 71.9451L544.623 72.1262C542.409 72.3878 538.726 72.8507 538.304 74.1387C537.74 76.6341 541.966 86.3542 544.12 87.4208C546.061 87.6904 548.039 87.3678 549.795 86.4951L552.612 92.0495C550.976 92.8547 549.224 93.398 547.42 93.6595Z" fill="white"/>
<path d="M540.034 74.1584C536.191 74.1584 524.901 78.6462 524.659 82.7114C524.418 86.7765 532.085 86.4747 532.085 86.4747C531.723 87.0786 531.585 87.7907 531.696 88.4862C531.806 89.1816 532.158 89.816 532.689 90.2782C534.601 91.9284 549.09 86.8973 549.09 86.8973C548.584 85.2367 547.817 83.6675 546.816 82.2485C546.094 81.331 545.038 80.7374 543.878 80.5983C543.878 80.5983 545.75 74.1584 540.034 74.1584Z" fill="#FFA8A7"/>
<path d="M252.475 272.345L235.61 262.625L252.475 257.755V272.345Z" fill="#E0E0E0"/>
<g style="mix-blend-mode:multiply" opacity="0.5">
<path d="M252.475 257.755V272.345L235.61 262.625" fill="#E0E0E0"/>
</g>
<path d="M151.329 316.156V331.652L58.6353 278.141V262.625L151.329 316.156Z" fill="#E0E0E0"/>
<g style="mix-blend-mode:multiply" opacity="0.5">
<path d="M151.329 316.156V331.652L58.6353 278.141V262.625L151.329 316.156Z" fill="#E0E0E0"/>
</g>
<path d="M50.2031 140.973L142.917 194.504V321.007L50.2031 267.496V140.973Z" fill="#E0E0E0"/>
<path d="M142.917 194.504L269.319 121.512V248.015L142.917 321.007V194.504Z" fill="#EBEBEB"/>
<path d="M269.319 121.512L176.625 67.981L50.2031 140.973L142.917 194.504L269.319 121.512Z" fill="#F5F5F5"/>
<path d="M151.329 199.374L260.907 136.102V165.303L151.329 228.554V199.374Z" fill="#E0E0E0"/>
<g style="mix-blend-mode:multiply" opacity="0.5">
<path d="M193.47 177.458C193.47 178.807 197.495 177.579 202.465 174.721L218.203 165.625C223.173 162.767 227.178 159.346 227.178 157.998V155.563L193.45 175.043L193.47 177.458Z" fill="#E0E0E0"/>
</g>
<path d="M151.329 238.295L260.907 175.044V204.224L151.329 267.496V238.295Z" fill="#E0E0E0"/>
<g style="mix-blend-mode:multiply" opacity="0.5">
<path d="M193.47 216.419C193.47 217.768 197.495 216.419 202.465 213.662L218.203 204.566C223.173 201.708 227.178 198.287 227.178 196.959V194.524L193.45 213.984L193.47 216.419Z" fill="#E0E0E0"/>
</g>
<path d="M151.329 277.216L260.907 213.964V243.165L151.329 306.416V277.216Z" fill="#E0E0E0"/>
<g style="mix-blend-mode:multiply" opacity="0.5">
<path d="M193.47 255.321C193.47 256.669 197.495 255.441 202.465 252.564L218.203 243.487C223.173 240.61 227.178 237.208 227.178 235.86V233.425L193.45 252.885L193.47 255.321Z" fill="#E0E0E0"/>
</g>
<path d="M151.329 331.653L159.761 326.803V311.287L151.329 316.157V331.653Z" fill="#E0E0E0"/>
<path d="M252.475 272.345L260.907 267.495V252.885L252.475 257.755V272.345Z" fill="#E0E0E0"/>
<path d="M104.399 146.245C112.891 137.571 117.882 116.058 109.591 109.075H67.47C59.1988 115.958 64.1696 137.571 72.6622 146.225L72.8835 146.466L73.1854 146.748C73.4261 146.992 73.6815 147.22 73.9501 147.432L74.1514 147.593L74.7954 148.076C75.1435 148.332 75.5064 148.567 75.8821 148.781C79.8031 150.765 84.1359 151.799 88.5304 151.799C92.9248 151.799 97.2576 150.765 101.179 148.781C101.561 148.568 101.931 148.332 102.285 148.076L102.869 147.634L103.131 147.432L103.875 146.768L104.197 146.446L104.399 146.245Z" fill="#EBEBEB"/>
<path d="M71.1327 106.319C61.5131 111.873 61.5131 120.869 71.1327 126.443C80.7522 132.018 96.3286 131.997 105.928 126.443C115.527 120.889 115.548 111.913 105.928 106.319C96.3085 100.724 80.7321 100.764 71.1327 106.319Z" fill="#F5F5F5"/>
<path d="M77.975 110.242C72.1389 113.623 72.1389 119.097 77.975 122.478C81.2582 124.145 84.8884 125.014 88.5706 125.014C92.2527 125.014 95.8829 124.145 99.1661 122.478C105.002 119.097 105.002 113.623 99.1661 110.242C95.8801 108.585 92.251 107.721 88.5706 107.721C84.8901 107.721 81.261 108.585 77.975 110.242Z" fill="#E0E0E0"/>
<path d="M99.1259 116.059C95.8426 114.392 92.2124 113.523 88.5303 113.523C84.8481 113.523 81.2179 114.392 77.9347 116.059C76.5221 116.821 75.3194 117.92 74.433 119.258C75.3181 120.603 76.5208 121.709 77.9347 122.478C81.2179 124.145 84.8481 125.014 88.5303 125.014C92.2124 125.014 95.8426 124.145 99.1259 122.478C100.54 121.709 101.742 120.603 102.628 119.258C101.741 117.92 100.538 116.821 99.1259 116.059Z" fill="#E0E0E0"/>
<g style="mix-blend-mode:multiply" opacity="0.5">
<path d="M99.1259 116.059C95.8426 114.392 92.2124 113.523 88.5303 113.523C84.8481 113.523 81.2179 114.392 77.9347 116.059C76.5221 116.821 75.3194 117.92 74.433 119.258C75.3181 120.603 76.5208 121.709 77.9347 122.478C81.2179 124.145 84.8481 125.014 88.5303 125.014C92.2124 125.014 95.8426 124.145 99.1259 122.478C100.54 121.709 101.742 120.603 102.628 119.258C101.741 117.92 100.538 116.821 99.1259 116.059Z" fill="#E0E0E0"/>
</g>
<path d="M79.243 119.258C76.2456 116.219 73.667 112.795 71.5755 109.075C68.0336 102.836 67.3896 94.4441 69.2209 93.4178C71.0523 92.3914 78.4782 100.743 78.4782 100.743C77.8015 97.2237 77.5381 93.6374 77.6934 90.057C78.0154 84.4825 79.3637 79.4312 80.9737 78.4048C82.5836 77.3785 86.1255 84.4422 87.655 89.5136C89.1845 94.585 90.0498 98.791 90.0498 98.791C90.666 94.8169 91.5809 90.8949 92.7868 87.0584C94.6382 81.7858 96.3287 80.5783 97.6368 81.021C98.9449 81.4638 99.8102 84.0196 100.193 91.0833C100.326 94.4408 100.218 97.8035 99.8706 101.146C99.8706 101.146 102.507 98.2476 105.405 95.4503C108.605 92.3713 109.973 91.9487 110.899 92.5323C111.825 93.1159 112.066 97.9055 107.115 106.861C104.647 111.423 101.491 115.577 97.7575 119.177C97.7575 119.177 90.9554 123.685 79.243 119.258Z" fill="#EBEBEB"/>
<path d="M189.344 156.67L239.655 127.489C240.642 126.926 240.642 126 239.655 125.477L170.548 86.1132C169.989 85.8334 169.372 85.6877 168.747 85.6877C168.121 85.6877 167.505 85.8334 166.946 86.1132L117.077 114.952C116.091 115.535 116.091 116.461 117.077 116.964L185.742 156.609C186.296 156.899 186.911 157.055 187.536 157.065C188.161 157.076 188.78 156.94 189.344 156.67Z" fill="#E0E0E0"/>
<g style="mix-blend-mode:multiply" opacity="0.5">
<path d="M189.344 156.67L239.655 127.489C240.642 126.926 240.642 126 239.655 125.477L170.548 86.1132C169.989 85.8334 169.372 85.6877 168.747 85.6877C168.121 85.6877 167.505 85.8334 166.946 86.1132L117.077 114.952C116.091 115.535 116.091 116.461 117.077 116.964L185.742 156.609C186.296 156.899 186.911 157.055 187.536 157.065C188.161 157.076 188.78 156.94 189.344 156.67Z" fill="#E0E0E0"/>
</g>
<path d="M117.037 114.891L173.748 78.8279C174.297 78.5405 174.908 78.3904 175.529 78.3904C176.149 78.3904 176.76 78.5405 177.31 78.8279L197.736 90.6209C198.214 90.9106 198.566 91.369 198.722 91.9055C198.879 92.442 198.828 93.0176 198.581 93.5188L197.756 95.1288C197.509 95.63 197.459 96.2056 197.615 96.7421C197.772 97.2786 198.124 97.7369 198.601 98.0267L239.756 121.834C239.975 121.92 240.162 122.069 240.294 122.263C240.427 122.457 240.497 122.686 240.497 122.921C240.497 123.155 240.427 123.385 240.294 123.578C240.162 123.772 239.975 123.922 239.756 124.007L189.243 156.529C188.701 156.826 188.092 156.982 187.473 156.982C186.853 156.982 186.244 156.826 185.702 156.529L117.037 116.883C116.861 116.783 116.715 116.638 116.613 116.463C116.512 116.288 116.458 116.09 116.458 115.887C116.458 115.685 116.512 115.486 116.613 115.311C116.715 115.136 116.861 114.991 117.037 114.891Z" fill="#EBEBEB"/>
<path d="M829.948 200.481C844.559 185.569 853.152 124.873 838.884 113.04H766.435C752.167 124.853 760.76 185.488 775.371 200.461L775.753 200.863L776.256 201.366C776.679 201.769 777.122 202.151 777.584 202.534L777.927 202.815C778.289 203.097 778.651 203.379 779.033 203.64C779.638 204.083 780.269 204.486 780.925 204.848C793 211.791 812.44 211.791 824.475 204.848C825.13 204.486 825.762 204.083 826.366 203.64L827.393 202.856L827.835 202.513C828.278 202.151 828.701 201.769 829.103 201.386L829.687 200.823L829.948 200.481Z" fill="#37474F"/>
<path d="M772.654 108.27C756.091 117.829 756.091 133.325 772.654 142.884C789.216 152.444 816.042 152.423 832.585 142.884C849.127 133.345 849.127 117.829 832.585 108.27C816.042 98.711 789.196 98.711 772.654 108.27Z" fill="#455A64"/>
<path d="M780.603 112.858C768.528 119.882 768.528 131.252 780.603 138.276C792.678 145.299 812.48 145.299 824.615 138.276C836.751 131.252 836.69 119.882 824.615 112.858C812.541 105.835 792.758 105.855 780.603 112.858Z" fill="#37474F"/>
<path d="M824.595 124.934C812.521 117.91 792.738 117.91 780.583 124.934C777.646 126.524 775.145 128.812 773.298 131.595C775.143 134.384 777.645 136.678 780.583 138.276C792.658 145.3 812.44 145.3 824.595 138.276C827.541 136.689 830.045 134.393 831.88 131.595C830.043 128.804 827.539 126.515 824.595 124.934Z" fill="#E0E0E0"/>
<g style="mix-blend-mode:multiply">
<path d="M824.595 124.934C812.521 117.91 792.738 117.91 780.583 124.934C777.646 126.524 775.145 128.812 773.298 131.595C775.143 134.384 777.645 136.678 780.583 138.276C792.658 145.3 812.44 145.3 824.595 138.276C827.541 136.689 830.045 134.393 831.88 131.595C830.043 128.804 827.539 126.515 824.595 124.934Z" fill="#263238"/>
</g>
<path d="M816.183 131.634C819.705 120.968 824.615 101.447 842.868 86.8169C861.584 71.7638 880.038 59.85 873.679 49.9689C867.883 40.9933 850.455 39.6651 830.532 55.0403C811.192 69.9324 802.458 104.104 804.169 126.764L816.183 131.634Z" fill="#101B94"/>
<g opacity="0.1">
<path d="M816.183 131.634C819.705 120.968 824.615 101.447 842.868 86.8169C861.584 71.7638 880.038 59.85 873.679 49.9689C867.883 40.9933 850.455 39.6651 830.532 55.0403C811.192 69.9324 802.458 104.104 804.169 126.764L816.183 131.634Z" fill="black"/>
</g>
<path d="M807.288 129.079H807.147C807.013 129.064 806.883 129.022 806.765 128.956C806.647 128.89 806.543 128.801 806.461 128.694C806.378 128.587 806.318 128.464 806.284 128.333C806.25 128.202 806.242 128.066 806.262 127.932C813.185 74.3805 846.511 50.6738 862.792 49.8889C862.928 49.875 863.065 49.8895 863.195 49.9314C863.325 49.9734 863.445 50.042 863.548 50.1329C863.65 50.2237 863.732 50.3348 863.789 50.4591C863.846 50.5834 863.876 50.7182 863.878 50.8549C863.89 51.1313 863.793 51.4011 863.609 51.6077C863.425 51.8142 863.168 51.9411 862.892 51.9618C850.818 52.5253 815.64 71.6838 808.315 128.194C808.28 128.441 808.157 128.667 807.968 128.83C807.779 128.993 807.538 129.081 807.288 129.079Z" fill="white"/>
<path d="M789.559 134.13C789.085 131.127 787.898 128.281 786.099 125.83C784.299 123.379 781.938 121.395 779.215 120.043C773.278 116.823 766.053 120.043 759.09 110.323C752.127 100.603 758.225 92.7141 757.078 88.005C755.93 83.2958 754.723 80.2168 746.794 76.8359C738.865 73.4549 736.732 68.4842 739.469 57.3352C742.206 46.1862 742.065 42.8053 735.283 37.915C728.501 33.0248 728.179 26.8264 735.283 22.7411C742.387 18.6558 755.025 18.7162 765.027 27.5911C775.029 36.466 776.296 40.2897 787.305 41.3563C798.313 42.4229 804.612 42.8657 807.107 49.4061C809.603 55.9466 808.315 61.018 807.107 67.1359C806.54 69.9285 806.92 72.8307 808.189 75.3824C809.458 77.9342 811.541 79.9897 814.11 81.223C818.92 83.4971 826.93 85.2479 829.908 94.0222C832.887 102.797 826.286 120.687 817.834 131.675C817.733 131.635 815.72 138.055 789.559 134.13Z" fill="#101B94"/>
<path d="M807.972 135.157C807.836 135.157 807.701 135.13 807.575 135.077C807.449 135.024 807.335 134.947 807.24 134.849C807.144 134.752 807.069 134.636 807.018 134.51C806.968 134.383 806.943 134.247 806.946 134.111C806.62 116.942 802.792 100.02 795.697 84.3828C784.366 59.9315 748.162 31.0528 745.949 29.7246C745.824 29.6846 745.708 29.619 745.61 29.532C745.512 29.445 745.433 29.3385 745.378 29.2192C745.323 29.1 745.293 28.9706 745.291 28.8393C745.289 28.708 745.314 28.5778 745.365 28.4568C745.473 28.1949 745.677 27.9843 745.935 27.8682C746.193 27.7522 746.486 27.7395 746.754 27.8329C748.001 28.2354 785.654 57.7581 797.568 83.4973C804.785 99.4292 808.681 116.664 809.019 134.151C809.019 134.286 808.992 134.421 808.939 134.545C808.886 134.67 808.808 134.783 808.71 134.877C808.612 134.971 808.497 135.044 808.37 135.092C808.243 135.14 808.108 135.162 807.972 135.157Z" fill="white"/>
<path d="M784.024 65.7873C783.856 65.7882 783.69 65.7466 783.541 65.6666C775.954 61.5008 757.822 64.4591 757.641 64.4993C757.37 64.5348 757.096 64.4647 756.875 64.3037C756.654 64.1427 756.503 63.9029 756.454 63.634C756.431 63.5005 756.434 63.3637 756.464 63.2316C756.494 63.0995 756.55 62.9746 756.629 62.8643C756.707 62.7539 756.807 62.6601 756.922 62.5885C757.037 62.5168 757.165 62.4686 757.299 62.4467C758.064 62.3259 776.337 59.3475 784.527 63.8554C784.647 63.9205 784.753 64.0089 784.838 64.1153C784.924 64.2217 784.987 64.3441 785.024 64.4753C785.062 64.6064 785.073 64.7437 785.056 64.8792C785.04 65.0146 784.997 65.1455 784.93 65.2641C784.841 65.4259 784.71 65.5603 784.55 65.6526C784.391 65.7449 784.209 65.7915 784.024 65.7873Z" fill="white"/>
<path d="M806.101 115.797C805.849 115.825 805.595 115.761 805.387 115.616C805.179 115.472 805.03 115.257 804.969 115.011C804.907 114.765 804.937 114.505 805.053 114.279C805.169 114.054 805.362 113.878 805.598 113.784C814.131 109.156 820.651 96.0748 820.711 95.954C820.76 95.8147 820.837 95.6873 820.939 95.5801C821.04 95.4729 821.163 95.3883 821.299 95.3319C821.436 95.2755 821.582 95.2486 821.73 95.2529C821.877 95.2572 822.022 95.2926 822.155 95.3569C822.288 95.4212 822.406 95.5128 822.501 95.6258C822.595 95.7387 822.665 95.8705 822.706 96.0124C822.746 96.1543 822.756 96.3032 822.735 96.4492C822.714 96.5952 822.662 96.7351 822.583 96.8596C822.301 97.4231 815.68 110.665 806.584 115.616C806.441 115.717 806.275 115.779 806.101 115.797Z" fill="white"/>
</svg>
