<svg width="34" height="33" viewBox="0 0 34 33" fill="none" xmlns="http://www.w3.org/2000/svg">
<g clip-path="url(#clip0_4_592)">
<path d="M7.46015 13.4269C8.12299 11.4805 9.40221 9.78699 11.1153 8.58797C12.8284 7.38895 14.8879 6.74566 17 6.74988C19.3942 6.74988 21.5588 7.57488 23.2588 8.92513L28.2058 4.125C25.1912 1.57438 21.3279 0 17 0C10.2992 0 4.53049 3.70975 1.75665 9.14375L7.46015 13.4269Z" fill="#EA4335"/>
<path d="M22.7233 24.7678C21.1792 25.7344 19.2185 26.25 17 26.25C14.8963 26.2542 12.8446 25.6161 11.1353 24.4259C9.42603 23.2357 8.14575 21.5539 7.47574 19.6184L1.75241 23.8355C3.15667 26.5942 5.32987 28.9153 8.02516 30.5353C10.7204 32.1553 13.8298 33.0091 17 32.9999C21.1551 32.9999 25.1246 31.5658 28.0982 28.8749L22.7247 24.7678H22.7233Z" fill="#34A853"/>
<path d="M28.0982 28.875C31.2077 26.059 33.2265 21.868 33.2265 16.5C33.2265 15.5238 33.0721 14.4746 32.8412 13.4998H17V19.8756H26.1177C25.6686 22.0193 24.4602 23.6789 22.7247 24.7679L28.0982 28.875Z" fill="#4A90E2"/>
<path d="M7.47567 19.6185C7.12909 18.6133 6.95302 17.5601 6.95434 16.5C6.95434 15.4248 7.13142 14.3922 7.46009 13.4269L1.75659 9.1438C0.58979 11.43 -0.0116907 13.9488 -7.91634e-05 16.5C-7.91634e-05 19.14 0.630337 21.6288 1.75234 23.8357L7.47567 19.6185Z" fill="#FBBC05"/>
</g>
<defs>
<clipPath id="clip0_4_592">
<rect width="34" height="33" fill="white"/>
</clipPath>
</defs>
</svg>
