<svg width="238" height="200" viewBox="0 0 238 200" fill="none" xmlns="http://www.w3.org/2000/svg">
<path d="M37.1255 181.939C83.0759 205.946 157.579 205.946 203.535 181.939C249.491 157.933 249.485 119.014 203.535 95.0077C157.585 71.0015 83.0759 70.996 37.12 95.0077C-8.83582 119.02 -8.83034 157.933 37.1255 181.939Z" fill="#FFA4A2"/>
<path d="M158.781 186.349C168.071 186.349 175.602 182.759 175.602 178.33C175.602 173.902 168.071 170.312 158.781 170.312C149.49 170.312 141.959 173.902 141.959 178.33C141.959 182.759 149.49 186.349 158.781 186.349Z" fill="#F0F0F0"/>
<path d="M27.2422 39.6673V67.2551C27.2422 68.16 27.8785 68.533 28.6683 68.0778L92.7179 31.0948C93.1324 30.8239 93.4774 30.4594 93.7251 30.0307C93.9728 29.602 94.1163 29.1211 94.144 28.6267V1.01702C94.144 0.11205 93.5023 -0.260906 92.7179 0.194319L28.6683 37.1773C28.25 37.4493 27.9024 37.817 27.6545 38.25C27.4065 38.683 27.2652 39.1689 27.2422 39.6673Z" fill="#F0F0F0"/>
<path d="M31.7012 39.2336L50.8975 28.1546C51.7805 27.6445 52.488 28.0559 52.488 29.0705V48.36C52.4579 48.9102 52.2981 49.4454 52.0217 49.922C51.7453 50.3986 51.36 50.803 50.8975 51.1024L31.7012 62.1868C30.8237 62.6914 30.1107 62.2801 30.1107 61.2654V41.9869C30.1404 41.4351 30.2999 40.8982 30.5763 40.4198C30.8527 39.9414 31.2381 39.5349 31.7012 39.2336Z" fill="#FAFAFA"/>
<path d="M47.2447 37.7816L41.5352 49.6174L38.6283 47.9391C38.3492 47.7865 38.0217 47.748 37.7148 47.8319C37.408 47.9158 37.1456 48.1154 36.9829 48.3889L30.1107 60.2412V61.2778C30.1107 62.2924 30.8237 62.7038 31.7012 62.1992L50.8975 51.1147C51.3591 50.8144 51.7436 50.4098 52.02 49.9334C52.2963 49.457 52.4566 48.9222 52.488 48.3724V41.5879L48.6488 37.5622C48.563 37.4423 48.4456 37.3486 48.3097 37.2915C48.1738 37.2344 48.0247 37.2163 47.8791 37.239C47.7335 37.2618 47.597 37.3246 47.485 37.4204C47.373 37.5162 47.2898 37.6412 47.2447 37.7816Z" fill="white"/>
<path d="M32.9956 46.2924C34.1817 45.5188 35.1688 44.4765 35.8768 43.2501C36.5848 42.0237 36.9938 40.6477 37.0707 39.2336C37.0707 38.0435 36.6867 37.1824 36.056 36.7217L31.7012 39.2336C31.2395 39.5339 30.855 39.9386 30.5787 40.415C30.3024 40.8914 30.1421 41.4261 30.1107 41.976V46.5666C30.8621 47.0054 31.8712 46.9396 32.9956 46.2924Z" fill="white"/>
<path d="M59.651 24.9035L88.4948 8.24662C89.1529 7.86818 89.6849 8.13693 89.6849 8.84993C89.656 9.24949 89.5331 9.63657 89.3263 9.97967C89.1194 10.3228 88.8345 10.6122 88.4948 10.8244L59.651 27.4758C58.9929 27.8542 58.4608 27.5855 58.4608 26.8725C58.4907 26.4739 58.6139 26.0879 58.8207 25.7458C59.0275 25.4037 59.3119 25.1152 59.651 24.9035Z" fill="#FAFAFA"/>
<path d="M59.651 30.6008L88.4948 13.9439C89.1529 13.5654 89.6849 13.8342 89.6849 14.5472C89.656 14.9468 89.5331 15.3338 89.3263 15.6769C89.1194 16.02 88.8345 16.3095 88.4948 16.5217L59.651 33.173C58.9929 33.5515 58.4608 33.2827 58.4608 32.5752C58.4898 32.1757 58.6127 31.7886 58.8195 31.4455C59.0263 31.1024 59.3112 30.813 59.651 30.6008Z" fill="#FAFAFA"/>
<path d="M59.651 36.3015L88.4948 19.6501C89.1529 19.2717 89.6849 19.5404 89.6849 20.2479C89.656 20.6475 89.5331 21.0346 89.3263 21.3777C89.1194 21.7208 88.8345 22.0102 88.4948 22.2224L59.651 38.8738C58.9929 39.2577 58.4608 38.989 58.4608 38.276C58.4898 37.8764 58.6127 37.4893 58.8195 37.1462C59.0263 36.8031 59.3112 36.5137 59.651 36.3015Z" fill="#FAFAFA"/>
<path d="M59.651 41.9986L88.4948 25.3472C89.1529 24.9688 89.6849 25.2375 89.6849 25.9505C89.6551 26.3491 89.5318 26.7351 89.3251 27.0772C89.1183 27.4193 88.8338 27.7078 88.4948 27.9195L59.651 44.6038C58.9929 44.9822 58.4608 44.7135 58.4608 44.0005C58.4856 43.5962 58.6065 43.2036 58.8135 42.8554C59.0205 42.5072 59.3076 42.2135 59.651 41.9986Z" fill="#FAFAFA"/>
<path d="M13.8597 126.466V85.9837C13.886 85.489 14.029 85.0076 14.2768 84.5787C14.5246 84.1498 14.8703 83.7855 15.2857 83.5156L63.7261 55.5439C64.5104 55.0887 65.1521 55.4562 65.1521 56.3666V96.8488C65.1244 97.3432 64.981 97.8241 64.7333 98.2528C64.4856 98.6815 64.1405 99.046 63.7261 99.3169L15.2857 127.289C14.4959 127.744 13.8597 127.376 13.8597 126.466Z" fill="#F0F0F0"/>
<path d="M13.8597 124.443V126.467C13.8597 127.377 14.4959 127.745 15.2857 127.289L63.7261 99.3177C64.1405 99.0469 64.4856 98.6824 64.7333 98.2536C64.981 97.8249 65.1244 97.344 65.1521 96.8496V94.8203L13.8597 124.443Z" fill="white"/>
<path d="M37.2956 87.7297L42.2318 87.4719C42.8351 87.439 42.9996 87.7791 42.5993 88.2398L36.9281 94.6897C36.5278 95.1449 36.2042 95.0188 36.2042 94.4155V88.887C36.2063 88.5919 36.32 88.3085 36.5225 88.0939C36.725 87.8792 37.0012 87.7491 37.2956 87.7297Z" fill="white"/>
<path d="M36.0231 98.2264C35.4316 98.2341 34.8486 98.0846 34.3339 97.7931C33.1163 97.0856 32.4471 95.5993 32.4471 93.6577C32.4471 89.6978 35.2388 84.8823 38.6722 82.8804C40.367 81.8986 41.963 81.7505 43.1916 82.4526C44.4201 83.1546 45.0838 84.6464 45.0838 86.5825C45.0838 90.5479 42.2866 95.3579 38.8587 97.3598C38.0055 97.8915 37.0278 98.1903 36.0231 98.2264ZM41.5078 82.3922C40.5704 82.4293 39.659 82.711 38.8642 83.2095C35.535 85.1291 32.8311 89.8185 32.8311 93.6577C32.8311 95.4786 33.4344 96.8333 34.5313 97.4641C35.6282 98.0948 37.0981 97.9467 38.6722 97.0363C42.0014 95.1111 44.7053 90.4547 44.7053 86.5825C44.7053 84.7616 44.102 83.4124 43.0051 82.7762C42.5462 82.5194 42.0281 82.387 41.5023 82.3922H41.5078Z" fill="white"/>
<path d="M16.5307 48.3667L13.5306 46.6445C12.0991 45.6847 10.1082 45.7231 7.90886 46.9956C3.52114 49.5185 0 55.9191 0 61.294V62.5171C0 67.8921 7.22876 73.7277 7.22876 73.7277L10.1795 75.4005C10.1795 75.4005 8.40796 73.3767 8.61089 72.9599C10.5689 68.989 15.8067 57.7674 15.8067 53.3797V52.1566C15.8179 51.2714 15.7053 50.389 15.4722 49.5349L15.8067 49.7269L16.5307 48.3667ZM7.90337 60.6907C5.70952 61.9522 3.94894 60.9265 3.94894 58.4091C5.12266 58.2226 8.07888 53.1767 7.90337 51.5588C10.0972 50.2973 11.8523 51.3229 11.8578 53.8404C11.7835 55.2127 11.3867 56.5481 10.6996 57.7383C10.0125 58.9286 9.05455 59.94 7.90337 60.6907Z" fill="white"/>
<g opacity="0.2">
<path d="M16.5307 48.3667L13.5306 46.6445C12.0991 45.6847 10.1082 45.7231 7.90886 46.9956C3.52114 49.5185 0 55.9191 0 61.294V62.5171C0 67.8921 7.22876 73.7277 7.22876 73.7277L10.1795 75.4005C10.1795 75.4005 8.40796 73.3767 8.61089 72.9599C10.5689 68.989 15.8067 57.7674 15.8067 53.3797V52.1566C15.8179 51.2714 15.7053 50.389 15.4722 49.5349L15.8067 49.7269L16.5307 48.3667ZM7.90337 60.6907C5.70952 61.9522 3.94894 60.9265 3.94894 58.4091C5.12266 58.2226 8.07888 53.1767 7.90337 51.5588C10.0972 50.2973 11.8523 51.3229 11.8578 53.8404C11.7835 55.2127 11.3867 56.5481 10.6996 57.7383C10.0125 58.9286 9.05455 59.94 7.90337 60.6907Z" fill="black"/>
</g>
<path d="M16.5307 48.3664C16.4979 48.3431 16.463 48.3229 16.4265 48.3061C15.0169 47.5163 13.1357 47.626 11.0625 48.8217C7.93622 50.6316 5.23229 54.4215 3.93243 58.4088C3.42977 59.9258 3.16339 61.5111 3.14264 63.1092V64.3487C3.14264 68.4896 7.83201 73.2941 9.98748 75.2851C10.0341 75.3268 10.0836 75.3653 10.1356 75.4002C10.2623 75.4779 10.4039 75.5281 10.5512 75.5477C10.6986 75.5672 10.8484 75.5557 10.991 75.5139C11.1336 75.472 11.2659 75.4007 11.3793 75.3047C11.4926 75.2086 11.5846 75.0898 11.6493 74.956C13.5141 71.1167 18.9384 59.6648 18.9384 55.2113V53.9882C18.9713 51.2239 18.0335 49.2714 16.5307 48.3664ZM7.17934 61.025C7.1338 60.7642 7.11177 60.4999 7.11352 60.2352C7.18596 58.8623 7.58133 57.526 8.26751 56.3347C8.95368 55.1434 9.91128 54.1309 11.0625 53.3794C11.2924 53.2469 11.5327 53.1332 11.781 53.0393C13.6238 52.3702 15.0169 53.4288 15.0169 55.661C14.943 57.0327 14.5464 58.3675 13.8592 59.5569C13.1721 60.7463 12.2138 61.7567 11.0625 62.5058C9.12639 63.6357 7.5139 62.9556 7.17934 61.025Z" fill="white"/>
<path d="M15.0169 55.6669C14.9431 57.0386 14.5464 58.3734 13.8593 59.5628C13.1721 60.7522 12.2139 61.7626 11.0625 62.5118C9.12643 63.6087 7.51395 62.956 7.17938 61.0254C7.43071 60.937 7.67311 60.8249 7.90336 60.6909C9.05382 59.9399 10.011 58.9282 10.6971 57.738C11.3832 56.5477 11.779 55.2124 11.8523 53.8405C11.8548 53.5737 11.8309 53.3074 11.781 53.0453C13.6238 52.3761 15.0169 53.4347 15.0169 55.6669Z" fill="white"/>
<g opacity="0.2">
<path d="M15.0169 55.6669C14.9431 57.0386 14.5464 58.3734 13.8593 59.5628C13.1721 60.7522 12.2139 61.7626 11.0625 62.5118C9.12643 63.6087 7.51395 62.956 7.17938 61.0254C7.43071 60.937 7.67311 60.8249 7.90336 60.6909C9.05382 59.9399 10.011 58.9282 10.6971 57.738C11.3832 56.5477 11.779 55.2124 11.8523 53.8405C11.8548 53.5737 11.8309 53.3074 11.781 53.0453C13.6238 52.3761 15.0169 53.4347 15.0169 55.6669Z" fill="black"/>
</g>
<path d="M72.6441 123.766C72.6441 123.766 74.6241 111.151 70.2254 100.302C65.8267 89.4536 59.8978 88.7845 56.8264 90.3256C53.755 91.8668 55.7295 97.8835 58.4718 101.926C62.1246 107.229 68.1577 118.648 67.9602 128.905L72.6441 123.766Z" fill="white"/>
<path opacity="0.2" d="M72.6441 123.766C72.6441 123.766 74.6241 111.151 70.2254 100.302C65.8267 89.4536 59.8978 88.7845 56.8264 90.3256C53.755 91.8668 55.7295 97.8835 58.4718 101.926C62.1246 107.229 68.1577 118.648 67.9602 128.905L72.6441 123.766Z" fill="black"/>
<path d="M70.6696 124.567C70.6204 124.565 70.5719 124.554 70.5271 124.534C70.4823 124.513 70.4421 124.484 70.4089 124.447C70.3756 124.411 70.35 124.369 70.3335 124.322C70.3171 124.276 70.3101 124.226 70.3131 124.177C71.0371 106.906 62.4097 94.0117 58.6856 91.4997C58.6449 91.4724 58.61 91.4372 58.5829 91.3964C58.5558 91.3555 58.537 91.3097 58.5276 91.2616C58.5181 91.2135 58.5183 91.164 58.528 91.1159C58.5377 91.0678 58.5568 91.0221 58.5842 90.9814C58.6115 90.9407 58.6467 90.9058 58.6875 90.8787C58.7284 90.8516 58.7742 90.8328 58.8223 90.8234C58.8704 90.8139 58.9199 90.8141 58.968 90.8238C59.0161 90.8335 59.0618 90.8526 59.1025 90.88C63.4902 93.8088 71.783 106.994 71.0535 124.21C71.0521 124.259 71.041 124.307 71.0209 124.351C71.0007 124.396 70.972 124.436 70.9362 124.469C70.9005 124.502 70.8585 124.528 70.8127 124.545C70.767 124.561 70.7183 124.569 70.6696 124.567Z" fill="white"/>
<path d="M71.8653 138.744C71.1139 136.857 69.1723 134.751 64.1868 132.502C59.2012 130.254 55.4497 127.254 54.7587 125.082C54.5507 124.482 54.5235 123.834 54.6805 123.219C54.8375 122.603 55.1717 122.048 55.6417 121.621C55.6417 121.621 50.9413 121.072 50.349 118.193C49.6086 114.562 53.7166 114.326 53.7166 114.326C53.7166 114.326 48.3252 106.736 46.8937 103.357C45.4622 99.9785 47.1131 99.7756 50.5903 101.064C54.0676 102.353 60.693 108.842 61.7187 110.822C61.7187 110.822 63.5121 108.628 65.4427 110.07C67.3733 111.513 67.4666 115.829 66.3258 117.387C67.0951 117.243 67.8895 117.326 68.6127 117.625C69.336 117.924 69.9571 118.426 70.4009 119.071C72.3644 121.643 73.0116 128.076 73.0116 128.076L71.8653 138.744Z" fill="white"/>
<path d="M72.2162 136.988C72.1329 136.987 72.0523 136.958 71.9868 136.907C71.9214 136.855 71.8748 136.783 71.8543 136.703C69.1887 125.596 56.5356 107.87 48.6761 102.232C48.6362 102.203 48.6022 102.167 48.5761 102.126C48.5501 102.084 48.5325 102.038 48.5244 101.989C48.5162 101.941 48.5177 101.891 48.5287 101.844C48.5396 101.796 48.5599 101.751 48.5884 101.711C48.6168 101.671 48.6529 101.637 48.6945 101.611C48.736 101.585 48.7824 101.567 48.8307 101.559C48.8791 101.551 48.9286 101.552 48.9764 101.563C49.0243 101.574 49.0695 101.594 49.1094 101.623C57.0677 107.332 69.8798 125.284 72.5837 136.527C72.6052 136.624 72.5879 136.725 72.5356 136.809C72.4833 136.893 72.4002 136.953 72.304 136.977L72.2162 136.988Z" fill="white"/>
<path d="M171.494 25.1492C171.429 25.1484 171.365 25.1315 171.307 25.0999L169.766 24.2059C169.724 24.1814 169.686 24.1488 169.657 24.1099C169.627 24.071 169.605 24.0266 169.592 23.9792C169.579 23.9319 169.576 23.8824 169.582 23.8338C169.589 23.7852 169.605 23.7383 169.629 23.6958C169.654 23.6533 169.686 23.616 169.725 23.5862C169.764 23.5563 169.808 23.5343 169.856 23.5216C169.903 23.5089 169.953 23.5056 170.001 23.5119C170.05 23.5183 170.097 23.5342 170.139 23.5587L171.68 24.4527C171.723 24.4771 171.76 24.5097 171.79 24.5486C171.82 24.5875 171.842 24.6319 171.855 24.6793C171.868 24.7266 171.871 24.7761 171.864 24.8247C171.858 24.8734 171.842 24.9203 171.817 24.9627C171.785 25.0195 171.738 25.0667 171.681 25.0994C171.624 25.1321 171.559 25.1493 171.494 25.1492Z" fill="white"/>
<path d="M71.8653 57.6687V139.269C71.8653 140.18 72.5016 140.547 73.2859 140.092L168.466 85.1413C168.881 84.8704 169.226 84.506 169.474 84.0772C169.721 83.6485 169.865 83.1676 169.892 82.6732V1.07269C169.892 0.162238 169.251 -0.205234 168.466 0.249992L73.2859 55.2006C72.8718 55.4715 72.5274 55.8361 72.2806 56.2649C72.0338 56.6937 71.8915 57.1747 71.8653 57.6687Z" fill="#455A64"/>
<path d="M83.0046 72.7409C83.0046 75.5874 85.1272 76.6624 87.7543 75.1486L163.207 31.5841V21.2949L87.7543 64.854C85.1272 66.3732 83.0046 69.8998 83.0046 72.7409Z" fill="#F5F5F5"/>
<path d="M169.624 17.604C172.245 16.0902 174.373 17.1652 174.373 20.0063C174.373 22.8473 172.245 26.3794 169.624 27.8932L163.234 31.5843V21.2952L169.624 17.604Z" fill="white"/>
<path d="M167.32 26.2736C167.047 26.2775 166.778 26.2073 166.541 26.0706C166.25 25.8756 166.017 25.6055 165.866 25.2889C165.715 24.9722 165.653 24.6208 165.686 24.2717C165.725 23.4132 165.97 22.5768 166.399 21.8324C166.829 21.088 167.43 20.4575 168.154 19.9937C168.43 19.7684 168.768 19.6325 169.123 19.6042C169.479 19.5758 169.834 19.6563 170.143 19.835C170.451 20.0136 170.698 20.2819 170.85 20.6041C171.002 20.9264 171.053 21.2874 170.995 21.6391C170.954 22.4972 170.709 23.3332 170.279 24.0773C169.85 24.8214 169.249 25.4522 168.527 25.9171C168.163 26.1396 167.747 26.2625 167.32 26.2736ZM169.355 20.3776C169.061 20.3921 168.775 20.4828 168.527 20.6408C167.921 21.0433 167.417 21.5805 167.053 22.2104C166.69 22.8403 166.477 23.5458 166.432 24.2717C166.375 24.4901 166.392 24.7211 166.479 24.9291C166.566 25.1372 166.719 25.3109 166.915 25.4236C167.11 25.5362 167.337 25.5817 167.561 25.5529C167.785 25.5242 167.993 25.4228 168.154 25.2644C168.76 24.8626 169.265 24.3255 169.628 23.6955C169.992 23.0654 170.204 22.3596 170.249 21.6336C170.277 21.4161 170.247 21.195 170.162 20.9928C170.078 20.7905 169.941 20.6143 169.766 20.4818C169.641 20.4102 169.499 20.3741 169.355 20.3776Z" fill="white"/>
<path d="M170.721 40.123L97.7748 82.2122C97.3588 82.4814 97.0126 82.8455 96.7647 83.2746C96.5168 83.7037 96.3743 84.1854 96.3488 84.6803V107.129C96.3488 108.039 96.985 108.407 97.7748 107.952L170.721 65.846C171.136 65.5761 171.482 65.2119 171.729 64.7829C171.977 64.354 172.12 63.8726 172.147 63.3779V40.9457C172.119 40.0353 171.483 39.6678 170.721 40.123Z" fill="white"/>
<path opacity="0.2" d="M170.721 40.123L97.7748 82.2122C97.3588 82.4814 97.0126 82.8455 96.7647 83.2746C96.5168 83.7037 96.3743 84.1854 96.3488 84.6803V107.129C96.3488 108.039 96.985 108.407 97.7748 107.952L170.721 65.846C171.136 65.5761 171.482 65.2119 171.729 64.7829C171.977 64.354 172.12 63.8726 172.147 63.3779V40.9457C172.119 40.0353 171.483 39.6678 170.721 40.123Z" fill="white"/>
<path d="M124.293 70.6459L137.511 63.0113C138.169 62.6328 138.701 62.9016 138.701 63.6146C138.671 64.0132 138.548 64.3992 138.341 64.7413C138.135 65.0833 137.85 65.3719 137.511 65.5836L124.293 73.2182C123.635 73.5966 123.103 73.3279 123.103 72.6149C123.133 72.2163 123.256 71.8303 123.463 71.4882C123.669 71.1461 123.954 70.8576 124.293 70.6459Z" fill="white"/>
<path d="M123.103 77.7598C123.103 78.4728 123.651 78.7415 124.293 78.3631L164.249 55.2947C164.587 55.0815 164.871 54.7917 165.077 54.4487C165.282 54.1057 165.405 53.7191 165.433 53.3202C165.433 52.6127 164.885 52.3439 164.249 52.7224L124.293 75.7908C123.954 76.0024 123.669 76.291 123.463 76.6331C123.256 76.9752 123.133 77.3612 123.103 77.7598Z" fill="white"/>
<path d="M123.103 82.9033C123.103 83.6163 123.651 83.8851 124.293 83.5066L164.249 60.4382C164.587 60.2251 164.871 59.9353 165.077 59.5923C165.282 59.2493 165.405 58.8627 165.433 58.4638C165.433 57.7562 164.885 57.4875 164.249 57.8659L124.293 80.9343C123.954 81.146 123.669 81.4346 123.463 81.7767C123.256 82.1187 123.133 82.5047 123.103 82.9033Z" fill="white"/>
<path d="M123.103 88.0488C123.103 88.7618 123.651 89.0306 124.293 88.6521L164.249 65.5837C164.587 65.3706 164.871 65.0808 165.077 64.7378C165.282 64.3948 165.405 64.0082 165.433 63.6093C165.433 62.9017 164.885 62.633 164.249 63.0114L124.293 86.0798C123.954 86.2915 123.669 86.5801 123.463 86.9222C123.256 87.2642 123.133 87.6502 123.103 88.0488Z" fill="white"/>
<path d="M100.023 83.4957L117.223 73.563C118.013 73.1133 118.649 73.4807 118.649 74.3857V91.6788C118.623 92.1733 118.479 92.6546 118.232 93.0835C117.984 93.5123 117.638 93.8767 117.223 94.1469L100.023 104.074C99.2392 104.529 98.5975 104.162 98.5975 103.257V85.9638C98.6238 85.4691 98.7668 84.9877 99.0146 84.5588C99.2624 84.1299 99.6081 83.7656 100.023 83.4957Z" fill="white"/>
<path d="M113.954 82.1953L108.837 92.8026L106.232 91.2998C105.98 91.1546 105.681 91.1152 105.401 91.1903C105.12 91.2654 104.88 91.4487 104.735 91.7002L98.5975 102.324V103.251C98.5975 104.161 99.2392 104.529 100.023 104.074L117.223 94.1464C117.639 93.8765 117.984 93.5122 118.232 93.0833C118.48 92.6544 118.623 92.1729 118.649 91.6783V85.6068L115.189 81.9979C115.11 81.8971 115.006 81.8192 114.887 81.7723C114.768 81.7255 114.639 81.7114 114.513 81.7316C114.387 81.7518 114.269 81.8055 114.17 81.887C114.072 81.9686 113.998 82.0751 113.954 82.1953Z" fill="white"/>
<path d="M101.181 89.8257C102.244 89.1319 103.129 88.1973 103.764 87.0976C104.398 85.998 104.765 84.7642 104.834 83.4964C104.87 83.0755 104.807 82.6519 104.648 82.2602C104.49 81.8685 104.242 81.5197 103.923 81.2422L100.023 83.4964C99.6081 83.7663 99.2624 84.1305 99.0146 84.5595C98.7668 84.9884 98.6238 85.4698 98.5975 85.9645V90.0779C99.2611 90.4619 100.172 90.407 101.181 89.8257Z" fill="white"/>
<path d="M170.721 73.5641L97.7748 115.653C97.3594 115.923 97.0137 116.287 96.7659 116.716C96.5181 117.145 96.3751 117.627 96.3488 118.121V140.586C96.3488 141.491 96.985 141.859 97.7748 141.409L170.721 99.2925C171.136 99.0226 171.482 98.6584 171.729 98.2295C171.977 97.8005 172.12 97.3191 172.147 96.8244V74.3868C172.119 73.4818 171.483 73.1253 170.721 73.5641Z" fill="white"/>
<path opacity="0.2" d="M170.721 73.5641L97.7748 115.653C97.3594 115.923 97.0137 116.287 96.7659 116.716C96.5181 117.145 96.3751 117.627 96.3488 118.121V140.586C96.3488 141.491 96.985 141.859 97.7748 141.409L170.721 99.2925C171.136 99.0226 171.482 98.6584 171.729 98.2295C171.977 97.8005 172.12 97.3191 172.147 96.8244V74.3868C172.119 73.4818 171.483 73.1253 170.721 73.5641Z" fill="white"/>
<path d="M124.293 104.086L137.511 96.4567C138.169 96.0783 138.701 96.3471 138.701 97.0546C138.672 97.4541 138.549 97.8412 138.343 98.1843C138.136 98.5274 137.851 98.8168 137.511 99.029L124.293 106.658C123.635 107.037 123.103 106.768 123.103 106.06C123.132 105.661 123.255 105.274 123.462 104.931C123.668 104.588 123.953 104.298 124.293 104.086Z" fill="white"/>
<path d="M123.103 111.203C123.103 111.91 123.651 112.179 124.293 111.8L164.249 88.732C164.586 88.5194 164.87 88.2305 165.075 87.8885C165.281 87.5465 165.404 87.161 165.433 86.763C165.433 86.05 164.885 85.7813 164.249 86.1597L124.293 109.228C123.953 109.44 123.668 109.73 123.462 110.073C123.255 110.416 123.132 110.803 123.103 111.203Z" fill="white"/>
<path d="M123.103 116.349C123.103 117.057 123.651 117.325 124.293 116.947L164.249 93.8785C164.586 93.6659 164.87 93.377 165.075 93.035C165.281 92.693 165.404 92.3075 165.433 91.9095C165.433 91.1965 164.885 90.9277 164.249 91.3062L124.293 114.375C123.953 114.587 123.668 114.876 123.462 115.219C123.255 115.562 123.132 115.95 123.103 116.349Z" fill="white"/>
<path d="M123.103 121.494C123.103 122.201 123.651 122.47 124.293 122.091L164.249 99.023C164.586 98.8104 164.87 98.5215 165.075 98.1795C165.281 97.8375 165.404 97.452 165.433 97.054C165.433 96.341 164.885 96.0723 164.249 96.4507L124.293 119.519C123.953 119.731 123.668 120.021 123.462 120.364C123.255 120.707 123.132 121.094 123.103 121.494Z" fill="white"/>
<path d="M100.023 116.941L117.223 107.009C118.013 106.554 118.649 106.921 118.649 107.831V125.119C118.624 125.614 118.481 126.096 118.233 126.525C117.986 126.954 117.639 127.318 117.223 127.587L100.023 137.52C99.2392 137.975 98.5975 137.608 98.5975 136.697V119.41C98.6238 118.915 98.7668 118.433 99.0146 118.005C99.2624 117.576 99.6081 117.211 100.023 116.941Z" fill="white"/>
<path d="M113.954 115.641L108.837 126.248L106.232 124.74C106.107 124.668 105.969 124.622 105.826 124.603C105.684 124.585 105.538 124.595 105.399 124.633C105.26 124.67 105.13 124.735 105.016 124.823C104.902 124.911 104.806 125.021 104.735 125.146L98.5975 135.769V136.696C98.5975 137.607 99.2392 137.974 100.023 137.519L117.223 127.586C117.639 127.318 117.984 126.954 118.232 126.526C118.48 126.098 118.623 125.618 118.649 125.124V119.047L115.189 115.443C115.111 115.341 115.007 115.261 114.888 115.213C114.769 115.165 114.639 115.151 114.512 115.171C114.385 115.191 114.266 115.246 114.168 115.328C114.07 115.411 113.996 115.519 113.954 115.641Z" fill="white"/>
<path d="M101.181 123.265C102.244 122.573 103.129 121.639 103.764 120.541C104.398 119.442 104.765 118.209 104.834 116.942C104.87 116.521 104.807 116.097 104.648 115.706C104.49 115.314 104.242 114.965 103.923 114.688L100.023 116.942C99.6081 117.212 99.2624 117.576 99.0146 118.005C98.7668 118.434 98.6238 118.915 98.5975 119.41V123.523C99.2611 123.902 100.172 123.847 101.181 123.265Z" fill="white"/>
<path d="M169.892 4.56641V1.07269C169.892 0.162238 169.251 -0.205234 168.466 0.249992L73.2913 55.2006C72.8759 55.4705 72.5302 55.8348 72.2824 56.2637C72.0346 56.6926 71.8917 57.1741 71.8653 57.6687V61.1679L169.892 4.56641Z" fill="white"/>
<path d="M158.216 7.50584C157.909 7.7073 157.654 7.97806 157.471 8.29626C157.288 8.61447 157.182 8.9712 157.163 9.33771C157.163 10.0123 157.634 10.2865 158.216 9.9465C158.524 9.74781 158.781 9.47858 158.965 9.16102C159.149 8.84345 159.255 8.48667 159.274 8.12012C159.274 7.44551 158.802 7.17127 158.216 7.50584Z" fill="#F5F5F5"/>
<path d="M162.411 5.11395C162.104 5.31481 161.847 5.5853 161.663 5.90354C161.479 6.22178 161.373 6.57883 161.353 6.94582C161.353 7.62043 161.83 7.88918 162.411 7.55461C162.72 7.35473 162.977 7.08447 163.161 6.76603C163.345 6.44758 163.451 6.09004 163.47 5.72274C163.47 5.02071 162.998 4.75196 162.411 5.11395Z" fill="#F5F5F5"/>
<path d="M166.607 2.66952C166.298 2.8682 166.041 3.13744 165.857 3.455C165.673 3.77256 165.567 4.12935 165.548 4.4959C165.548 5.17052 166.02 5.44475 166.607 5.11018C166.914 4.90872 167.169 4.63796 167.352 4.31976C167.535 4.00156 167.64 3.64482 167.66 3.27831C167.66 2.6037 167.188 2.32947 166.607 2.66952Z" fill="#F5F5F5"/>
<path d="M171.412 174.71C171.578 175.131 171.692 175.571 171.752 176.02C171.906 176.485 171.942 176.981 171.856 177.463C171.486 178.078 170.899 178.532 170.21 178.735C169.72 178.848 169.212 178.858 168.718 178.763C168.225 178.669 167.756 178.472 167.342 178.187C166.338 177.589 165.587 176.86 164.161 176.459C163.144 176.24 162.186 175.804 161.353 175.181C160.563 174.551 159.51 172.795 161.018 172.39C162.526 171.984 165.812 173.415 168.801 173.547L171.412 174.71Z" fill="#263238"/>
<path d="M171.269 172.734C171.269 172.734 171.445 174.83 171.445 175.087C171.445 175.795 168.834 176.733 168.351 175.087L167.934 172.861L171.269 172.734Z" fill="#F28F8F"/>
<path d="M168.066 126.768C168.964 128.087 169.786 129.457 170.529 130.87C170.529 130.87 170.786 133.92 170.786 135.949C170.786 139.678 170.21 142.558 169.689 149.907C170.538 151.353 171.023 152.983 171.104 154.657C171.324 157.986 171.329 157.948 171.351 173.305C170.852 173.574 170.303 173.741 169.738 173.796C169.173 173.851 168.603 173.792 168.06 173.623L163.124 152.118L162.576 143.677L161.029 133.185L168.066 126.768Z" fill="#37474F"/>
<path d="M156.384 178.555C156.559 178.736 156.499 179.103 156.581 179.706C156.672 180.17 156.696 180.645 156.652 181.116C156.365 181.768 155.845 182.29 155.194 182.58C154.72 182.751 154.217 182.822 153.715 182.789C153.212 182.756 152.723 182.62 152.276 182.388C151.212 181.917 150.373 181.292 148.908 181.067C147.872 180.977 146.867 180.665 145.963 180.151C145.102 179.602 143.835 178.012 145.283 177.408C146.731 176.805 150.362 177.886 153.34 177.644L156.384 178.555Z" fill="#263238"/>
<path d="M157.069 175.922C157.069 175.922 156.521 178.314 156.373 178.846C156.044 180.124 153.208 180.189 153.208 178.714L153.4 175.313L157.069 175.922Z" fill="#F28F8F"/>
<path d="M161.665 127.421C163.086 130.213 164.457 132.675 164.501 135.648C164.605 141.939 161.994 148.866 161.035 153.413C161.321 155.058 161.402 156.733 161.276 158.398C161.084 160.301 156.746 177.594 156.746 177.594C156.746 177.594 154.332 178.099 153.307 177.008L154.524 143.71L154.853 134.041L161.665 127.421Z" fill="#37474F"/>
<path d="M159.713 110.37L160.607 115.323L165.082 114.994L164.144 109.383L159.713 110.37Z" fill="#FFA8A7"/>
<path d="M169.805 114.63C169.36 113.286 167.655 111.822 165.965 112.14C163.428 112.571 160.927 113.194 158.484 114.005C156.921 114.553 155.495 115.919 155.364 121.063L154.875 134.007C155.551 134.608 156.362 135.037 157.239 135.258C159.614 135.91 161.183 136.3 164.792 135.51C169.492 134.484 170.611 131.638 170.611 131.638C170.611 131.638 170.43 124.787 170.287 121.063C170.172 117.899 170.106 115.557 169.805 114.63Z" fill="#455A64"/>
<path d="M157.804 104.046L135.015 97.8647C132.953 97.5082 132.092 102.543 134.154 102.894L157.557 105.258L157.804 104.046Z" fill="#263238"/>
<path d="M151.25 114.487L146.594 114.63C146.594 114.63 147.296 107.703 147.729 106.793C148.162 105.882 149.199 105.696 150.23 105.405C151.261 105.114 151.256 104.621 151.256 104.621L150.329 104.527C149.517 104.445 149.193 103.43 149.544 102.745C149.714 102.427 149.989 101.922 150.482 102.059L151.711 102.394C151.73 101.852 151.595 101.316 151.321 100.847C150.91 100.392 150.636 100.535 149.813 100.249C149.204 100.035 147.959 99.657 146.956 100.068C145.952 100.48 145.19 102.366 144.932 103.699C144.671 105.24 144.248 106.75 143.67 108.202C142.776 110.67 141.476 115.738 141.339 117.767C141.279 118.705 141.367 119.265 142.409 119.511C143.451 119.758 151.118 119.775 151.118 119.775L151.25 114.487Z" fill="#FFA8A7"/>
<path d="M156.4 104.508C156.4 104.508 155.303 106.109 155.457 106.285C155.705 106.45 155.979 106.571 156.269 106.641L156.4 104.508Z" fill="#FFA8A7"/>
<path d="M159.707 99.4507C158.665 99.9991 156.866 100.948 156.367 104.765C155.857 108.681 156.532 109.943 157.058 110.464C157.42 110.815 159.362 110.837 160.349 110.541C161.567 110.179 164.314 109.131 165.57 107.118C167.046 104.749 167.375 101.579 165.713 100.317C164.867 99.6758 163.873 99.2597 162.822 99.1082C161.772 98.9566 160.7 99.0744 159.707 99.4507Z" fill="#FFA8A7"/>
<path d="M162.773 146.711L165.148 139.998C166.989 139.345 168.638 138.245 169.947 136.795C169.947 136.795 169.399 138.709 165.647 140.673L163.042 147.024V150.556L162.773 146.711Z" fill="#263238"/>
<path d="M156.153 100.74C156.493 101.678 157.069 103.981 159.472 104.941C159.472 104.941 159.817 103.476 161.046 103.63C162.274 103.784 162.488 105.358 161.731 106.334C160.974 107.31 160.239 106.959 160.239 106.959C160.239 106.959 160.075 109.06 161.479 110.014C162.002 110.322 162.589 110.505 163.194 110.548C163.799 110.591 164.406 110.493 164.967 110.261C165.773 109.894 166.92 107.957 167.589 106.367C169.004 103.01 169.207 100.334 167.04 99.4672C166.772 97.9425 166.086 97.3666 164.704 97.0814C161.731 96.4726 159.482 98.4251 156.987 98.0796C155.709 97.8986 155.758 99.6647 156.153 100.74Z" fill="#263238"/>
<path d="M167.112 99.9987L168.516 99.1266C168.393 98.9556 168.211 98.8375 168.004 98.7963C167.798 98.7551 167.584 98.794 167.405 98.9049C167.227 99.0159 167.097 99.1907 167.042 99.3938C166.988 99.5969 167.013 99.8132 167.112 99.9987Z" fill="#263238"/>
<path d="M150.208 114.395C150.208 114.395 156.762 114.017 158.435 114.006C160.108 113.995 161.885 116.852 160.843 118.799C160.152 120.077 157.996 120.516 155.281 120.648C152.566 120.779 149.83 120.779 149.83 120.779C149.83 120.779 147.389 117.999 150.208 114.395Z" fill="#455A64"/>
<path d="M155.364 120.648C155.364 120.648 159.515 120.593 160.876 118.8C160.876 118.8 160.557 119.897 158.945 120.571C157.789 121.015 156.572 121.278 155.336 121.35L155.364 120.648Z" fill="#37474F"/>
<path d="M135.015 97.8647C132.953 97.5082 132.092 102.543 134.154 102.894L137.445 103.223C136.107 103.086 137.034 98.4077 138.054 98.682L135.015 97.8647Z" fill="#455A64"/>
<path d="M218.009 96.5215C218.01 97.5425 217.702 98.5398 217.127 99.3835C216.552 100.227 215.736 100.878 214.786 101.251C213.836 101.624 212.795 101.702 211.8 101.475C210.804 101.247 209.901 100.725 209.206 99.9768L208.872 99.5709C208.091 98.5299 207.74 97.2289 207.89 95.9364C208.041 94.6439 208.682 93.4584 209.681 92.6247C210.68 91.791 211.961 91.3725 213.26 91.4557C214.558 91.5389 215.775 92.1173 216.66 93.0716L217.006 93.4885C217.657 94.3655 218.009 95.429 218.009 96.5215Z" fill="#455A64"/>
<path d="M218.009 96.5219C218.01 97.5429 217.702 98.5403 217.127 99.3839C216.552 100.228 215.736 100.878 214.786 101.252C213.836 101.625 212.795 101.703 211.8 101.475C210.804 101.248 209.901 100.726 209.206 99.9772L208.872 99.5713L187.723 74.0294L196.636 68.8848L216.66 93.0611L217.005 93.4779C217.659 94.358 218.011 95.4256 218.009 96.5219Z" fill="#455A64"/>
<path d="M200.513 89.4738C201.401 90.4054 202.61 90.9649 203.895 91.0394C205.18 91.1139 206.445 90.6978 207.435 89.8751C208.425 89.0524 209.066 87.8846 209.227 86.6077C209.389 85.3307 209.06 84.04 208.307 82.9964L205.691 79.8428C206.473 80.8843 206.825 82.1865 206.674 83.4802C206.523 84.7738 205.881 85.9601 204.88 86.7938C203.88 87.6275 202.597 88.045 201.297 87.9599C199.998 87.8748 198.78 87.2937 197.897 86.3366L200.513 89.4738Z" fill="white"/>
<path d="M196.295 28.7309C197.892 28.9086 199.436 29.4106 200.831 30.2063L194.398 26.4657C190.081 23.4985 183.867 23.6741 176.962 27.6559C163.925 35.1863 153.351 53.4995 153.351 68.5604C153.351 75.9592 155.868 81.2464 160.02 83.7583L160.108 83.8132L166.975 87.7676C165.757 86.9753 164.695 85.9658 163.843 84.7894C165.535 84.9747 167.246 84.8764 168.905 84.4988C169.508 84.3671 170.117 84.2081 170.737 84.0106C170.656 83.9862 170.577 83.955 170.501 83.9174C170.171 83.7628 169.855 83.5793 169.558 83.3689C169.018 82.9927 168.537 82.5379 168.132 82.0197C167.577 81.3101 167.127 80.5252 166.794 79.6887C166.347 79.7533 165.896 79.7863 165.444 79.7874C164.377 79.8088 163.317 79.5973 162.34 79.1677C162.111 79.063 161.89 78.944 161.676 78.8112C161.484 78.6905 161.292 78.5479 161.128 78.4053C160.731 76.5488 160.538 74.6545 160.552 72.7561C160.552 57.7008 171.126 39.3821 184.174 31.8517C185.84 30.8798 187.605 30.0892 189.44 29.4933C189.934 29.6952 190.399 29.9627 190.822 30.2885C191.27 30.6321 191.673 31.0301 192.023 31.4732C192.579 32.1845 193.032 32.9712 193.367 33.8097C193.815 33.7468 194.268 33.7157 194.721 33.7164C195.961 33.6831 197.188 33.9803 198.275 34.5775C198.551 34.7275 198.813 34.8999 199.06 35.0931C198.961 34.6543 198.857 34.221 198.731 33.8097C198.235 31.9825 197.41 30.2613 196.295 28.7309Z" fill="#263238"/>
<path d="M200.831 30.2084L200.458 30.0055C199.162 29.3264 197.75 28.8949 196.295 28.733C194.734 28.559 193.156 28.6311 191.617 28.9469C190.876 29.0874 190.143 29.2705 189.423 29.4954C187.589 30.0914 185.824 30.882 184.158 31.8538C171.11 39.3842 160.536 57.7029 160.536 72.7583C160.522 74.6567 160.715 76.5509 161.111 78.4075C161.183 78.742 161.265 79.0601 161.347 79.3782C161.836 81.3195 162.684 83.152 163.848 84.7806C164.368 85.4973 164.966 86.1541 165.631 86.7386C166.055 87.1115 166.506 87.4524 166.98 87.7588C171.285 90.5395 177.401 90.2982 184.147 86.3931C197.195 78.8627 207.769 60.5495 207.769 45.4886C207.764 37.9582 205.115 32.6655 200.831 30.2084ZM198.253 34.5961C198.529 34.7461 198.791 34.9185 199.038 35.1117C199.451 35.4476 199.828 35.8263 200.162 36.2415C201.808 38.3037 202.68 41.5123 202.68 45.5051C202.68 58.6682 193.027 75.4074 181.602 82.0054C178.723 83.6508 175.953 84.5503 173.6 84.5503C172.618 84.5618 171.645 84.3752 170.737 84.0018C170.656 83.9774 170.577 83.9462 170.501 83.9086C170.171 83.754 169.855 83.5705 169.558 83.3601C169.188 83.1003 168.846 82.8025 168.538 82.4716C168.401 82.329 168.269 82.1699 168.137 82.0109C167.583 81.3013 167.132 80.5164 166.799 79.6799C165.964 77.4666 165.565 75.1123 165.625 72.7473C165.625 72.5718 165.625 72.4018 165.625 72.1988C165.867 59.0905 175.415 42.7298 186.692 36.2251C186.95 36.077 187.213 35.9289 187.476 35.7918C189.295 34.776 191.28 34.0943 193.339 33.7789C193.788 33.716 194.241 33.6849 194.694 33.6857C195.67 33.6772 196.638 33.8637 197.54 34.2341C197.788 34.3324 198.026 34.4517 198.253 34.5906V34.5961Z" fill="#455A64"/>
<path opacity="0.6" d="M200.475 43.9779C200.475 57.1411 190.822 73.8802 179.397 80.4782C176.518 82.1236 173.754 83.0231 171.395 83.0231C170.415 83.0347 169.444 82.8481 168.538 82.4747C168.401 82.3321 168.269 82.173 168.137 82.014C167.583 81.3044 167.132 80.5195 166.799 79.683C165.964 77.4697 165.565 75.1154 165.625 72.7504C165.625 72.5749 165.625 72.4049 165.625 72.2019C165.867 59.0936 175.415 42.7329 186.692 36.2281C186.95 36.08 187.213 35.932 187.476 35.7949C189.295 34.7791 191.28 34.0973 193.339 33.782C193.788 33.7191 194.241 33.688 194.694 33.6887C195.67 33.6803 196.638 33.8668 197.54 34.2372C197.689 34.3853 197.826 34.5443 197.957 34.7034C199.603 36.7766 200.475 39.9851 200.475 43.9779Z" fill="white"/>
</svg>
