<svg width="802" height="778" viewBox="0 0 802 778" fill="none" xmlns="http://www.w3.org/2000/svg">
<path d="M117.446 718.713C274.052 796.581 527.948 796.604 684.554 718.713C841.16 640.821 841.137 514.582 684.554 436.714C527.971 358.847 274.052 358.847 117.446 436.714C-39.16 514.582 -39.1373 640.845 117.446 718.713Z" fill="#F5F5F5"/>
<path d="M684.009 661.166C712.852 661.166 736.233 649.542 736.233 635.202C736.233 620.863 712.852 609.238 684.009 609.238C655.166 609.238 631.784 620.863 631.784 635.202C631.784 649.542 655.166 661.166 684.009 661.166Z" fill="#EBEBEB"/>
<path d="M105.56 638.924L124.036 627.804C134.352 619.021 142.204 607.494 146.763 594.442C152.467 578.034 151.671 565.562 147.581 559.302C142.558 551.596 129.536 552.947 129.013 569.166C127.923 601.129 118.991 623.299 105.56 638.924Z" fill="#101B94"/>
<path opacity="0.2" d="M105.56 638.924L124.036 627.804C134.352 619.021 142.204 607.494 146.763 594.442C152.467 578.034 151.671 565.562 147.581 559.302C142.558 551.596 129.536 552.947 129.013 569.166C127.923 601.129 118.991 623.299 105.56 638.924Z" fill="black"/>
<path d="M105.56 640.11C105.319 640.107 105.086 640.024 104.893 639.874C104.701 639.723 104.559 639.513 104.488 639.273C104.417 639.033 104.421 638.776 104.5 638.539C104.578 638.301 104.726 638.096 104.924 637.952C147.649 607.127 139.377 564.139 139.286 563.712C139.254 563.556 139.253 563.396 139.281 563.239C139.309 563.083 139.366 562.934 139.45 562.801C139.533 562.668 139.641 562.553 139.767 562.463C139.892 562.373 140.034 562.31 140.183 562.278C140.333 562.245 140.486 562.243 140.636 562.273C140.786 562.302 140.929 562.362 141.057 562.449C141.184 562.536 141.294 562.648 141.38 562.779C141.466 562.911 141.527 563.058 141.558 563.214C141.558 563.665 150.285 608.123 106.287 639.896C106.074 640.049 105.818 640.124 105.56 640.11Z" fill="white"/>
<path d="M68.5391 661.237C68.5391 661.237 62.1076 655.783 63.653 648.385C65.1983 640.987 69.3572 635.676 62.2439 626.144C55.1307 616.612 53.1535 603.903 61.6531 597.027C68.13 591.692 78.2432 599.232 81.8793 585.171C84.561 574.88 83.652 552.094 96.2195 544.506C108.787 536.919 116.673 548.347 114.696 563.807C112.969 577.631 110.514 590.933 112.423 594.632C116.105 601.745 122.4 600.773 122.105 613.767C121.855 625.86 110.878 635.866 110.878 635.866L68.5391 661.237Z" fill="#101B94"/>
<path d="M89.6517 649.642C89.3739 649.639 89.1064 649.532 88.8978 649.34C88.6893 649.149 88.5536 648.886 88.5154 648.598C85.2656 620.501 93.0607 571.987 99.424 557.571C99.4776 557.411 99.5634 557.265 99.6756 557.142C99.7878 557.02 99.9239 556.924 100.075 556.861C100.225 556.798 100.387 556.77 100.549 556.778C100.712 556.786 100.87 556.83 101.015 556.907C101.15 556.971 101.273 557.062 101.374 557.176C101.475 557.29 101.553 557.423 101.604 557.569C101.655 557.715 101.677 557.87 101.67 558.025C101.662 558.18 101.625 558.332 101.56 558.472C95.2651 572.699 87.7428 621.354 90.8562 648.219C90.8882 648.53 90.801 648.842 90.6137 649.086C90.4264 649.33 90.1541 649.487 89.8563 649.523L89.6517 649.642Z" fill="white"/>
<path d="M89.0382 627.756C88.8643 627.765 88.6914 627.724 88.5383 627.638C80.6523 623.631 75.6525 609.333 75.448 608.669C75.3923 608.521 75.3655 608.364 75.3692 608.205C75.3729 608.047 75.4071 607.891 75.4696 607.746C75.5321 607.602 75.6218 607.472 75.7333 607.364C75.8448 607.256 75.9758 607.173 76.1187 607.119C76.2616 607.065 76.4134 607.042 76.5651 607.05C76.7168 607.059 76.8654 607.099 77.002 607.168C77.1386 607.237 77.2606 607.334 77.3606 607.454C77.4606 607.573 77.5367 607.712 77.5843 607.863C77.5843 608.005 82.4704 621.852 89.5382 625.433C89.7701 625.55 89.9569 625.746 90.068 625.988C90.1792 626.231 90.2081 626.505 90.1499 626.767C90.0918 627.029 89.9502 627.262 89.7482 627.429C89.5462 627.596 89.2959 627.686 89.0382 627.685V627.756Z" fill="white"/>
<path d="M88.9018 637.241C88.6741 637.241 88.4518 637.168 88.2649 637.033C88.078 636.897 87.9354 636.705 87.8564 636.482C87.7433 636.193 87.7444 635.868 87.8593 635.58C87.9742 635.291 88.1937 635.061 88.47 634.941C101.742 629.392 110.014 612.913 110.105 612.723C110.244 612.443 110.483 612.232 110.771 612.137C111.059 612.041 111.371 612.069 111.639 612.213C111.908 612.358 112.11 612.608 112.201 612.908C112.293 613.208 112.267 613.534 112.128 613.814C111.764 614.525 103.378 631.265 89.4018 637.146C89.2461 637.223 89.0736 637.256 88.9018 637.241Z" fill="white"/>
<path d="M552.811 509.674C552.811 509.674 542.879 492.887 541.902 474.653C540.925 456.419 544.765 448.831 550.038 446.65C555.31 444.468 555.72 451.178 558.424 455.138C561.128 459.098 566.651 456.845 568.696 444.492C570.742 432.138 578.196 411.296 593.695 407.241C610.74 402.831 601.604 423.697 597.308 431.83C593.013 439.963 589.695 451.06 592.513 454.071C595.331 457.083 599.717 451.51 603.876 456.68C608.944 462.916 593.195 485.37 584.15 490.8L552.811 509.674Z" fill="#101B94"/>
<path d="M566.424 502.632C566.274 502.626 566.128 502.589 565.992 502.524C565.856 502.458 565.734 502.366 565.633 502.251C565.532 502.137 565.453 502.002 565.402 501.856C565.35 501.71 565.327 501.554 565.333 501.399C566.872 472.067 575.639 443.646 590.786 418.883C590.872 418.754 590.982 418.645 591.109 418.562C591.237 418.478 591.379 418.423 591.528 418.398C591.677 418.374 591.829 418.381 591.974 418.42C592.12 418.458 592.257 418.527 592.377 418.623C592.615 418.807 592.774 419.082 592.821 419.388C592.868 419.693 592.798 420.006 592.627 420.259C577.75 444.659 569.141 472.642 567.628 501.517C567.619 501.673 567.581 501.826 567.516 501.966C567.451 502.106 567.36 502.232 567.248 502.335C567.136 502.439 567.005 502.518 566.864 502.569C566.723 502.62 566.573 502.641 566.424 502.632Z" fill="white"/>
<path d="M567.719 488.618C567.529 488.617 567.342 488.568 567.173 488.476C560.81 484.801 557.288 473.894 557.151 473.443C557.101 473.295 557.08 473.139 557.088 472.982C557.096 472.825 557.134 472.672 557.2 472.531C557.265 472.39 557.357 472.264 557.47 472.16C557.582 472.056 557.713 471.976 557.856 471.926C558.142 471.828 558.454 471.854 558.722 471.996C558.991 472.138 559.194 472.386 559.288 472.684C559.288 472.684 562.696 483.189 568.378 486.39C568.635 486.548 568.824 486.805 568.905 487.105C568.985 487.406 568.951 487.727 568.81 488.002C568.707 488.206 568.549 488.374 568.354 488.483C568.16 488.593 567.939 488.64 567.719 488.618Z" fill="white"/>
<path d="M568.833 481.434C568.581 481.432 568.337 481.342 568.14 481.178C567.942 481.015 567.802 480.788 567.742 480.533C567.704 480.384 567.696 480.228 567.717 480.075C567.738 479.922 567.788 479.775 567.865 479.643C567.941 479.51 568.041 479.395 568.161 479.304C568.28 479.212 568.416 479.147 568.56 479.111C584.968 474.772 590.65 465.809 590.695 465.714C590.776 465.582 590.881 465.467 591.004 465.377C591.127 465.287 591.265 465.223 591.412 465.189C591.559 465.155 591.71 465.151 591.858 465.178C592.006 465.205 592.148 465.262 592.275 465.346C592.402 465.43 592.511 465.54 592.598 465.668C592.684 465.796 592.745 465.941 592.778 466.094C592.811 466.247 592.814 466.405 592.788 466.56C592.762 466.714 592.708 466.862 592.627 466.994C592.377 467.397 586.468 476.811 569.128 481.411L568.833 481.434Z" fill="white"/>
<path d="M305.55 472.827C305.55 472.827 283.756 467.278 282.62 424.693C281.415 378.74 287.96 325.105 262.166 320.766C236.372 316.427 222.054 349.22 222.373 387.514C222.668 421.041 235.622 493.835 305.459 508.109L305.55 472.827Z" fill="#101B94"/>
<path opacity="0.2" d="M305.55 472.827C305.55 472.827 283.756 467.278 282.62 424.693C281.415 378.74 287.96 325.105 262.166 320.766C236.372 316.427 222.054 349.22 222.373 387.514C222.668 421.041 235.622 493.835 305.459 508.109L305.55 472.827Z" fill="black"/>
<path d="M305.55 503.746H305.346C289.642 500.759 276.847 491.725 267.325 476.929C239.099 432.992 247.985 350.951 250.916 336.629C250.982 336.324 251.158 336.057 251.408 335.885C251.658 335.713 251.963 335.648 252.257 335.705C252.552 335.778 252.807 335.967 252.972 336.232C253.137 336.496 253.199 336.817 253.144 337.127C250.257 351.354 241.417 432.352 269.211 475.601C273.257 482.308 278.594 488.065 284.885 492.506C291.176 496.947 298.283 499.975 305.755 501.399C305.903 501.427 306.044 501.486 306.171 501.572C306.297 501.658 306.405 501.77 306.49 501.9C306.575 502.03 306.634 502.176 306.663 502.331C306.693 502.485 306.693 502.644 306.664 502.798C306.615 503.068 306.477 503.311 306.273 503.485C306.069 503.658 305.813 503.751 305.55 503.746Z" fill="white"/>
<path d="M305.55 613.032C283.029 616.209 246.462 616.162 225.35 598.805C204.237 581.448 208.646 566.51 216.759 560.274C224.872 554.038 231.917 546.925 217.964 533.077C204.01 519.23 181.602 496.989 174.329 463.627C167.057 430.265 170.648 409.399 184.92 402.452C198.76 395.718 202.419 406.435 210.896 428.534C219.373 450.633 238.44 431.688 254.757 438.588C271.075 445.488 270.416 459.146 271.438 470.883C272.461 482.62 277.847 485.868 287.097 485.868C296.346 485.868 305.55 491.417 305.55 502.466V613.032Z" fill="#101B94"/>
<path d="M305.55 574.288C305.453 574.31 305.352 574.31 305.255 574.288C304.277 574.003 280.983 566.937 247.053 534.429C210.918 499.81 193.874 447.883 193.692 447.361C193.605 447.062 193.632 446.74 193.768 446.461C193.903 446.183 194.137 445.97 194.419 445.867C194.703 445.769 195.012 445.791 195.28 445.928C195.548 446.066 195.753 446.308 195.851 446.602C196.01 447.124 212.896 498.483 248.598 532.674C282.051 564.756 305.618 571.94 305.868 572.011C306.012 572.055 306.145 572.127 306.262 572.225C306.378 572.322 306.475 572.443 306.546 572.579C306.618 572.716 306.663 572.866 306.68 573.021C306.696 573.175 306.683 573.332 306.641 573.481C306.567 573.721 306.421 573.929 306.224 574.074C306.028 574.22 305.791 574.294 305.55 574.288Z" fill="white"/>
<path d="M256.53 542.681C256.301 542.684 256.078 542.613 255.89 542.477C255.702 542.341 255.561 542.147 255.484 541.922C248.189 522.384 246.53 480.581 246.394 478.802C246.388 478.489 246.498 478.186 246.701 477.956C246.904 477.726 247.185 477.588 247.485 477.569C247.782 477.574 248.066 477.692 248.284 477.902C248.503 478.113 248.639 478.399 248.667 478.707C248.667 479.134 250.371 521.886 257.53 541.068C257.584 541.214 257.611 541.371 257.607 541.528C257.604 541.684 257.57 541.839 257.509 541.983C257.448 542.126 257.36 542.255 257.25 542.363C257.141 542.47 257.012 542.554 256.871 542.609C256.761 542.65 256.646 542.674 256.53 542.681Z" fill="white"/>
<path d="M256.348 570.778C254.253 570.796 252.158 570.685 250.076 570.446C249.926 570.428 249.782 570.379 249.651 570.302C249.52 570.225 249.405 570.122 249.312 569.999C249.219 569.875 249.151 569.734 249.11 569.583C249.069 569.432 249.058 569.274 249.076 569.119C249.094 568.963 249.141 568.812 249.214 568.676C249.288 568.539 249.387 568.419 249.505 568.322C249.623 568.225 249.758 568.153 249.903 568.111C250.048 568.069 250.199 568.057 250.348 568.075C250.553 568.075 271.711 570.589 281.415 560.274C281.516 560.15 281.641 560.048 281.781 559.976C281.922 559.904 282.075 559.862 282.231 559.855C282.388 559.848 282.544 559.874 282.69 559.932C282.836 559.991 282.969 560.08 283.081 560.195C283.192 560.31 283.28 560.447 283.338 560.599C283.396 560.751 283.424 560.913 283.419 561.077C283.414 561.24 283.377 561.4 283.31 561.548C283.242 561.695 283.147 561.827 283.029 561.934C276.006 569.498 263.757 570.778 256.348 570.778Z" fill="white"/>
<path d="M239.985 121.781L237.531 107.009L224.895 115.688C223.741 113.317 222.104 111.237 220.1 109.594L226.145 92.5216L214.782 89.8896L206.464 106.488C203.455 107.017 200.537 108.008 197.806 109.428L194.192 96.9082L180.693 107.981L181.579 122.682C178.83 125.895 176.337 129.337 174.125 132.973L162.989 132.38L155.171 150.662L164.739 154.93C163.74 158.711 163.108 162.588 162.853 166.501L150.694 178.167L153.126 192.963L165.784 184.284C166.932 186.653 168.57 188.726 170.58 190.354L164.648 207.45L176.011 210.058L187.92 197.966C190.67 197.515 189.988 192.109 192.988 190.568L196.601 203.04L210.078 191.99L209.737 186.205C212.464 183.028 222.782 176.033 225.009 172.381L227.804 167.639L235.622 149.358L231.986 142.481L227.941 133.518L239.985 121.781ZM198.737 170.413C188.374 178.902 185.102 180.775 183.352 169.417C181.602 158.06 187.533 140.798 197.897 132.285C208.26 123.773 212.214 123.18 214.078 134.514C215.941 145.848 209.123 162.019 198.737 170.413Z" fill="#E0E0E0"/>
<path d="M214.873 89.8896L229.622 98.7577L221.304 115.308L206.555 106.44L214.873 89.8896Z" fill="#F5F5F5"/>
<path d="M252.28 115.877L239.644 124.556L224.895 115.688L237.531 107.009L252.28 115.877Z" fill="#F5F5F5"/>
<path d="M250.258 158.154L240.69 153.91L225.941 145.042L235.508 149.286L250.258 158.154Z" fill="#E0E0E0"/>
<path d="M164.625 207.45L179.375 216.294L185.42 199.222L170.67 190.354L164.625 207.45Z" fill="#E0E0E0"/>
<path d="M211.214 211.908L196.487 203.04L192.874 190.568L207.623 199.436L211.214 211.908Z" fill="#E0E0E0"/>
<path d="M254.712 130.649L252.28 115.877L239.644 124.555C238.481 122.183 236.837 120.104 234.826 118.462L240.872 101.39L229.622 98.7576L221.282 115.355C218.272 115.885 215.355 116.876 212.623 118.296L209.032 105.824L195.533 116.897L196.419 131.598C193.667 134.833 191.174 138.299 188.965 141.96L177.807 141.367L169.989 159.648L179.556 163.916C178.567 167.708 177.935 171.591 177.67 175.511L165.534 187.011L167.966 201.807L180.602 193.129C181.765 195.494 183.409 197.565 185.42 199.199L179.375 216.271L190.738 218.903L199.055 202.305C202.076 201.781 205.004 200.782 207.737 199.341L211.328 211.813L224.827 200.764L223.941 186.063C226.69 182.85 229.183 179.408 231.395 175.772L242.553 176.341L250.371 158.059L240.667 153.815C241.673 150.027 242.313 146.142 242.576 142.22L254.712 130.649ZM213.509 179.376C203.169 187.865 193.26 185.565 191.374 174.231C189.488 162.897 196.374 146.797 206.737 138.308C217.1 129.819 226.986 132.143 228.872 143.477C230.758 154.811 223.872 170.887 213.509 179.376Z" fill="#EBEBEB"/>
<path d="M209.032 105.776L194.283 96.908L180.784 107.981L195.533 116.849L209.032 105.776Z" fill="#F5F5F5"/>
<path d="M180.784 107.981L181.67 122.682L196.419 131.55L195.533 116.849L180.784 107.981Z" fill="#E0E0E0"/>
<path d="M188.965 141.841L174.216 132.973L163.08 132.404L177.806 141.272L188.965 141.841Z" fill="#F5F5F5"/>
<path d="M163.08 132.404L155.262 150.662L169.989 159.53L177.807 141.272L163.08 132.404Z" fill="#E0E0E0"/>
<path d="M177.67 175.369L162.944 166.501L150.785 178.167L165.512 187.035L177.67 175.369Z" fill="#F5F5F5"/>
<path d="M167.966 201.83L153.217 192.962L150.785 178.167L165.512 187.035L167.966 201.83Z" fill="#E0E0E0"/>
<path d="M229.622 98.7577L214.873 89.8896L226.145 92.5216L240.872 101.39L229.622 98.7577Z" fill="#F5F5F5"/>
<path d="M173.943 54.7257V32.6505L157.103 40.57C156.211 36.8247 154.671 33.2809 152.558 30.1133L163.171 7.80102L150.217 0L136.99 20.7474C133.304 20.4114 129.591 20.7892 126.036 21.8618L124.173 2.67939L105.856 13.7288L104.015 35.069C100.028 38.7545 96.3626 42.8012 93.0608 47.1618L79.8341 42.4195L66.8802 65.8463L77.4706 75.3308C75.5138 80.4939 73.9929 85.8255 72.9254 91.2648L56.0853 103.618V125.717L72.9254 117.798C73.8173 121.543 75.3577 125.087 77.4706 128.254L66.9257 150.59L79.8796 158.391L93.1062 137.644C96.7922 137.979 100.506 137.601 104.06 136.53L105.901 155.712L124.218 144.663L126.082 123.322C131.799 121.146 136.864 117.432 140.763 112.558L150.262 116.043L163.216 92.64L155.262 85.5266C156.989 79.5949 157.629 73.3768 157.148 67.1978L173.943 54.7257ZM115.014 109.878C100.969 118.343 92.2881 112.249 92.2881 95.3905C92.2881 78.5318 103.901 57.6896 117.969 49.2246C132.036 40.7597 140.536 46.8535 140.536 63.8545C140.536 80.8555 129.082 101.389 115.014 109.878Z" fill="#E0E0E0"/>
<path d="M164.944 8.84432L150.217 0L136.991 20.7474L151.717 29.6154L164.944 8.84432Z" fill="#F5F5F5"/>
<path d="M188.692 41.5184L173.943 32.6504L157.103 40.57L171.852 49.438L188.692 41.5184Z" fill="#F5F5F5"/>
<path d="M120.582 164.58L105.856 155.712L104.015 136.53L118.741 145.398L120.582 164.58Z" fill="#E0E0E0"/>
<path d="M66.8574 150.59L81.6067 159.458L92.2198 137.146L77.4705 128.278L66.8574 150.59Z" fill="#E0E0E0"/>
<path d="M188.692 63.7124V41.6371L171.852 49.4856C170.97 45.7369 169.429 42.1914 167.307 39.0289L177.92 16.7166L164.966 8.89185L151.74 29.6629C148.054 29.3153 144.338 29.6933 140.786 30.7774L138.922 11.5475L120.605 22.597L118.741 43.9371C114.761 47.6288 111.095 51.675 107.787 56.0299L94.5607 51.2876L81.6068 74.7144L92.2199 84.1989C90.2527 89.3583 88.7316 94.6909 87.6747 100.133L70.8346 112.486V134.585L87.6747 126.666C88.5568 130.415 90.0979 133.96 92.2199 137.123L81.6068 159.435L94.5607 167.236L107.787 146.488C111.473 146.824 115.187 146.447 118.741 145.374L120.605 164.556L138.922 153.507L140.763 132.167C144.749 128.481 148.415 124.435 151.717 120.074L164.944 124.816L177.897 101.413L167.284 91.9288C169.251 86.7692 170.772 81.4367 171.83 75.9948L188.692 63.7124ZM129.763 118.865C115.696 127.33 104.287 120.453 104.287 103.524C104.287 86.5937 115.651 65.9886 129.763 57.5C143.876 49.0113 155.217 55.9113 155.217 72.8412C155.217 89.7711 143.808 110.258 129.763 118.746V118.865Z" fill="#EBEBEB"/>
<path d="M93.0608 47.2092L107.787 56.0772L94.5608 51.2638L79.8342 42.3721L93.0608 47.2092Z" fill="#F0F0F0"/>
<path d="M79.8325 42.3964L66.8751 65.8311L81.6195 74.7056L94.5769 51.2709L79.8325 42.3964Z" fill="#F5F5F5"/>
<path d="M66.8574 65.7986L81.6067 74.6666L92.2198 84.1986L77.4705 75.3542L66.8574 65.7986Z" fill="#E0E0E0"/>
<path d="M72.9254 91.2883L87.6747 100.156L70.8346 112.51L56.0853 103.642L72.9254 91.2883Z" fill="#F5F5F5"/>
<path d="M56.0853 103.642L70.8346 112.51V134.609L56.0853 125.741V103.642Z" fill="#E0E0E0"/>
<path d="M138.922 11.5475L124.173 2.67944L105.856 13.7289L120.582 22.5969L138.922 11.5475Z" fill="#F5F5F5"/>
<path d="M328.004 644.757L541.629 516.052C542.1 515.88 542.508 515.559 542.796 515.134C543.084 514.709 543.239 514.202 543.239 513.681C543.239 513.161 543.084 512.653 542.796 512.228C542.508 511.804 542.1 511.483 541.629 511.31L521.88 499.454C520.657 498.812 519.307 498.478 517.937 498.478C516.568 498.478 515.218 498.812 513.994 499.454L300.3 628.041C299.83 628.213 299.422 628.534 299.134 628.959C298.845 629.384 298.69 629.891 298.69 630.412C298.69 630.932 298.845 631.44 299.134 631.865C299.422 632.29 299.83 632.61 300.3 632.783L320.118 644.639C321.332 645.299 322.678 645.654 324.047 645.675C325.417 645.695 326.772 645.381 328.004 644.757Z" fill="#E0E0E0"/>
<path d="M535.766 19.1351L343.139 135.178C340.276 137.128 337.893 139.754 336.183 142.843C334.473 145.933 333.485 149.399 333.299 152.962V629.724C333.299 636.269 337.708 638.924 343.139 635.652L535.766 519.609C538.633 517.664 541.019 515.039 542.729 511.948C544.439 508.858 545.425 505.389 545.606 501.826V25.0629C545.606 18.5186 541.22 15.8629 535.766 19.1351Z" fill="#455A64"/>
<path d="M343.139 135.178L535.766 19.135C540.629 16.1948 544.652 18.0206 545.47 23.1185C545.016 19.9133 543.916 16.8448 542.244 14.1148C540.571 11.3849 538.363 9.05528 535.766 7.27934L527.766 2.53708C524.717 0.922819 521.346 0.081543 517.926 0.081543C514.507 0.081543 511.135 0.922819 508.086 2.53708L315.436 118.485C312.535 120.384 310.142 123.019 308.482 126.144L336.185 142.742C337.844 139.641 340.239 137.037 343.139 135.178Z" fill="#37474F"/>
<path d="M305.55 613.032C305.737 616.594 306.725 620.06 308.434 623.15C310.144 626.239 312.527 628.865 315.391 630.815L323.413 635.557C326.19 637.007 329.228 637.827 332.33 637.966C335.432 638.105 338.527 637.559 341.412 636.363C336.867 638.213 333.253 635.486 333.253 629.63V152.961C333.367 149.384 334.361 145.897 336.14 142.837L308.436 126.239C306.683 129.276 305.69 132.726 305.55 136.269V613.032Z" fill="#263238"/>
<path d="M348.434 198.7L530.539 89.0357C533.812 87.0914 536.448 88.6801 536.448 92.5924V445.464C536.339 447.602 535.746 449.684 534.72 451.538C533.693 453.392 532.26 454.967 530.539 456.134L348.503 565.799C345.23 567.767 342.594 566.178 342.594 562.242V209.371C342.697 207.239 343.28 205.162 344.294 203.309C345.309 201.455 346.727 199.877 348.434 198.7Z" fill="white"/>
<path d="M439.453 95.2245C438.447 95.913 437.611 96.8381 437.011 97.9254C436.411 99.0126 436.064 100.232 435.998 101.484C435.998 103.855 437.544 104.733 439.453 103.571C440.462 102.887 441.301 101.963 441.901 100.874C442.502 99.7863 442.846 98.5651 442.907 97.3111C442.907 95.0111 441.362 94.0864 439.453 95.2245Z" fill="#37474F"/>
<path d="M439.453 527.837C435.48 530.549 432.175 534.199 429.806 538.491C427.437 542.784 426.07 547.598 425.817 552.544C425.817 561.626 431.93 565.325 439.453 560.772C443.424 558.059 446.728 554.409 449.097 550.117C451.466 545.824 452.833 541.011 453.088 536.065C453.134 526.983 446.998 523.284 439.453 527.837Z" fill="#37474F"/>
<path d="M406.75 131.929C404.753 133.312 403.095 135.166 401.911 137.341C400.726 139.516 400.049 141.95 399.932 144.449C399.932 149.049 403.023 150.922 406.75 148.622C408.768 147.252 410.448 145.404 411.653 143.228C412.857 141.053 413.552 138.611 413.681 136.102C413.681 131.502 410.591 129.629 406.75 131.929Z" fill="#37474F"/>
<path d="M423.726 130.365C423.726 133.447 425.999 134.609 428.658 132.973L474.11 105.539C475.518 104.621 476.698 103.37 477.555 101.887C478.412 100.404 478.922 98.7302 479.042 97.0028C479.042 93.9441 476.769 92.7822 474.11 94.4183L428.658 121.852C427.253 122.767 426.074 124.015 425.217 125.494C424.361 126.973 423.85 128.641 423.726 130.365Z" fill="#37474F"/>
<path d="M320.913 213.971C322.526 215.067 323.868 216.544 324.832 218.282C325.795 220.021 326.352 221.972 326.458 223.977C326.458 227.676 323.981 229.17 320.913 227.32C319.306 226.22 317.969 224.742 317.009 223.004C316.05 221.265 315.496 219.317 315.391 217.314C315.391 213.639 317.868 212.145 320.913 213.971Z" fill="#37474F"/>
<path d="M320.913 258.501C322.526 259.597 323.868 261.074 324.832 262.812C325.795 264.551 326.352 266.502 326.458 268.507C326.458 272.182 323.981 273.676 320.913 271.85C319.306 270.75 317.969 269.271 317.009 267.533C316.05 265.795 315.496 263.846 315.391 261.844C315.391 258.145 317.868 256.651 320.913 258.501Z" fill="#37474F"/>
<path d="M319.186 214.871C320.799 215.968 322.141 217.445 323.105 219.183C324.068 220.922 324.625 222.873 324.731 224.878C324.731 228.553 322.254 230.047 319.186 228.221C317.573 227.125 316.231 225.648 315.267 223.909C314.304 222.171 313.747 220.22 313.641 218.215C313.663 214.516 316.141 213.093 319.186 214.871Z" fill="#455A64"/>
<path d="M319.186 259.378C320.802 260.476 322.146 261.957 323.11 263.7C324.073 265.443 324.629 267.398 324.731 269.407C324.731 273.083 322.254 274.576 319.186 272.727C317.569 271.635 316.224 270.159 315.26 268.42C314.296 266.68 313.741 264.727 313.641 262.721C313.663 259.046 316.141 257.552 319.186 259.378Z" fill="#455A64"/>
<path d="M573.31 103.76C573.31 99.8243 570.673 98.2357 567.401 100.204L545.606 113.316L385.364 209.868C383.643 211.035 382.211 212.61 381.184 214.464C380.157 216.319 379.565 218.4 379.456 220.538V573.315C379.456 577.251 382.092 578.84 385.364 576.872L545.675 480.296L567.401 467.207C569.122 466.04 570.554 464.465 571.581 462.611C572.608 460.757 573.2 458.676 573.31 456.537V103.76Z" fill="white"/>
<path d="M575.582 103.761C575.725 102.572 575.529 101.365 575.018 100.291C574.507 99.2181 573.705 98.3257 572.71 97.726C571.716 97.1262 570.574 96.8457 569.427 96.9195C568.281 96.9934 567.181 97.4182 566.265 98.141L545.47 110.684L384.228 207.901C382.152 209.268 380.426 211.141 379.199 213.359C377.971 215.578 377.28 218.074 377.183 220.634V573.315C377.092 574.499 377.31 575.686 377.814 576.751C378.318 577.816 379.09 578.718 380.047 579.362C380.86 579.855 381.787 580.109 382.728 580.097C384.06 580.053 385.36 579.653 386.501 578.935L547.856 481.719L568.605 469.223C570.67 467.842 572.386 465.966 573.612 463.75C574.838 461.535 575.537 459.045 575.651 456.49L575.582 103.761ZM545.516 477.664L543.652 478.802L384.319 574.785C384.051 575 383.741 575.15 383.411 575.224C383.081 575.297 382.739 575.293 382.41 575.212C382.115 575.022 381.819 574.359 381.819 573.268V220.539C381.937 218.817 382.428 217.146 383.254 215.651C384.081 214.156 385.222 212.876 386.592 211.908L545.766 115.877L568.492 102.148C568.76 101.934 569.07 101.784 569.4 101.71C569.73 101.636 570.072 101.64 570.401 101.721C570.696 101.911 570.992 102.575 570.992 103.666V456.537C570.874 458.259 570.383 459.93 569.557 461.425C568.73 462.92 567.589 464.2 566.219 465.168L545.47 477.664H545.516Z" fill="#101B94"/>
<path d="M476.383 185.73C496.836 173.448 513.313 183.359 513.313 207.995C513.313 232.631 496.768 262.531 476.383 274.719C455.997 286.906 439.453 277.09 439.453 252.478C439.453 227.865 455.997 198.037 476.383 185.73Z" fill="#101B94"/>
<path d="M476.383 205.079C482.996 201.095 488.359 204.32 488.359 212.192C488.135 216.529 486.933 220.749 484.852 224.51C482.771 228.272 479.87 231.468 476.383 233.84C469.769 237.824 464.406 234.599 464.406 226.727C464.631 222.39 465.832 218.17 467.913 214.409C469.994 210.647 472.896 207.451 476.383 205.079Z" fill="#101B94"/>
<path d="M499.722 247.569C499.722 234.481 490.927 229.169 480.042 235.714L473.224 239.816C462.361 246.36 453.543 262.294 453.543 275.383V278.916C459.838 281.073 467.747 279.912 476.269 274.719C485.71 268.643 493.693 260.395 499.609 250.604L499.722 247.569Z" fill="#101B94"/>
<path opacity="0.7" d="M476.383 205.079C482.996 201.095 488.359 204.32 488.359 212.192C488.135 216.529 486.933 220.749 484.852 224.51C482.771 228.272 479.87 231.468 476.383 233.84C469.769 237.824 464.406 234.599 464.406 226.727C464.631 222.39 465.832 218.17 467.913 214.409C469.994 210.647 472.896 207.451 476.383 205.079Z" fill="white"/>
<path opacity="0.7" d="M499.722 247.569C499.722 234.481 490.927 229.169 480.042 235.714L473.224 239.816C462.361 246.36 453.543 262.294 453.543 275.383V278.916C459.838 281.073 467.747 279.912 476.269 274.719C485.71 268.643 493.693 260.395 499.609 250.604L499.722 247.569Z" fill="white"/>
<path d="M404.932 328.899L452.452 300.28C454.725 298.976 456.384 300.019 456.384 302.651V304.287C456.312 305.712 455.918 307.099 455.235 308.335C454.552 309.571 453.598 310.622 452.452 311.4L404.932 340.02C402.773 341.324 401 340.257 401 337.649V336.013C401.074 334.588 401.468 333.202 402.151 331.966C402.834 330.73 403.787 329.679 404.932 328.899Z" fill="#101B94"/>
<path opacity="0.1" d="M404.932 328.899L452.452 300.28C454.725 298.976 456.384 300.019 456.384 302.651V304.287C456.312 305.712 455.918 307.099 455.235 308.335C454.552 309.571 453.598 310.622 452.452 311.4L404.932 340.02C402.773 341.324 401 340.257 401 337.649V336.013C401.074 334.588 401.468 333.202 402.151 331.966C402.834 330.73 403.787 329.679 404.932 328.899Z" fill="black"/>
<path d="M402.977 363.447L546.743 276.853C547.811 276.189 548.697 276.711 548.697 278.039V295.537C548.657 296.248 548.46 296.938 548.121 297.556C547.782 298.173 547.31 298.699 546.743 299.094L402.977 385.688C401.886 386.352 401 385.806 401 384.502V367.003C401.039 366.29 401.238 365.597 401.582 364.979C401.925 364.361 402.403 363.836 402.977 363.447Z" fill="#101B94"/>
<path opacity="0.2" d="M402.977 363.447L546.743 276.853C547.811 276.189 548.697 276.711 548.697 278.039V295.537C548.657 296.248 548.46 296.938 548.121 297.556C547.782 298.173 547.31 298.699 546.743 299.094L402.977 385.688C401.886 386.352 401 385.806 401 384.502V367.003C401.039 366.29 401.238 365.597 401.582 364.979C401.925 364.361 402.403 363.836 402.977 363.447Z" fill="white"/>
<path d="M404.932 406.743L452.452 378.124C454.725 376.82 456.384 377.887 456.384 380.495V382.131C456.314 383.556 455.921 384.944 455.237 386.181C454.554 387.417 453.599 388.467 452.452 389.244L404.932 417.864C402.773 419.192 401 418.125 401 415.493V413.857C401.077 412.433 401.473 411.048 402.156 409.813C402.839 408.577 403.789 407.526 404.932 406.743Z" fill="#101B94"/>
<path opacity="0.1" d="M404.932 406.743L452.452 378.124C454.725 376.82 456.384 377.887 456.384 380.495V382.131C456.314 383.556 455.921 384.944 455.237 386.181C454.554 387.417 453.599 388.467 452.452 389.244L404.932 417.864C402.773 419.192 401 418.125 401 415.493V413.857C401.077 412.433 401.473 411.048 402.156 409.813C402.839 408.577 403.789 407.526 404.932 406.743Z" fill="black"/>
<path d="M402.977 441.29L546.743 354.697C547.811 354.033 548.697 354.578 548.697 355.882V373.381C548.657 374.091 548.46 374.782 548.121 375.399C547.782 376.017 547.31 376.543 546.743 376.938L402.977 463.532C401.886 464.196 401 463.674 401 462.346V444.847C401.039 444.134 401.238 443.441 401.582 442.823C401.925 442.205 402.403 441.68 402.977 441.29Z" fill="#101B94"/>
<path opacity="0.2" d="M402.977 441.29L546.743 354.697C547.811 354.033 548.697 354.578 548.697 355.882V373.381C548.657 374.091 548.46 374.782 548.121 375.399C547.782 376.017 547.31 376.543 546.743 376.938L402.977 463.532C401.886 464.196 401 463.674 401 462.346V444.847C401.039 444.134 401.238 443.441 401.582 442.823C401.925 442.205 402.403 441.68 402.977 441.29Z" fill="white"/>
<path d="M460.315 451.225L517.131 417.057C519.403 415.73 521.085 416.797 521.085 419.428V437.734C521.011 439.161 520.613 440.549 519.926 441.786C519.239 443.022 518.281 444.071 517.131 444.847L460.315 479.039C458.043 480.343 456.384 479.276 456.384 476.668V458.339C456.463 456.915 456.859 455.531 457.542 454.296C458.225 453.061 459.174 452.01 460.315 451.225Z" fill="#101B94"/>
<path opacity="0.1" d="M460.315 451.225L517.131 417.057C519.403 415.73 521.085 416.797 521.085 419.428V437.734C521.011 439.161 520.613 440.549 519.926 441.786C519.239 443.022 518.281 444.071 517.131 444.847L460.315 479.039C458.043 480.343 456.384 479.276 456.384 476.668V458.339C456.463 456.915 456.859 455.531 457.542 454.296C458.225 453.061 459.174 452.01 460.315 451.225Z" fill="black"/>
<path d="M594.854 373.974C594.854 373.974 566.946 333.808 565.31 328.923C564.015 325.319 565.31 319.96 565.719 317.47C566.128 314.981 566.492 309.432 566.901 307.986C567.583 305.283 564.242 305.828 562.356 308.294C560.469 310.76 559.833 315.692 558.856 316.498C557.879 317.304 550.447 305.994 546.561 300.778C542.675 295.561 540.243 292.384 537.857 294.328C536.152 295.727 537.425 298.762 540.243 303.22C541.889 305.62 543.406 308.114 544.788 310.689C545.22 311.661 542.902 311.732 541.652 313.748C540.675 315.313 541.652 317.85 540.289 319.059C539.449 319.725 538.874 320.69 538.673 321.77C538.472 322.851 538.659 323.97 539.198 324.916C541.727 329.061 544.99 332.666 548.811 335.538C552.993 338.55 554.674 339.617 557.151 343.719C559.629 347.821 581.855 389.719 583.355 392.232C584.855 394.746 587.741 399.867 592.127 400.009C596.513 400.152 632.42 367.904 634.261 366.292C640.17 361.147 642.056 360.412 643.056 365.035C643.402 366.679 643.66 368.341 643.829 370.015C644.533 375.895 648.374 396.903 648.374 396.903C648.374 396.903 666.555 406.08 681.486 401.645C696.417 397.211 701.462 390.596 701.462 390.596L693.986 377.887C696.008 372.647 705.349 351.401 708.371 336.534L661.555 328.638C660.601 328.425 659.055 328.022 657.01 327.477C654.442 326.765 647.92 324.418 642.988 328.923C626.898 343.553 594.9 373.974 594.9 373.974" fill="#FFA8A7"/>
<path d="M687.668 620.43L679.282 632.594C683.093 634.45 687.257 635.382 691.463 635.32C698.985 635.605 701.053 632.949 701.326 632.428C702.599 629.582 700.622 624.461 700.076 620.05L687.668 620.43Z" fill="#37474F"/>
<path d="M679.759 626.76C679.759 626.76 669.578 626.073 662.555 625.172C655.533 624.271 649.965 627.827 651.601 630.839C653.238 633.85 657.124 636.363 663.169 638.474C668.328 640.299 674.532 641.603 679.895 643.216C685.259 644.828 688.986 646.938 692.099 645.8C695.576 644.544 697.076 643.097 696.781 640.442C696.022 636.664 695.081 632.929 693.963 629.25L679.759 626.76Z" fill="#37474F"/>
<path d="M701.326 608.218C701.326 608.218 700.053 619.268 699.962 621.639C699.871 624.01 689.622 624.769 687.668 620.43L687.349 606.914L701.326 608.218Z" fill="#F28F8F"/>
<path d="M691.008 615L694.667 631.787C694.667 631.787 695.008 633.826 686.645 635.13C678.282 636.434 665.146 630.554 662.896 629.369C660.646 628.183 660.396 625.788 668.623 626.262C676.85 626.737 679.759 626.76 679.759 626.76L677.077 619.339L691.008 615Z" fill="#FFA8A7"/>
<path d="M708.235 336.392L714.03 334.709C714.03 334.709 726.143 374.71 727.484 378.575C728.825 382.44 730.347 386.518 727.734 391.284C724.62 396.951 708.235 419.737 708.235 419.737L697.826 409.115L709.644 386.542L699.19 364.49L708.235 336.392Z" fill="#F28F8F"/>
<path d="M648.715 284.441C647.356 281.78 646.667 278.803 646.71 275.788C646.754 272.773 647.53 269.819 648.965 267.202C654.737 256.034 667.6 250.605 682.918 252.667C690.008 253.64 698.372 259.781 702.939 268.957C707.985 279.129 708.462 299.616 709.757 307.369L648.715 284.441Z" fill="#37474F"/>
<path d="M648.306 288.827C648.306 288.827 644.67 296.059 645.306 296.723C646.249 297.297 647.279 297.698 648.351 297.909L648.306 288.827Z" fill="#FFA8A7"/>
<path d="M659.351 265.97C655.396 268.649 648.579 273.581 648.283 289.823C647.965 306.421 650.238 311.898 652.601 313.819C654.192 315.123 663.532 314.459 667.532 313.487C671.532 312.515 683.054 306.563 687.213 297.529C692.099 286.907 691.099 271.447 683.85 266.705C680.16 264.428 675.976 263.166 671.691 263.038C667.406 262.909 663.16 263.918 659.351 265.97Z" fill="#FFA8A7"/>
<path d="M701.326 390.501C708.326 401.882 714.962 411.841 716.416 424.693C719.416 451.7 709.598 482.572 707.485 502.56C711.459 508.246 713.751 515.022 714.075 522.051C714.075 530.326 701.326 608.218 701.326 608.218C701.326 608.218 692.054 611.158 687.349 606.914L678.6 463.627L683.145 446.175L701.326 390.501Z" fill="#101B94"/>
<path opacity="0.2" d="M701.326 390.501C708.326 401.882 714.962 411.841 716.416 424.693C719.416 451.7 709.598 482.572 707.485 502.56C711.459 508.246 713.751 515.022 714.075 522.051C714.075 530.326 701.326 608.218 701.326 608.218C701.326 608.218 692.054 611.158 687.349 606.914L678.6 463.627L683.145 446.175L701.326 390.501Z" fill="black"/>
<path d="M678.6 463.627L683.145 446.175C691.848 443.785 700.242 440.306 708.144 435.813C708.144 435.813 703.417 444.8 689.827 449.732L682.804 472.139L682.213 523.474L678.6 463.627Z" fill="#101B94"/>
<path opacity="0.3" d="M678.6 463.627L683.145 446.175C691.848 443.785 700.242 440.306 708.144 435.813C708.144 435.813 703.417 444.8 689.827 449.732L682.804 472.139L682.213 523.474L678.6 463.627Z" fill="black"/>
<path d="M701.326 390.501C705.076 396.903 714.03 407.81 712.121 418.314C709.848 431.024 703.258 439.963 683.213 446.175L664.396 517.309C664.396 517.309 674.191 526.793 677.191 535.97C680.191 545.146 691.008 615.047 691.008 615.047C691.008 615.047 687.645 620.761 677.077 619.386C677.077 619.386 640.238 531.654 637.647 525.94C634.503 520.153 633.401 513.399 634.534 506.852C635.693 497.652 648.17 396.95 648.17 396.95L701.326 390.501Z" fill="#101B94"/>
<path opacity="0.2" d="M701.326 390.501C705.076 396.903 714.03 407.81 712.121 418.314C709.848 431.024 703.258 439.963 683.213 446.175L664.396 517.309C664.396 517.309 674.191 526.793 677.191 535.97C680.191 545.146 691.008 615.047 691.008 615.047C691.008 615.047 687.645 620.761 677.077 619.386C677.077 619.386 640.238 531.654 637.647 525.94C634.503 520.153 633.401 513.399 634.534 506.852C635.693 497.652 648.17 396.95 648.17 396.95L701.326 390.501Z" fill="black"/>
<path d="M708.235 336.392L661.419 328.496C660.465 328.283 658.919 327.88 656.874 327.334C656.874 327.334 654.874 357.969 642.852 364.988C643.147 366.458 643.397 368.094 643.624 369.967C644.329 375.848 648.17 396.856 648.17 396.856C648.17 396.856 666.351 406.032 681.282 401.598C696.213 397.164 701.258 390.549 701.258 390.549L693.781 377.839C695.872 372.552 705.281 351.306 708.235 336.392Z" fill="#101B94"/>
<path opacity="0.7" d="M708.235 336.392L661.419 328.496C660.465 328.283 658.919 327.88 656.874 327.334C656.874 327.334 654.874 357.969 642.852 364.988C643.147 366.458 643.397 368.094 643.624 369.967C644.329 375.848 648.17 396.856 648.17 396.856C648.17 396.856 666.351 406.032 681.282 401.598C696.213 397.164 701.258 390.549 701.258 390.549L693.781 377.839C695.872 372.552 705.281 351.306 708.235 336.392Z" fill="white"/>
<path d="M695.894 372.789C689.677 376.684 683.163 380.039 676.418 382.819C682.54 382.691 688.533 380.963 693.849 377.792L695.894 372.789Z" fill="#101B94"/>
<path d="M658.192 266.776C658.192 266.776 655.919 282.188 661.283 291.246C661.283 291.246 663.283 285.104 668.26 286.266C673.237 287.428 673.509 294.281 670.01 298.122C669.12 299.199 667.957 299.993 666.655 300.413C665.352 300.832 663.963 300.86 662.646 300.493C662.646 300.493 661.851 311.637 661.419 320.98C660.987 330.322 658.624 350.69 668.691 358.918C678.759 367.146 704.031 370.038 715.871 352.776C722.461 343.173 713.712 326.196 709.644 307.156C705.894 289.657 703.781 263.717 685.986 259.544C668.191 255.371 658.192 266.776 658.192 266.776Z" fill="#37474F"/>
<path d="M723.484 56.1956L719.734 58.5668C720.049 57.1747 720.224 55.7523 720.257 54.3224C720.257 46.3792 714.917 43.1781 708.326 47.209C706.32 48.4713 704.531 50.0741 703.031 51.9513C703.031 41.2812 695.849 36.9421 686.986 42.2771C682.316 45.4551 678.429 49.7369 675.641 54.7754C672.853 59.8138 671.243 65.4669 670.941 71.276C670.941 71.8214 670.941 72.343 670.941 72.8647C668.658 72.5649 666.347 73.1194 664.419 74.4296C660.946 76.7906 658.056 79.9728 655.983 83.7177C653.91 87.4627 652.712 91.6649 652.488 95.9832C652.487 96.987 652.586 97.9883 652.783 98.9708L650.783 100.18C645.352 103.452 640.943 109.831 640.943 114.407C640.943 118.983 645.352 120.074 650.783 116.778L723.507 73.0306C728.939 69.7585 733.347 63.3801 733.347 58.8039C733.347 54.2276 728.916 52.8998 723.484 56.1956Z" fill="#EBEBEB"/>
</svg>
