<svg width="340" height="285" viewBox="0 0 340 285" fill="none" xmlns="http://www.w3.org/2000/svg">
<path d="M52.9182 259.336C118.416 293.555 224.613 293.555 290.119 259.336C355.624 225.118 355.617 169.642 290.119 135.424C224.621 101.205 118.416 101.197 52.9104 135.424C-12.5951 169.65 -12.5873 225.118 52.9182 259.336Z" fill="#FAFAFA"/>
<path d="M226.323 265.621C239.565 265.621 250.3 260.504 250.3 254.191C250.3 247.879 239.565 242.762 226.323 242.762C213.081 242.762 202.346 247.879 202.346 254.191C202.346 260.504 213.081 265.621 226.323 265.621Z" fill="#F0F0F0"/>
<path d="M38.8301 56.5419V95.8655C38.8301 97.1555 39.7369 97.6871 40.8627 97.0382L132.159 44.3226C132.75 43.9365 133.242 43.417 133.595 42.8059C133.948 42.1948 134.153 41.5093 134.192 40.8046V1.44966C134.192 0.159716 133.277 -0.371896 132.159 0.276983L40.8627 52.9926C40.2665 53.3803 39.7711 53.9045 39.4177 54.5217C39.0642 55.1389 38.8628 55.8314 38.8301 56.5419Z" fill="#F0F0F0"/>
<path d="M45.1871 55.9246L72.5495 40.1326C73.8082 39.4055 74.8167 39.9918 74.8167 41.4381V68.9334C74.7737 69.7176 74.546 70.4805 74.152 71.1598C73.7579 71.8392 73.2088 72.4157 72.5495 72.8423L45.1871 88.6422C43.9362 89.3614 42.9199 88.7751 42.9199 87.3288V59.8491C42.9623 59.0627 43.1897 58.2974 43.5836 57.6154C43.9776 56.9334 44.527 56.3541 45.1871 55.9246Z" fill="#FAFAFA"/>
<path d="M67.3428 53.8524L59.2045 70.7232L55.061 68.331C54.6632 68.1134 54.1964 68.0586 53.7589 68.1781C53.3215 68.2977 52.9475 68.5823 52.7157 68.972L42.9199 85.8663V87.3439C42.9199 88.7902 43.9362 89.3766 45.1871 88.6573L72.5495 72.8575C73.2075 72.4295 73.7556 71.8526 74.1495 71.1736C74.5433 70.4945 74.7719 69.7323 74.8167 68.9486V59.2779L69.3442 53.5396C69.222 53.3687 69.0547 53.2352 68.8609 53.1538C68.6672 53.0725 68.4547 53.0466 68.2471 53.079C68.0395 53.1115 67.845 53.201 67.6853 53.3375C67.5257 53.4741 67.4071 53.6523 67.3428 53.8524Z" fill="#101B94"/>
<path d="M47.0321 65.9859C48.7228 64.8831 50.1298 63.3975 51.139 61.6493C52.1482 59.9012 52.7312 57.9399 52.8407 55.9243C52.8407 54.2278 52.2935 53.0004 51.3944 52.3438L45.1871 55.9243C44.529 56.3523 43.9809 56.9292 43.5871 57.6082C43.1932 58.2873 42.9647 59.0495 42.9199 59.8332V66.3767C43.991 67.0022 45.4294 66.9084 47.0321 65.9859Z" fill="#101B94"/>
<path d="M85.0265 35.4959L126.14 11.7531C127.079 11.2137 127.837 11.5968 127.837 12.6131C127.796 13.1826 127.62 13.7344 127.326 14.2234C127.031 14.7125 126.625 15.125 126.14 15.4275L85.0265 39.1624C84.0884 39.7019 83.3301 39.3188 83.3301 38.3025C83.3726 37.7343 83.5483 37.1841 83.843 36.6965C84.1378 36.2089 84.5432 35.7976 85.0265 35.4959Z" fill="#FAFAFA"/>
<path d="M85.0265 43.6189L126.14 19.8762C127.079 19.3368 127.837 19.7198 127.837 20.7361C127.796 21.3057 127.62 21.8574 127.326 22.3465C127.031 22.8355 126.625 23.2481 126.14 23.5506L85.0265 47.2855C84.0884 47.8249 83.3301 47.4418 83.3301 46.4333C83.3714 45.8638 83.5465 45.3121 83.8413 44.823C84.1361 44.334 84.5422 43.9214 85.0265 43.6189Z" fill="#FAFAFA"/>
<path d="M85.0265 51.7412L126.14 28.0063C127.079 27.4669 127.837 27.8499 127.837 28.8584C127.796 29.428 127.62 29.9797 127.326 30.4688C127.031 30.9578 126.625 31.3704 126.14 31.6729L85.0265 55.4078C84.0884 55.955 83.3301 55.572 83.3301 54.5556C83.3714 53.9861 83.5465 53.4344 83.8413 52.9453C84.1361 52.4562 84.5422 52.0437 85.0265 51.7412Z" fill="#FAFAFA"/>
<path d="M85.0265 59.865L126.14 36.1301C127.079 35.5907 127.837 35.9737 127.837 36.9901C127.794 37.5582 127.619 38.1084 127.324 38.596C127.029 39.0836 126.624 39.4949 126.14 39.7967L85.0265 63.5785C84.0884 64.1179 83.3301 63.7348 83.3301 62.7185C83.3653 62.1422 83.5377 61.5826 83.8327 61.0863C84.1278 60.59 84.5371 60.1713 85.0265 59.865Z" fill="#FAFAFA"/>
<path d="M19.7559 180.267V122.564C19.7934 121.859 19.9971 121.172 20.3504 120.561C20.7036 119.95 21.1964 119.43 21.7885 119.046L90.8355 79.1749C91.9535 78.526 92.8682 79.0498 92.8682 80.3475V138.051C92.8288 138.756 92.6243 139.441 92.2712 140.052C91.9181 140.663 91.4263 141.183 90.8355 141.569L21.7885 181.44C20.6627 182.089 19.7559 181.565 19.7559 180.267Z" fill="#F0F0F0"/>
<path d="M19.7559 177.381V180.266C19.7559 181.564 20.6627 182.088 21.7885 181.439L90.8355 141.568C91.4263 141.182 91.9181 140.662 92.2712 140.051C92.6243 139.44 92.8288 138.754 92.8682 138.05V135.157L19.7559 177.381Z" fill="#101B94"/>
<path d="M53.1612 125.049L60.1973 124.682C61.0572 124.635 61.2918 125.12 60.7211 125.776L52.6374 134.97C52.0667 135.619 51.6055 135.439 51.6055 134.579V126.699C51.6085 126.278 51.7706 125.874 52.0592 125.568C52.3478 125.262 52.7415 125.077 53.1612 125.049Z" fill="#101B94"/>
<path d="M51.3453 140.013C50.5021 140.024 49.6712 139.811 48.9374 139.395C47.2018 138.387 46.248 136.268 46.248 133.5C46.248 127.856 50.2273 120.992 55.1213 118.138C57.537 116.739 59.812 116.528 61.5632 117.529C63.3144 118.529 64.2603 120.656 64.2603 123.415C64.2603 129.068 60.2732 135.924 55.3871 138.778C54.1709 139.535 52.7773 139.961 51.3453 140.013ZM59.1631 117.443C57.8269 117.495 56.5278 117.897 55.3949 118.608C50.6495 121.344 46.7953 128.028 46.7953 133.5C46.7953 136.096 47.6553 138.027 49.2188 138.926C50.7824 139.825 52.8776 139.614 55.1213 138.316C59.8667 135.572 63.7209 128.935 63.7209 123.415C63.7209 120.82 62.8609 118.897 61.2974 117.99C60.6432 117.624 59.9048 117.435 59.1553 117.443H59.1631Z" fill="#101B94"/>
<path d="M23.5629 68.9411L19.2866 66.4863C17.2461 65.1182 14.4083 65.1729 11.2733 66.9867C5.01905 70.5829 0 79.7062 0 87.3677V89.1111C0 96.7726 10.3039 105.091 10.3039 105.091L14.5099 107.475C14.5099 107.475 11.9847 104.59 12.274 103.996C15.065 98.3361 22.531 82.3409 22.531 76.0866V74.3432C22.5468 73.0815 22.3863 71.8237 22.0541 70.6063L22.531 70.8799L23.5629 68.9411ZM11.2655 86.5078C8.13836 88.3059 5.62884 86.8439 5.62884 83.2555C7.30185 82.9897 11.5157 75.7973 11.2655 73.4911C14.3926 71.693 16.8943 73.1549 16.9021 76.7433C16.7962 78.6994 16.2306 80.6029 15.2513 82.2994C14.2719 83.996 12.9064 85.4378 11.2655 86.5078Z" fill="#101B94"/>
<g opacity="0.2">
<path d="M23.5629 68.9411L19.2866 66.4863C17.2461 65.1182 14.4083 65.1729 11.2733 66.9867C5.01905 70.5829 0 79.7062 0 87.3677V89.1111C0 96.7726 10.3039 105.091 10.3039 105.091L14.5099 107.475C14.5099 107.475 11.9847 104.59 12.274 103.996C15.065 98.3361 22.531 82.3409 22.531 76.0866V74.3432C22.5468 73.0815 22.3863 71.8237 22.0541 70.6063L22.531 70.8799L23.5629 68.9411ZM11.2655 86.5078C8.13836 88.3059 5.62884 86.8439 5.62884 83.2555C7.30185 82.9897 11.5157 75.7973 11.2655 73.4911C14.3926 71.693 16.8943 73.1549 16.9021 76.7433C16.7962 78.6994 16.2306 80.6029 15.2513 82.2994C14.2719 83.996 12.9064 85.4378 11.2655 86.5078Z" fill="black"/>
</g>
<path d="M23.5638 68.941C23.5171 68.9078 23.4673 68.879 23.4152 68.855C21.4061 67.7293 18.7245 67.8856 15.7694 69.5899C11.3133 72.1698 7.45906 77.5719 5.60624 83.2555C4.88974 85.4178 4.51004 87.6776 4.48047 89.9554V91.7222C4.48047 97.6246 11.1647 104.473 14.2371 107.311C14.3036 107.37 14.3741 107.425 14.4482 107.475C14.6289 107.586 14.8307 107.657 15.0407 107.685C15.2507 107.713 15.4642 107.697 15.6675 107.637C15.8708 107.577 16.0593 107.476 16.221 107.339C16.3826 107.202 16.5137 107.033 16.6059 106.842C19.264 101.369 26.9958 85.0458 26.9958 78.6977V76.9543C27.0427 73.0141 25.7059 70.231 23.5638 68.941ZM10.2344 86.9846C10.1695 86.6129 10.1381 86.2361 10.1406 85.8588C10.2438 83.9019 10.8074 81.9971 11.7855 80.299C12.7635 78.601 14.1285 77.1577 15.7694 76.0865C16.0972 75.8977 16.4397 75.7356 16.7935 75.6018C19.4203 74.6481 21.4061 76.1569 21.4061 79.3387C21.3008 81.2939 20.7354 83.1966 19.7559 84.8919C18.7765 86.5873 17.4106 88.0275 15.7694 89.0954C13.0097 90.7059 10.7113 89.7365 10.2344 86.9846Z" fill="#101B94"/>
<path d="M21.4021 79.3462C21.2968 81.3013 20.7315 83.204 19.752 84.8994C18.7725 86.5948 17.4067 88.035 15.7655 89.1028C13.0058 90.6664 10.7074 89.7361 10.2305 86.9842C10.5887 86.8581 10.9342 86.6984 11.2624 86.5073C12.9023 85.4369 14.2666 83.9948 15.2446 82.2983C16.2227 80.6017 16.7868 78.6983 16.8913 76.7428C16.8948 76.3625 16.8608 75.9828 16.7896 75.6092C19.4164 74.6555 21.4021 76.1643 21.4021 79.3462Z" fill="#101B94"/>
<g opacity="0.2">
<path d="M21.406 79.3471C21.3008 81.3023 20.7354 83.205 19.7559 84.9003C18.7764 86.5957 17.4106 88.0359 15.7694 89.1038C13.0097 90.6673 10.7113 89.737 10.2344 86.9852C10.5926 86.8591 10.9381 86.6994 11.2663 86.5083C12.9062 85.4379 14.2705 83.9958 15.2486 82.2992C16.2266 80.6026 16.7907 78.6993 16.8952 76.7438C16.8987 76.3635 16.8647 75.9838 16.7935 75.6102C19.4203 74.6564 21.406 76.1653 21.406 79.3471Z" fill="black"/>
</g>
<path d="M103.548 176.413C103.548 176.413 106.37 158.432 100.1 142.968C93.8306 127.505 85.3795 126.551 81.0015 128.748C76.6235 130.944 79.4379 139.521 83.3468 145.282C88.5535 152.842 97.1531 169.119 96.8717 183.738L103.548 176.413Z" fill="#101B94"/>
<path opacity="0.2" d="M103.548 176.413C103.548 176.413 106.37 158.432 100.1 142.968C93.8306 127.505 85.3795 126.551 81.0015 128.748C76.6235 130.944 79.4379 139.521 83.3468 145.282C88.5535 152.842 97.1531 169.119 96.8717 183.738L103.548 176.413Z" fill="black"/>
<path d="M100.735 177.554C100.665 177.552 100.596 177.536 100.532 177.507C100.468 177.478 100.411 177.436 100.364 177.384C100.316 177.332 100.28 177.272 100.256 177.205C100.233 177.139 100.223 177.069 100.227 176.999C101.259 152.381 88.9615 134.001 83.6532 130.42C83.5952 130.381 83.5454 130.331 83.5068 130.273C83.4681 130.215 83.4413 130.149 83.4279 130.081C83.4145 130.012 83.4147 129.942 83.4285 129.873C83.4424 129.805 83.4696 129.74 83.5086 129.682C83.5476 129.624 83.5976 129.574 83.6559 129.535C83.7141 129.496 83.7794 129.47 83.848 129.456C83.9166 129.443 83.9872 129.443 84.0557 129.457C84.1242 129.471 84.1894 129.498 84.2474 129.537C90.5016 133.712 102.322 152.506 101.282 177.046C101.28 177.115 101.265 177.184 101.236 177.247C101.207 177.31 101.166 177.367 101.115 177.415C101.064 177.462 101.004 177.499 100.939 177.522C100.874 177.546 100.805 177.557 100.735 177.554Z" fill="white"/>
<path d="M102.437 197.763C101.366 195.073 98.5983 192.071 91.4919 188.866C84.3855 185.661 79.0381 181.384 78.0531 178.288C77.7566 177.433 77.7179 176.51 77.9417 175.633C78.1654 174.756 78.6418 173.964 79.3117 173.355C79.3117 173.355 72.6119 172.574 71.7675 168.469C70.7121 163.294 76.5677 162.958 76.5677 162.958C76.5677 162.958 68.8828 152.138 66.8423 147.322C64.8019 142.506 67.155 142.217 72.1115 144.054C77.068 145.891 86.512 155.14 87.9739 157.962C87.9739 157.962 90.5303 154.835 93.2822 156.891C96.0341 158.947 96.167 165.1 94.5409 167.32C95.6375 167.116 96.7697 167.234 97.8007 167.66C98.8316 168.086 99.7169 168.801 100.35 169.72C103.148 173.387 104.071 182.557 104.071 182.557L102.437 197.763Z" fill="#101B94"/>
<path d="M102.936 195.262C102.817 195.26 102.702 195.22 102.609 195.146C102.516 195.073 102.449 194.971 102.42 194.855C98.6206 179.024 80.5849 153.757 69.382 145.72C69.325 145.68 69.2765 145.628 69.2394 145.569C69.2023 145.51 69.1772 145.444 69.1656 145.375C69.154 145.306 69.1561 145.235 69.1717 145.167C69.1874 145.099 69.2163 145.035 69.2569 144.978C69.2974 144.921 69.3488 144.872 69.4081 144.835C69.4673 144.798 69.5333 144.773 69.6023 144.761C69.6713 144.75 69.7419 144.752 69.81 144.767C69.8782 144.783 69.9426 144.812 69.9996 144.853C81.3432 152.991 99.6057 178.579 103.46 194.605C103.49 194.743 103.466 194.887 103.391 195.007C103.317 195.127 103.198 195.213 103.061 195.246L102.936 195.262Z" fill="white"/>
<path d="M244.446 35.848C244.353 35.8469 244.262 35.8227 244.18 35.7777L241.983 34.5034C241.923 34.4685 241.87 34.422 241.827 34.3665C241.784 34.3111 241.753 34.2478 241.735 34.1803C241.717 34.1128 241.712 34.0424 241.721 33.9731C241.73 33.9037 241.753 33.8369 241.788 33.7763C241.823 33.7157 241.869 33.6626 241.925 33.62C241.98 33.5774 242.043 33.5462 242.111 33.528C242.178 33.5099 242.249 33.5052 242.318 33.5143C242.388 33.5233 242.454 33.546 242.515 33.5809L244.712 34.8552C244.772 34.89 244.826 34.9365 244.868 34.9919C244.911 35.0473 244.942 35.1106 244.96 35.1781C244.979 35.2457 244.983 35.3161 244.974 35.3855C244.965 35.4548 244.942 35.5217 244.907 35.5822C244.86 35.6632 244.793 35.7304 244.712 35.777C244.631 35.8237 244.539 35.8482 244.446 35.848Z" fill="white"/>
<path d="M102.436 82.2004V198.514C102.436 199.812 103.342 200.336 104.46 199.687L240.131 121.36C240.722 120.974 241.214 120.454 241.567 119.843C241.92 119.232 242.124 118.546 242.164 117.842V1.52821C242.164 0.230451 241.249 -0.293344 240.131 0.355536L104.46 78.6823C103.87 79.0684 103.379 79.5881 103.027 80.1993C102.676 80.8106 102.473 81.4961 102.436 82.2004Z" fill="#455A64"/>
<path d="M118.312 103.684C118.312 107.741 121.338 109.273 125.083 107.116L232.633 45.0188V30.3525L125.083 92.4417C121.338 94.6072 118.312 99.6341 118.312 103.684Z" fill="#F5F5F5"/>
<path d="M241.782 25.0911C245.519 22.9334 248.552 24.4657 248.552 28.5153C248.552 32.565 245.519 37.5997 241.782 39.7574L232.674 45.0188V30.3525L241.782 25.0911Z" fill="#101B94"/>
<path d="M238.5 37.451C238.111 37.4565 237.727 37.3566 237.39 37.1617C236.974 36.8837 236.642 36.4987 236.427 36.0474C236.213 35.5961 236.124 35.0951 236.17 34.5975C236.226 33.3739 236.575 32.1816 237.187 31.1205C237.799 30.0595 238.657 29.1608 239.688 28.4996C240.082 28.1785 240.564 27.9849 241.07 27.9445C241.577 27.904 242.084 28.0188 242.523 28.2734C242.963 28.528 243.315 28.9104 243.532 29.3698C243.748 29.8291 243.82 30.3437 243.738 30.8449C243.68 32.0681 243.33 33.2597 242.718 34.3204C242.106 35.3811 241.25 36.2802 240.22 36.9428C239.701 37.26 239.108 37.4352 238.5 37.451ZM241.4 29.0468C240.981 29.0676 240.574 29.1969 240.22 29.4221C239.356 29.9957 238.637 30.7615 238.119 31.6594C237.601 32.5572 237.298 33.5629 237.233 34.5975C237.153 34.9088 237.177 35.238 237.301 35.5346C237.425 35.8312 237.644 36.0788 237.922 36.2394C238.201 36.4 238.524 36.4648 238.843 36.4238C239.162 36.3828 239.459 36.2383 239.688 36.0125C240.553 35.4398 241.272 34.6742 241.79 33.7762C242.309 32.8781 242.611 31.872 242.675 30.8371C242.715 30.5271 242.672 30.212 242.551 29.9238C242.431 29.6355 242.236 29.3842 241.987 29.1954C241.808 29.0933 241.606 29.0419 241.4 29.0468Z" fill="white"/>
<path d="M243.346 57.1915L139.369 117.185C138.776 117.569 138.282 118.088 137.929 118.7C137.575 119.311 137.372 119.998 137.336 120.703V152.702C137.336 154 138.243 154.523 139.369 153.875L243.346 93.8571C243.938 93.4724 244.431 92.9531 244.784 92.3418C245.137 91.7304 245.341 91.0441 245.378 90.3391V58.3641C245.339 57.0664 244.432 56.5426 243.346 57.1915Z" fill="#101B94"/>
<path opacity="0.2" d="M243.346 57.1915L139.369 117.185C138.776 117.569 138.282 118.088 137.929 118.7C137.575 119.311 137.372 119.998 137.336 120.703V152.702C137.336 154 138.243 154.523 139.369 153.875L243.346 93.8571C243.938 93.4724 244.431 92.9531 244.784 92.3418C245.137 91.7304 245.341 91.0441 245.378 90.3391V58.3641C245.339 57.0664 244.432 56.5426 243.346 57.1915Z" fill="white"/>
<path d="M177.165 100.697L196.006 89.8147C196.944 89.2752 197.703 89.6583 197.703 90.6746C197.66 91.2428 197.484 91.793 197.19 92.2806C196.895 92.7682 196.49 93.1795 196.006 93.4812L177.165 104.364C176.227 104.903 175.469 104.52 175.469 103.504C175.511 102.936 175.687 102.385 175.982 101.898C176.276 101.41 176.682 100.999 177.165 100.697Z" fill="white"/>
<path d="M175.469 110.836C175.469 111.853 176.251 112.236 177.165 111.696L234.118 78.8145C234.601 78.5106 235.005 78.0976 235.298 77.6087C235.591 77.1198 235.766 76.5687 235.807 76C235.807 74.9915 235.025 74.6085 234.118 75.1479L177.165 108.03C176.682 108.331 176.276 108.743 175.982 109.23C175.687 109.718 175.511 110.268 175.469 110.836Z" fill="white"/>
<path d="M175.469 118.17C175.469 119.187 176.251 119.57 177.165 119.03L234.118 86.1484C234.601 85.8446 235.005 85.4316 235.298 84.9427C235.591 84.4538 235.766 83.9027 235.807 83.334C235.807 82.3255 235.025 81.9424 234.118 82.4819L177.165 115.364C176.682 115.665 176.276 116.077 175.982 116.564C175.687 117.052 175.511 117.602 175.469 118.17Z" fill="white"/>
<path d="M175.469 125.502C175.469 126.519 176.251 126.902 177.165 126.362L234.118 93.4805C234.601 93.1766 235.005 92.7636 235.298 92.2747C235.591 91.7858 235.766 91.2347 235.807 90.6661C235.807 89.6576 235.025 89.2745 234.118 89.8139L177.165 122.696C176.682 122.997 176.276 123.409 175.982 123.896C175.687 124.384 175.511 124.934 175.469 125.502Z" fill="white"/>
<path d="M142.574 119.015L167.09 104.857C168.216 104.216 169.123 104.739 169.123 106.029V130.679C169.085 131.384 168.881 132.07 168.528 132.681C168.174 133.292 167.682 133.812 167.09 134.197L142.574 148.347C141.456 148.996 140.541 148.472 140.541 147.182V122.533C140.579 121.828 140.782 121.141 141.136 120.53C141.489 119.919 141.982 119.399 142.574 119.015Z" fill="white"/>
<path d="M162.431 117.161L155.137 132.281L151.423 130.139C151.065 129.932 150.638 129.876 150.238 129.983C149.838 130.09 149.497 130.351 149.289 130.709L140.541 145.852V147.174C140.541 148.471 141.456 148.995 142.574 148.346L167.09 134.196C167.682 133.811 168.175 133.292 168.528 132.681C168.882 132.069 169.085 131.383 169.123 130.678V122.024L164.19 116.88C164.078 116.736 163.93 116.625 163.76 116.558C163.591 116.491 163.407 116.471 163.227 116.5C163.047 116.529 162.879 116.605 162.739 116.722C162.599 116.838 162.492 116.99 162.431 117.161Z" fill="#101B94"/>
<path d="M144.223 128.037C145.739 127.048 147 125.716 147.905 124.148C148.81 122.581 149.332 120.822 149.43 119.015C149.482 118.415 149.391 117.811 149.166 117.253C148.94 116.694 148.586 116.197 148.132 115.802L142.574 119.015C141.982 119.4 141.489 119.919 141.136 120.53C140.782 121.142 140.579 121.828 140.541 122.533V128.396C141.487 128.944 142.785 128.865 144.223 128.037Z" fill="#101B94"/>
<path d="M243.346 104.857L139.369 164.851C138.776 165.235 138.284 165.754 137.93 166.366C137.577 166.977 137.374 167.663 137.336 168.369V200.39C137.336 201.68 138.243 202.204 139.369 201.563L243.346 141.53C243.938 141.145 244.431 140.626 244.784 140.015C245.137 139.403 245.341 138.717 245.378 138.012V106.029C245.339 104.739 244.432 104.231 243.346 104.857Z" fill="#101B94"/>
<path opacity="0.2" d="M243.346 104.857L139.369 164.851C138.776 165.235 138.284 165.754 137.93 166.366C137.577 166.977 137.374 167.663 137.336 168.369V200.39C137.336 201.68 138.243 202.204 139.369 201.563L243.346 141.53C243.938 141.145 244.431 140.626 244.784 140.015C245.137 139.403 245.341 138.717 245.378 138.012V106.029C245.339 104.739 244.432 104.231 243.346 104.857Z" fill="white"/>
<path d="M177.165 148.362L196.006 137.488C196.944 136.948 197.703 137.331 197.703 138.34C197.661 138.909 197.486 139.461 197.191 139.95C196.897 140.439 196.491 140.852 196.006 141.154L177.165 152.029C176.227 152.568 175.469 152.185 175.469 151.177C175.51 150.607 175.685 150.055 175.98 149.566C176.275 149.077 176.681 148.665 177.165 148.362Z" fill="white"/>
<path d="M175.469 158.51C175.469 159.518 176.251 159.901 177.165 159.362L234.118 126.48C234.6 126.177 235.003 125.765 235.296 125.278C235.59 124.79 235.764 124.241 235.807 123.674C235.807 122.657 235.025 122.274 234.118 122.814L177.165 155.695C176.681 155.998 176.275 156.41 175.98 156.9C175.685 157.389 175.51 157.94 175.469 158.51Z" fill="white"/>
<path d="M175.469 165.844C175.469 166.852 176.251 167.235 177.165 166.696L234.118 133.814C234.6 133.511 235.003 133.099 235.296 132.612C235.59 132.124 235.764 131.575 235.807 131.008C235.807 129.991 235.025 129.608 234.118 130.148L177.165 163.029C176.681 163.332 176.275 163.744 175.98 164.234C175.685 164.723 175.51 165.274 175.469 165.844Z" fill="white"/>
<path d="M175.469 173.176C175.469 174.184 176.251 174.567 177.165 174.028L234.118 141.146C234.6 140.843 235.003 140.431 235.296 139.944C235.59 139.456 235.764 138.907 235.807 138.34C235.807 137.323 235.025 136.94 234.118 137.48L177.165 170.361C176.681 170.664 176.275 171.077 175.98 171.566C175.685 172.055 175.51 172.606 175.469 173.176Z" fill="white"/>
<path d="M142.574 166.687L167.09 152.529C168.216 151.88 169.123 152.404 169.123 153.702V178.344C169.087 179.049 168.883 179.736 168.53 180.347C168.177 180.959 167.683 181.478 167.09 181.862L142.574 196.02C141.456 196.669 140.541 196.145 140.541 194.847V170.205C140.579 169.5 140.782 168.814 141.136 168.203C141.489 167.591 141.982 167.072 142.574 166.687Z" fill="white"/>
<path d="M162.431 164.834L155.137 179.954L151.423 177.804C151.245 177.702 151.049 177.636 150.845 177.61C150.641 177.584 150.435 177.598 150.236 177.651C150.038 177.705 149.853 177.797 149.69 177.923C149.528 178.048 149.391 178.205 149.289 178.383L140.541 193.526V194.847C140.541 196.145 141.456 196.669 142.574 196.02L167.09 181.862C167.682 181.479 168.175 180.961 168.528 180.351C168.882 179.741 169.085 179.056 169.123 178.352V169.689L164.19 164.553C164.08 164.407 163.932 164.294 163.762 164.225C163.592 164.157 163.407 164.136 163.226 164.165C163.045 164.194 162.876 164.272 162.736 164.389C162.595 164.507 162.49 164.661 162.431 164.834Z" fill="#101B94"/>
<path d="M144.223 175.702C145.739 174.715 147 173.384 147.905 171.818C148.81 170.251 149.332 168.494 149.43 166.688C149.482 166.088 149.391 165.484 149.166 164.926C148.94 164.367 148.586 163.87 148.132 163.475L142.574 166.688C141.982 167.072 141.489 167.592 141.136 168.203C140.782 168.814 140.579 169.501 140.541 170.206V176.069C141.487 176.609 142.785 176.53 144.223 175.702Z" fill="#101B94"/>
<path d="M242.164 6.50817V1.52821C242.164 0.230451 241.249 -0.293344 240.131 0.355536L104.468 78.6823C103.876 79.067 103.383 79.5863 103.03 80.1976C102.677 80.809 102.473 81.4953 102.436 82.2004V87.1881L242.164 6.50817Z" fill="#101B94"/>
<path d="M225.521 10.6983C225.083 10.9855 224.72 11.3714 224.459 11.825C224.198 12.2786 224.048 12.7871 224.02 13.3095C224.02 14.2711 224.692 14.662 225.521 14.1772C225.96 13.894 226.327 13.5103 226.589 13.0576C226.851 12.605 227.002 12.0964 227.029 11.5739C227.029 10.6123 226.357 10.2214 225.521 10.6983Z" fill="#F5F5F5"/>
<path d="M231.501 7.28978C231.062 7.57609 230.697 7.96165 230.435 8.41527C230.173 8.86889 230.021 9.37783 229.992 9.90093C229.992 10.8625 230.672 11.2456 231.501 10.7687C231.941 10.4838 232.307 10.0986 232.57 9.64466C232.832 9.19075 232.983 8.68111 233.01 8.15756C233.01 7.15688 232.338 6.77381 231.501 7.28978Z" fill="#F5F5F5"/>
<path d="M237.48 3.80295C237.04 4.08616 236.673 4.46993 236.411 4.92258C236.149 5.37524 235.998 5.8838 235.971 6.40629C235.971 7.36788 236.643 7.75877 237.48 7.28188C237.917 6.99471 238.281 6.60878 238.541 6.15521C238.802 5.70164 238.952 5.19314 238.981 4.67073C238.981 3.70914 238.308 3.31824 237.48 3.80295Z" fill="#F5F5F5"/>
<path d="M244.33 249.033C244.566 249.634 244.729 250.261 244.814 250.901C245.034 251.564 245.086 252.27 244.963 252.957C244.436 253.835 243.599 254.482 242.617 254.771C241.919 254.932 241.195 254.946 240.491 254.811C239.787 254.676 239.119 254.397 238.529 253.989C237.098 253.137 236.027 252.098 233.994 251.527C232.545 251.215 231.179 250.593 229.992 249.705C228.866 248.806 227.365 246.304 229.515 245.726C231.665 245.147 236.348 247.188 240.608 247.376L244.33 249.033Z" fill="#263238"/>
<path d="M244.124 246.218C244.124 246.218 244.374 249.204 244.374 249.572C244.374 250.58 240.653 251.917 239.965 249.572L239.371 246.398L244.124 246.218Z" fill="#F28F8F"/>
<path d="M239.558 180.697C240.837 182.579 242.009 184.531 243.068 186.545C243.068 186.545 243.435 190.892 243.435 193.784C243.435 199.1 242.614 203.205 241.872 213.681C243.081 215.741 243.773 218.064 243.889 220.451C244.201 225.196 244.209 225.142 244.24 247.032C243.528 247.416 242.746 247.654 241.941 247.732C241.135 247.81 240.322 247.726 239.55 247.485L232.514 216.831L231.732 204.8L229.527 189.844L239.558 180.697Z" fill="#37474F"/>
<path d="M222.907 254.512C223.157 254.77 223.071 255.294 223.188 256.154C223.318 256.815 223.352 257.492 223.29 258.163C222.879 259.093 222.138 259.836 221.21 260.25C220.536 260.494 219.818 260.595 219.102 260.548C218.386 260.501 217.688 260.306 217.051 259.977C215.534 259.304 214.338 258.413 212.251 258.093C210.774 257.965 209.342 257.52 208.053 256.787C206.825 256.005 205.019 253.738 207.083 252.878C209.147 252.018 214.323 253.558 218.568 253.214L222.907 254.512Z" fill="#263238"/>
<path d="M223.887 250.76C223.887 250.76 223.105 254.169 222.894 254.927C222.425 256.749 218.383 256.843 218.383 254.74L218.656 249.893L223.887 250.76Z" fill="#F28F8F"/>
<path d="M230.436 181.627C232.461 185.606 234.415 189.116 234.478 193.354C234.626 202.321 230.905 212.195 229.537 218.676C229.944 221.021 230.06 223.408 229.881 225.782C229.607 228.495 223.423 253.144 223.423 253.144C223.423 253.144 219.983 253.864 218.521 252.308L220.257 204.846L220.726 191.063L230.436 181.627Z" fill="#37474F"/>
<path d="M227.652 157.321L228.927 164.381L235.306 163.912L233.969 155.914L227.652 157.321Z" fill="#FFA8A7"/>
<path d="M242.036 163.396C241.403 161.481 238.971 159.394 236.564 159.847C232.947 160.462 229.382 161.35 225.9 162.505C223.672 163.287 221.639 165.233 221.452 172.567L220.756 191.017C221.719 191.873 222.875 192.485 224.125 192.799C227.51 193.729 229.746 194.284 234.891 193.159C241.59 191.697 243.185 187.639 243.185 187.639C243.185 187.639 242.927 177.875 242.724 172.567C242.56 168.056 242.466 164.717 242.036 163.396Z" fill="#455A64"/>
<path d="M224.932 148.307L192.449 139.496C189.509 138.988 188.282 146.165 191.222 146.665L224.58 150.035L224.932 148.307Z" fill="#263238"/>
<path d="M215.591 163.193L208.953 163.396C208.953 163.396 209.954 153.522 210.572 152.224C211.189 150.926 212.667 150.661 214.137 150.246C215.606 149.832 215.599 149.128 215.599 149.128L214.277 148.995C213.12 148.878 212.659 147.432 213.159 146.455C213.402 146.001 213.793 145.282 214.496 145.477L216.247 145.954C216.275 145.182 216.082 144.417 215.692 143.75C215.106 143.101 214.715 143.304 213.543 142.898C212.675 142.593 210.9 142.053 209.469 142.64C208.039 143.226 206.952 145.915 206.585 147.815C206.213 150.012 205.61 152.163 204.787 154.233C203.512 157.751 201.659 164.975 201.464 167.868C201.378 169.205 201.503 170.002 202.988 170.354C204.474 170.706 215.403 170.729 215.403 170.729L215.591 163.193Z" fill="#FFA8A7"/>
<path d="M222.932 148.965C222.932 148.965 221.369 151.248 221.587 151.498C221.941 151.733 222.332 151.905 222.744 152.006L222.932 148.965Z" fill="#FFA8A7"/>
<path d="M227.644 141.757C226.159 142.538 223.595 143.891 222.883 149.332C222.156 154.914 223.118 156.712 223.868 157.455C224.384 157.955 227.152 157.986 228.559 157.564C230.295 157.048 234.211 155.555 236.002 152.686C238.105 149.309 238.574 144.79 236.205 142.992C235 142.077 233.582 141.484 232.084 141.268C230.587 141.052 229.059 141.22 227.644 141.757Z" fill="#FFA8A7"/>
<path d="M232.016 209.122L235.401 199.553C238.025 198.623 240.376 197.054 242.241 194.987C242.241 194.987 241.46 197.716 236.112 200.515L232.399 209.568V214.602L232.016 209.122Z" fill="#263238"/>
<path d="M222.578 143.593C223.063 144.93 223.884 148.214 227.308 149.582C227.308 149.582 227.801 147.494 229.552 147.713C231.303 147.932 231.608 150.176 230.529 151.568C229.45 152.959 228.403 152.459 228.403 152.459C228.403 152.459 228.168 155.453 230.169 156.813C230.914 157.253 231.751 157.513 232.614 157.574C233.477 157.635 234.342 157.495 235.141 157.165C236.291 156.641 237.925 153.882 238.878 151.614C240.895 146.83 241.185 143.015 238.097 141.78C237.714 139.606 236.736 138.785 234.766 138.379C230.529 137.511 227.324 140.294 223.767 139.802C221.945 139.544 222.015 142.061 222.578 143.593Z" fill="#263238"/>
<path d="M238.2 142.538L240.201 141.295C240.027 141.052 239.766 140.883 239.472 140.825C239.178 140.766 238.873 140.821 238.618 140.979C238.364 141.138 238.179 141.387 238.101 141.676C238.023 141.966 238.059 142.274 238.2 142.538Z" fill="#263238"/>
<path d="M214.103 163.06C214.103 163.06 223.446 162.521 225.83 162.505C228.215 162.489 230.748 166.562 229.262 169.338C228.277 171.159 225.205 171.785 221.335 171.972C217.465 172.16 213.564 172.16 213.564 172.16C213.564 172.16 210.085 168.196 214.103 163.06Z" fill="#455A64"/>
<path d="M221.453 171.972C221.453 171.972 227.371 171.893 229.31 169.337C229.31 169.337 228.857 170.9 226.558 171.862C224.911 172.495 223.176 172.87 221.414 172.972L221.453 171.972Z" fill="#37474F"/>
<path d="M192.449 139.496C189.509 138.988 188.282 146.165 191.222 146.665L195.912 147.134C194.005 146.939 195.326 140.27 196.78 140.661L192.449 139.496Z" fill="#455A64"/>
<path d="M310.749 137.581C310.75 139.037 310.312 140.458 309.492 141.661C308.673 142.863 307.51 143.791 306.155 144.323C304.8 144.855 303.317 144.966 301.898 144.642C300.479 144.318 299.191 143.574 298.202 142.506L297.725 141.928C296.612 140.444 296.111 138.59 296.326 136.747C296.541 134.905 297.454 133.215 298.878 132.027C300.302 130.838 302.128 130.242 303.979 130.361C305.83 130.479 307.565 131.304 308.826 132.664L309.319 133.258C310.247 134.508 310.749 136.024 310.749 137.581Z" fill="#455A64"/>
<path d="M310.748 137.582C310.749 139.037 310.311 140.459 309.491 141.661C308.672 142.864 307.509 143.791 306.154 144.323C304.799 144.855 303.316 144.966 301.897 144.642C300.478 144.318 299.19 143.574 298.201 142.507L297.724 141.928L267.578 105.521L280.282 98.1875L308.825 132.648L309.318 133.243C310.249 134.497 310.751 136.019 310.748 137.582Z" fill="#455A64"/>
<path d="M285.811 127.535C287.077 128.863 288.8 129.66 290.632 129.766C292.463 129.873 294.267 129.279 295.678 128.107C297.089 126.934 298.002 125.269 298.233 123.449C298.463 121.629 297.994 119.789 296.92 118.302L293.191 113.807C294.306 115.291 294.807 117.147 294.592 118.991C294.377 120.835 293.462 122.526 292.036 123.715C290.61 124.903 288.781 125.498 286.929 125.377C285.076 125.256 283.341 124.427 282.082 123.063L285.811 127.535Z" fill="#101B94"/>
<path d="M279.798 40.9532C282.073 41.2065 284.274 41.9221 286.263 43.0562L277.093 37.7245C270.94 33.495 262.082 33.7452 252.24 39.4209C233.657 50.1548 218.584 76.2585 218.584 97.7263C218.584 108.272 222.172 115.809 228.09 119.389L228.216 119.468L238.003 125.104C236.268 123.975 234.755 122.536 233.539 120.859C235.951 121.123 238.39 120.983 240.755 120.445C241.615 120.257 242.483 120.031 243.367 119.749C243.251 119.714 243.138 119.67 243.03 119.616C242.56 119.396 242.11 119.134 241.686 118.834C240.916 118.298 240.231 117.65 239.653 116.911C238.863 115.9 238.221 114.781 237.745 113.589C237.109 113.681 236.466 113.728 235.822 113.729C234.301 113.76 232.791 113.458 231.397 112.846C231.072 112.697 230.756 112.527 230.451 112.338C230.178 112.166 229.904 111.963 229.67 111.759C229.104 109.113 228.829 106.413 228.849 103.707C228.849 82.247 243.922 56.1354 262.52 45.4016C264.895 44.0163 267.411 42.8894 270.025 42.0399C270.73 42.3277 271.392 42.709 271.995 43.1735C272.634 43.6632 273.209 44.2305 273.707 44.8621C274.5 45.8761 275.145 46.9974 275.623 48.1925C276.263 48.1029 276.908 48.0585 277.554 48.0596C279.321 48.0122 281.07 48.4358 282.62 49.287C283.012 49.5008 283.386 49.7466 283.738 50.0219C283.597 49.3965 283.449 48.7789 283.269 48.1925C282.563 45.5881 281.386 43.1346 279.798 40.9532Z" fill="#263238"/>
<path d="M286.265 43.056L285.733 42.7668C283.885 41.7988 281.873 41.1838 279.799 40.953C277.574 40.7049 275.324 40.8078 273.131 41.2579C272.074 41.4581 271.03 41.7192 270.004 42.0397C267.389 42.8892 264.873 44.0161 262.499 45.4014C243.9 56.1352 228.827 82.2468 228.827 103.707C228.807 106.413 229.083 109.113 229.648 111.759C229.75 112.236 229.867 112.689 229.984 113.143C230.681 115.91 231.89 118.522 233.549 120.843C234.29 121.865 235.142 122.801 236.09 123.634C236.694 124.166 237.337 124.652 238.013 125.088C244.15 129.052 252.867 128.708 262.483 123.142C281.082 112.408 296.154 86.3042 296.154 64.8365C296.146 54.1026 292.37 46.5584 286.265 43.056ZM282.59 49.3103C282.983 49.524 283.357 49.7698 283.708 50.0451C284.298 50.5239 284.835 51.0638 285.311 51.6556C287.656 54.5951 288.899 59.1685 288.899 64.8599C288.899 83.6227 275.14 107.483 258.855 116.888C254.751 119.233 250.803 120.515 247.449 120.515C246.05 120.531 244.662 120.266 243.368 119.733C243.253 119.698 243.14 119.654 243.032 119.6C242.562 119.38 242.112 119.118 241.688 118.819C241.16 118.448 240.673 118.024 240.233 117.552C240.038 117.349 239.85 117.122 239.663 116.895C238.872 115.884 238.23 114.765 237.755 113.573C236.564 110.418 235.996 107.062 236.082 103.691C236.082 103.441 236.082 103.199 236.082 102.909C236.426 84.2247 250.037 60.9041 266.11 51.6322C266.478 51.4211 266.853 51.21 267.228 51.0145C269.82 49.5667 272.651 48.5949 275.586 48.1454C276.225 48.0558 276.871 48.0114 277.517 48.0125C278.908 48.0005 280.287 48.2663 281.574 48.7943C281.927 48.9344 282.267 49.1044 282.59 49.3025V49.3103Z" fill="#455A64"/>
<path opacity="0.6" d="M285.753 62.6862C285.753 81.4489 271.994 105.309 255.709 114.714C251.605 117.059 247.665 118.341 244.303 118.341C242.907 118.358 241.521 118.092 240.23 117.559C240.035 117.356 239.847 117.129 239.659 116.903C238.869 115.891 238.227 114.773 237.752 113.58C236.561 110.425 235.993 107.07 236.079 103.698C236.079 103.448 236.079 103.206 236.079 102.917C236.423 84.2321 250.034 60.9115 266.107 51.6396C266.475 51.4285 266.85 51.2174 267.225 51.022C269.817 49.5741 272.648 48.6023 275.582 48.1528C276.222 48.0632 276.867 48.0188 277.513 48.0199C278.904 48.0079 280.284 48.2737 281.571 48.8017C281.782 49.0128 281.977 49.2395 282.165 49.4662C284.51 52.4213 285.753 56.9948 285.753 62.6862Z" fill="white"/>
</svg>
