<svg width="249" height="245" viewBox="0 0 249 245" fill="none" xmlns="http://www.w3.org/2000/svg">
<path d="M36.3879 223.996C-12.1293 195.984 -12.1293 150.563 36.3879 122.572C84.905 94.5816 163.57 94.5602 212.104 122.572C260.637 150.585 260.621 196.006 212.104 223.996C163.586 251.987 84.9104 252.014 36.3879 223.996Z" fill="#F5F5F5"/>
<path d="M75.2163 225.35C96.2708 225.35 113.339 215.497 113.339 203.342C113.339 191.188 96.2708 181.335 75.2163 181.335C54.1618 181.335 37.0938 191.188 37.0938 203.342C37.0938 215.497 54.1618 225.35 75.2163 225.35Z" fill="#E0E0E0"/>
<path d="M163.331 193.058C189.766 178.8 205.444 156.578 198.349 143.423C191.254 130.268 164.073 131.162 137.638 145.42C111.203 159.677 95.5251 181.899 102.62 195.054C109.715 208.209 136.896 207.315 163.331 193.058Z" fill="#E0E0E0"/>
<path d="M189.631 161.807C194.917 155.507 203.197 151.401 212.508 148.976C221.706 146.588 223.353 140.926 217.257 139.096C210.35 137.014 201.732 140.835 196.172 146.153C186.492 155.421 185.273 162.499 185.273 162.499L189.631 161.807Z" fill="#101B94"/>
<path opacity="0.15" d="M189.631 161.807C194.917 155.507 203.197 151.401 212.508 148.976C221.706 146.588 223.353 140.926 217.257 139.096C210.35 137.014 201.732 140.835 196.172 146.153C186.492 155.421 185.273 162.499 185.273 162.499L189.631 161.807Z" fill="black"/>
<path d="M186.91 161.425C186.871 161.433 186.83 161.433 186.792 161.425C186.76 161.41 186.731 161.388 186.708 161.362C186.685 161.335 186.667 161.304 186.655 161.271C186.644 161.237 186.639 161.202 186.641 161.167C186.643 161.132 186.653 161.097 186.668 161.065C194.514 144.966 211.89 141.006 216.097 141.307C216.167 141.312 216.233 141.345 216.279 141.398C216.325 141.451 216.348 141.521 216.344 141.591C216.337 141.662 216.303 141.727 216.249 141.773C216.195 141.819 216.125 141.842 216.054 141.838C211.933 141.527 194.873 145.449 187.151 161.302C187.125 161.341 187.089 161.373 187.046 161.395C187.004 161.416 186.957 161.427 186.91 161.425V161.425Z" fill="white"/>
<path d="M185.273 163.481C185.274 163.74 185.343 163.994 185.473 164.217C185.604 164.441 185.791 164.626 186.016 164.754C186.241 164.881 186.496 164.947 186.755 164.944C187.014 164.941 187.268 164.869 187.49 164.737C192.405 161.876 199.575 160.293 211.177 163.599C217.348 165.354 220.385 164.179 221.684 161.667C223.133 158.877 220.074 156.177 216.586 154.906C204.71 150.564 193.994 153.526 185.273 162.188V163.481Z" fill="#101B94"/>
<path d="M185.953 163.711C185.915 163.712 185.877 163.705 185.842 163.69C185.807 163.675 185.775 163.653 185.749 163.626C185.7 163.574 185.672 163.506 185.672 163.435C185.672 163.364 185.7 163.296 185.749 163.245C196.004 154.079 211.889 155.866 217.899 159.44C217.96 159.476 218.004 159.534 218.022 159.602C218.04 159.671 218.031 159.743 217.995 159.805C217.959 159.866 217.899 159.91 217.83 159.928C217.761 159.946 217.687 159.937 217.625 159.901C211.722 156.397 196.16 154.653 186.109 163.658C186.063 163.69 186.009 163.709 185.953 163.711V163.711Z" fill="white"/>
<path d="M70.5408 184.851C66.0331 177.971 58.2948 172.916 49.333 169.412C40.4893 165.956 39.5179 160.144 45.7858 159.039C52.8909 157.789 60.9994 162.602 65.8935 168.537C74.4153 178.884 74.7856 186.069 74.7856 186.069L70.5408 184.851Z" fill="#101B94"/>
<path opacity="0.15" d="M70.5408 184.851C66.0331 177.971 58.2948 172.916 49.333 169.412C40.4893 165.956 39.5179 160.144 45.7858 159.039C52.8909 157.789 60.9994 162.602 65.8935 168.537C74.4153 178.884 74.7856 186.069 74.7856 186.069L70.5408 184.851Z" fill="black"/>
<path d="M73.2658 184.809C73.3048 184.816 73.3449 184.816 73.3839 184.809C73.4509 184.784 73.5058 184.735 73.5368 184.671C73.5679 184.607 73.5727 184.533 73.5503 184.465C67.6473 167.556 50.8828 161.572 46.6541 161.39C46.5838 161.387 46.5152 161.412 46.463 161.459C46.4108 161.506 46.3792 161.572 46.3751 161.642C46.3735 161.713 46.3993 161.783 46.4472 161.836C46.4951 161.889 46.5615 161.921 46.6327 161.927C50.7647 162.098 67.2394 168.007 73.0405 184.658C73.0613 184.701 73.0932 184.738 73.1328 184.764C73.1724 184.79 73.2183 184.806 73.2658 184.809Z" fill="white"/>
<path d="M74.8223 185.742C74.7802 186.124 74.6406 186.488 74.4168 186.799C74.193 187.111 73.8927 187.36 73.5448 187.522C73.197 187.683 72.8132 187.753 72.4307 187.723C72.0482 187.694 71.6798 187.566 71.361 187.352C66.8103 184.304 60.0326 182.324 48.9297 184.132C42.5974 185.147 39.721 183.596 38.7336 180.972C37.6281 178.031 40.9875 175.718 44.599 174.865C56.9041 171.956 67.1967 176.163 74.833 185.785L74.8223 185.742Z" fill="#101B94"/>
<path d="M73.9768 187.186C74.0143 187.191 74.0525 187.188 74.0887 187.177C74.1248 187.166 74.1581 187.147 74.1861 187.121C74.2356 187.07 74.2633 187.002 74.2633 186.931C74.2633 186.86 74.2356 186.791 74.1861 186.74C65.0633 176.431 49.0984 176.329 42.7071 179.168C42.6417 179.197 42.5905 179.251 42.5648 179.318C42.5391 179.385 42.5411 179.46 42.5703 179.525C42.5995 179.591 42.6534 179.642 42.7204 179.667C42.7873 179.693 42.8617 179.691 42.9271 179.662C49.1897 176.877 64.8594 176.979 73.7837 187.094C73.807 187.123 73.8364 187.146 73.8699 187.162C73.9033 187.178 73.9399 187.186 73.9768 187.186V187.186Z" fill="white"/>
<path d="M194.442 62.2405L194.356 62.1975L173.9 50.4238L173.776 50.3647C164.219 45.535 151.468 46.9893 137.752 55.8545C110.201 73.6708 89.208 114.68 90.8608 147.453C91.6819 163.783 97.9819 174.982 107.496 179.908L107.577 179.951L128.039 191.73L128.135 191.784C137.693 196.614 150.454 195.181 164.181 186.305C191.732 168.489 212.725 127.479 211.072 94.7069C210.262 78.3663 203.962 67.1668 194.442 62.2405Z" fill="#37474F"/>
<path d="M127.336 191.349L107.604 179.941L107.508 179.882C97.9931 174.945 91.6984 163.745 90.872 147.437C90.1368 132.819 93.9093 116.575 100.746 101.49L100.88 101.157L121.208 113.264C114.36 128.349 110.599 144.592 111.334 159.21C112.112 175.197 118.16 186.262 127.336 191.349Z" fill="#263238"/>
<path d="M164.195 186.295C191.746 168.479 212.739 127.469 211.087 94.6968C209.434 61.9245 185.757 49.8073 158.207 67.6236C130.656 85.4398 109.657 126.449 111.31 159.216C112.963 191.983 136.645 204.111 164.195 186.295Z" fill="#455A64"/>
<path d="M187.524 59.6963L152.992 130.838L145.559 122.788C143.343 120.481 140.31 119.135 137.113 119.039C133.915 118.943 130.807 120.105 128.457 122.276C126.106 124.446 124.701 127.452 124.542 130.647C124.384 133.843 125.485 136.973 127.609 139.365L147.191 160.578C149.344 162.918 152.328 164.32 155.503 164.485C155.728 164.485 155.954 164.485 156.179 164.485C156.772 164.484 157.364 164.441 157.95 164.356C159.921 164.069 161.792 163.304 163.399 162.127C165.006 160.95 166.301 159.398 167.17 157.605L206.773 76.0368C202.711 66.9784 195.949 61.3652 187.524 59.6963Z" fill="#37474F"/>
<path d="M215.575 36.2663C215.36 36.1428 215.135 36.0248 214.909 35.9174C212.378 34.691 209.464 34.5186 206.806 35.4381C204.148 36.3576 201.963 38.294 200.731 40.8223L156.792 131.331L154.291 128.648C153.569 127.859 152.729 127.188 151.801 126.657C150.492 125.906 144.921 122.681 144.02 122.16C141.822 120.889 139.242 120.448 136.747 120.917C134.252 121.386 132.008 122.734 130.422 124.716C128.836 126.699 128.014 129.184 128.104 131.721C128.195 134.258 129.192 136.679 130.915 138.544L150.497 159.751C151.231 160.548 152.084 161.227 153.024 161.764C154.302 162.488 159.85 165.708 160.763 166.234C162.025 166.965 163.424 167.427 164.872 167.593C166.321 167.759 167.788 167.625 169.183 167.198C170.577 166.772 171.868 166.062 172.976 165.114C174.084 164.166 174.985 163 175.622 161.689L227.606 54.6138C228.775 52.2005 228.988 49.4346 228.203 46.8708C227.417 44.307 225.692 42.1349 223.372 40.7901L215.575 36.2663Z" fill="#101B94"/>
<path opacity="0.15" d="M215.575 36.2663C215.36 36.1428 215.135 36.0248 214.909 35.9174C212.378 34.691 209.464 34.5186 206.806 35.4381C204.148 36.3576 201.963 38.294 200.731 40.8223L156.792 131.331L154.291 128.648C153.569 127.859 152.729 127.188 151.801 126.657C150.492 125.906 144.921 122.681 144.02 122.16C141.822 120.889 139.242 120.448 136.747 120.917C134.252 121.386 132.008 122.734 130.422 124.716C128.836 126.699 128.014 129.184 128.104 131.721C128.195 134.258 129.192 136.679 130.915 138.544L150.497 159.751C151.231 160.548 152.084 161.227 153.024 161.764C154.302 162.488 159.85 165.708 160.763 166.234C162.025 166.965 163.424 167.427 164.872 167.593C166.321 167.759 167.788 167.625 169.183 167.198C170.577 166.772 171.868 166.062 172.976 165.114C174.084 164.166 174.985 163 175.622 161.689L227.606 54.6138C228.775 52.2005 228.988 49.4346 228.203 46.8708C227.417 44.307 225.692 42.1349 223.372 40.7901L215.575 36.2663Z" fill="black"/>
<path opacity="0.15" d="M160.729 166.212C159.827 165.675 154.289 162.455 152.996 161.742C152.055 161.204 151.203 160.526 150.468 159.729L130.886 138.522C130.023 137.579 129.337 136.488 128.863 135.302L136.65 139.793C137.122 140.984 137.812 142.076 138.684 143.013L158.26 164.221C158.98 165.003 159.812 165.673 160.729 166.212V166.212Z" fill="black"/>
<path opacity="0.15" d="M210.978 42.0566C209.955 42.9746 209.121 44.0827 208.521 45.3193L163.325 138.415L156.789 131.331L200.729 40.8223C201.328 39.5835 202.165 38.4748 203.192 37.5596L210.978 42.0566Z" fill="black"/>
<path d="M222.698 40.4148C220.167 39.1913 217.254 39.0204 214.597 39.9397C211.939 40.8589 209.755 42.7934 208.52 45.3197L163.325 138.415L154.293 128.627C152.361 126.664 149.74 125.529 146.985 125.465C144.231 125.4 141.56 126.41 139.537 128.281C137.514 130.152 136.299 132.736 136.149 135.487C135.998 138.238 136.924 140.939 138.731 143.019L158.308 164.233C159.479 165.5 160.943 166.463 162.571 167.037C164.2 167.611 165.943 167.779 167.651 167.526C169.359 167.273 170.98 166.608 172.372 165.587C173.764 164.566 174.886 163.22 175.641 161.668L227.625 54.5927C228.85 52.0591 229.019 49.1428 228.095 46.4844C227.172 43.8261 225.23 41.643 222.698 40.4148V40.4148Z" fill="#101B94"/>
<path d="M74.4554 50.8803C70.3609 50.8803 67.5596 51.9536 64.6511 56.0857C61.9679 59.8851 54.6482 72.5497 54.6482 72.5497C54.6482 72.5497 49.2818 61.5379 48.7452 59.3431C48.2086 57.1482 48.2408 56.1716 48.7452 55.2163C49.4838 54.0873 49.947 52.8006 50.0975 51.4599C50.3068 48.8197 50.9508 46.5604 50.3605 46.4853C48.7237 46.3941 48.6593 48.4977 47.8007 49.7373C47.6917 49.857 47.5559 49.9493 47.4046 50.0067C47.2532 50.0641 47.0904 50.085 46.9294 50.0678C46.7684 50.0505 46.6138 49.9956 46.478 49.9074C46.3422 49.8192 46.2291 49.7003 46.1479 49.5602C45.7883 48.825 45.9815 47.6176 45.8098 46.7482C45.8563 46.2645 45.9334 45.7841 46.0406 45.3101C46.6604 45.4216 47.2935 45.4397 47.9188 45.3637C48.6271 46.4746 49.1101 46.9414 50.0975 46.4907C50.2263 46.2867 49.6736 44.8808 49.0242 43.8075C48.9267 43.6433 48.7688 43.5238 48.5842 43.4748C47.3937 43.1733 46.1513 43.1385 44.9458 43.3728C44.8547 43.3822 44.7664 43.4098 44.6861 43.454C44.6059 43.4983 44.5355 43.5583 44.479 43.6304C44.0259 44.2942 43.6649 45.0162 43.4057 45.7769C43.3359 46.0077 43.1213 46.0023 43.0676 45.8038C42.531 43.2118 42.531 39.5305 42.531 37.8079C42.531 36.4502 40.5508 36.2356 40.481 38.1782C40.3634 40.7847 40.4082 43.396 40.6152 45.997C40.6152 46.2331 40.3791 46.3458 40.2825 46.0882C39.939 45.1705 39.0965 42.3961 38.7423 37.6094C38.6457 36.3214 36.5636 36.1121 36.5958 37.9206C36.6774 41.1269 37.0946 44.3158 37.8408 47.4351C37.9052 47.6605 37.6959 47.8591 37.5403 47.6015C36.5634 45.719 35.7829 43.7409 35.2113 41.6985C34.7659 40.1423 32.6891 40.5394 33.0647 42.4766C33.714 45.9487 34.7444 50.3383 36.2845 53.4776C37.9266 56.8316 39.3434 58.5113 40.159 61.1462C40.9747 63.781 44.3502 78.7049 47.9617 84.522C50.7898 89.0834 54.0257 88.6594 57.5084 86.2553C60.9912 83.8512 73.4358 66.5125 73.4358 66.5125L74.4554 50.8803Z" fill="#9E6767"/>
<path d="M54.6484 72.5428C54.6484 72.5428 56.3925 75.4996 56.6608 77.8662C57.1041 75.5684 56.6633 73.1879 55.4266 71.2012L54.6484 72.5428Z" fill="#874C4C"/>
<path d="M75.3254 50.8794C73.2433 50.6648 70.6513 50.595 67.7642 52.4142C64.8771 54.2334 63.8682 56.7663 62.4676 58.9826C61.067 61.1989 56.2266 69.0499 56.2266 69.0499C56.2266 69.0499 58.0028 76.5038 65.0649 78.0385L75.642 63.6889L75.3254 50.8794Z" fill="#455A64"/>
<path d="M84.8072 181.941C85.3438 181.872 86.0575 183.702 86.0683 184.297C86.079 184.893 85.478 186.175 84.6891 187.377C83.6347 188.809 82.7606 190.364 82.0864 192.009C81.48 193.661 80.922 194.745 79.2316 196.908C77.3533 199.318 72.9422 203.348 66.245 201.598C64.6082 201.169 63.7926 200.654 63.1969 200.058C62.9355 199.794 62.7533 199.462 62.6708 199.1C62.5883 198.738 62.6088 198.359 62.73 198.008L84.8072 181.941Z" fill="#263238"/>
<path d="M71.6481 179.849V179.908C71.5713 180.409 71.5859 180.92 71.691 181.416C71.8751 182.894 71.7441 184.394 71.3066 185.817C70.8691 187.241 70.135 188.556 69.1527 189.675C68.2198 190.649 67.1667 191.5 66.0188 192.208C62.6272 194.354 62.2623 195.819 62.7399 198.009C63.8776 200.558 71.5676 202.109 75.9895 198.315C77.8974 196.834 79.356 194.851 80.202 192.589C80.8438 190.968 81.5895 189.391 82.4345 187.867C83.2877 186.257 84.9083 184.443 84.9566 182.785C84.9835 181.872 84.0819 180.177 83.2072 178.781C82.4022 177.499 81.5705 176.281 80.846 176.42L81.0499 177.145C80.4435 177.772 79.5688 178.009 79.0429 178.754C78.3882 179.661 78.4097 180.901 78.0072 181.921C77.9941 181.973 77.9694 182.022 77.9351 182.064C77.9008 182.105 77.8576 182.139 77.8087 182.162C77.752 182.172 77.6938 182.163 77.6426 182.137C77.5914 182.11 77.5499 182.069 77.5242 182.017C77.4804 181.912 77.4603 181.798 77.4652 181.685L77.4169 180.123C77.4411 179.823 77.3615 179.524 77.1915 179.275C76.7729 178.803 75.7426 178.856 75.1684 178.835C74.3955 178.841 73.6235 178.888 72.8555 178.975C72.5893 178.948 72.3226 179.019 72.1042 179.173C71.8849 179.345 71.7253 179.581 71.6481 179.849V179.849Z" fill="#37474F"/>
<path d="M60.2823 148.649C62.0693 154.526 70.4247 174.869 70.9237 176.093L72.5873 180.128C73.6828 180.489 74.8566 180.539 75.9789 180.273C76.1559 182.221 76.4511 185.275 76.5638 186.815C76.6067 188.602 76.7623 190.813 76.376 192.578C76.0486 194.081 75.6676 195.659 75.3832 197.167C75.2598 197.832 75.1363 198.503 75.0344 199.174C74.8612 199.876 74.9196 200.616 75.2007 201.283C75.3719 201.574 75.5979 201.829 75.8662 202.034C77.0581 202.97 78.5645 203.412 80.0734 203.268C80.8712 203.23 81.6432 202.974 82.3058 202.528C83.6044 201.599 84.0606 199.984 84.7206 198.61C85.4397 197.124 85.209 196.957 85.2573 195.363C85.3002 194.247 85.6115 191.414 86.0569 188.452C86.5023 185.489 88.4234 175.079 89.3464 164.706C89.7226 160.098 89.7226 155.468 89.3464 150.86C96.6769 130.946 99.9396 119.102 100.9 112.491C101.871 105.772 101.405 103.368 101.281 99.5098L65.6325 100.368C62.7776 118.796 57.8835 140.772 60.2823 148.649Z" fill="#9E6767"/>
<path d="M59.7244 133.946C60.4596 127.174 65.5254 101.142 65.5254 101.142H101.437C101.437 101.142 101.668 106.138 101.603 108.434C101.539 110.731 100.798 114.922 99.5159 120.24C98.2333 125.558 93.4788 140.568 92.5397 142.779C91.6005 144.99 89.8565 151.403 89.8565 151.403C90.7366 163.445 88.4451 174.253 86.7279 188.618C86.7279 188.618 86.2288 190.556 81.1415 190.175C76.1938 189.799 75.1956 187.974 75.1956 187.974L74.8683 175.584C74.8683 175.584 72.1851 176.41 70.5752 176.034C70.5752 176.034 59.9444 149.788 59.4293 148.21C58.9141 146.632 58.9892 140.718 59.7244 133.946Z" fill="#101B94"/>
<path opacity="0.45" d="M59.7244 133.946C60.4596 127.174 65.5254 101.142 65.5254 101.142H101.437C101.437 101.142 101.668 106.138 101.603 108.434C101.539 110.731 100.798 114.922 99.5159 120.24C98.2333 125.558 93.4788 140.568 92.5397 142.779C91.6005 144.99 89.8565 151.403 89.8565 151.403C90.7366 163.445 88.4451 174.253 86.7279 188.618C86.7279 188.618 86.2288 190.556 81.1415 190.175C76.1938 189.799 75.1956 187.974 75.1956 187.974L74.8683 175.584C74.8683 175.584 72.1851 176.41 70.5752 176.034C70.5752 176.034 59.9444 149.788 59.4293 148.21C58.9141 146.632 58.9892 140.718 59.7244 133.946Z" fill="black"/>
<path opacity="0.2" d="M74.9618 118.109C69.8745 113.526 68.7422 109.877 68.7422 109.877C71.2999 112.758 74.3284 115.185 77.6986 117.052C77.6986 117.052 72.8689 142.553 73.2231 147.796C73.5773 153.038 74.8706 175.583 74.8706 175.583C74.8706 175.797 71.4468 151.74 71.3449 149.824C71.1141 144.753 74.9618 118.109 74.9618 118.109Z" fill="black"/>
<path d="M86.1332 201.384C86.6322 201.529 86.5678 203.021 86.3425 203.579C85.784 204.552 84.9931 205.373 84.0403 205.967C82.6441 206.918 81.4795 208.17 80.6327 209.632C79.2548 211.739 77.4323 213.52 75.2931 214.848C72.4439 216.465 69.0857 216.935 65.902 216.163C62.532 215.208 62.2207 214.381 62.2476 213.109L86.1332 201.384Z" fill="#263238"/>
<path d="M75.7318 193.581C74.8463 197.874 73.3062 201.03 69.7375 203.68C66.8934 205.795 64.8327 206.868 62.5627 208.752C61.6022 209.557 61.5217 211.269 62.2569 213.115C63.7916 214.343 65.9704 215.052 68.895 215.046C72.1685 215.046 73.4242 214.461 75.3025 213.179C76.2251 212.548 77.0842 211.829 77.8676 211.032C79.4399 209.455 80.5507 207.507 81.6669 206.256C82.7831 205.006 85.257 203.729 85.96 202.221C86.3464 201.394 86.1854 199.479 85.9278 197.847C85.6917 196.35 86.1478 193.721 85.4288 193.554L85.3268 194.627C85.2678 194.869 85.1175 194.992 84.6131 195.164C84.1597 195.262 83.692 195.275 83.2339 195.202C83.0711 195.143 82.8939 195.136 82.7274 195.184C82.5608 195.231 82.4132 195.329 82.3055 195.465C81.8226 196.033 81.6938 196.838 81.0713 197.311C81.031 197.346 80.9833 197.372 80.9318 197.386C80.9078 197.399 80.8806 197.406 80.8532 197.405C80.8258 197.404 80.7991 197.395 80.7761 197.38C80.7595 197.354 80.7485 197.325 80.7439 197.295C80.7393 197.264 80.7411 197.233 80.7493 197.203L80.9264 195.593C80.9478 195.433 80.9478 195.271 80.9264 195.11C80.8927 194.961 80.8274 194.82 80.7348 194.698C80.6423 194.576 80.5246 194.475 80.3898 194.402C79.9378 194.139 79.4522 193.939 78.9462 193.806C78.4197 193.663 77.8805 193.572 77.3363 193.533C76.8022 193.464 76.2607 193.481 75.7318 193.581Z" fill="#455A64"/>
<path d="M98.1931 52.4205C98.1931 52.4205 99.6688 54.449 100.876 58.6294C102.346 65.4949 103.101 72.4942 103.13 79.5152C103.13 88.9975 101.853 104.361 101.853 104.361C90.8465 109.878 73.0947 106.615 65.2812 101.233C65.5979 99.5263 65.8662 90.5538 66.4833 84.6347C66.8965 74.4816 67.24 69.1635 67.3097 64.6451C67.4546 55.6189 71.9463 50.9555 75.3593 50.8857L83.9776 51.0199L98.1931 52.4205Z" fill="#101B94"/>
<path d="M100.915 101.576C99.278 102.923 96.085 105.51 95.4786 106.814C94.8025 108.306 94.4054 110.57 93.9492 111.418C93.4931 112.266 94.18 112.695 95.1244 112.389C96.0689 112.083 96.6324 111.284 97.3622 109.331C98.092 107.377 100.121 105.848 100.121 105.848L100.915 101.576Z" fill="#874C4C"/>
<path d="M94.935 119.14C95.3268 119.896 96.2391 119.902 97.0816 119.966C98.1087 120.084 99.1492 119.967 100.124 119.623C101.296 119.284 102.324 118.57 103.049 117.589C103.875 116.398 104.09 114.906 104.562 113.537C105.55 110.666 108.49 108.595 108.973 105.552C109.172 104.296 109.172 102.815 109.51 102.037C109.719 101.576 114.554 93.2525 116.282 89.6463C117.935 86.1796 119.175 84.5483 117.672 80.384C116.17 76.2197 111.056 61.5642 107.433 56.4715C105.383 53.5844 102.126 52.758 98.1763 52.4199C95.1712 60.2441 98.6646 68.3311 98.6646 68.3311L106.639 83.6682C106.639 83.6682 103.548 94.2292 101.616 100.1C101.08 101.71 100.006 102.74 98.7773 104.549C98.2407 105.332 97.0279 106.695 96.5986 107.548C96.062 108.622 96.062 109.33 95.7937 110.849C95.3751 113.269 94.7257 118.78 94.935 119.14Z" fill="#9E6767"/>
<path d="M97.776 52.3779C99.8528 52.4584 102.836 52.8126 104.618 53.7141C106.4 54.6157 107.639 55.7265 109.689 59.8372C111.739 63.9478 114.739 71.9329 114.739 71.9329C114.739 71.9329 113.746 77.9593 104.216 79.5209L97.776 67.6452C97.776 67.6452 94.905 60.245 97.776 52.3779Z" fill="#455A64"/>
<path d="M73.0105 33.1978C73.2921 33.707 73.536 34.2361 73.7403 34.7809C74.0578 35.4925 74.4634 36.1614 74.9477 36.7718C76.182 38.1939 77.9153 39.235 79.4984 40.2438C80.4536 40.8556 81.5483 41.4298 82.7182 41.2634C83.8881 41.0971 85.1921 41.3493 86.3995 41.4566L90.6228 41.8376L90.3867 46.2756C90.3867 46.2756 90.9234 45.1004 91.6263 43.6944C92.2381 42.487 94.8032 36.364 94.814 36.3371C96.0858 33.3051 97.5937 29.2589 96.0751 26.0713C95.7298 25.2863 95.1531 24.6255 94.4222 24.177C94.5693 23.6869 94.6167 23.1724 94.5617 22.6637C94.4773 21.9415 94.2319 21.2474 93.8437 20.6326C93.4555 20.0178 92.9344 19.4979 92.3186 19.1111C91.1167 18.2989 89.7619 17.7401 88.3368 17.469C86.4467 17.0343 84.5127 16.82 82.5733 16.8304C80.6731 16.8884 78.7811 17.1056 76.9172 17.4798C75.8775 17.6718 74.8241 17.7813 73.7671 17.8071C73.3118 17.837 72.8546 17.8154 72.4041 17.7427C71.8441 17.5754 71.2941 17.3765 70.7566 17.1471C70.7099 17.1274 70.6597 17.1173 70.609 17.1173C70.5584 17.1173 70.5082 17.1274 70.4615 17.1471C70.4188 17.1754 70.3829 17.2126 70.356 17.2561C70.3291 17.2996 70.312 17.3485 70.3058 17.3993C70.1663 18.0692 70.1721 18.7613 70.323 19.4288C70.4739 20.0963 70.7664 20.7237 71.1806 21.2684C70.9392 21.2355 70.7041 21.1667 70.4829 21.0645C70.2319 20.9483 69.9898 20.8138 69.7585 20.662C69.3646 20.398 69.0196 20.0675 68.7389 19.6853C68.7002 19.6255 68.6411 19.5816 68.5725 19.5619C68.4652 19.5619 68.3793 19.637 68.3149 19.7229C68.0253 20.1536 67.8281 20.6397 67.7357 21.1505C67.6434 21.6613 67.6579 22.1856 67.7783 22.6905C68.015 23.7039 68.4937 24.6448 69.1735 25.4327C68.8419 25.9685 68.6504 26.5792 68.6166 27.2084C68.5829 27.8377 68.7079 28.4653 68.9804 29.0335C69.219 29.5375 69.54 29.9982 69.9302 30.3966C70.4132 30.8903 71.0035 31.2928 71.4918 31.7543C72.0518 32.1755 72.5614 32.6599 73.0105 33.1978Z" fill="#37474F"/>
<path d="M85.876 25.8031C85.8604 26.6045 85.9635 27.4038 86.1819 28.1751C86.4365 28.8525 86.8464 29.4609 87.3786 29.9513C87.9806 30.4621 88.5372 31.0241 89.0422 31.631C89.5872 32.5757 89.9068 33.6335 89.9759 34.722C89.979 35.0426 90.0539 35.3585 90.195 35.6463C90.3362 35.9342 90.54 36.1868 90.7916 36.3856C91.94 37.0993 92.6269 35.7201 93.2386 35.044C94.0275 34.3142 96.3726 33.4341 97.4566 35.9133C98.5782 38.4892 96.5067 41.9022 94.6232 42.4281C91.3765 43.335 90.6682 41.1241 90.6682 41.1241L90.0457 52.7154C88.2157 56.1874 83.9119 57.2929 81.0839 56.7401C78.6422 56.2625 77.3006 54.5507 79.5974 52.0714L79.7208 48.5404C79.7208 48.5404 76.7908 48.8892 75.3794 48.6209C73.0236 48.1808 71.8591 46.1792 71.2205 43.5979C70.2063 39.4498 69.7394 35.0869 71.0005 25.7441C71.5747 25.4275 73.8983 27.236 77.4401 27.4774C80.3511 27.6826 83.264 27.1045 85.876 25.8031V25.8031Z" fill="#9E6767"/>
<path d="M79.6967 48.5299C79.6967 48.5299 85.0094 47.6391 86.8876 46.7161C87.9898 46.1853 88.9063 45.3343 89.5172 44.2744C89.2035 45.3448 88.6779 46.3412 87.9716 47.2044C86.5657 48.8841 79.6484 49.9359 79.6484 49.9359L79.6967 48.5299Z" fill="#874C4C"/>
<path d="M82.4609 29.9517L84.9348 30.7083C85.0294 30.3704 84.9895 30.0089 84.8234 29.6998C84.6574 29.3906 84.378 29.1578 84.044 29.0501C83.8809 29.0023 83.7098 28.9879 83.5409 29.0076C83.3721 29.0273 83.2089 29.0808 83.0612 29.165C82.9134 29.2491 82.7842 29.3621 82.681 29.4973C82.5779 29.6324 82.5031 29.787 82.4609 29.9517V29.9517Z" fill="#263238"/>
<path d="M81.6008 41.6709L77.957 42.9052C78.028 43.1487 78.1471 43.3755 78.3074 43.5721C78.4676 43.7688 78.6657 43.9312 78.89 44.0498C79.1142 44.1684 79.3599 44.2408 79.6127 44.2627C79.8654 44.2845 80.1199 44.2554 80.3612 44.177C80.8514 44.0002 81.2543 43.6406 81.4854 43.1734C81.7165 42.7063 81.7578 42.1679 81.6008 41.6709V41.6709Z" fill="#874C4C"/>
<path d="M81.3072 42.5615C80.8316 42.5619 80.3696 42.7202 79.9937 43.0116C79.6178 43.303 79.3494 43.7109 79.2305 44.1714C79.5982 44.2923 79.995 44.2923 80.3628 44.1714C80.7022 44.0514 81.0025 43.841 81.2313 43.563C81.4602 43.285 81.6088 42.9499 81.6614 42.5937C81.5446 42.5724 81.426 42.5616 81.3072 42.5615V42.5615Z" fill="#F28F8F"/>
<path d="M71.4156 30.3428L73.9324 30.0154C73.9133 29.8525 73.8617 29.695 73.7808 29.5523C73.6998 29.4096 73.5912 29.2846 73.4611 29.1845C73.3311 29.0845 73.1823 29.0115 73.0236 28.9699C72.8649 28.9283 72.6995 28.9188 72.5371 28.9422C72.2053 28.9852 71.9031 29.1552 71.6939 29.4163C71.4848 29.6775 71.385 30.0096 71.4156 30.3428V30.3428Z" fill="#263238"/>
<path d="M86.8906 31.415L95.1924 34.2431C94.7272 34.2485 94.2695 34.3606 93.8545 34.5709C93.4395 34.7812 93.0784 35.084 92.799 35.4559L86.9228 33.2235L86.8906 31.415Z" fill="#263238"/>
<path d="M72.6588 34.6569C72.6493 34.7904 72.6667 34.9245 72.7098 35.0513C72.753 35.178 72.8211 35.2948 72.9101 35.3948C72.9992 35.4949 73.1073 35.5761 73.2282 35.6336C73.349 35.6912 73.4802 35.724 73.614 35.7302C73.7472 35.7316 73.8793 35.7067 74.0029 35.6571C74.1265 35.6074 74.2391 35.5339 74.3343 35.4407C74.4295 35.3475 74.5054 35.2365 74.5576 35.114C74.6099 34.9915 74.6375 34.8598 74.6389 34.7266C74.6484 34.5931 74.631 34.459 74.5878 34.3323C74.5447 34.2055 74.4766 34.0887 74.3875 33.9887C74.2985 33.8887 74.1904 33.8075 74.0695 33.7499C73.9486 33.6923 73.8175 33.6595 73.6837 33.6534C73.5505 33.652 73.4184 33.6768 73.2948 33.7265C73.1712 33.7761 73.0586 33.8496 72.9634 33.9428C72.8682 34.036 72.7923 34.147 72.74 34.2696C72.6878 34.3921 72.6602 34.5237 72.6588 34.6569V34.6569Z" fill="#263238"/>
<path d="M82.1406 34.6574C82.1418 34.8521 82.2002 35.0422 82.3085 35.204C82.4169 35.3658 82.5705 35.4921 82.7501 35.5673C82.9297 35.6425 83.1275 35.6632 83.3188 35.6268C83.5101 35.5904 83.6865 35.4986 83.826 35.3627C83.9655 35.2269 84.062 35.053 84.1034 34.8627C84.1449 34.6724 84.1294 34.4742 84.059 34.2926C83.9886 34.1111 83.8664 33.9542 83.7075 33.8416C83.5487 33.729 83.3602 33.6656 83.1656 33.6592C82.8975 33.6564 82.6392 33.7598 82.4471 33.9468C82.2551 34.1338 82.1449 34.3893 82.1406 34.6574V34.6574Z" fill="#263238"/>
<path d="M68.2925 33.1867C68.0032 32.8575 67.8166 32.4508 67.7558 32.0168C67.7428 31.8145 67.796 31.6135 67.9073 31.444C68.0186 31.2746 68.1821 31.146 68.373 31.0777L68.9096 31.024C70.659 30.8631 72.9505 30.847 74.335 31.2977C76.079 31.8666 76.6318 32.4998 77.6567 32.4998C78.6817 32.4998 79.3203 31.9256 81.1556 31.4265C82.6206 31.0294 85.0677 31.126 86.9459 31.3568L87.5308 31.4319C87.735 31.5019 87.9106 31.6369 88.0308 31.8162C88.151 31.9955 88.2091 32.2092 88.1963 32.4247C88.133 32.8452 87.9462 33.2374 87.6596 33.5516C87.571 33.691 87.5092 33.8457 87.4772 34.0077C87.2947 34.7966 87.1981 36.3099 86.8278 37.1417C86.6547 37.5539 86.4094 37.9319 86.1034 38.2579C85.9903 38.3782 85.8663 38.4877 85.7331 38.5852C85.665 38.6384 85.5932 38.6868 85.5185 38.7301C85.3151 38.8543 85.0992 38.9568 84.8745 39.036L84.7618 39.0682C84.7055 39.0875 84.6482 39.1036 84.5901 39.1165L84.413 39.1594C84.224 39.2012 84.032 39.2281 83.8388 39.2399C83.7566 39.2454 83.6741 39.2454 83.5919 39.2399H83.2861C80.8873 39.2077 79.9106 38.0325 79.2774 36.8304C78.6442 35.6284 78.7408 33.9272 77.6675 33.9272H77.5602H77.4636C76.6586 34.1097 76.7874 35.6552 76.2937 36.7607C76.1095 37.1987 75.8538 37.6031 75.537 37.9574C75.4804 38.0239 75.4194 38.0866 75.3546 38.1452C75.3262 38.1779 75.2938 38.2067 75.258 38.2311L75.156 38.3115L75.0648 38.3867L74.9628 38.4564L74.8823 38.5047L74.8287 38.5423C74.5331 38.71 74.215 38.8347 73.8842 38.9126H73.7983C73.4173 38.9914 73.0281 39.0238 72.6392 39.0092C71.9091 39.0396 71.188 38.8393 70.5782 38.4366C69.9685 38.0339 69.501 37.4494 69.2423 36.766C68.8613 35.9182 68.6949 34.4048 68.5018 33.6053C68.4636 33.452 68.3922 33.3091 68.2925 33.1867Z" fill="#263238"/>
<path d="M77.9613 33.9552L77.7735 40.8563L73.9258 39.7401L77.5159 33.8961C77.6669 33.8817 77.8192 33.9019 77.9613 33.9552V33.9552Z" fill="#874C4C"/>
<path d="M131.765 34.8276C142.746 34.8276 151.647 27.0312 151.647 17.4138C151.647 7.79642 142.746 0 131.765 0C120.784 0 111.883 7.79642 111.883 17.4138C111.883 27.0312 120.784 34.8276 131.765 34.8276Z" fill="#101B94"/>
<path d="M115.896 27.4863C115.784 29.8207 113.809 33.9957 110.24 35.5359C110.192 35.5561 110.152 35.5909 110.126 35.6352C110.099 35.6795 110.086 35.7312 110.091 35.7828C110.095 35.8345 110.115 35.8835 110.149 35.923C110.182 35.9624 110.227 35.9903 110.278 36.0027C112.318 36.4548 114.445 36.3016 116.399 35.5619C118.354 34.8221 120.049 33.5281 121.279 31.8384L115.896 27.4863Z" fill="#101B94"/>
<path d="M118.287 16.0341C118.332 15.2709 118.514 14.522 118.824 13.8231C119.116 13.1394 119.551 12.5263 120.101 12.0254C120.681 11.4942 121.359 11.0806 122.097 10.8073C123.867 10.2062 125.785 10.2062 127.555 10.8073C128.3 11.0793 128.985 11.493 129.572 12.0254C130.12 12.5366 130.551 13.1586 130.839 13.85C131.149 14.5488 131.331 15.2977 131.376 16.0609C131.402 16.6619 131.413 17.2898 131.413 17.9445C131.413 18.5992 131.413 19.2163 131.376 19.7852C131.331 20.5483 131.149 21.2972 130.839 21.9961C130.544 22.6811 130.109 23.2971 129.562 23.8046C128.978 24.3421 128.292 24.7564 127.544 25.0227C125.772 25.6093 123.858 25.6093 122.086 25.0227C121.342 24.7569 120.659 24.3424 120.079 23.8046C119.531 23.2986 119.096 22.6823 118.802 21.9961C118.492 21.2972 118.31 20.5483 118.266 19.7852C118.239 19.2163 118.223 18.5992 118.223 17.9445C118.223 17.2898 118.26 16.6351 118.287 16.0341ZM127.464 19.6564C127.464 19.4041 127.49 19.1197 127.506 18.8192C127.523 18.5187 127.506 18.1967 127.506 17.8747C127.506 17.5528 127.506 17.2415 127.506 16.941C127.506 16.6405 127.474 16.4044 127.464 16.136C127.44 15.8064 127.366 15.4823 127.243 15.1755C127.128 14.8887 126.956 14.6279 126.739 14.4081C126.51 14.1832 126.235 14.0095 125.934 13.8983C125.202 13.648 124.407 13.648 123.675 13.8983C123.373 14.0107 123.097 14.1842 122.865 14.4081C122.649 14.6281 122.479 14.889 122.365 15.1755C122.243 15.4823 122.169 15.8064 122.145 16.136C122.112 16.4031 122.094 16.6719 122.092 16.941C122.092 17.2415 122.092 17.5528 122.092 17.8747C122.092 18.1967 122.092 18.508 122.092 18.8192C122.095 19.099 122.112 19.3785 122.145 19.6564C122.178 20.3014 122.432 20.9155 122.865 21.3951C123.122 21.6383 123.427 21.8251 123.761 21.9434C124.094 22.0617 124.449 22.1089 124.802 22.082C125.153 22.11 125.507 22.0634 125.839 21.945C126.171 21.8266 126.474 21.6391 126.728 21.3951C127.157 20.9116 127.415 20.3008 127.464 19.6564V19.6564Z" fill="#FAFAFA"/>
<path d="M146.246 24.5337C146.291 24.602 146.312 24.6832 146.305 24.7645C146.306 24.8244 146.295 24.884 146.272 24.9393C146.249 24.9947 146.214 25.0448 146.171 25.0865C146.13 25.1303 146.08 25.1653 146.025 25.1893C145.969 25.2132 145.91 25.2257 145.849 25.226H142.49C142.32 25.2322 142.152 25.1874 142.007 25.0972C141.867 24.9954 141.741 24.8764 141.631 24.743L137.66 19.7523V24.6518C137.658 24.7965 137.602 24.9351 137.502 25.0403C137.403 25.1456 137.268 25.2099 137.124 25.2206H134.376C134.302 25.2211 134.228 25.2061 134.159 25.1765C134.091 25.147 134.03 25.1035 133.979 25.0489C133.925 24.9978 133.883 24.9361 133.854 24.8678C133.826 24.7994 133.811 24.7259 133.813 24.6518V11.1339C133.811 11.0599 133.826 10.9863 133.854 10.918C133.883 10.8496 133.925 10.788 133.979 10.7368C134.03 10.6822 134.091 10.6387 134.159 10.6092C134.228 10.5796 134.302 10.5646 134.376 10.5651H137.124C137.268 10.5758 137.403 10.6401 137.502 10.7454C137.602 10.8506 137.658 10.9893 137.66 11.1339V15.5504L141.347 11.0266C141.431 10.9255 141.521 10.8288 141.615 10.7368C141.775 10.6071 141.979 10.5454 142.184 10.5651H145.447C145.508 10.5646 145.569 10.5768 145.625 10.6008C145.681 10.6248 145.732 10.6601 145.774 10.7046C145.817 10.7463 145.851 10.7964 145.875 10.8518C145.898 10.9071 145.909 10.9666 145.908 11.0266C145.914 11.1086 145.891 11.1901 145.844 11.2574L140.692 17.6058L146.246 24.5337Z" fill="#FAFAFA"/>
<path d="M183.067 33.8803L180.056 34.7872L177.883 27.5265L180.883 26.625L183.067 33.8803Z" fill="#E0E0E0"/>
<path d="M192.462 27.4341C192.487 27.7286 192.418 28.0235 192.265 28.2762C192.112 28.5289 191.882 28.7263 191.609 28.8401C191.805 29.062 191.949 29.3239 192.033 29.6075C192.205 30.1441 191.749 30.9222 190.842 31.2174L183.957 33.2888L181.934 26.5433C181.934 26.5433 183.098 23.565 183.157 23.1142C183.216 22.6634 182.529 21.0106 182.433 20.6993C182.336 20.3881 183.452 19.9803 184.332 20.3344C184.537 20.4254 184.72 20.559 184.869 20.7262C185.186 21.0633 185.451 21.4447 185.658 21.8585C185.95 22.4482 186.094 23.1003 186.076 23.7582L190.246 22.4863C190.534 22.3822 190.849 22.3822 191.137 22.4863C191.325 22.5608 191.491 22.6826 191.619 22.8401C191.746 22.9976 191.831 23.1853 191.864 23.3851C191.898 23.5849 191.879 23.79 191.81 23.9804C191.741 24.1708 191.623 24.3401 191.47 24.4719C191.718 24.4539 191.965 24.5198 192.171 24.6589C192.377 24.798 192.531 25.0024 192.607 25.2393C192.671 25.5146 192.637 25.8035 192.512 26.0569C192.387 26.3103 192.178 26.5125 191.92 26.6292C192.199 26.817 192.393 27.1056 192.462 27.4341V27.4341Z" fill="#E0E0E0"/>
<path d="M226.202 109.165L222.344 108.237L224.592 98.9316L228.451 99.86L226.202 109.165Z" fill="#E0E0E0"/>
<path d="M240.568 108.119C240.407 108.456 240.145 108.733 239.817 108.912C239.489 109.09 239.113 109.16 238.743 109.111C238.813 109.478 238.803 109.855 238.716 110.217C238.545 110.941 237.562 111.473 236.403 111.188L227.57 109.042L229.652 100.397C229.652 100.397 232.824 97.8904 233.173 97.4343C233.522 96.9781 233.822 94.7511 233.919 94.3379C234.015 93.9247 235.491 94.2037 236.226 95.1536C236.405 95.3843 236.529 95.652 236.591 95.9371C236.722 96.505 236.769 97.0889 236.731 97.6704C236.672 98.5011 236.415 99.3056 235.979 100.015L241.314 101.303C241.692 101.384 242.03 101.595 242.269 101.899C242.401 102.073 242.495 102.273 242.544 102.486C242.593 102.698 242.596 102.919 242.553 103.133C242.482 103.415 242.333 103.672 242.123 103.874C241.914 104.076 241.652 104.215 241.367 104.276C241.649 104.415 241.877 104.644 242.013 104.927C242.15 105.21 242.187 105.531 242.118 105.838C242.01 106.177 241.788 106.469 241.49 106.664C241.192 106.859 240.836 106.947 240.482 106.911C240.666 107.287 240.697 107.72 240.568 108.119V108.119Z" fill="#E0E0E0"/>
<path d="M31.3047 103.6L35.5173 104.867L38.5654 94.703L34.3581 93.4365L31.3047 103.6Z" fill="#E0E0E0"/>
<path d="M18.1421 94.5679C18.107 94.9807 18.2039 95.3939 18.4191 95.7479C18.6342 96.1019 18.9563 96.3784 19.3388 96.5374C19.0683 96.8494 18.8671 97.2152 18.7485 97.6106C18.507 98.3995 19.151 99.4567 20.4121 99.8323L30.0715 102.736L32.8942 93.2746C32.8942 93.2746 31.2574 89.0996 31.1769 88.4449C31.0965 87.7902 32.0624 85.5042 32.1912 85.0641C32.2985 84.7099 30.7637 84.0606 29.508 84.5597C29.2094 84.6767 28.9415 84.8602 28.7245 85.0963C28.2786 85.5755 27.9061 86.118 27.6191 86.7062C27.2079 87.5396 27.0053 88.4604 27.0288 89.3894L21.2331 87.64C20.8244 87.5055 20.3812 87.5208 19.9827 87.6829C19.7186 87.7868 19.486 87.9575 19.3074 88.1781C19.1289 88.3988 19.0106 88.662 18.9642 88.942C18.9177 89.222 18.9446 89.5093 19.0422 89.7758C19.1398 90.0423 19.3049 90.279 19.5212 90.4627C19.171 90.4326 18.8209 90.5225 18.5284 90.7175C18.2359 90.9125 18.0183 91.2011 17.9113 91.5359C17.8221 91.9223 17.869 92.3277 18.044 92.6836C18.219 93.0394 18.5114 93.324 18.8719 93.4893C18.5042 93.7468 18.2444 94.1308 18.1421 94.5679Z" fill="#E0E0E0"/>
</svg>
