<svg width="270" height="245" viewBox="0 0 270 245" fill="none" xmlns="http://www.w3.org/2000/svg">
<path d="M39.4471 224.391C92.04 251.87 177.322 251.87 229.915 224.391C282.508 196.912 282.514 152.363 229.915 124.885C177.316 97.406 92.04 97.406 39.4471 124.885C-13.1459 152.363 -13.1521 196.912 39.4471 224.391Z" fill="#F5F5F5"/>
<path d="M175.784 217.441C191.644 217.441 204.501 211.313 204.501 203.755C204.501 196.196 191.644 190.069 175.784 190.069C159.924 190.069 147.066 196.196 147.066 203.755C147.066 211.313 159.924 217.441 175.784 217.441Z" fill="#EBEBEB"/>
<path d="M226.656 186.228C238.892 186.228 248.811 181.501 248.811 175.669C248.811 169.838 238.892 165.111 226.656 165.111C214.419 165.111 204.5 169.838 204.5 175.669C204.5 181.501 214.419 186.228 226.656 186.228Z" fill="#EBEBEB"/>
<path d="M68.7473 172.711C67.4963 166.106 62.9176 156.692 57.3317 151.444C51.9586 146.402 43.9833 144.645 40.8057 146.972C37.6281 149.298 39.7111 154.328 45.8786 160.458C52.8406 167.369 66.2077 186.548 68.7473 197.413V172.711Z" fill="#101B94"/>
<g opacity="0.2">
<path d="M68.7473 172.711C67.4963 166.106 62.9176 156.692 57.3317 151.444C51.9586 146.402 43.9833 144.645 40.8057 146.972C37.6281 149.298 39.7111 154.328 45.8786 160.458C52.8406 167.369 66.2077 186.548 68.7473 197.413V172.711Z" fill="black"/>
</g>
<path d="M68.7459 188.606C68.6676 188.604 68.5924 188.574 68.5347 188.521C68.477 188.468 68.4409 188.396 68.4332 188.318C66.8569 171.679 55.2224 152.976 44.0383 149.079C43.9602 149.051 43.8962 148.993 43.86 148.919C43.8238 148.844 43.8182 148.758 43.8444 148.679C43.8727 148.601 43.9304 148.537 44.0052 148.501C44.0799 148.465 44.1658 148.459 44.2447 148.485C55.8417 152.52 67.4449 171.11 69.0712 188.261C69.0783 188.344 69.0528 188.426 69.0003 188.491C68.9477 188.555 68.8722 188.596 68.7897 188.606H68.7459Z" fill="white"/>
<path d="M68.7476 205.4C68.7476 205.4 66.5833 207.127 59.3649 206.451C52.1465 205.776 48.4247 200.615 48.4247 198.401C48.4247 196.187 55.0614 195.805 56.5001 190.313C55.0366 191.881 53.0898 192.914 50.9706 193.247C47.2175 193.953 44.2025 192.752 43.3456 185.916C45.1953 186.186 47.0824 186.03 48.8626 185.459C51.8338 184.502 52.5406 182.869 51.765 182.519C50.9893 182.169 46.8484 182.519 44.1963 181.512C41.5441 180.505 43.5708 166.694 45.3097 165.712C47.0486 164.73 55.2741 167.044 56.8754 168.283C58.3015 169.383 60.3032 171.291 59.3774 175.326C60.474 174.301 61.3287 173.044 61.8795 171.648C62.6551 169.771 63.2181 170.209 64.3815 170.928C65.0801 171.322 65.6866 171.861 66.1601 172.508C66.6337 173.155 66.9635 173.896 67.1275 174.681C67.409 176.433 66.9524 182.475 64.4878 184.439C64.4878 184.439 66.8523 184.74 68.7851 180.749C68.7851 180.749 72.5382 182.263 73.3889 184.715C74.2396 187.167 75.1653 199.17 68.7476 205.4Z" fill="#101B94"/>
<path d="M69.3846 206.764C69.3081 206.763 69.2345 206.735 69.1771 206.684C69.1197 206.634 69.0823 206.564 69.0719 206.489C67.4205 192.971 57.1434 175.213 47.0664 168.545C46.9967 168.499 46.9483 168.426 46.9319 168.344C46.9155 168.262 46.9324 168.177 46.9788 168.107C47.0253 168.037 47.0975 167.989 47.1796 167.973C47.2617 167.956 47.347 167.973 47.4167 168.02C57.6187 174.806 68.0585 192.746 69.6911 206.413C69.7018 206.496 69.6794 206.579 69.629 206.644C69.5786 206.71 69.5042 206.753 69.4221 206.764H69.3846Z" fill="white"/>
<path d="M70.0166 208.653C69.6434 208.395 69.3359 208.052 69.1187 207.654C68.9015 207.255 68.7805 206.811 68.7656 206.357V56.9166C68.7912 56.4464 68.9274 55.9888 69.1633 55.5812C69.3992 55.1736 69.728 54.8274 70.123 54.571L163.95 0.389226C164.342 0.143242 164.794 0.00881888 165.256 0.000419295C165.719 -0.00798029 166.175 0.10996 166.576 0.341553C166.977 0.573146 167.307 0.909628 167.531 1.3148C167.755 1.71997 167.864 2.1785 167.847 2.64106L72.6438 208.603C72.2407 208.817 71.7927 208.934 71.3362 208.942C70.8797 208.951 70.4276 208.852 70.0166 208.653Z" fill="#E0E0E0"/>
<path d="M71.2857 59.7565L109.398 34.8174L106.858 33.3474L70.1035 54.571C69.7085 54.8275 69.3796 55.1736 69.1438 55.5812C68.9079 55.9888 68.7716 56.4464 68.7461 56.9167V58.2865L71.2857 59.7565Z" fill="#37474F"/>
<path opacity="0.2" d="M71.2857 59.7565L109.398 34.8174L106.858 33.3474L70.1035 54.571C69.7085 54.8275 69.3796 55.1736 69.1438 55.5812C68.9079 55.9888 68.7716 56.4464 68.7461 56.9167V58.2865L71.2857 59.7565Z" fill="#37474F"/>
<path d="M84.0164 64.1539L69.1417 55.5969C68.8993 56.0004 68.7637 56.4589 68.7476 56.9293V206.345C68.7315 206.807 68.8415 207.265 69.0658 207.669C69.2901 208.073 69.6203 208.409 70.0208 208.64C70.4214 208.871 70.8773 208.988 71.3395 208.979C71.8018 208.971 72.2529 208.836 72.6446 208.591L84.0164 202.054V64.1539Z" fill="#263238"/>
<path opacity="0.4" d="M84.0164 64.1539L69.1417 55.5969C68.8993 56.0004 68.7637 56.4589 68.7476 56.9293V206.345C68.7315 206.807 68.8415 207.265 69.0658 207.669C69.2901 208.073 69.6203 208.409 70.0208 208.64C70.4214 208.871 70.8773 208.988 71.3395 208.979C71.8018 208.971 72.2529 208.836 72.6446 208.591L84.0164 202.054V64.1539Z" fill="#263238"/>
<path d="M72.6425 208.603L166.469 154.421C166.864 154.165 167.193 153.819 167.429 153.411C167.665 153.003 167.801 152.546 167.827 152.076V2.64099C167.827 1.77778 167.201 1.4275 166.469 1.8591L72.6425 56.0409C72.2475 56.2973 71.9187 56.6434 71.6828 57.0511C71.4469 57.4587 71.3107 57.9163 71.2852 58.3865V207.821C71.2852 208.684 71.8919 209.035 72.6425 208.603Z" fill="#455A64"/>
<path opacity="0.1" d="M72.6425 208.603L166.469 154.421C166.864 154.165 167.193 153.819 167.429 153.411C167.665 153.003 167.801 152.546 167.827 152.076V2.64099C167.827 1.77778 167.201 1.4275 166.469 1.8591L72.6425 56.0409C72.2475 56.2973 71.9187 56.6434 71.6828 57.0511C71.4469 57.4587 71.3107 57.9163 71.2852 58.3865V207.821C71.2852 208.684 71.8919 209.035 72.6425 208.603Z" fill="#455A64"/>
<path d="M79.0796 92.9021L101.598 79.8914C103.093 79.0282 104.306 79.6412 104.306 81.2613C104.24 82.1709 103.96 83.052 103.489 83.8333C103.019 84.6146 102.371 85.2742 101.598 85.7587L79.0796 98.7694C77.5783 99.6326 76.3711 99.0196 76.3711 97.3995C76.4365 96.4895 76.7159 95.6078 77.1865 94.8263C77.6572 94.0447 78.3058 93.3854 79.0796 92.9021Z" fill="#101B94"/>
<path d="M79.0796 102.135L93.9855 93.5279C95.4805 92.6647 96.6939 93.2777 96.6939 94.8978C96.6271 95.8074 96.3471 96.6885 95.8766 97.4698C95.406 98.2511 94.7582 98.9107 93.9855 99.3952L79.0796 108.002C77.5783 108.865 76.3711 108.252 76.3711 106.632C76.4365 105.722 76.7159 104.841 77.1865 104.059C77.6572 103.278 78.3058 102.618 79.0796 102.135Z" fill="#101B94"/>
<path d="M77.4532 117.935L80.3681 116.253C80.9936 115.909 81.4502 116.19 81.4502 116.878V120.243C81.4299 120.619 81.3214 120.985 81.1334 121.311C80.9454 121.637 80.6832 121.914 80.3681 122.12L77.4532 123.777C76.8277 124.128 76.3711 123.846 76.3711 123.152V119.787C76.3957 119.415 76.5063 119.055 76.6941 118.733C76.8818 118.412 77.1417 118.139 77.4532 117.935Z" fill="#101B94"/>
<path opacity="0.2" d="M77.4532 117.935L80.3681 116.253C80.9936 115.909 81.4502 116.19 81.4502 116.878V120.243C81.4299 120.619 81.3214 120.985 81.1334 121.311C80.9454 121.637 80.6832 121.914 80.3681 122.12L77.4532 123.777C76.8277 124.128 76.3711 123.846 76.3711 123.152V119.787C76.3957 119.415 76.5063 119.055 76.6941 118.733C76.8818 118.412 77.1417 118.139 77.4532 117.935Z" fill="black"/>
<path d="M77.4532 129.676L80.3681 127.993C80.9936 127.643 81.4502 127.924 81.4502 128.619V131.984C81.4285 132.359 81.3193 132.725 81.1314 133.05C80.9436 133.376 80.6822 133.654 80.3681 133.861L77.4532 135.543C76.8277 135.887 76.3711 135.606 76.3711 134.918V131.552C76.3904 131.176 76.4985 130.81 76.6866 130.484C76.8747 130.158 77.1374 129.881 77.4532 129.676Z" fill="#101B94"/>
<g opacity="0.2">
<path d="M77.4532 129.676L80.3681 127.993C80.9936 127.643 81.4502 127.924 81.4502 128.619V131.984C81.4285 132.359 81.3193 132.725 81.1314 133.05C80.9436 133.376 80.6822 133.654 80.3681 133.861L77.4532 135.543C76.8277 135.887 76.3711 135.606 76.3711 134.918V131.552C76.3904 131.176 76.4985 130.81 76.6866 130.484C76.8747 130.158 77.1374 129.881 77.4532 129.676Z" fill="black"/>
</g>
<path d="M85.3495 126.586L102.964 116.409C103.715 115.977 104.321 116.284 104.321 117.097C104.287 117.552 104.147 117.992 103.911 118.382C103.675 118.772 103.351 119.101 102.964 119.343L85.3495 129.52C84.5989 129.951 83.9922 129.645 83.9922 128.832C84.0262 128.377 84.1668 127.937 84.4026 127.547C84.6384 127.156 84.9628 126.827 85.3495 126.586Z" fill="#101B94"/>
<path opacity="0.2" d="M85.3495 126.586L102.964 116.409C103.715 115.977 104.321 116.284 104.321 117.097C104.287 117.552 104.147 117.992 103.911 118.382C103.675 118.772 103.351 119.101 102.964 119.343L85.3495 129.52C84.5989 129.951 83.9922 129.645 83.9922 128.832C84.0262 128.377 84.1668 127.937 84.4026 127.547C84.6384 127.156 84.9628 126.827 85.3495 126.586Z" fill="black"/>
<path d="M77.4532 141.411L80.3681 139.728C80.9936 139.378 81.4502 139.659 81.4502 140.354V143.719C81.429 144.094 81.32 144.46 81.1321 144.786C80.9442 145.112 80.6825 145.389 80.3681 145.595L77.4532 147.278C76.8277 147.622 76.3711 147.341 76.3711 146.653V143.287C76.3904 142.911 76.4985 142.545 76.6866 142.219C76.8747 141.893 77.1374 141.616 77.4532 141.411Z" fill="#E0E0E0"/>
<path d="M85.3495 138.32L102.964 128.156C103.715 127.724 104.321 128.031 104.321 128.844C104.288 129.299 104.148 129.739 103.912 130.13C103.676 130.52 103.351 130.849 102.964 131.089L85.3495 141.266C84.5989 141.698 83.9922 141.392 83.9922 140.578C84.0243 140.122 84.164 139.679 84.3999 139.286C84.6358 138.894 84.9612 138.563 85.3495 138.32Z" fill="#F0F0F0"/>
<path d="M77.4532 153.176L80.3681 151.493C80.9936 151.143 81.4502 151.425 81.4502 152.119V155.484C81.429 155.86 81.32 156.225 81.1321 156.551C80.9442 156.877 80.6825 157.154 80.3681 157.361L77.4532 159.043C76.8277 159.387 76.3711 159.106 76.3711 158.418V155.053C76.3904 154.677 76.4985 154.31 76.6866 153.984C76.8747 153.658 77.1374 153.381 77.4532 153.176Z" fill="#E0E0E0"/>
<path d="M85.3495 150.086L102.964 139.915C103.715 139.478 104.321 139.79 104.321 140.597C104.288 141.053 104.148 141.494 103.912 141.886C103.676 142.277 103.351 142.607 102.964 142.849L85.3495 153.02C84.5989 153.452 83.9922 153.145 83.9922 152.332C84.0262 151.877 84.1668 151.437 84.4026 151.047C84.6384 150.657 84.9628 150.328 85.3495 150.086Z" fill="#F0F0F0"/>
<path d="M77.4532 164.911L80.3681 163.228C80.9936 162.878 81.4502 163.16 81.4502 163.854V167.219C81.429 167.595 81.32 167.96 81.1321 168.286C80.9442 168.612 80.6825 168.889 80.3681 169.096L77.4532 170.778C76.8277 171.122 76.3711 170.841 76.3711 170.153V166.787C76.3904 166.411 76.4985 166.045 76.6866 165.719C76.8747 165.393 77.1374 165.116 77.4532 164.911Z" fill="#E0E0E0"/>
<path d="M85.3495 161.821L102.964 151.65C103.715 151.213 104.321 151.525 104.321 152.332C104.288 152.788 104.148 153.229 103.912 153.621C103.676 154.012 103.351 154.342 102.964 154.584L85.3495 164.755C84.5989 165.186 83.9922 164.88 83.9922 164.067C84.0262 163.612 84.1668 163.172 84.4026 162.782C84.6384 162.392 84.9628 162.063 85.3495 161.821Z" fill="#F0F0F0"/>
<path d="M77.7222 176.458L90.2324 169.221C90.983 168.789 91.5898 169.096 91.5898 169.909C91.5558 170.363 91.4152 170.804 91.1793 171.194C90.9435 171.584 90.6191 171.913 90.2324 172.154L77.7222 179.391C76.9778 179.823 76.3711 179.517 76.3711 178.71C76.4039 178.255 76.5433 177.814 76.778 177.423C77.0128 177.031 77.3362 176.701 77.7222 176.458Z" fill="#101B94"/>
<path d="M77.7222 182.325L102.962 167.757C103.712 167.326 104.319 167.632 104.319 168.439C104.286 168.895 104.146 169.336 103.91 169.727C103.674 170.119 103.349 170.449 102.962 170.691L77.7222 185.259C76.9778 185.691 76.3711 185.384 76.3711 184.577C76.4039 184.122 76.5433 183.681 76.778 183.29C77.0128 182.899 77.3362 182.568 77.7222 182.325Z" fill="#101B94"/>
<path opacity="0.8" d="M77.7222 182.325L102.962 167.757C103.712 167.326 104.319 167.632 104.319 168.439C104.286 168.895 104.146 169.336 103.91 169.727C103.674 170.119 103.349 170.449 102.962 170.691L77.7222 185.259C76.9778 185.691 76.3711 185.384 76.3711 184.577C76.4039 184.122 76.5433 183.681 76.778 183.29C77.0128 182.899 77.3362 182.568 77.7222 182.325Z" fill="white"/>
<path d="M77.7222 182.325L95.3428 172.154C96.0872 171.723 96.6939 172.029 96.6939 172.843C96.6602 173.296 96.5203 173.736 96.2856 174.126C96.051 174.516 95.7281 174.846 95.3428 175.088L77.7222 185.259C76.9778 185.691 76.3711 185.384 76.3711 184.577C76.4039 184.122 76.5433 183.681 76.778 183.29C77.0128 182.899 77.3362 182.568 77.7222 182.325Z" fill="#101B94"/>
<path d="M77.7222 188.205L90.2324 180.968C90.983 180.536 91.5898 180.843 91.5898 181.656C91.5558 182.111 91.4152 182.551 91.1793 182.941C90.9435 183.331 90.6191 183.66 90.2324 183.902L77.7222 191.139C76.9778 191.57 76.3711 191.264 76.3711 190.457C76.4039 190.002 76.5433 189.561 76.778 189.17C77.0128 188.779 77.3362 188.448 77.7222 188.205Z" fill="#101B94"/>
<path d="M85.3495 114.845L102.964 104.674C103.715 104.243 104.321 104.549 104.321 105.362C104.287 105.817 104.147 106.257 103.911 106.647C103.675 107.037 103.351 107.367 102.964 107.608L85.3495 117.779C84.5989 118.21 83.9922 117.904 83.9922 117.097C84.0252 116.641 84.1654 116.2 84.4012 115.808C84.6371 115.417 84.962 115.087 85.3495 114.845Z" fill="#101B94"/>
<path opacity="0.2" d="M85.3495 114.845L102.964 104.674C103.715 104.243 104.321 104.549 104.321 105.362C104.287 105.817 104.147 106.257 103.911 106.647C103.675 107.037 103.351 107.367 102.964 107.608L85.3495 117.779C84.5989 118.21 83.9922 117.904 83.9922 117.097C84.0252 116.641 84.1654 116.2 84.4012 115.808C84.6371 115.417 84.962 115.087 85.3495 114.845Z" fill="black"/>
<path d="M77.7222 188.205L90.2324 180.968C90.983 180.536 91.5898 180.843 91.5898 181.656C91.5558 182.111 91.4152 182.551 91.1793 182.941C90.9435 183.331 90.6191 183.66 90.2324 183.902L77.7222 191.139C76.9778 191.57 76.3711 191.264 76.3711 190.457C76.4039 190.002 76.5433 189.561 76.778 189.17C77.0128 188.779 77.3362 188.448 77.7222 188.205Z" fill="#101B94"/>
<path d="M77.7222 194.054L102.962 179.485C103.712 179.054 104.319 179.36 104.319 180.167C104.286 180.623 104.146 181.064 103.91 181.456C103.674 181.847 103.349 182.177 102.962 182.419L77.7222 196.962C76.9778 197.4 76.3711 197.087 76.3711 196.28C76.4077 195.83 76.5489 195.394 76.7835 195.007C77.018 194.621 77.3394 194.294 77.7222 194.054Z" fill="#101B94"/>
<path opacity="0.8" d="M77.7222 194.054L102.962 179.485C103.712 179.054 104.319 179.36 104.319 180.167C104.286 180.623 104.146 181.064 103.91 181.456C103.674 181.847 103.349 182.177 102.962 182.419L77.7222 196.962C76.9778 197.4 76.3711 197.087 76.3711 196.28C76.4077 195.83 76.5489 195.394 76.7835 195.007C77.018 194.621 77.3394 194.294 77.7222 194.054Z" fill="white"/>
<path d="M77.7222 194.054L100.422 180.918C101.173 180.487 101.779 180.793 101.779 181.606C101.745 182.061 101.605 182.501 101.369 182.891C101.133 183.281 100.809 183.61 100.422 183.852L77.7222 196.988C76.9778 197.425 76.3711 197.113 76.3711 196.306C76.4039 195.851 76.5433 195.41 76.778 195.019C77.0128 194.627 77.3362 194.297 77.7222 194.054Z" fill="#101B94"/>
<path d="M166.483 1.85932L109.398 34.8175V187.38L166.483 154.428C166.878 154.171 167.206 153.825 167.442 153.417C167.678 153.01 167.814 152.552 167.84 152.082V2.6412C167.834 1.80302 167.208 1.42771 166.483 1.85932Z" fill="#EBEBEB"/>
<path opacity="0.6" d="M166.483 1.85932L109.398 34.8175V187.38L166.483 154.428C166.878 154.171 167.206 153.825 167.442 153.417C167.678 153.01 167.814 152.552 167.84 152.082V2.6412C167.834 1.80302 167.208 1.42771 166.483 1.85932Z" fill="#FAFAFA"/>
<path d="M109.399 40.6846V52.4192L104.32 58.2865H109.399V70.021L162.756 39.2146V9.87817L109.399 40.6846Z" fill="#101B94"/>
<g opacity="0.6">
<path d="M116.38 41.0913L137.998 28.581C139.043 27.9555 139.875 28.4684 139.875 29.6757C139.84 30.3316 139.652 30.9703 139.327 31.5406C139.001 32.1109 138.546 32.5969 137.998 32.9596L116.38 45.4386C115.33 46.0641 114.504 45.5511 114.504 44.3439C114.542 43.693 114.731 43.06 115.057 42.4953C115.383 41.9305 115.836 41.4498 116.38 41.0913Z" fill="white"/>
</g>
<path d="M115.16 50.5925L157 26.4352C157.376 26.2226 157.676 26.3727 157.676 26.7793C157.66 27.0068 157.59 27.2274 157.473 27.423C157.355 27.6186 157.194 27.7838 157 27.9052L115.16 52.0311C114.785 52.2438 114.484 52.0937 114.484 51.6871C114.505 51.465 114.577 51.2507 114.694 51.0608C114.811 50.871 114.971 50.7107 115.16 50.5925Z" fill="#101B94"/>
<path d="M115.16 50.5925L157 26.4352C157.376 26.2226 157.676 26.3727 157.676 26.7793C157.66 27.0068 157.59 27.2274 157.473 27.423C157.355 27.6186 157.194 27.7838 157 27.9052L115.16 52.0311C114.785 52.2438 114.484 52.0937 114.484 51.6871C114.505 51.465 114.577 51.2507 114.694 51.0608C114.811 50.871 114.971 50.7107 115.16 50.5925Z" fill="#101B94"/>
<path opacity="0.6" d="M115.16 50.5925L157 26.4352C157.376 26.2226 157.676 26.3727 157.676 26.7793C157.66 27.0068 157.59 27.2274 157.473 27.423C157.355 27.6186 157.194 27.7838 157 27.9052L115.16 52.0311C114.785 52.2438 114.484 52.0937 114.484 51.6871C114.505 51.465 114.577 51.2507 114.694 51.0608C114.811 50.871 114.971 50.7107 115.16 50.5925Z" fill="white"/>
<path d="M115.16 54.9712L157 30.814C157.376 30.5951 157.676 30.7514 157.676 31.158C157.66 31.3847 157.59 31.6044 157.473 31.799C157.355 31.9937 157.193 32.1577 157 32.2777L115.16 56.4349C114.785 56.6538 114.484 56.4975 114.484 56.0909C114.501 55.8641 114.57 55.6445 114.688 55.4499C114.805 55.2552 114.967 55.0912 115.16 54.9712Z" fill="#101B94"/>
<path opacity="0.6" d="M115.16 54.9712L157 30.814C157.376 30.5951 157.676 30.7514 157.676 31.158C157.66 31.3847 157.59 31.6044 157.473 31.799C157.355 31.9937 157.193 32.1577 157 32.2777L115.16 56.4349C114.785 56.6538 114.484 56.4975 114.484 56.0909C114.501 55.8641 114.57 55.6445 114.688 55.4499C114.805 55.2552 114.967 55.0912 115.16 54.9712Z" fill="white"/>
<path opacity="0.6" d="M115.16 59.3495L157 35.1923C157.376 34.9796 157.676 35.1298 157.676 35.5363C157.66 35.7639 157.59 35.9845 157.473 36.1801C157.355 36.3757 157.194 36.5409 157 36.6623L115.16 60.8195C114.785 61.0322 114.484 60.8821 114.484 60.4755C114.501 60.2479 114.57 60.0274 114.688 59.8317C114.805 59.6361 114.967 59.4709 115.16 59.3495Z" fill="white"/>
<path d="M116.735 71.6723L119.669 69.9835C120.294 69.6332 120.751 69.9147 120.751 70.609V73.9742C120.73 74.3499 120.621 74.7155 120.434 75.0414C120.246 75.3673 119.984 75.6446 119.669 75.8508L116.754 77.5334C116.128 77.8774 115.672 77.5959 115.672 76.9079V73.5489C115.689 73.1745 115.794 72.8095 115.979 72.4834C116.164 72.1574 116.423 71.8795 116.735 71.6723Z" fill="#101B94"/>
<path opacity="0.2" d="M116.735 71.6723L119.669 69.9835C120.294 69.6332 120.751 69.9147 120.751 70.609V73.9742C120.73 74.3499 120.621 74.7155 120.434 75.0414C120.246 75.3673 119.984 75.6446 119.669 75.8508L116.754 77.5334C116.128 77.8774 115.672 77.5959 115.672 76.9079V73.5489C115.689 73.1745 115.794 72.8095 115.979 72.4834C116.164 72.1574 116.423 71.8795 116.735 71.6723Z" fill="white"/>
<path d="M124.631 68.5825L142.245 58.4055C142.996 57.9739 143.603 58.2804 143.603 59.0935C143.569 59.5481 143.428 59.9883 143.192 60.3785C142.956 60.7686 142.632 61.0977 142.245 61.3391L124.631 71.5162C123.88 71.9478 123.273 71.6413 123.273 70.8281C123.307 70.3735 123.448 69.9333 123.684 69.5432C123.92 69.153 124.244 68.8239 124.631 68.5825Z" fill="#101B94"/>
<path opacity="0.8" d="M124.631 68.5825L142.245 58.4055C142.996 57.9739 143.603 58.2804 143.603 59.0935C143.569 59.5481 143.428 59.9883 143.192 60.3785C142.956 60.7686 142.632 61.0977 142.245 61.3391L124.631 71.5162C123.88 71.9478 123.273 71.6413 123.273 70.8281C123.307 70.3735 123.448 69.9333 123.684 69.5432C123.92 69.153 124.244 68.8239 124.631 68.5825Z" fill="white"/>
<path d="M116.332 82.1811L160.743 56.5351C161.118 56.3162 161.419 56.4726 161.419 56.8729C161.403 57.1006 161.334 57.3213 161.216 57.517C161.099 57.7127 160.937 57.8778 160.743 57.9988L116.332 83.6448C115.956 83.8637 115.656 83.7073 115.656 83.3007C115.672 83.074 115.742 82.8543 115.859 82.6597C115.977 82.4651 116.139 82.3011 116.332 82.1811Z" fill="#101B94"/>
<path d="M116.332 86.5783L160.743 60.9323C161.118 60.7196 161.419 60.8698 161.419 61.2763C161.402 61.5039 161.333 61.7244 161.215 61.9201C161.098 62.1157 160.936 62.2809 160.743 62.4023L116.332 88.0482C115.956 88.2609 115.656 88.1108 115.656 87.7042C115.672 87.4766 115.742 87.2561 115.859 87.0604C115.977 86.8648 116.139 86.6996 116.332 86.5783Z" fill="#101B94"/>
<path d="M116.332 90.9818L160.743 65.3359C161.118 65.117 161.419 65.2733 161.419 65.6737C161.403 65.9014 161.334 66.1221 161.216 66.3178C161.099 66.5135 160.937 66.6786 160.743 66.7996L116.332 92.4455C115.956 92.6645 115.656 92.5081 115.656 92.1077C115.672 91.8801 115.741 91.6593 115.859 91.4636C115.976 91.2679 116.138 91.1028 116.332 90.9818Z" fill="#101B94"/>
<path d="M116.332 95.3915L160.743 69.7455C161.118 69.5329 161.419 69.683 161.419 70.0896C161.402 70.3171 161.333 70.5377 161.215 70.7333C161.098 70.9289 160.936 71.0941 160.743 71.2155L116.332 96.8614C115.956 97.0741 115.656 96.924 115.656 96.5174C115.672 96.2898 115.742 96.0693 115.859 95.8737C115.977 95.678 116.139 95.5128 116.332 95.3915Z" fill="#101B94"/>
<path d="M116.332 82.1811L160.743 56.5351C161.118 56.3162 161.419 56.4726 161.419 56.8729C161.403 57.1006 161.334 57.3213 161.216 57.517C161.099 57.7127 160.937 57.8778 160.743 57.9988L116.332 83.6448C115.956 83.8637 115.656 83.7073 115.656 83.3007C115.672 83.074 115.742 82.8543 115.859 82.6597C115.977 82.4651 116.139 82.3011 116.332 82.1811Z" fill="#E0E0E0"/>
<path d="M116.332 86.5783L160.743 60.9323C161.118 60.7196 161.419 60.8698 161.419 61.2763C161.402 61.5039 161.333 61.7244 161.215 61.9201C161.098 62.1157 160.936 62.2809 160.743 62.4023L116.332 88.0482C115.956 88.2609 115.656 88.1108 115.656 87.7042C115.672 87.4766 115.742 87.2561 115.859 87.0604C115.977 86.8648 116.139 86.6996 116.332 86.5783Z" fill="#E0E0E0"/>
<path d="M116.332 90.9818L160.743 65.3359C161.118 65.117 161.419 65.2733 161.419 65.6737C161.403 65.9014 161.334 66.1221 161.216 66.3178C161.099 66.5135 160.937 66.6786 160.743 66.7996L116.332 92.4455C115.956 92.6645 115.656 92.5081 115.656 92.1077C115.672 91.8801 115.741 91.6593 115.859 91.4636C115.976 91.2679 116.138 91.1028 116.332 90.9818Z" fill="#E0E0E0"/>
<path d="M116.332 95.3915L160.743 69.7455C161.118 69.5329 161.419 69.683 161.419 70.0896C161.402 70.3171 161.333 70.5377 161.215 70.7333C161.098 70.9289 160.936 71.0941 160.743 71.2155L116.332 96.8614C115.956 97.0741 115.656 96.924 115.656 96.5174C115.672 96.2898 115.742 96.0693 115.859 95.8737C115.977 95.678 116.139 95.5128 116.332 95.3915Z" fill="#E0E0E0"/>
<path opacity="0.8" d="M116.332 82.1811L160.743 56.5351C161.118 56.3162 161.419 56.4726 161.419 56.8729C161.403 57.1006 161.334 57.3213 161.216 57.517C161.099 57.7127 160.937 57.8778 160.743 57.9988L116.332 83.6448C115.956 83.8637 115.656 83.7073 115.656 83.3007C115.672 83.074 115.742 82.8543 115.859 82.6597C115.977 82.4651 116.139 82.3011 116.332 82.1811Z" fill="#E0E0E0"/>
<path opacity="0.8" d="M116.332 86.5783L160.743 60.9323C161.118 60.7196 161.419 60.8698 161.419 61.2763C161.402 61.5039 161.333 61.7244 161.215 61.9201C161.098 62.1157 160.936 62.2809 160.743 62.4023L116.332 88.0482C115.956 88.2609 115.656 88.1108 115.656 87.7042C115.672 87.4766 115.742 87.2561 115.859 87.0604C115.977 86.8648 116.139 86.6996 116.332 86.5783Z" fill="#E0E0E0"/>
<path opacity="0.8" d="M116.332 90.9818L160.743 65.3359C161.118 65.117 161.419 65.2733 161.419 65.6737C161.403 65.9014 161.334 66.1221 161.216 66.3178C161.099 66.5135 160.937 66.6786 160.743 66.7996L116.332 92.4455C115.956 92.6645 115.656 92.5081 115.656 92.1077C115.672 91.8801 115.741 91.6593 115.859 91.4636C115.976 91.2679 116.138 91.1028 116.332 90.9818Z" fill="#E0E0E0"/>
<path opacity="0.8" d="M116.332 95.3915L160.743 69.7455C161.118 69.5329 161.419 69.683 161.419 70.0896C161.402 70.3171 161.333 70.5377 161.215 70.7333C161.098 70.9289 160.936 71.0941 160.743 71.2155L116.332 96.8614C115.956 97.0741 115.656 96.924 115.656 96.5174C115.672 96.2898 115.742 96.0693 115.859 95.8737C115.977 95.678 116.139 95.5128 116.332 95.3915Z" fill="#E0E0E0"/>
<path d="M116.332 114.082L160.743 88.4362C161.118 88.2173 161.419 88.3737 161.419 88.774C161.403 89.0017 161.334 89.2224 161.216 89.4181C161.099 89.6138 160.937 89.7789 160.743 89.8999L116.332 115.546C115.956 115.765 115.656 115.608 115.656 115.202C115.672 114.975 115.742 114.755 115.859 114.561C115.977 114.366 116.139 114.202 116.332 114.082Z" fill="#E0E0E0"/>
<path d="M116.332 118.479L160.743 92.8332C161.118 92.6205 161.419 92.7706 161.419 93.1772C161.402 93.4048 161.333 93.6253 161.215 93.8209C161.098 94.0166 160.936 94.1818 160.743 94.3031L116.332 119.949C115.956 120.162 115.656 120.012 115.656 119.605C115.672 119.377 115.742 119.157 115.859 118.961C115.977 118.766 116.139 118.6 116.332 118.479Z" fill="#E0E0E0"/>
<path d="M116.332 122.883L160.743 97.2368C161.118 97.0178 161.419 97.1742 161.419 97.5745C161.403 97.8022 161.334 98.023 161.216 98.2187C161.099 98.4144 160.937 98.5795 160.743 98.7005L116.332 124.346C115.956 124.565 115.656 124.409 115.656 124.009C115.672 123.781 115.741 123.56 115.859 123.365C115.976 123.169 116.138 123.004 116.332 122.883Z" fill="#E0E0E0"/>
<path d="M116.332 127.293L160.743 101.647C161.118 101.434 161.419 101.584 161.419 101.991C161.402 102.219 161.333 102.439 161.215 102.635C161.098 102.83 160.936 102.995 160.743 103.117L116.332 128.763C115.956 128.975 115.656 128.825 115.656 128.419C115.672 128.191 115.742 127.971 115.859 127.775C115.977 127.579 116.139 127.414 116.332 127.293Z" fill="#E0E0E0"/>
<path opacity="0.8" d="M116.332 114.082L160.743 88.4362C161.118 88.2173 161.419 88.3737 161.419 88.774C161.403 89.0017 161.334 89.2224 161.216 89.4181C161.099 89.6138 160.937 89.7789 160.743 89.8999L116.332 115.546C115.956 115.765 115.656 115.608 115.656 115.202C115.672 114.975 115.742 114.755 115.859 114.561C115.977 114.366 116.139 114.202 116.332 114.082Z" fill="#E0E0E0"/>
<path opacity="0.8" d="M116.332 118.479L160.743 92.8332C161.118 92.6205 161.419 92.7706 161.419 93.1772C161.402 93.4048 161.333 93.6253 161.215 93.8209C161.098 94.0166 160.936 94.1818 160.743 94.3031L116.332 119.949C115.956 120.162 115.656 120.012 115.656 119.605C115.672 119.377 115.742 119.157 115.859 118.961C115.977 118.766 116.139 118.6 116.332 118.479Z" fill="#E0E0E0"/>
<path opacity="0.8" d="M116.332 122.883L160.743 97.2368C161.118 97.0178 161.419 97.1742 161.419 97.5745C161.403 97.8022 161.334 98.023 161.216 98.2187C161.099 98.4144 160.937 98.5795 160.743 98.7005L116.332 124.346C115.956 124.565 115.656 124.409 115.656 124.009C115.672 123.781 115.741 123.56 115.859 123.365C115.976 123.169 116.138 123.004 116.332 122.883Z" fill="#E0E0E0"/>
<path opacity="0.8" d="M116.332 127.293L160.743 101.647C161.118 101.434 161.419 101.584 161.419 101.991C161.402 102.219 161.333 102.439 161.215 102.635C161.098 102.83 160.936 102.995 160.743 103.117L116.332 128.763C115.956 128.975 115.656 128.825 115.656 128.419C115.672 128.191 115.742 127.971 115.859 127.775C115.977 127.579 116.139 127.414 116.332 127.293Z" fill="#E0E0E0"/>
<path d="M116.332 146.608L160.743 120.962C161.118 120.743 161.419 120.9 161.419 121.3C161.403 121.528 161.334 121.749 161.216 121.944C161.099 122.14 160.937 122.305 160.743 122.426L116.332 148.072C115.956 148.291 115.656 148.135 115.656 147.728C115.672 147.501 115.742 147.282 115.859 147.087C115.977 146.892 116.139 146.728 116.332 146.608Z" fill="#E0E0E0"/>
<path d="M116.332 151.006L160.743 125.36C161.118 125.147 161.419 125.297 161.419 125.704C161.402 125.932 161.333 126.152 161.215 126.348C161.098 126.543 160.936 126.709 160.743 126.83L116.332 152.476C115.956 152.689 115.656 152.538 115.656 152.132C115.672 151.904 115.742 151.684 115.859 151.488C115.977 151.293 116.139 151.127 116.332 151.006Z" fill="#E0E0E0"/>
<path d="M116.332 155.41L160.743 129.764C161.118 129.545 161.419 129.701 161.419 130.101C161.403 130.329 161.334 130.55 161.216 130.746C161.099 130.941 160.937 131.106 160.743 131.227L116.332 156.873C115.956 157.092 115.656 156.936 115.656 156.535C115.672 156.308 115.741 156.087 115.859 155.891C115.976 155.696 116.138 155.531 116.332 155.41Z" fill="#E0E0E0"/>
<path d="M116.332 159.819L160.743 134.173C161.118 133.961 161.419 134.111 161.419 134.517C161.402 134.745 161.333 134.965 161.215 135.161C161.098 135.357 160.936 135.522 160.743 135.643L116.332 161.289C115.956 161.502 115.656 161.352 115.656 160.945C115.672 160.718 115.742 160.497 115.859 160.301C115.977 160.106 116.139 159.941 116.332 159.819Z" fill="#E0E0E0"/>
<path opacity="0.8" d="M116.332 146.608L160.743 120.962C161.118 120.743 161.419 120.9 161.419 121.3C161.403 121.528 161.334 121.749 161.216 121.944C161.099 122.14 160.937 122.305 160.743 122.426L116.332 148.072C115.956 148.291 115.656 148.135 115.656 147.728C115.672 147.501 115.742 147.282 115.859 147.087C115.977 146.892 116.139 146.728 116.332 146.608Z" fill="#E0E0E0"/>
<path opacity="0.8" d="M116.332 151.006L160.743 125.36C161.118 125.147 161.419 125.297 161.419 125.704C161.402 125.932 161.333 126.152 161.215 126.348C161.098 126.543 160.936 126.709 160.743 126.83L116.332 152.476C115.956 152.689 115.656 152.538 115.656 152.132C115.672 151.904 115.742 151.684 115.859 151.488C115.977 151.293 116.139 151.127 116.332 151.006Z" fill="#E0E0E0"/>
<path opacity="0.8" d="M116.332 155.41L160.743 129.764C161.118 129.545 161.419 129.701 161.419 130.101C161.403 130.329 161.334 130.55 161.216 130.746C161.099 130.941 160.937 131.106 160.743 131.227L116.332 156.873C115.956 157.092 115.656 156.936 115.656 156.535C115.672 156.308 115.741 156.087 115.859 155.891C115.976 155.696 116.138 155.531 116.332 155.41Z" fill="#E0E0E0"/>
<path opacity="0.8" d="M116.332 159.819L160.743 134.173C161.118 133.961 161.419 134.111 161.419 134.517C161.402 134.745 161.333 134.965 161.215 135.161C161.098 135.357 160.936 135.522 160.743 135.643L116.332 161.289C115.956 161.502 115.656 161.352 115.656 160.945C115.672 160.718 115.742 160.497 115.859 160.301C115.977 160.106 116.139 159.941 116.332 159.819Z" fill="#E0E0E0"/>
<path d="M116.735 103.942L119.669 102.26C120.294 101.916 120.751 102.197 120.751 102.885V106.263C120.732 106.639 120.624 107.005 120.435 107.331C120.247 107.657 119.985 107.934 119.669 108.139L116.754 109.822C116.128 110.166 115.672 109.891 115.672 109.197V105.831C115.688 105.455 115.792 105.088 115.977 104.759C116.162 104.431 116.422 104.151 116.735 103.942Z" fill="#101B94"/>
<path opacity="0.2" d="M116.735 103.942L119.669 102.26C120.294 101.916 120.751 102.197 120.751 102.885V106.263C120.732 106.639 120.624 107.005 120.435 107.331C120.247 107.657 119.985 107.934 119.669 108.139L116.754 109.822C116.128 110.166 115.672 109.891 115.672 109.197V105.831C115.688 105.455 115.792 105.088 115.977 104.759C116.162 104.431 116.422 104.151 116.735 103.942Z" fill="white"/>
<path d="M124.631 100.852L142.245 90.6815C142.996 90.2499 143.603 90.5564 143.603 91.3633C143.57 91.819 143.429 92.2605 143.193 92.6518C142.958 93.0431 142.633 93.3732 142.245 93.6152L124.631 103.761C123.88 104.193 123.273 103.886 123.273 103.079C123.31 102.628 123.452 102.191 123.688 101.805C123.924 101.418 124.247 101.092 124.631 100.852Z" fill="#101B94"/>
<path opacity="0.8" d="M124.631 100.852L142.245 90.6815C142.996 90.2499 143.603 90.5564 143.603 91.3633C143.57 91.819 143.429 92.2605 143.193 92.6518C142.958 93.0431 142.633 93.3732 142.245 93.6152L124.631 103.761C123.88 104.193 123.273 103.886 123.273 103.079C123.31 102.628 123.452 102.191 123.688 101.805C123.924 101.418 124.247 101.092 124.631 100.852Z" fill="white"/>
<path d="M116.735 136.219L119.669 134.536C120.294 134.186 120.751 134.468 120.751 135.162V138.527C120.731 138.903 120.623 139.269 120.435 139.595C120.247 139.921 119.984 140.198 119.669 140.404L116.754 142.086C116.128 142.43 115.672 142.149 115.672 141.461V138.096C115.689 137.721 115.794 137.356 115.979 137.03C116.164 136.704 116.423 136.426 116.735 136.219Z" fill="#101B94"/>
<path opacity="0.2" d="M116.735 136.219L119.669 134.536C120.294 134.186 120.751 134.468 120.751 135.162V138.527C120.731 138.903 120.623 139.269 120.435 139.595C120.247 139.921 119.984 140.198 119.669 140.404L116.754 142.086C116.128 142.43 115.672 142.149 115.672 141.461V138.096C115.689 137.721 115.794 137.356 115.979 137.03C116.164 136.704 116.423 136.426 116.735 136.219Z" fill="white"/>
<path d="M124.631 133.16L142.245 122.983C142.996 122.551 143.603 122.858 143.603 123.671C143.569 124.126 143.429 124.568 143.193 124.959C142.957 125.35 142.632 125.68 142.245 125.923L124.631 136.094C123.88 136.525 123.273 136.219 123.273 135.406C123.307 134.951 123.448 134.511 123.684 134.121C123.92 133.73 124.244 133.401 124.631 133.16Z" fill="#101B94"/>
<path opacity="0.8" d="M124.631 133.16L142.245 122.983C142.996 122.551 143.603 122.858 143.603 123.671C143.569 124.126 143.429 124.568 143.193 124.959C142.957 125.35 142.632 125.68 142.245 125.923L124.631 136.094C123.88 136.525 123.273 136.219 123.273 135.406C123.307 134.951 123.448 134.511 123.684 134.121C123.92 133.73 124.244 133.401 124.631 133.16Z" fill="white"/>
<path d="M120.883 164.63L123.798 162.947C124.423 162.603 124.886 162.885 124.886 163.573V166.938C124.866 167.314 124.756 167.681 124.567 168.007C124.378 168.333 124.114 168.61 123.798 168.814L120.883 170.497C120.289 170.847 119.801 170.566 119.801 169.872V166.506C119.823 166.131 119.932 165.766 120.12 165.44C120.307 165.114 120.569 164.837 120.883 164.63Z" fill="#101B94"/>
<path d="M116.332 176.064L128.36 169.121C128.736 168.908 129.036 169.058 129.036 169.465C129.02 169.692 128.95 169.913 128.833 170.108C128.715 170.304 128.554 170.469 128.36 170.59L116.332 177.534C115.956 177.746 115.656 177.596 115.656 177.19C115.672 176.962 115.742 176.742 115.859 176.546C115.977 176.35 116.139 176.185 116.332 176.064Z" fill="#E0E0E0"/>
<path d="M137.065 155.284L139.98 153.602C140.574 153.258 141.062 153.539 141.062 154.227V157.592C141.042 157.968 140.933 158.334 140.745 158.66C140.557 158.986 140.295 159.263 139.98 159.469L137.065 161.152C136.439 161.496 135.977 161.22 135.977 160.526V157.161C135.998 156.784 136.107 156.418 136.296 156.092C136.485 155.766 136.749 155.489 137.065 155.284Z" fill="#101B94"/>
<path d="M132.508 166.719L144.536 159.776C144.911 159.557 145.212 159.713 145.212 160.12C145.196 160.346 145.126 160.566 145.008 160.761C144.891 160.955 144.729 161.119 144.536 161.239L132.508 168.189C132.132 168.408 131.832 168.251 131.832 167.851C131.847 167.622 131.916 167.4 132.033 167.203C132.151 167.007 132.313 166.84 132.508 166.719Z" fill="#E0E0E0"/>
<path d="M153.242 145.939L156.157 144.257C156.751 143.906 157.239 144.188 157.239 144.882V148.247C157.218 148.623 157.109 148.988 156.921 149.314C156.733 149.64 156.472 149.917 156.157 150.124L153.242 151.807C152.617 152.151 152.16 151.869 152.16 151.181V147.816C152.179 147.44 152.288 147.074 152.476 146.747C152.664 146.421 152.927 146.144 153.242 145.939Z" fill="#101B94"/>
<path opacity="0.2" d="M120.883 164.63L123.798 162.947C124.423 162.603 124.886 162.885 124.886 163.573V166.938C124.866 167.314 124.756 167.681 124.567 168.007C124.378 168.333 124.114 168.61 123.798 168.814L120.883 170.497C120.289 170.847 119.801 170.566 119.801 169.872V166.506C119.823 166.131 119.932 165.766 120.12 165.44C120.307 165.114 120.569 164.837 120.883 164.63Z" fill="white"/>
<path opacity="0.2" d="M137.065 155.284L139.98 153.602C140.574 153.258 141.062 153.539 141.062 154.227V157.592C141.042 157.968 140.933 158.334 140.745 158.66C140.557 158.986 140.295 159.263 139.98 159.469L137.065 161.152C136.439 161.496 135.977 161.22 135.977 160.526V157.161C135.998 156.784 136.107 156.418 136.296 156.092C136.485 155.766 136.749 155.489 137.065 155.284Z" fill="white"/>
<path opacity="0.2" d="M153.242 145.939L156.157 144.257C156.751 143.906 157.239 144.188 157.239 144.882V148.247C157.218 148.623 157.109 148.988 156.921 149.314C156.733 149.64 156.472 149.917 156.157 150.124L153.242 151.807C152.617 152.151 152.16 151.869 152.16 151.181V147.816C152.179 147.44 152.288 147.074 152.476 146.747C152.664 146.421 152.927 146.144 153.242 145.939Z" fill="white"/>
<path d="M148.683 157.374L160.712 150.43C161.087 150.211 161.387 150.368 161.387 150.768C161.372 150.996 161.302 151.217 161.185 151.412C161.068 151.608 160.905 151.773 160.712 151.894L148.683 158.837C148.314 159.056 148.008 158.9 148.008 158.493C148.025 158.267 148.096 158.048 148.213 157.853C148.33 157.659 148.491 157.495 148.683 157.374Z" fill="#E0E0E0"/>
<mask id="mask0_1646_3542" style="mask-type:alpha" maskUnits="userSpaceOnUse" x="76" y="51" width="26" height="34">
<path d="M89.0752 53.007C82.057 56.9602 76.3711 66.812 76.3711 75.0062C76.3711 83.2004 82.057 86.5657 89.0752 82.5124C96.0935 78.4591 101.779 68.6135 101.779 60.5069C101.779 52.4003 96.0872 49.0475 89.0752 53.007Z" fill="white"/>
</mask>
<g mask="url(#mask0_1646_3542)">
<path d="M89.0752 53.007C82.057 56.9602 76.3711 66.812 76.3711 75.0062C76.3711 83.2004 82.057 86.5657 89.0752 82.5124C96.0935 78.4591 101.779 68.6135 101.779 60.5069C101.779 52.4003 96.0872 49.0475 89.0752 53.007Z" fill="#FAFAFA"/>
<path d="M95.2307 78.2588L85.0599 80.9861C84.8847 81.0432 84.6981 81.0557 84.5169 81.0225C84.3357 80.9893 84.1657 80.9114 84.0222 80.7958C83.8787 80.6803 83.7663 80.5308 83.6952 80.3609C83.6241 80.1909 83.5965 80.0059 83.6149 79.8226V62.5085C83.6509 61.0753 84.1295 59.6885 84.9852 58.5383C85.8408 57.388 87.0315 56.5309 88.3938 56.0845L91.8717 55.1525C94.5176 54.4456 96.6631 56.172 96.6631 59.0056V76.326C96.6518 76.7563 96.5082 77.1726 96.2519 77.5185C95.9956 77.8643 95.639 78.1228 95.2307 78.2588Z" fill="#37474F"/>
<path d="M95.7166 82.7376L94.647 78.015C94.647 78.015 94.647 71.641 93.74 71.0531C92.833 70.4651 92.5703 70.3525 92.5703 70.3525C93.7338 69.9522 96.1858 69.6519 96.9489 71.8912C97.6807 74.0055 98.7754 79.216 99.2946 81.7806L95.7166 82.7376Z" fill="#F28F8F"/>
<path d="M95.6319 82.7626L92.0039 70.4088C93.6115 69.7833 95.6757 69.2641 96.6765 70.9217C97.5772 72.4104 99.0159 80.2106 99.2974 81.7806L95.6319 82.7626Z" fill="#101B94"/>
<g opacity="0.4">
<path d="M95.6319 82.7626L92.0039 70.4088C93.6115 69.7833 95.6757 69.2641 96.6765 70.9217C97.5772 72.4104 99.0159 80.2106 99.2974 81.7806L95.6319 82.7626Z" fill="black"/>
</g>
<path d="M96.1201 82.631L92.5547 83.5881C92.6983 82.5641 93.0358 81.5769 93.5493 80.6794C94.2628 79.6511 95.2897 78.881 96.4766 78.4839C96.2197 79.8509 96.1003 81.2402 96.1201 82.631Z" fill="#101B94"/>
<path d="M96.1201 82.631L92.5547 83.5881C92.6983 82.5641 93.0358 81.5769 93.5493 80.6794C94.2628 79.6511 95.2897 78.881 96.4766 78.4839C96.2197 79.8509 96.1003 81.2402 96.1201 82.631Z" fill="#101B94"/>
<g opacity="0.7">
<path d="M96.1201 82.631L92.5547 83.5881C92.6983 82.5641 93.0358 81.5769 93.5493 80.6794C94.2628 79.6511 95.2897 78.881 96.4766 78.4839C96.2197 79.8509 96.1003 81.2402 96.1201 82.631Z" fill="black"/>
</g>
<path d="M95.3557 82.8377L85.3476 85.5086L84.2467 82.0996C84.2467 82.0996 87.1678 75.2627 83.5586 73.5051C84.0152 73.161 87.8621 71.6598 87.8621 71.6598L91.9967 70.4088C92.7849 70.1961 95.9687 71.6098 96.7756 74.7436C97.0634 75.8507 96.9633 76.8453 95.3432 82.6125C95.362 82.6876 95.3557 82.7626 95.3557 82.8377Z" fill="#101B94"/>
<path d="M94.5293 57.2791C95.2173 57.5293 96.068 59.1556 95.9867 63.0775C95.9179 66.4053 94.9171 67.4561 94.4167 67.8564C93.6672 68.2317 92.8404 68.4266 92.0022 68.4257V70.4085C92.0022 70.4085 93.3033 71.6595 93.2219 72.6103C93.1406 73.5611 91.3454 74.2366 90.1319 73.6737C89.2455 73.174 88.4791 72.4866 87.8863 71.6595V67.0933C87.795 67.1986 87.6836 67.2847 87.5586 67.3465C87.4336 67.4083 87.2976 67.4446 87.1585 67.4533C87.0194 67.4621 86.8799 67.443 86.7482 67.3973C86.6165 67.3516 86.4952 67.2802 86.3914 67.1871C86.196 67.0534 86.0295 66.8819 85.9016 66.6827C85.7737 66.4834 85.6871 66.2606 85.6469 66.0273C85.6066 65.794 85.6136 65.5551 85.6673 65.3245C85.7211 65.094 85.8205 64.8765 85.9598 64.6851C86.5853 63.8657 87.6799 63.7468 88.1053 64.5662C88.6348 63.2811 89.5824 62.2122 90.795 61.5325C92.7716 60.3315 93.8475 59.2619 94.5293 57.2791Z" fill="#FFA8A7"/>
<path d="M92.5454 63.1716C92.5481 63.2902 92.5141 63.4067 92.448 63.5053C92.382 63.6038 92.2871 63.6795 92.1763 63.7221C92.1293 63.7383 92.079 63.7429 92.0298 63.7354C91.9806 63.7279 91.934 63.7085 91.894 63.679C91.8539 63.6494 91.8217 63.6106 91.8001 63.5657C91.7784 63.5209 91.768 63.4715 91.7697 63.4218C91.767 63.3032 91.801 63.1867 91.8671 63.0881C91.9331 62.9896 92.028 62.9139 92.1388 62.8714C92.1858 62.8551 92.2361 62.8505 92.2853 62.858C92.3345 62.8655 92.3811 62.8849 92.4211 62.9144C92.4611 62.944 92.4934 62.9829 92.515 63.0277C92.5367 63.0725 92.5471 63.1219 92.5454 63.1716Z" fill="#37474F"/>
<path d="M92.6488 65.9487L93.5496 66.0113C93.5232 66.1486 93.4515 66.2731 93.3461 66.365C93.2406 66.4568 93.1075 66.5107 92.9678 66.5179C92.7176 66.4992 92.5738 66.2302 92.6488 65.9487Z" fill="#F28F8F"/>
<path d="M95.7233 61.0449L94.9414 60.6758C94.988 60.5548 95.0776 60.4554 95.193 60.3965C95.3085 60.3376 95.4417 60.3235 95.5669 60.3568C95.6229 60.3913 95.6714 60.4365 95.7096 60.49C95.7478 60.5434 95.775 60.6039 95.7896 60.668C95.8041 60.7321 95.8058 60.7984 95.7944 60.8631C95.783 60.9278 95.7588 60.9896 95.7233 61.0449Z" fill="#37474F"/>
<path d="M91.4194 62.5085L92.2013 61.7141C92.1598 61.672 92.1099 61.639 92.0548 61.6175C91.9996 61.596 91.9406 61.5864 91.8815 61.5894C91.8224 61.5923 91.7646 61.6078 91.7119 61.6347C91.6592 61.6616 91.6128 61.6993 91.5758 61.7454C91.4672 61.8362 91.3927 61.9611 91.3643 62.0997C91.3359 62.2383 91.3553 62.3824 91.4194 62.5085Z" fill="#37474F"/>
<path d="M95.5417 62.071C95.5454 62.1898 95.5118 62.3068 95.4456 62.4055C95.3794 62.5042 95.284 62.5797 95.1727 62.6215C95.1251 62.638 95.0743 62.6425 95.0246 62.6347C94.9748 62.6269 94.9278 62.607 94.8876 62.5767C94.8474 62.5464 94.8153 62.5067 94.7941 62.461C94.7729 62.4154 94.7633 62.3652 94.7661 62.315C94.7643 62.1966 94.7986 62.0804 94.8646 61.9821C94.9305 61.8837 95.0249 61.8078 95.1351 61.7645C95.1827 61.748 95.2336 61.7435 95.2833 61.7513C95.333 61.7591 95.38 61.779 95.4202 61.8093C95.4604 61.8396 95.4925 61.8793 95.5137 61.925C95.5349 61.9706 95.5445 62.0208 95.5417 62.071Z" fill="#37474F"/>
<path d="M93.7148 62.321L93.7711 64.8043L95.0034 64.0662L93.7148 62.321Z" fill="#F28F8F"/>
<path d="M92.0027 68.4259C91.0144 68.551 88.9753 68.4697 88.6562 67.6941C88.7719 68.0751 89.0264 68.3988 89.3693 68.6011C89.9948 69.0014 92.0027 69.089 92.0027 69.089V68.4259Z" fill="#F28F8F"/>
<path d="M85.4035 85.5024L84.9844 84.0137L86.0853 85.321L85.4035 85.5024Z" fill="#101B94"/>
<path d="M84.5823 85.7212C84.1331 83.5812 83.5246 81.4778 82.762 79.4285C81.7112 76.5449 82.8871 74.0554 83.594 73.5049C84.3008 72.9545 87.8975 71.6597 87.8975 71.6597C89.1985 75.3627 89.5551 80.323 89.5863 84.3826L84.5823 85.7212Z" fill="#101B94"/>
<path opacity="0.4" d="M84.5823 85.7212C84.1331 83.5812 83.5246 81.4778 82.762 79.4285C81.7112 76.5449 82.8871 74.0554 83.594 73.5049C84.3008 72.9545 87.8975 71.6597 87.8975 71.6597C89.1985 75.3627 89.5551 80.323 89.5863 84.3826L84.5823 85.7212Z" fill="black"/>
<path d="M82.8063 86.1965L79.2346 87.1535C79.1348 87.0863 79.0406 87.011 78.9531 86.9283C78.9531 86.9283 80.642 80.4105 81.1799 78.2463C81.7179 76.082 82.1307 74.5933 83.5819 73.5049C86.1903 75.2 84.983 79.9101 84.983 79.9101L82.8063 86.1965Z" fill="#101B94"/>
<path opacity="0.4" d="M82.8063 86.1965L79.2346 87.1535C79.1348 87.0863 79.0406 87.011 78.9531 86.9283C78.9531 86.9283 80.642 80.4105 81.1799 78.2463C81.7179 76.082 82.1307 74.5933 83.5819 73.5049C86.1903 75.2 84.983 79.9101 84.983 79.9101L82.8063 86.1965Z" fill="black"/>
</g>
<path d="M30.8014 44.5444V32.153C30.7639 29.751 32.3277 27.3428 35.499 25.5163C41.7541 21.8946 51.9249 21.8946 58.1926 25.5163C61.3639 27.3428 62.9277 29.751 62.8902 32.153V44.5006C62.8902 46.89 61.3514 51.1623 58.1926 52.9825C51.9375 56.6042 41.7667 56.6042 35.499 52.9825C32.3715 51.181 30.8077 46.9401 30.8014 44.5694V44.5444Z" fill="#EBEBEB"/>
<path d="M46.8451 16.7778L73.3229 32.0653L46.8451 47.3528L20.3672 32.0653L46.8451 16.7778Z" fill="#F5F5F5"/>
<path d="M33.5977 39.703L46.6396 32.2594C46.6934 32.2286 46.7527 32.2087 46.8142 32.2008C46.8757 32.193 46.9381 32.1973 46.998 32.2136C47.0578 32.2298 47.1138 32.2577 47.1629 32.2956C47.2119 32.3335 47.253 32.3808 47.2838 32.4346C47.3146 32.4884 47.3345 32.5477 47.3424 32.6092C47.3503 32.6707 47.346 32.7331 47.3297 32.793C47.3134 32.8528 47.2855 32.9088 47.2476 32.9579C47.2097 33.0069 47.1625 33.048 47.1087 33.0788L34.5297 40.2409L33.5977 39.703Z" fill="#E0E0E0"/>
<path d="M73.3216 32.0657V33.1603L46.8438 48.4415V47.3532L73.3216 32.0657Z" fill="#E6E6E6"/>
<path d="M20.3672 32.0657V33.1603L46.8451 48.4415V47.3532L20.3672 32.0657Z" fill="#F0F0F0"/>
<path d="M32.9414 40.4158L33.7483 40.8787C33.8703 40.6795 34.0402 40.5139 34.2425 40.397L34.5239 40.2344L33.6045 39.709C33.3328 39.8914 33.1061 40.1331 32.9414 40.4158Z" fill="#E0E0E0"/>
<path d="M62.92 39.1648L46.8443 50.08L30.8125 39.1898L46.8443 48.4411L62.92 39.1648Z" fill="#E0E0E0"/>
<path d="M31.908 53.2888C32.1323 53.4046 32.3811 53.465 32.6336 53.465C32.886 53.465 33.1348 53.4046 33.3591 53.2888L34.5539 61.0014C34.5539 62.4588 30.7695 62.4588 30.7695 61.0014L31.908 53.2888Z" fill="#F5F5F5"/>
<path d="M31.8379 57.6926L31.6002 61.9211C31.5222 61.8974 31.4467 61.866 31.375 61.8273L31.8379 57.6926Z" fill="#EBEBEB"/>
<path d="M33.6293 61.9524L33.1289 55.0718L33.8733 61.8523C33.794 61.8905 33.7125 61.9239 33.6293 61.9524Z" fill="#EBEBEB"/>
<path d="M32.7768 62.0901H32.5391L32.6642 56.6294L32.7768 62.0901Z" fill="#EBEBEB"/>
<path d="M32.6289 53.9332C32.9062 53.9263 33.1747 53.8346 33.3983 53.6705C33.4933 53.6003 33.558 53.4964 33.5789 53.3801C33.5998 53.2638 33.5755 53.1439 33.5109 53.045C33.4426 52.9476 33.3391 52.8807 33.2222 52.8585C33.1054 52.8364 32.9846 52.8606 32.8854 52.9261C32.8258 52.9838 32.7462 53.0161 32.6633 53.0161C32.5804 53.0161 32.5008 52.9838 32.4413 52.9261C32.3926 52.8828 32.3355 52.8501 32.2735 52.8301C32.2115 52.8101 32.146 52.8032 32.0812 52.8098C32.0164 52.8165 31.9538 52.8366 31.8972 52.8688C31.8406 52.9011 31.7913 52.9447 31.7525 52.997C31.7137 53.0494 31.6862 53.1092 31.6718 53.1727C31.6574 53.2362 31.6563 53.302 31.6688 53.366C31.6812 53.4299 31.7068 53.4906 31.7439 53.5441C31.7811 53.5976 31.829 53.6428 31.8845 53.6767C32.0998 53.8378 32.3601 53.9275 32.6289 53.9332Z" fill="#E0E0E0"/>
<path d="M32.6574 52.7322C32.7187 52.7331 32.7796 52.7217 32.8365 52.6988C32.8934 52.6759 32.9451 52.642 32.9888 52.5989C33.0324 52.5558 33.0671 52.5045 33.0907 52.4479C33.1144 52.3914 33.1266 52.3307 33.1266 52.2694V41.3354C33.1272 41.0896 33.1922 40.8482 33.3151 40.6353C33.438 40.4224 33.6145 40.2454 33.8271 40.1219L47.1067 32.5533C47.2122 32.4929 47.2897 32.3934 47.3224 32.2764C47.3552 32.1593 47.3406 32.0341 47.2819 31.9277C47.2526 31.8749 47.2131 31.8284 47.1657 31.791C47.1182 31.7535 47.0639 31.7258 47.0057 31.7095C46.9475 31.6932 46.8867 31.6887 46.8267 31.6961C46.7667 31.7034 46.7088 31.7227 46.6564 31.7526L33.3455 39.3338C32.9907 39.5386 32.6959 39.8331 32.4906 40.1877C32.2853 40.5422 32.1768 40.9445 32.1758 41.3542V52.2881C32.1782 52.3489 32.1926 52.4086 32.2181 52.4639C32.2436 52.5191 32.2798 52.5688 32.3245 52.61C32.3693 52.6513 32.4217 52.6833 32.4788 52.7043C32.5359 52.7253 32.5966 52.7347 32.6574 52.7322Z" fill="#FAFAFA"/>
<path d="M33.6845 52.2694C33.6857 52.0662 33.6266 51.8673 33.5146 51.6978C33.4027 51.5283 33.2429 51.3958 33.0556 51.3172C32.8682 51.2386 32.6618 51.2174 32.4624 51.2563C32.263 51.2951 32.0796 51.3923 31.9355 51.5356C31.7914 51.6788 31.6931 51.8615 31.653 52.0607C31.6129 52.2599 31.6328 52.4664 31.7103 52.6543C31.7878 52.8421 31.9192 53.0027 32.0881 53.1156C32.2569 53.2286 32.4555 53.289 32.6586 53.289C32.7931 53.2898 32.9263 53.264 33.0507 53.2132C33.1752 53.1623 33.2883 53.0873 33.3836 52.9926C33.479 52.8978 33.5546 52.7851 33.6063 52.661C33.6579 52.5369 33.6845 52.4038 33.6845 52.2694Z" fill="#F5F5F5"/>
<path d="M31.6438 52.3257C31.6865 52.4316 31.7515 52.5269 31.8344 52.6054C31.9173 52.6838 32.0162 52.7434 32.1242 52.7802C32.2322 52.817 32.3469 52.8301 32.4605 52.8186C32.574 52.8071 32.6837 52.7713 32.7822 52.7135C32.9078 52.6379 33.0118 52.531 33.0839 52.4033C33.1561 52.2756 33.194 52.1315 33.194 51.9848C33.194 51.8382 33.1561 51.694 33.0839 51.5663C33.0118 51.4386 32.9078 51.3318 32.7822 51.2561C32.9736 51.2825 33.1535 51.3627 33.301 51.4874C33.4485 51.6121 33.5576 51.7762 33.6155 51.9604C33.6734 52.1447 33.6778 52.3417 33.6281 52.5283C33.5784 52.715 33.4768 52.8837 33.3349 53.0148C33.1931 53.146 33.0169 53.2341 32.8269 53.269C32.6369 53.3038 32.4409 53.284 32.2617 53.2118C32.0825 53.1396 31.9276 53.018 31.8149 52.8611C31.7021 52.7042 31.6363 52.5186 31.625 52.3257H31.6438Z" fill="#EBEBEB"/>
<path d="M213.878 46.2332L209.043 43.4497L211.701 42.8867L214.347 44.732L213.878 46.2332Z" fill="#E0E0E0"/>
<path d="M205.416 21.3186C205.416 13.8125 200.818 10.3284 195.17 13.5873L186.826 18.4037C181.196 21.6626 176.586 30.4448 176.586 37.976C176.586 38.2825 176.586 38.6015 176.586 38.8704C176.586 39.0393 176.586 39.1832 176.586 39.3458C176.586 39.5085 176.617 39.6398 176.63 39.7837C176.642 39.9276 176.667 40.1152 176.692 40.2778C176.818 41.1667 177.04 42.0392 177.355 42.88C177.487 43.1927 177.624 43.5055 177.774 43.7682C177.844 43.9133 177.923 44.0533 178.012 44.1873L178.093 44.3186C178.233 44.5427 178.394 44.7523 178.575 44.9442C178.675 45.0567 178.769 45.1756 178.875 45.2819L179.201 45.5947C179.313 45.6823 179.42 45.7886 179.538 45.8762C179.651 45.9667 179.77 46.0482 179.895 46.1201L180.264 46.3328C180.742 46.5908 181.26 46.7663 181.796 46.852C181.838 46.8419 181.88 46.8419 181.922 46.852C182.065 46.852 182.197 46.8832 182.341 46.8832C182.493 46.8957 182.645 46.8957 182.797 46.8832C183.199 46.8876 183.6 46.8435 183.992 46.7519C184.226 46.7053 184.458 46.6468 184.686 46.5767C185.417 46.3528 186.119 46.042 186.776 45.651L195.12 40.8345C195.692 40.5025 196.239 40.1304 196.759 39.7211C196.759 39.6211 196.759 39.5335 196.759 39.4397C196.759 39.3458 196.759 39.1457 196.759 39.0331C196.759 38.7829 196.759 38.5264 196.759 38.27C196.74 31.871 200.593 24.3211 205.416 21.3186Z" fill="#E0E0E0"/>
<path d="M206.824 15.9082L201.977 13.1184C202.008 13.1184 202.471 16.4899 202.471 16.4899L206.067 16.9153L206.824 15.9082Z" fill="#E0E0E0"/>
<path d="M184.424 48.6912L179.945 46.1516L182.641 44.9944L184.424 48.6912Z" fill="#E0E0E0"/>
<path d="M186.823 45.7263C186.791 47.58 186.196 49.38 185.116 50.8868C184.915 51.1495 185.222 51.381 185.447 51.2621C186.469 50.7316 187.375 50.0021 188.112 49.1166C189.527 47.4446 190.516 45.4552 190.995 43.3181L186.823 45.7263Z" fill="#E0E0E0"/>
<path d="M185.168 51.2497L190.016 54.0395C190.016 54.0395 192.737 51.7438 192.737 47.0963L187.476 46.7397C187.476 46.7397 187.351 49.7672 185.168 51.2497Z" fill="#E0E0E0"/>
<path d="M198.078 37.5759C198.078 37.8094 198.078 38.0346 198.078 38.2515C198.078 38.3766 198.078 38.4829 198.078 38.6018C198.078 38.7206 198.078 38.8207 198.116 38.9333C198.153 39.0459 198.116 39.1835 198.159 39.3086C198.232 39.8627 198.362 40.4077 198.547 40.9349C198.574 41.0309 198.607 41.125 198.647 41.2164C198.693 41.342 198.745 41.4652 198.804 41.5854C198.852 41.7017 198.909 41.8145 198.973 41.9232C199.022 42.0322 199.081 42.1368 199.148 42.236L199.21 42.3361C199.321 42.5084 199.442 42.6734 199.573 42.8302C199.641 42.9214 199.717 43.0071 199.798 43.0867L200.036 43.3181C200.117 43.3942 200.203 43.4652 200.292 43.5308C200.378 43.597 200.468 43.6576 200.561 43.7122C200.655 43.7685 200.743 43.8248 200.843 43.8748L201.131 44.0124L201.431 44.1188C201.614 44.1742 201.8 44.2201 201.988 44.2564H202.081C202.185 44.2659 202.29 44.2659 202.394 44.2564C202.506 44.2691 202.62 44.2691 202.732 44.2564C203.001 44.2563 203.269 44.229 203.533 44.1751C203.744 44.1392 203.953 44.0912 204.158 44.0312C204.707 43.8629 205.234 43.6298 205.728 43.3369L211.983 39.7214C212.541 39.3994 213.067 39.0245 213.553 38.6018C213.728 38.4516 213.904 38.289 214.079 38.1264C214.394 37.8326 214.693 37.5215 214.973 37.1944L215.373 36.8316C215.48 36.7065 215.58 36.5751 215.686 36.4437C215.712 36.3983 215.744 36.3563 215.78 36.3186C216.197 35.7679 216.581 35.1936 216.931 34.5985C217.025 34.4421 217.112 34.2795 217.206 34.1168C217.3 33.9542 217.388 33.7916 217.475 33.6227C217.563 33.4538 217.644 33.2849 217.732 33.1223L217.969 32.6094C218.051 32.4405 218.126 32.2591 218.201 32.0964C218.332 31.7962 218.451 31.4709 218.557 31.1832C218.557 31.1269 218.601 31.0706 218.62 31.0143C218.689 30.8392 218.745 30.664 218.801 30.4889C218.914 30.1511 219.014 29.8133 219.114 29.463C219.334 28.6409 219.499 27.8051 219.608 26.961C219.608 26.8171 219.639 26.6795 219.658 26.5357C219.677 26.3918 219.658 26.2917 219.69 26.1666C219.721 26.0415 219.69 25.9164 219.69 25.7913C219.69 25.5578 219.69 25.3263 219.69 25.097C219.69 19.4674 216.243 16.834 212.002 19.2797L205.747 22.9014C201.525 25.3347 198.078 31.9213 198.078 37.5759Z" fill="#E0E0E0"/>
<path d="M221.948 21.6815L217.138 18.9167L215.324 20.199L220.935 23.5956L221.948 21.6815Z" fill="#E0E0E0"/>
<path d="M205.433 46.4955L200.598 43.712L204.388 42.5798L205.433 46.4955Z" fill="#E0E0E0"/>
<path d="M211.078 40.3281C211.078 41.3289 212.329 42.6926 213.761 42.949C213.955 42.9865 213.905 43.4119 213.673 43.5745C212.82 44.0382 211.835 44.2012 210.877 44.0374C210.256 44.0189 209.65 43.8353 209.122 43.5056C208.595 43.1758 208.164 42.7117 207.875 42.1609L211.078 40.3281Z" fill="#101B94"/>
<path d="M200.01 16.3712L191.659 21.1939C186.03 24.4528 181.426 33.235 181.426 40.7599C181.426 41.0727 181.426 41.3854 181.426 41.6607C181.426 41.8295 181.426 41.9734 181.426 42.136C181.426 42.2987 181.457 42.4238 181.476 42.5676C181.495 42.7115 181.513 42.9117 181.538 43.0681C181.651 43.9536 181.861 44.8241 182.164 45.6639C182.295 45.9829 182.433 46.2894 182.583 46.5584C182.652 46.7017 182.731 46.8396 182.821 46.9712C182.847 47.0169 182.876 47.0608 182.908 47.1026C183.044 47.339 183.203 47.5611 183.384 47.7656C183.484 47.8782 183.584 48.0033 183.69 48.1034L184.009 48.4162C184.122 48.5037 184.234 48.6101 184.347 48.6977C184.46 48.7867 184.579 48.8682 184.703 48.9416L185.079 49.1543C185.555 49.4113 186.071 49.5868 186.605 49.6734C186.646 49.6596 186.69 49.6596 186.73 49.6734C186.874 49.6734 187.012 49.6734 187.149 49.6734C187.301 49.6827 187.454 49.6827 187.606 49.6734C188.008 49.6752 188.409 49.6311 188.801 49.5421C189.035 49.4955 189.267 49.437 189.495 49.3669C190.224 49.1411 190.925 48.8326 191.584 48.4474C191.553 50.3003 190.955 52.0992 189.87 53.6017C189.67 53.8706 189.977 54.1021 190.208 53.9832C191.232 53.4521 192.138 52.7203 192.873 51.8315C194.284 50.1593 195.273 48.1729 195.756 46.0392L195.131 46.3833L199.903 43.631C200.365 43.3649 200.81 43.0703 201.236 42.749C201.199 42.5903 201.172 42.4294 201.154 42.2674C201.154 42.1611 201.117 42.0047 201.104 41.8421C201.082 41.7033 201.067 41.5634 201.061 41.423V41.3479C201.054 41.2437 201.054 41.1393 201.061 41.0351C201.061 40.7974 201.061 40.5472 201.061 40.297C201.061 33.9669 204.814 26.8298 209.643 24.0338L210.174 23.721C210.124 16.4838 205.577 13.1561 200.01 16.3712Z" fill="#F0F0F0"/>
<path d="M216.868 22.0507L210.613 25.6661C206.379 28.1181 202.926 34.7048 202.926 40.3594C202.926 40.5908 202.926 40.816 202.926 41.0349C202.926 41.2539 202.926 41.2664 202.926 41.3852C202.926 41.5041 202.926 41.6041 202.957 41.7167C202.967 41.8406 202.984 41.9637 203.007 42.0858C203.076 42.6426 203.206 43.1901 203.395 43.7184C203.419 43.8153 203.452 43.9096 203.495 43.9998C203.537 44.1238 203.588 44.245 203.645 44.3626C203.695 44.4803 203.752 44.5951 203.814 44.7067C203.866 44.8158 203.926 44.9204 203.995 45.0194C204.01 45.0549 204.029 45.0885 204.052 45.1195C204.171 45.2947 204.289 45.4573 204.415 45.6137C204.487 45.7034 204.564 45.7891 204.646 45.8701L204.884 46.1016C204.965 46.1776 205.05 46.2487 205.14 46.3142C205.223 46.3818 205.31 46.4424 205.403 46.4956C205.497 46.5519 205.584 46.6082 205.684 46.6583L205.972 46.7959L206.272 46.9022C206.455 46.9576 206.641 47.0036 206.829 47.0398H206.923C207.027 47.0494 207.132 47.0494 207.236 47.0398C207.35 47.0557 207.465 47.0557 207.58 47.0398C207.848 47.0414 208.116 47.0162 208.38 46.9648C208.591 46.9285 208.8 46.8804 209.006 46.8209C209.556 46.655 210.083 46.4218 210.576 46.1266L212.69 44.9131C212.983 45.4581 213.415 45.9159 213.943 46.24C214.47 46.564 215.074 46.7429 215.692 46.7583C216.651 46.9198 217.635 46.7546 218.488 46.2892C218.714 46.1453 218.77 45.72 218.57 45.6637C217.137 45.4072 215.893 44.0436 215.893 43.0428L216.843 42.4924C217.4 42.1688 217.926 41.794 218.413 41.3727C218.589 41.2226 218.764 41.0599 218.933 40.8973C219.25 40.6037 219.551 40.2925 219.833 39.9653C219.946 39.8339 220.059 39.7088 220.171 39.5587C220.284 39.4086 220.378 39.3085 220.484 39.1772L220.578 39.0521C220.994 38.5014 221.378 37.927 221.729 37.3319L222.01 36.8503C222.104 36.6876 222.192 36.525 222.279 36.3561C222.367 36.1872 222.442 36.0183 222.529 35.8557L222.773 35.3428C222.855 35.1676 222.923 34.9925 222.998 34.8299C223.13 34.5296 223.255 34.2043 223.361 33.9166L223.418 33.7477C223.486 33.5726 223.549 33.3974 223.599 33.2223C223.718 32.8783 223.812 32.5467 223.918 32.1965C224.138 31.3743 224.303 30.5385 224.412 29.6944C224.412 29.5505 224.443 29.4129 224.456 29.2691C224.468 29.1252 224.456 29.0189 224.487 28.9C224.518 28.7812 224.487 28.6498 224.487 28.5247C224.487 28.2933 224.487 28.0556 224.487 27.8241C224.556 22.2133 221.103 19.6049 216.868 22.0507Z" fill="#F0F0F0"/>
<path d="M166.614 104.794C164.249 104.056 161.822 105.97 160.234 109.835C158.645 113.701 155.311 123.534 154.817 126.155C154.323 128.776 165.507 134.48 165.194 134.33C164.881 134.18 166.614 104.794 166.614 104.794Z" fill="#263238"/>
<path d="M161.414 195.78C161.077 195.905 160.995 196.543 160.945 197.807C160.908 198.764 160.701 200.434 161.821 200.766C162.941 201.097 164.586 200.928 165.305 200.027C166.2 198.902 166.806 197.913 168.082 196.537C169.196 195.349 170.391 194.235 170.841 192.565C171.247 191.051 170.91 190.401 169.878 189.963C168.464 189.337 166.237 191.327 165.13 191.639C164.173 191.908 161.746 195.655 161.414 195.78Z" fill="#263238"/>
<path d="M161.414 194.611V196.162C161.996 196.534 162.669 196.741 163.36 196.76C164.051 196.779 164.734 196.609 165.336 196.268C165.405 196.118 165.743 194.048 165.743 194.048L161.414 194.611Z" fill="#FFA8A7"/>
<path d="M173.983 204.725C173.983 204.725 173.539 206.076 173.301 207.227C173.107 208.165 172.838 209.729 173.164 210.442C173.489 211.155 174.778 211.606 176.76 211.587C178.049 211.587 180.057 212.456 181.427 213.22C182.797 213.983 185.805 214.327 187.3 214.152C189.064 213.945 190.897 212.901 191.185 212.187C191.472 211.474 191.091 210.692 186.925 208.916C186.887 208.916 181.133 207.039 179.112 204.806L173.983 204.725Z" fill="#263238"/>
<path d="M173.98 203.049C173.98 203.049 173.98 204.2 173.98 204.857C173.98 205.513 174.756 206.495 176.77 206.427C178.184 206.377 179.166 205.995 179.11 204.832V203.149L173.98 203.049Z" fill="#FFA8A7"/>
<path d="M160.401 174.012C160.747 171.263 161.36 168.554 162.233 165.924C162.233 165.924 161.683 158.95 161.414 152.338C161.126 145.195 161.414 136.213 161.295 134.436C161.295 134.436 184.345 129.77 184.758 138.027C185.171 146.283 183.845 167.301 183.576 170.929C183.307 174.556 182.675 177.765 181.925 183.645C181.174 189.525 179.11 203.149 179.11 203.149C178.312 203.555 177.427 203.758 176.533 203.741C175.638 203.723 174.761 203.486 173.981 203.049C173.981 203.049 172.36 186.535 172.529 182.35C172.661 179.242 173.195 176.164 174.118 173.193L173.299 160.464C172.911 154.54 172.504 151.707 172.411 149.123L171.916 148.873C171.916 148.873 171.41 159.094 171.141 162.722C170.872 166.35 170.29 169.828 169.264 176.564C168.351 182.407 165.643 194.773 165.643 194.773C163.009 196.199 161.439 194.592 161.439 194.592C161.439 194.592 159.7 179.079 160.401 174.012Z" fill="#455A64"/>
<path d="M172.412 149.142C172.412 149.142 166.819 146.383 164.023 143.9C164.023 143.9 166.619 147.559 170.035 149.186C170.035 149.186 171.248 161.877 171.242 161.627L171.942 149.117L172.412 149.142Z" fill="#37474F"/>
<path d="M177.39 102.179L176.027 109.685L169.246 109.191L170.666 100.677L177.39 102.179Z" fill="#FFA8A7"/>
<path d="M162.085 108.64C162.754 106.601 165.343 104.38 167.933 104.887C171.785 105.539 175.58 106.486 179.286 107.721C181.657 108.565 183.815 110.617 184.015 118.423L185.216 141.667L182.345 142.293L181.344 137.026L180.881 142.293C177.879 143.043 172.668 142.424 169.247 141.667C162.116 140.11 161.259 137.151 161.259 137.151C161.259 137.151 161.165 124.072 161.378 118.423C161.578 113.594 161.622 110.016 162.085 108.64Z" fill="#37474F"/>
<path d="M182.406 93.2839C182.406 93.2839 184.051 95.7172 183.839 95.9736C183.458 96.2299 183.034 96.4144 182.588 96.5178L182.406 93.2839Z" fill="#FFA8A7"/>
<path d="M177.391 85.5779C178.973 86.3786 181.707 87.8548 182.457 93.6408C183.233 99.5831 182.213 101.497 181.413 102.285C180.868 102.817 177.916 102.848 176.44 102.404C174.563 101.847 170.422 100.265 168.521 97.2124C166.282 93.622 165.781 88.8118 168.308 86.8978C171.855 84.2081 176.052 84.9024 177.391 85.5779Z" fill="#FFA8A7"/>
<path d="M182.79 87.5667C182.271 88.9928 181.395 92.4832 177.754 93.9406C177.754 93.9406 177.235 91.7138 175.365 91.9515C173.495 92.1892 173.176 94.5724 174.327 96.0549C175.478 97.5373 176.591 96.9994 176.591 96.9994C176.591 96.9994 176.841 100.189 174.715 101.634C174.715 101.634 172.144 103.261 169.423 102.01C168.172 101.447 166.464 98.5131 165.451 96.1049C163.299 91.0132 162.992 86.9287 166.239 85.6401C166.639 83.3257 167.684 82.4563 169.779 82.0247C174.289 81.0926 177.698 84.0576 181.489 83.5384C183.472 83.2632 183.384 85.9404 182.79 87.5667Z" fill="#37474F"/>
<path d="M166.162 86.4158L164.035 85.1022C164.118 84.9549 164.229 84.8257 164.363 84.7226C164.496 84.6194 164.649 84.5444 164.813 84.502C164.976 84.4596 165.147 84.4507 165.314 84.4759C165.481 84.5011 165.641 84.5598 165.784 84.6486C165.928 84.7373 166.052 84.8542 166.15 84.9922C166.247 85.1302 166.315 85.2865 166.35 85.4516C166.386 85.6167 166.387 85.7873 166.355 85.953C166.322 86.1187 166.257 86.2761 166.162 86.4158Z" fill="#37474F"/>
<path d="M176.889 104.912L177.665 107.158C177.665 107.158 177.096 108.159 174.675 108.209C172.254 108.259 169.671 107.489 168.87 106.457C168.688 106.255 168.553 106.015 168.475 105.754C168.397 105.494 168.378 105.219 168.42 104.95C168.42 104.95 169.383 102.823 170.296 102.917L170.146 103.843C170.146 103.843 170.353 104.599 172.548 105.181C175.964 106.088 176.889 104.912 176.889 104.912Z" fill="#455A64"/>
<path d="M196.344 119.837C197.32 118.717 197.695 116.234 198.996 114.532C200.297 112.831 200.779 111.586 201.292 112.331C201.973 113.313 200.435 115.283 200.779 115.458C201.123 115.633 202.392 118.248 202.524 119.687C202.655 121.125 198.84 124.753 198.84 124.753L196.344 119.837Z" fill="#FFA8A7"/>
<path d="M176.891 104.913C177.048 104.909 177.203 104.949 177.34 105.027C177.476 105.106 177.589 105.219 177.666 105.357C178.049 106.047 178.391 106.76 178.692 107.49L177.666 107.158L176.891 104.913Z" fill="#455A64"/>
<path d="M200.672 115.258C200.672 115.258 205.282 114.858 205.951 115.258C206.62 115.659 206.42 117.654 205.951 118.88C205.482 120.106 203.13 120.9 200.947 122.377C200.947 122.151 200.672 115.258 200.672 115.258Z" fill="#FFA8A7"/>
<path d="M178.693 107.515C180.676 108.209 182.409 109.003 184.26 112.481C186.637 116.947 191.141 124.091 191.141 124.091L196.326 119.518C196.326 119.518 197.108 118.761 198.566 121.17C198.993 121.818 199.263 122.557 199.355 123.327C199.448 124.098 199.359 124.88 199.097 125.611C199.097 125.611 193.111 132.635 191.967 133.705C190.822 134.774 188.927 133.942 187.694 132.26C186.462 130.577 178.675 120.851 178.675 120.851C178.675 120.851 174.446 115.233 178.693 107.515Z" fill="#37474F"/>
<path d="M232.18 95.8359H217.411C216.854 95.8359 216.319 95.6145 215.925 95.2204C215.531 94.8262 215.309 94.2916 215.309 93.7342V70.2713C215.309 68.4249 216.043 66.6541 217.349 65.3485C218.654 64.0429 220.425 63.3094 222.271 63.3094H227.338C229.181 63.3143 230.947 64.05 232.249 65.3551C233.55 66.6602 234.281 68.4281 234.281 70.2713V93.7342C234.281 94.2916 234.06 94.8262 233.666 95.2204C233.272 95.6145 232.737 95.8359 232.18 95.8359Z" fill="#37474F"/>
<path d="M214.923 87.8295C213.49 92.0516 211.088 104.199 211.088 104.199C211.088 104.199 206.084 110.317 204.452 111.799C203.557 112.625 201.543 114.107 201.543 114.107L205.202 116.797C208.506 114.256 211.609 111.464 214.485 108.446C215.124 107.766 215.573 106.929 215.786 106.019L218.288 95.2855C218.288 95.2855 218.288 86.6535 219.608 85.5213C220.928 84.3891 221.309 84.1514 221.309 84.1514C219.614 84.0263 216.049 84.508 214.923 87.8295Z" fill="#F28F8F"/>
<path d="M222.091 84.0262C219.758 83.7572 216.768 83.8073 215.31 86.4156C213.853 89.024 211.426 102.51 211.426 102.51C211.426 102.51 213.721 104.293 216.198 104.261L222.091 84.0262Z" fill="#101B94"/>
<path d="M215.603 96.5928C216.023 98.6032 216.185 100.659 216.084 102.71C215.903 105.412 214.039 110.129 214.039 110.129C214.039 110.129 215.496 111.73 219.606 111.086C222.953 110.567 221.77 100.452 219.85 98.5131C218.73 97.3561 217.211 96.6694 215.603 96.5928Z" fill="#101B94"/>
<path opacity="0.3" d="M215.603 96.5928C216.023 98.6032 216.185 100.659 216.084 102.71C215.903 105.412 214.039 110.129 214.039 110.129C214.039 110.129 215.496 111.73 219.606 111.086C222.953 110.567 221.77 100.452 219.85 98.5131C218.73 97.3561 217.211 96.6694 215.603 96.5928Z" fill="black"/>
<path d="M223.334 168.026C223.361 168.488 223.245 168.946 223.003 169.34C222.384 170.362 221.656 171.314 220.832 172.18C219.675 173.431 217.942 174.901 216.698 175.983C216.01 176.608 215.985 177.497 216.973 177.816C218.815 178.264 220.759 177.994 222.409 177.059C223.66 176.396 225.399 173.306 226.424 172.868C227.607 172.336 228.263 172.073 228.664 171.529C228.966 171.22 229.155 170.817 229.2 170.387C229.244 169.956 229.141 169.523 228.908 169.159C228.351 168.12 227.513 166.525 227.169 166.707L227.275 167.032C227.006 167.876 224.704 168.858 223.522 168.627L223.334 168.026Z" fill="#37474F"/>
<path d="M235.387 132.735C235.919 127.105 237.445 118.048 235.881 111.342L215.114 112.443C214.539 119.055 213.863 139.697 214.589 142.061C215.427 144.851 222.915 164.16 223.346 168.045C223.376 168.501 223.26 168.954 223.015 169.34C222.397 170.364 221.669 171.319 220.844 172.186C220.281 172.811 219.593 173.437 218.868 174.062C218.807 174.152 218.77 174.255 218.761 174.363C218.761 174.988 220.337 175.182 221.263 174.913C222.418 174.506 223.412 173.741 224.103 172.73C224.635 172.023 225.829 170.666 226.605 169.646C226.864 169.331 227.084 168.987 227.262 168.62C227.469 168.162 227.505 167.645 227.362 167.163L227.312 167.006C226.906 165.74 226.654 164.43 226.561 163.103C226.274 158.844 225.542 149.004 224.866 146.383C224.397 144.474 223.684 142.632 222.746 140.904L225.116 122.458C225.116 122.458 225.367 138.721 226.105 142.868C226.686 146.189 226.912 150.343 227.593 156.041C228.219 161.496 228.944 171.104 228.944 171.104C228.963 171.107 228.982 171.107 229.001 171.104V175.695H232.885V173.03C232.885 171.827 232.986 170.626 233.185 169.44C233.811 165.812 235.112 157.511 235.381 154.703C235.806 150.249 234.199 144.651 234.199 144.651C234.199 144.651 234.868 138.227 235.387 132.735Z" fill="#FFA8A7"/>
<path d="M228.07 84.2202C228.07 84.2202 233.655 84.8457 234.325 85.1647C229.083 88.849 233.33 97.0494 233.33 97.0494L231.322 103.348C233.555 106.207 235.482 107.908 236.677 111.042C238.003 114.545 239.179 119.755 238.866 130.433C233.862 134.186 218.637 133.779 212.707 130.433C212.707 130.433 213.708 121.007 214.89 113.682C215.672 108.847 217.517 103.58 217.204 101.797C214.853 94.5662 214.702 93.2651 215.128 91.6513C216.297 87.1101 220.926 84.0388 222.065 84.0388L228.07 84.2202Z" fill="#101B94"/>
<path opacity="0.6" d="M228.07 84.2202C228.07 84.2202 233.655 84.8457 234.325 85.1647C229.083 88.849 233.33 97.0494 233.33 97.0494L231.322 103.348C233.555 106.207 235.482 107.908 236.677 111.042C238.003 114.545 239.179 119.755 238.866 130.433C233.862 134.186 218.637 133.779 212.707 130.433C212.707 130.433 213.708 121.007 214.89 113.682C215.672 108.847 217.517 103.58 217.204 101.797C214.853 94.5662 214.702 93.2651 215.128 91.6513C216.297 87.1101 220.926 84.0388 222.065 84.0388L228.07 84.2202Z" fill="white"/>
<path d="M228.964 173.75V173.193C228.476 175.063 227.5 176.771 226.136 178.141C224.885 179.273 223.197 180.587 222.759 181.856C222.321 183.126 224.767 183.695 226.38 183.533C227.944 183.342 229.385 182.588 230.434 181.412C231.46 180.236 231.441 179.436 231.916 178.785C232.392 178.135 233.499 177.421 233.755 176.671C233.835 175.971 233.758 175.261 233.53 174.594C233.349 173.9 233.148 173.13 232.904 173.193V173.625C232.342 174.067 231.644 174.304 230.928 174.294C230.384 174.306 228.957 174.188 228.964 173.75Z" fill="#37474F"/>
<path d="M232.885 173.612C232.322 174.055 231.624 174.291 230.908 174.281C230.333 174.281 228.932 174.188 228.938 173.75V173.193C228.45 175.064 227.474 176.771 226.111 178.141L225.166 178.985C224.503 179.723 224.691 180.368 226.248 180.499C227.806 180.63 229.176 179.692 230.351 178.247C231.354 176.794 232.203 175.241 232.885 173.612Z" fill="#FFA8A7"/>
<path d="M218.425 67.144C217.424 67.7383 216.186 70.2716 216.305 75.5384C216.411 80.0171 217.862 81.1242 218.594 81.4432C219.326 81.7622 220.727 81.5683 222.091 81.3431V84.0266C222.091 84.0266 220.214 86.2221 220.321 87.4544C220.427 88.6866 223.048 88.9744 224.818 87.7734C226.096 86.7823 227.196 85.5809 228.071 84.2205L228.039 78.0467C228.039 78.0467 228.846 78.8223 230.21 77.6339C231.336 76.6518 231.711 74.9879 230.835 74.0997C230.608 73.8859 230.333 73.7296 230.033 73.6438C229.733 73.558 229.416 73.5451 229.11 73.6064C228.804 73.6676 228.517 73.801 228.273 73.9957C228.029 74.1903 227.836 74.4404 227.708 74.7252C227.708 74.7252 226.951 72.6173 223.805 71.5977C220.965 70.6532 219.42 69.5835 218.425 67.144Z" fill="#FFA8A7"/>
<path d="M221.309 74.4188C221.309 74.5291 221.341 74.6369 221.402 74.7288C221.463 74.8208 221.549 74.8929 221.651 74.9361C221.752 74.9793 221.864 74.9919 221.973 74.9721C222.081 74.9523 222.181 74.9011 222.261 74.8249C222.341 74.7486 222.396 74.6507 222.42 74.5432C222.445 74.4357 222.437 74.3233 222.399 74.2201C222.36 74.1169 222.291 74.0274 222.202 73.9626C222.113 73.8979 222.007 73.8608 221.897 73.8559C221.821 73.8542 221.746 73.8674 221.675 73.8948C221.605 73.9222 221.541 73.9632 221.486 74.0155C221.431 74.0678 221.388 74.1303 221.357 74.1995C221.327 74.2687 221.31 74.3432 221.309 74.4188Z" fill="#37474F"/>
<path d="M221.159 78.209L219.852 78.6281C219.875 78.7153 219.915 78.797 219.97 78.8683C220.026 78.9396 220.095 78.9989 220.174 79.0427C220.253 79.0865 220.34 79.1139 220.429 79.1233C220.519 79.1327 220.61 79.1238 220.696 79.0972C220.873 79.037 221.019 78.9112 221.105 78.7458C221.191 78.5804 221.211 78.3882 221.159 78.209Z" fill="#F28F8F"/>
<path d="M216.692 72.6857L217.83 71.8975C217.782 71.8205 217.719 71.7542 217.644 71.7024C217.57 71.6507 217.485 71.6146 217.396 71.5965C217.307 71.5784 217.216 71.5785 217.127 71.5969C217.038 71.6153 216.954 71.6516 216.879 71.7036C216.727 71.811 216.622 71.9735 216.587 72.1567C216.552 72.3399 216.59 72.5296 216.692 72.6857Z" fill="#37474F"/>
<path d="M222.945 73.1115L221.801 72.3234C221.849 72.2466 221.912 72.1803 221.987 72.1284C222.061 72.0766 222.145 72.0403 222.234 72.0216C222.322 72.0029 222.414 72.0023 222.503 72.0197C222.592 72.0372 222.676 72.0724 222.752 72.1232C222.903 72.2328 223.007 72.3957 223.043 72.5791C223.079 72.7626 223.044 72.9528 222.945 73.1115Z" fill="#37474F"/>
<path d="M216.953 74.0058C216.952 74.1163 216.983 74.2247 217.044 74.3175C217.104 74.4103 217.19 74.4833 217.291 74.5275C217.392 74.5717 217.504 74.5851 217.613 74.566C217.722 74.547 217.823 74.4963 217.903 74.4203C217.983 74.3443 218.04 74.2464 218.064 74.1387C218.089 74.0311 218.082 73.9185 218.044 73.8149C218.005 73.7113 217.937 73.6214 217.847 73.5564C217.758 73.4913 217.652 73.454 217.541 73.4491C217.39 73.4457 217.243 73.5023 217.133 73.6066C217.023 73.7108 216.958 73.8543 216.953 74.0058Z" fill="#37474F"/>
<path d="M219.609 73.6868L219.521 77.077L217.738 76.5266L219.609 73.6868Z" fill="#F28F8F"/>
<path d="M222.09 81.343C223.529 81.1491 226.468 80.2984 226.956 79.1287C226.771 79.7212 226.408 80.2428 225.918 80.6236C225.03 81.3805 222.09 82.2375 222.09 82.2375V81.343Z" fill="#F28F8F"/>
<path d="M232.291 99.9143L228.344 105.256L231.321 103.348L232.291 99.9143Z" fill="#101B94"/>
<path d="M201.198 114.107C200.353 115.196 199.834 117.31 199.39 118.023C198.946 118.736 198.414 119.355 199.39 119.487C200.366 119.618 201.792 117.71 202.323 116.553C202.593 115.901 203.1 115.375 203.743 115.083C203.287 114.927 203.524 113.094 203.205 112.838C203.205 112.838 201.542 113.519 201.198 114.107Z" fill="#F28F8F"/>
<path d="M200.949 122.364C201.831 121.707 201.862 120.9 202.031 119.618C202.2 118.336 205.734 116.947 205.847 117.904C205.96 118.861 206.279 119.662 205.221 120.825C204.164 121.989 202.563 123.227 200.949 122.364Z" fill="#F28F8F"/>
<path d="M228.069 84.2205C228.069 84.2205 233.298 84.6771 234.324 85.165C235.35 85.6529 237.057 88.6053 235.531 92.89C234.005 97.1748 232.616 102.216 232.773 103.23C232.929 104.243 236.576 109.485 236.576 109.485C235.57 110.227 234.432 110.773 233.223 111.092L231.346 107.014L231.784 111.349C229.899 111.807 227.963 112.017 226.023 111.974C226.023 111.974 224.253 95.3233 228.069 84.2205Z" fill="#101B94"/>
<path d="M240.956 104.643C241.375 102.179 240.956 101.372 240.093 98.9575L235.714 101.791C236.073 102.702 236.285 103.665 236.34 104.643C236.302 105.356 235.333 112.425 234.426 114.889C234.262 115.327 233.941 115.689 233.525 115.903C232.623 116.453 231.806 117.132 231.098 117.917C230.429 118.542 229.891 118.655 229.96 118.868C230.063 119.098 230.248 119.282 230.479 119.385C230.71 119.488 230.97 119.502 231.211 119.424C231.756 119.247 232.278 119.008 232.768 118.711C232.334 119.631 231.755 120.476 231.054 121.213C229.447 122.927 229.303 124.04 232.305 124.272C234.182 124.416 235.752 123.365 237.447 119.33C237.972 117.851 238.405 116.341 238.742 114.808C239.655 111.311 240.543 107.127 240.956 104.643Z" fill="#FFA8A7"/>
<path d="M234.324 85.1648C236.432 86.1093 237.033 87.9733 237.815 90.7131C238.597 93.4528 241.049 101.672 241.049 101.672C241.049 101.672 238.947 104.174 236.044 103.473L232.291 94.3598C232.291 94.3598 230.54 88.4112 234.324 85.1648Z" fill="#101B94"/>
</svg>
